<svg data-noselect="" viewBox="0 0 400 300" width="100" height="75" preserveAspectRatio="none" version="1.1" xmlns="http://www.w3.org/2000/svg" style="background: rgba(255, 255, 255, 0);"><defs></defs> <g id="shape_z1J3USw80j" transform="translate(109.29261121690261,36.77328019056386) rotate(0,74,74.99999999999999) scale(1.2257760063521286,1.2257760063521286)" filter="" style="cursor: move; opacity: 1;"><g><rect fill="rgba(0,0,0,0)" width="168" height="169.99999999999997" x="-10" y="-10"></rect><svg version="1.1" id="图层_1" xmlns="http://www.w3.org/2000/svg" xmlns:xlink="http://www.w3.org/1999/xlink" x="0px" y="0px" style="enable-background:new 0 0 283.46 226.77;" xml:space="preserve" viewBox="113.03500366210938 75.68399810791016 57.02799987792969 75.2959976196289" width="148" height="149.99999999999997" preserveAspectRatio="none" data-parent="shape_z1J3USw80j">
<g>
	<linearGradient id="SVGID_1_" gradientUnits="userSpaceOnUse" x1="129.0177" y1="76.3747" x2="163.151" y2="99.4377">
		<stop offset="0.2704" style="" stop-color="#E66A2B"></stop>
		<stop offset="1" style="" stop-color="#DC2E80"></stop>
	</linearGradient>
	<polygon style="" points="170.004,75.726 169.207,75.719 131.365,75.719 113.081,93.949 170.004,93.949 	" fill="url(#SVGID_1_)"></polygon>
	<linearGradient id="SVGID_2_" gradientUnits="userSpaceOnUse" x1="121.3128" y1="121.535" x2="150.2796" y2="150.5018">
		<stop offset="0" style="" stop-color="#73AF41"></stop>
		<stop offset="0.0787" style="" stop-color="#79B041"></stop>
		<stop offset="0.6545" style="" stop-color="#A2B541"></stop>
		<stop offset="0.9624" style="" stop-color="#AFB741"></stop>
	</linearGradient>
	<polygon style="" points="170.063,150.922 113.057,93.94 113.057,132.643 131.501,150.98 	" fill="url(#SVGID_2_)"></polygon>
	
		<linearGradient id="SVGID_3_" gradientUnits="userSpaceOnUse" x1="113.0566" y1="474.5587" x2="170.042" y2="474.5587" gradientTransform="matrix(1 0 0 -1 0 578.752)">
		<stop offset="0" style="" stop-color="#28569E"></stop>
		<stop offset="1" style="" stop-color="#34B5B5"></stop>
	</linearGradient>
	<polygon style="" points="170.042,75.719 113.057,132.703 113.057,94.002 131.368,75.684 	" fill="url(#SVGID_3_)"></polygon>
	<linearGradient id="SVGID_4_" gradientUnits="userSpaceOnUse" x1="127.6152" y1="150.1183" x2="167.7452" y2="126.1326">
		<stop offset="0" style="" stop-color="#F2C222"></stop>
		<stop offset="0.153" style="" stop-color="#F1BD24"></stop>
		<stop offset="0.3922" style="" stop-color="#EEAD27"></stop>
		<stop offset="0.6873" style="" stop-color="#EA912A"></stop>
		<stop offset="1" style="" stop-color="#E66A2B"></stop>
	</linearGradient>
	<polygon style="" points="169.981,132.678 113.035,132.678 131.412,150.935 169.57,150.935 169.981,150.951 	
		" fill="url(#SVGID_4_)"></polygon>
</g>
</svg></g> <!----></g><g id="shapge_Bu6QEZsKgR" transform="translate(76.10836748597765,212.00470163644684) rotate(0,101.072,20.893710558678848) scale(1.2257760063521286,1.2257760063521286)" filter="" style="cursor: move; opacity: 1;"><g><svg xmlns="http://www.w3.org/2000/svg" version="1.1" xmlns:xlink="http://www.w3.org/1999/xlink" overflow="hidden" style="top:0; left: 0" width="202.144" height="41.787421117357695" viewBox="0 0 202.144 41.787421117357695" preserveAspectRatio="none" data-parent="shapge_Bu6QEZsKgR"><rect fill="rgba(0,0,0,0)" width="202.144" height="41.787421117357695"></rect> <rect opacity="0"></rect><g transform="translate(2.774508081517922,0)" data-width="196.59498383696416"><path fill="#5DAB59" d="M1.39-2.16L1.39-14.28L0.73-14.98L6.19-14.98L6.19-4.72L20.84-4.72L20.84-14.28L20.18-14.98L25.64-14.98L25.64-1.43L25.64-1.43Q25.45-1.87 25.05-2.01L25.05-2.01L25.05-2.01Q24.65-2.16 24.32-2.16L24.32-2.16L1.39-2.16Z" transform="translate(0 31.459592234715387)"></path><path fill="#5DAB59" d="M24.90-4.72L24.90-1.43L24.90-1.43Q24.72-1.87 24.32-2.00L24.32-2.00L24.32-2.00Q23.92-2.12 23.59-2.12L23.59-2.12L6.26-2.12L6.26-12.45L0.73-12.45L0.73-15.64L1.90-14.98L6.26-14.98L6.26-17.47L5.60-18.20L11.02-18.20L11.02-14.98L24.94-14.98L24.94-11.68L24.94-11.68Q24.76-12.16 24.35-12.31L24.35-12.31L24.35-12.31Q23.95-12.45 23.62-12.45L23.62-12.45L11.02-12.45L11.02-4.72L24.90-4.72Z" transform="translate(26.368924806746307 31.459592234715387)"></path><path fill="#5DAB59" d="M1.43-14.72L1.43-18.31L0.73-19.04L6.19-19.04L6.19-14.72L1.43-14.72ZM1.43-2.12L1.43-12.49L6.19-12.49L6.19-2.12L1.43-2.12Z" transform="translate(52.04200298664792 31.459592234715387)"></path><path fill="#5DAB59" d="M1.39-2.12L1.39-18.31L0.73-19.04L6.15-19.04L6.15-2.12L1.39-2.12Z" transform="translate(58.96384574841883 31.459592234715387)"></path><path fill="#5DAB59" d="M1.39-7.47L1.39-14.28L0.73-14.98L25.64-14.98L25.64-11.68L25.64-11.68Q25.45-12.16 25.05-12.31L25.05-12.31L25.05-12.31Q24.65-12.45 24.32-12.45L24.32-12.45L6.19-12.45L6.19-10.03L25.64-10.03L25.64-1.43L25.64-1.43Q25.45-1.87 25.05-2.01L25.05-2.01L25.05-2.01Q24.65-2.16 24.32-2.16L24.32-2.16L1.39-2.16L1.39-5.35L2.56-4.72L20.84-4.72L20.84-7.47L1.39-7.47Z" transform="translate(65.8490650035137 31.459592234715387)"></path><path fill="#5DAB59" d="M24.21-18.31L24.21-2.16L19.45-2.16L19.45-8.20L2.05-8.20L2.05-8.20Q1.72-8.20 1.32-8.06L1.32-8.06L1.32-8.06Q0.92-7.91 0.73-7.43L0.73-7.43L0.73-19.04L6.19-19.04L5.53-18.31L5.53-10.73L19.45-10.73L19.45-19.04L24.90-19.04L24.21-18.31Z" transform="translate(92.21798981026001 31.459592234715387)"></path><path fill="#5DAB59" d="M1.39-2.12L1.39-12.45L0.73-13.15L25.34-13.15L25.34-9.85L25.34-9.85Q25.20-10.33 24.78-10.47L24.78-10.47L24.78-10.47Q24.35-10.62 24.03-10.62L24.03-10.62L6.19-10.62L6.19-4.69L25.34-4.69L25.34-1.43L25.34-1.43Q25.20-1.87 24.78-2.00L24.78-2.00L24.78-2.00Q24.35-2.12 24.03-2.12L24.03-2.12L1.39-2.12Z" transform="translate(117.8544444834856 31.459592234715387)"></path><path fill="#5DAB59" d="M25.60-13.15L25.60-1.57L25.60-1.57Q25.42-2.01 25.01-2.16L25.01-2.16L25.01-2.16Q24.61-2.31 24.24-2.31L24.24-2.31L6.15-2.31L6.15 5.02L1.39 5.02L1.39-12.45L0.73-13.15L25.60-13.15ZM6.15-10.58L6.15-4.87L20.84-4.87L20.84-10.58L6.15-10.58Z" transform="translate(143.93038123682362 31.459592234715387)"></path><path fill="#5DAB59" d="M25.60-13.15L25.60-1.57L25.60-1.57Q25.42-2.01 25.01-2.16L25.01-2.16L25.01-2.16Q24.61-2.31 24.24-2.31L24.24-2.31L6.15-2.31L6.15 5.02L1.39 5.02L1.39-12.45L0.73-13.15L25.60-13.15ZM6.15-10.58L6.15-4.87L20.84-4.87L20.84-10.58L6.15-10.58Z" transform="translate(170.2626825368939 31.459592234715387)"></path></g></svg></g> <!----></g>  <!----></svg>