<?xml version="1.0" encoding="UTF-8" standalone="no"?>
<!DOCTYPE svg PUBLIC "-//W3C//DTD SVG 1.1//EN"
 "http://www.w3.org/Graphics/SVG/1.1/DTD/svg11.dtd">
<!-- Generated by graphviz version 2.38.0 (20140413.2041)
 -->
<!-- Title: C:/Users/Lh/Documents/GitHub/utils4cpp/include/utils4cpp/core/Core.hpp Pages: 1 -->
<svg width="634pt" height="117pt"
 viewBox="0.00 0.00 634.00 117.00" xmlns="http://www.w3.org/2000/svg" xmlns:xlink="http://www.w3.org/1999/xlink">
<g id="graph0" class="graph" transform="scale(1 1) rotate(0) translate(4 113)">
<title>C:/Users/Lh/Documents/GitHub/utils4cpp/include/utils4cpp/core/Core.hpp</title>
<polygon fill="white" stroke="none" points="-4,4 -4,-113 630,-113 630,4 -4,4"/>
<!-- Node0 -->
<g id="node1" class="node"><title>Node0</title>
<g id="a_node1"><a xlink:title=" ">
<polygon fill="#bfbfbf" stroke="black" points="226.5,-67.5 226.5,-108.5 351.5,-108.5 351.5,-67.5 226.5,-67.5"/>
<text text-anchor="start" x="234.5" y="-96.5" font-family="Helvetica,sans-Serif" font-size="10.00">C:/Users/Lh/Documents</text>
<text text-anchor="start" x="234.5" y="-85.5" font-family="Helvetica,sans-Serif" font-size="10.00">/GitHub/utils4cpp/include</text>
<text text-anchor="middle" x="289" y="-74.5" font-family="Helvetica,sans-Serif" font-size="10.00">/utils4cpp/core/Core.hpp</text>
</a>
</g>
</g>
<!-- Node1 -->
<g id="node2" class="node"><title>Node1</title>
<g id="a_node2"><a xlink:href="_version_8hpp.html" target="_top" xlink:title=" ">
<polygon fill="white" stroke="black" points="0,-6 0,-25 132,-25 132,-6 0,-6"/>
<text text-anchor="middle" x="66" y="-13" font-family="Helvetica,sans-Serif" font-size="10.00">utils4cpp/core/Version.hpp</text>
</a>
</g>
</g>
<!-- Node0&#45;&gt;Node1 -->
<g id="edge1" class="edge"><title>Node0&#45;&gt;Node1</title>
<path fill="none" stroke="midnightblue" d="M227.178,-67.4554C187.228,-54.8254 136.582,-38.8141 102.83,-28.1435"/>
<polygon fill="midnightblue" stroke="midnightblue" points="103.518,-24.6902 92.9276,-25.013 101.407,-31.3646 103.518,-24.6902"/>
</g>
<!-- Node2 -->
<g id="node3" class="node"><title>Node2</title>
<g id="a_node3"><a xlink:href="_export_8hpp.html" target="_top" xlink:title=" ">
<polygon fill="white" stroke="black" points="150,-6 150,-25 278,-25 278,-6 150,-6"/>
<text text-anchor="middle" x="214" y="-13" font-family="Helvetica,sans-Serif" font-size="10.00">utils4cpp/core/Export.hpp</text>
</a>
</g>
</g>
<!-- Node0&#45;&gt;Node2 -->
<g id="edge2" class="edge"><title>Node0&#45;&gt;Node2</title>
<path fill="none" stroke="midnightblue" d="M268.108,-67.3618C256.25,-56.2148 241.614,-42.4576 230.556,-32.0628"/>
<polygon fill="midnightblue" stroke="midnightblue" points="232.911,-29.4723 223.227,-25.1734 228.116,-34.5727 232.911,-29.4723"/>
</g>
<!-- Node3 -->
<g id="node4" class="node"><title>Node3</title>
<g id="a_node4"><a xlink:href="_cpp_standard_detection_8hpp.html" target="_top" xlink:title=" ">
<polygon fill="white" stroke="black" points="296.5,-0.5 296.5,-30.5 433.5,-30.5 433.5,-0.5 296.5,-0.5"/>
<text text-anchor="start" x="304.5" y="-18.5" font-family="Helvetica,sans-Serif" font-size="10.00">utils4cpp/core/CppStandard</text>
<text text-anchor="middle" x="365" y="-7.5" font-family="Helvetica,sans-Serif" font-size="10.00">Detection.hpp</text>
</a>
</g>
</g>
<!-- Node0&#45;&gt;Node3 -->
<g id="edge3" class="edge"><title>Node0&#45;&gt;Node3</title>
<path fill="none" stroke="midnightblue" d="M310.17,-67.3618C320.11,-58.1412 331.975,-47.1346 342.122,-37.7224"/>
<polygon fill="midnightblue" stroke="midnightblue" points="344.535,-40.2584 349.486,-30.8916 339.774,-35.1264 344.535,-40.2584"/>
</g>
<!-- Node4 -->
<g id="node5" class="node"><title>Node4</title>
<g id="a_node5"><a xlink:href="_system_detection_8hpp.html" target="_top" xlink:title=" ">
<polygon fill="white" stroke="black" points="452,-6 452,-25 626,-25 626,-6 452,-6"/>
<text text-anchor="middle" x="539" y="-13" font-family="Helvetica,sans-Serif" font-size="10.00">utils4cpp/core/SystemDetection.hpp</text>
</a>
</g>
</g>
<!-- Node0&#45;&gt;Node4 -->
<g id="edge4" class="edge"><title>Node0&#45;&gt;Node4</title>
<path fill="none" stroke="midnightblue" d="M351.763,-69.3009C397.933,-56.2808 459.313,-38.9718 498.99,-27.7828"/>
<polygon fill="midnightblue" stroke="midnightblue" points="500.159,-31.0897 508.834,-25.0068 498.259,-24.3524 500.159,-31.0897"/>
</g>
</g>
</svg>
