<?xml version="1.0" encoding="UTF-8" standalone="no"?>
<!DOCTYPE svg PUBLIC "-//W3C//DTD SVG 1.1//EN"
 "http://www.w3.org/Graphics/SVG/1.1/DTD/svg11.dtd">
<!-- Generated by graphviz version 2.38.0 (20140413.2041)
 -->
<!-- Title: C:/Users/Shaoguang/Documents/GitHub/utils4cpp/src/Date.cpp Pages: 1 -->
<svg width="757pt" height="251pt"
 viewBox="0.00 0.00 757.00 251.00" xmlns="http://www.w3.org/2000/svg" xmlns:xlink="http://www.w3.org/1999/xlink">
<g id="graph0" class="graph" transform="scale(1 1) rotate(0) translate(4 247)">
<title>C:/Users/Shaoguang/Documents/GitHub/utils4cpp/src/Date.cpp</title>
<polygon fill="white" stroke="none" points="-4,4 -4,-247 753,-247 753,4 -4,4"/>
<!-- Node0 -->
<g id="node1" class="node"><title>Node0</title>
<g id="a_node1"><a xlink:title=" ">
<polygon fill="#bfbfbf" stroke="black" points="79,-201.5 79,-242.5 223,-242.5 223,-201.5 79,-201.5"/>
<text text-anchor="start" x="87" y="-230.5" font-family="Helvetica,sans-Serif" font-size="10.00">C:/Users/Shaoguang</text>
<text text-anchor="start" x="87" y="-219.5" font-family="Helvetica,sans-Serif" font-size="10.00">/Documents/GitHub/utils4cpp</text>
<text text-anchor="middle" x="151" y="-208.5" font-family="Helvetica,sans-Serif" font-size="10.00">/src/Date.cpp</text>
</a>
</g>
</g>
<!-- Node1 -->
<g id="node2" class="node"><title>Node1</title>
<g id="a_node2"><a xlink:title=" ">
<polygon fill="white" stroke="#bfbfbf" points="0,-140 0,-159 44,-159 44,-140 0,-140"/>
<text text-anchor="middle" x="22" y="-147" font-family="Helvetica,sans-Serif" font-size="10.00">time.h</text>
</a>
</g>
</g>
<!-- Node0&#45;&gt;Node1 -->
<g id="edge1" class="edge"><title>Node0&#45;&gt;Node1</title>
<path fill="none" stroke="midnightblue" d="M115.066,-201.362C93.2835,-189.457 66.0533,-174.576 46.6873,-163.992"/>
<polygon fill="midnightblue" stroke="midnightblue" points="48.324,-160.898 37.8704,-159.173 44.967,-167.04 48.324,-160.898"/>
</g>
<!-- Node2 -->
<g id="node3" class="node"><title>Node2</title>
<g id="a_node3"><a xlink:title=" ">
<polygon fill="white" stroke="#bfbfbf" points="62.5,-140 62.5,-159 109.5,-159 109.5,-140 62.5,-140"/>
<text text-anchor="middle" x="86" y="-147" font-family="Helvetica,sans-Serif" font-size="10.00">cwchar</text>
</a>
</g>
</g>
<!-- Node0&#45;&gt;Node2 -->
<g id="edge2" class="edge"><title>Node0&#45;&gt;Node2</title>
<path fill="none" stroke="midnightblue" d="M132.894,-201.362C122.816,-190.431 110.424,-176.991 100.91,-166.672"/>
<polygon fill="midnightblue" stroke="midnightblue" points="103.348,-164.153 93.9967,-159.173 98.202,-168.898 103.348,-164.153"/>
</g>
<!-- Node3 -->
<g id="node4" class="node"><title>Node3</title>
<g id="a_node4"><a xlink:title=" ">
<polygon fill="white" stroke="#bfbfbf" points="128,-140 128,-159 174,-159 174,-140 128,-140"/>
<text text-anchor="middle" x="151" y="-147" font-family="Helvetica,sans-Serif" font-size="10.00">cstring</text>
</a>
</g>
</g>
<!-- Node0&#45;&gt;Node3 -->
<g id="edge3" class="edge"><title>Node0&#45;&gt;Node3</title>
<path fill="none" stroke="midnightblue" d="M151,-201.362C151,-191.297 151,-179.104 151,-169.18"/>
<polygon fill="midnightblue" stroke="midnightblue" points="154.5,-169.173 151,-159.173 147.5,-169.173 154.5,-169.173"/>
</g>
<!-- Node4 -->
<g id="node5" class="node"><title>Node4</title>
<g id="a_node5"><a xlink:title=" ">
<polygon fill="white" stroke="#bfbfbf" points="192,-140 192,-159 242,-159 242,-140 192,-140"/>
<text text-anchor="middle" x="217" y="-147" font-family="Helvetica,sans-Serif" font-size="10.00">iomanip</text>
</a>
</g>
</g>
<!-- Node0&#45;&gt;Node4 -->
<g id="edge4" class="edge"><title>Node0&#45;&gt;Node4</title>
<path fill="none" stroke="midnightblue" d="M169.385,-201.362C179.618,-190.431 192.2,-176.991 201.86,-166.672"/>
<polygon fill="midnightblue" stroke="midnightblue" points="204.601,-168.866 208.88,-159.173 199.491,-164.082 204.601,-168.866"/>
</g>
<!-- Node5 -->
<g id="node6" class="node"><title>Node5</title>
<g id="a_node6"><a xlink:href="_date_8hpp.html" target="_top" xlink:title=" ">
<polygon fill="white" stroke="black" points="260,-134.5 260,-164.5 356,-164.5 356,-134.5 260,-134.5"/>
<text text-anchor="start" x="268" y="-152.5" font-family="Helvetica,sans-Serif" font-size="10.00">utils4cpp/datetime</text>
<text text-anchor="middle" x="308" y="-141.5" font-family="Helvetica,sans-Serif" font-size="10.00">/Date.hpp</text>
</a>
</g>
</g>
<!-- Node0&#45;&gt;Node5 -->
<g id="edge5" class="edge"><title>Node0&#45;&gt;Node5</title>
<path fill="none" stroke="midnightblue" d="M194.733,-201.362C217.439,-191.166 245.008,-178.786 267.262,-168.793"/>
<polygon fill="midnightblue" stroke="midnightblue" points="268.755,-171.959 276.444,-164.67 265.888,-165.574 268.755,-171.959"/>
</g>
<!-- Node6 -->
<g id="node7" class="node"><title>Node6</title>
<g id="a_node7"><a xlink:title=" ">
<polygon fill="white" stroke="#bfbfbf" points="157,-73 157,-92 203,-92 203,-73 157,-73"/>
<text text-anchor="middle" x="180" y="-80" font-family="Helvetica,sans-Serif" font-size="10.00">cstdint</text>
</a>
</g>
</g>
<!-- Node5&#45;&gt;Node6 -->
<g id="edge6" class="edge"><title>Node5&#45;&gt;Node6</title>
<path fill="none" stroke="midnightblue" d="M280.226,-134.396C258.065,-123.142 227.264,-107.501 205.674,-96.5375"/>
<polygon fill="midnightblue" stroke="midnightblue" points="207.253,-93.4141 196.752,-92.007 204.084,-99.6555 207.253,-93.4141"/>
</g>
<!-- Node7 -->
<g id="node8" class="node"><title>Node7</title>
<g id="a_node8"><a xlink:title=" ">
<polygon fill="white" stroke="#bfbfbf" points="221.5,-73 221.5,-92 262.5,-92 262.5,-73 221.5,-73"/>
<text text-anchor="middle" x="242" y="-80" font-family="Helvetica,sans-Serif" font-size="10.00">ctime</text>
</a>
</g>
</g>
<!-- Node5&#45;&gt;Node7 -->
<g id="edge7" class="edge"><title>Node5&#45;&gt;Node7</title>
<path fill="none" stroke="midnightblue" d="M293.679,-134.396C283.184,-124.06 268.932,-110.024 258.052,-99.309"/>
<polygon fill="midnightblue" stroke="midnightblue" points="260.409,-96.7177 250.828,-92.1945 255.497,-101.705 260.409,-96.7177"/>
</g>
<!-- Node8 -->
<g id="node9" class="node"><title>Node8</title>
<g id="a_node9"><a xlink:title=" ">
<polygon fill="white" stroke="#bfbfbf" points="281,-73 281,-92 335,-92 335,-73 281,-73"/>
<text text-anchor="middle" x="308" y="-80" font-family="Helvetica,sans-Serif" font-size="10.00">iostream</text>
</a>
</g>
</g>
<!-- Node5&#45;&gt;Node8 -->
<g id="edge8" class="edge"><title>Node5&#45;&gt;Node8</title>
<path fill="none" stroke="midnightblue" d="M308,-134.396C308,-125.064 308,-112.714 308,-102.517"/>
<polygon fill="midnightblue" stroke="midnightblue" points="311.5,-102.195 308,-92.1945 304.5,-102.195 311.5,-102.195"/>
</g>
<!-- Node9 -->
<g id="node10" class="node"><title>Node9</title>
<g id="a_node10"><a xlink:href="_core_8hpp.html" target="_top" xlink:title=" ">
<polygon fill="white" stroke="black" points="353.5,-73 353.5,-92 472.5,-92 472.5,-73 353.5,-73"/>
<text text-anchor="middle" x="413" y="-80" font-family="Helvetica,sans-Serif" font-size="10.00">utils4cpp/core/Core.hpp</text>
</a>
</g>
</g>
<!-- Node5&#45;&gt;Node9 -->
<g id="edge9" class="edge"><title>Node5&#45;&gt;Node9</title>
<path fill="none" stroke="midnightblue" d="M330.783,-134.396C348.555,-123.395 373.1,-108.2 390.737,-97.2819"/>
<polygon fill="midnightblue" stroke="midnightblue" points="392.598,-100.247 399.258,-92.007 388.913,-94.2947 392.598,-100.247"/>
</g>
<!-- Node14 -->
<g id="node15" class="node"><title>Node14</title>
<g id="a_node15"><a xlink:href="_date_time_global_8hpp.html" target="_top" xlink:title=" ">
<polygon fill="white" stroke="black" points="490.5,-67.5 490.5,-97.5 597.5,-97.5 597.5,-67.5 490.5,-67.5"/>
<text text-anchor="start" x="498.5" y="-85.5" font-family="Helvetica,sans-Serif" font-size="10.00">utils4cpp/datetime</text>
<text text-anchor="middle" x="544" y="-74.5" font-family="Helvetica,sans-Serif" font-size="10.00">/DateTimeGlobal.hpp</text>
</a>
</g>
</g>
<!-- Node5&#45;&gt;Node14 -->
<g id="edge14" class="edge"><title>Node5&#45;&gt;Node14</title>
<path fill="none" stroke="midnightblue" d="M356.043,-135.268C392.818,-125.139 443.783,-111.102 483.366,-100.2"/>
<polygon fill="midnightblue" stroke="midnightblue" points="484.457,-103.53 493.168,-97.5003 482.598,-96.7814 484.457,-103.53"/>
</g>
<!-- Node10 -->
<g id="node11" class="node"><title>Node10</title>
<g id="a_node11"><a xlink:href="_version_8hpp.html" target="_top" xlink:title=" ">
<polygon fill="white" stroke="black" points="123,-6 123,-25 255,-25 255,-6 123,-6"/>
<text text-anchor="middle" x="189" y="-13" font-family="Helvetica,sans-Serif" font-size="10.00">utils4cpp/core/Version.hpp</text>
</a>
</g>
</g>
<!-- Node9&#45;&gt;Node10 -->
<g id="edge10" class="edge"><title>Node9&#45;&gt;Node10</title>
<path fill="none" stroke="midnightblue" d="M383.255,-72.8685C343.397,-61.3027 272.566,-40.7489 228.336,-27.9145"/>
<polygon fill="midnightblue" stroke="midnightblue" points="229.091,-24.4892 218.512,-25.0637 227.14,-31.2119 229.091,-24.4892"/>
</g>
<!-- Node11 -->
<g id="node12" class="node"><title>Node11</title>
<g id="a_node12"><a xlink:href="_export_8hpp.html" target="_top" xlink:title=" ">
<polygon fill="white" stroke="black" points="273,-6 273,-25 401,-25 401,-6 273,-6"/>
<text text-anchor="middle" x="337" y="-13" font-family="Helvetica,sans-Serif" font-size="10.00">utils4cpp/core/Export.hpp</text>
</a>
</g>
</g>
<!-- Node9&#45;&gt;Node11 -->
<g id="edge11" class="edge"><title>Node9&#45;&gt;Node11</title>
<path fill="none" stroke="midnightblue" d="M402.75,-72.7338C390.557,-62.3055 369.983,-44.7088 355.092,-31.9732"/>
<polygon fill="midnightblue" stroke="midnightblue" points="356.962,-28.9671 347.087,-25.1273 352.412,-34.2869 356.962,-28.9671"/>
</g>
<!-- Node12 -->
<g id="node13" class="node"><title>Node12</title>
<g id="a_node13"><a xlink:href="_cpp_standard_detection_8hpp.html" target="_top" xlink:title=" ">
<polygon fill="white" stroke="black" points="419.5,-0.5 419.5,-30.5 556.5,-30.5 556.5,-0.5 419.5,-0.5"/>
<text text-anchor="start" x="427.5" y="-18.5" font-family="Helvetica,sans-Serif" font-size="10.00">utils4cpp/core/CppStandard</text>
<text text-anchor="middle" x="488" y="-7.5" font-family="Helvetica,sans-Serif" font-size="10.00">Detection.hpp</text>
</a>
</g>
</g>
<!-- Node9&#45;&gt;Node12 -->
<g id="edge12" class="edge"><title>Node9&#45;&gt;Node12</title>
<path fill="none" stroke="midnightblue" d="M423.115,-72.7338C433.543,-63.6959 450.184,-49.2739 464.002,-37.2982"/>
<polygon fill="midnightblue" stroke="midnightblue" points="466.479,-39.7833 471.743,-30.589 461.894,-34.4934 466.479,-39.7833"/>
</g>
<!-- Node13 -->
<g id="node14" class="node"><title>Node13</title>
<g id="a_node14"><a xlink:href="_system_detection_8hpp.html" target="_top" xlink:title=" ">
<polygon fill="white" stroke="black" points="575,-6 575,-25 749,-25 749,-6 575,-6"/>
<text text-anchor="middle" x="662" y="-13" font-family="Helvetica,sans-Serif" font-size="10.00">utils4cpp/core/SystemDetection.hpp</text>
</a>
</g>
</g>
<!-- Node9&#45;&gt;Node13 -->
<g id="edge13" class="edge"><title>Node9&#45;&gt;Node13</title>
<path fill="none" stroke="midnightblue" d="M445.808,-72.9355C490.409,-61.2928 570.238,-40.4539 619.413,-27.617"/>
<polygon fill="midnightblue" stroke="midnightblue" points="620.327,-30.9958 629.119,-25.0834 618.559,-24.2228 620.327,-30.9958"/>
</g>
</g>
</svg>
