<?xml version="1.0" encoding="UTF-8" standalone="no"?>
<!DOCTYPE svg PUBLIC "-//W3C//DTD SVG 1.1//EN"
 "http://www.w3.org/Graphics/SVG/1.1/DTD/svg11.dtd">
<!-- Generated by graphviz version 2.38.0 (20140413.2041)
 -->
<!-- Title: C:/Users/Shaoguang/Documents/GitHub/utils4cpp/src/DateTime.cpp Pages: 1 -->
<svg width="634pt" height="251pt"
 viewBox="0.00 0.00 634.00 251.00" xmlns="http://www.w3.org/2000/svg" xmlns:xlink="http://www.w3.org/1999/xlink">
<g id="graph0" class="graph" transform="scale(1 1) rotate(0) translate(4 247)">
<title>C:/Users/Shaoguang/Documents/GitHub/utils4cpp/src/DateTime.cpp</title>
<polygon fill="white" stroke="none" points="-4,4 -4,-247 630,-247 630,4 -4,4"/>
<!-- Node0 -->
<g id="node1" class="node"><title>Node0</title>
<g id="a_node1"><a xlink:title=" ">
<polygon fill="#bfbfbf" stroke="black" points="169,-201.5 169,-242.5 313,-242.5 313,-201.5 169,-201.5"/>
<text text-anchor="start" x="177" y="-230.5" font-family="Helvetica,sans-Serif" font-size="10.00">C:/Users/Shaoguang</text>
<text text-anchor="start" x="177" y="-219.5" font-family="Helvetica,sans-Serif" font-size="10.00">/Documents/GitHub/utils4cpp</text>
<text text-anchor="middle" x="241" y="-208.5" font-family="Helvetica,sans-Serif" font-size="10.00">/src/DateTime.cpp</text>
</a>
</g>
</g>
<!-- Node1 -->
<g id="node2" class="node"><title>Node1</title>
<g id="a_node2"><a xlink:href="_date_time_8hpp.html" target="_top" xlink:title=" ">
<polygon fill="white" stroke="black" points="193,-134.5 193,-164.5 289,-164.5 289,-134.5 193,-134.5"/>
<text text-anchor="start" x="201" y="-152.5" font-family="Helvetica,sans-Serif" font-size="10.00">utils4cpp/datetime</text>
<text text-anchor="middle" x="241" y="-141.5" font-family="Helvetica,sans-Serif" font-size="10.00">/DateTime.hpp</text>
</a>
</g>
</g>
<!-- Node0&#45;&gt;Node1 -->
<g id="edge1" class="edge"><title>Node0&#45;&gt;Node1</title>
<path fill="none" stroke="midnightblue" d="M241,-201.362C241,-193.226 241,-183.7 241,-175.105"/>
<polygon fill="midnightblue" stroke="midnightblue" points="244.5,-174.892 241,-164.892 237.5,-174.892 244.5,-174.892"/>
</g>
<!-- Node2 -->
<g id="node3" class="node"><title>Node2</title>
<g id="a_node3"><a xlink:title=" ">
<polygon fill="white" stroke="#bfbfbf" points="107,-73 107,-92 153,-92 153,-73 107,-73"/>
<text text-anchor="middle" x="130" y="-80" font-family="Helvetica,sans-Serif" font-size="10.00">cstdint</text>
</a>
</g>
</g>
<!-- Node1&#45;&gt;Node2 -->
<g id="edge2" class="edge"><title>Node1&#45;&gt;Node2</title>
<path fill="none" stroke="midnightblue" d="M216.915,-134.396C198.042,-123.344 171.942,-108.061 153.279,-97.1319"/>
<polygon fill="midnightblue" stroke="midnightblue" points="154.925,-94.04 144.527,-92.007 151.388,-100.081 154.925,-94.04"/>
</g>
<!-- Node3 -->
<g id="node4" class="node"><title>Node3</title>
<g id="a_node4"><a xlink:title=" ">
<polygon fill="white" stroke="#bfbfbf" points="171.5,-73 171.5,-92 212.5,-92 212.5,-73 171.5,-73"/>
<text text-anchor="middle" x="192" y="-80" font-family="Helvetica,sans-Serif" font-size="10.00">string</text>
</a>
</g>
</g>
<!-- Node1&#45;&gt;Node3 -->
<g id="edge3" class="edge"><title>Node1&#45;&gt;Node3</title>
<path fill="none" stroke="midnightblue" d="M230.368,-134.396C222.803,-124.361 212.609,-110.838 204.63,-100.253"/>
<polygon fill="midnightblue" stroke="midnightblue" points="207.369,-98.0729 198.554,-92.1945 201.779,-102.287 207.369,-98.0729"/>
</g>
<!-- Node4 -->
<g id="node5" class="node"><title>Node4</title>
<g id="a_node5"><a xlink:href="_core_8hpp.html" target="_top" xlink:title=" ">
<polygon fill="white" stroke="black" points="230.5,-73 230.5,-92 349.5,-92 349.5,-73 230.5,-73"/>
<text text-anchor="middle" x="290" y="-80" font-family="Helvetica,sans-Serif" font-size="10.00">utils4cpp/core/Core.hpp</text>
</a>
</g>
</g>
<!-- Node1&#45;&gt;Node4 -->
<g id="edge4" class="edge"><title>Node1&#45;&gt;Node4</title>
<path fill="none" stroke="midnightblue" d="M251.632,-134.396C259.197,-124.361 269.391,-110.838 277.37,-100.253"/>
<polygon fill="midnightblue" stroke="midnightblue" points="280.221,-102.287 283.446,-92.1945 274.631,-98.0729 280.221,-102.287"/>
</g>
<!-- Node9 -->
<g id="node10" class="node"><title>Node9</title>
<g id="a_node10"><a xlink:href="_date_time_global_8hpp.html" target="_top" xlink:title=" ">
<polygon fill="white" stroke="black" points="367.5,-67.5 367.5,-97.5 474.5,-97.5 474.5,-67.5 367.5,-67.5"/>
<text text-anchor="start" x="375.5" y="-85.5" font-family="Helvetica,sans-Serif" font-size="10.00">utils4cpp/datetime</text>
<text text-anchor="middle" x="421" y="-74.5" font-family="Helvetica,sans-Serif" font-size="10.00">/DateTimeGlobal.hpp</text>
</a>
</g>
</g>
<!-- Node1&#45;&gt;Node9 -->
<g id="edge9" class="edge"><title>Node1&#45;&gt;Node9</title>
<path fill="none" stroke="midnightblue" d="M280.057,-134.396C307.183,-124.601 343.514,-111.481 372.496,-101.015"/>
<polygon fill="midnightblue" stroke="midnightblue" points="373.802,-104.265 382.019,-97.5765 371.425,-97.6811 373.802,-104.265"/>
</g>
<!-- Node5 -->
<g id="node6" class="node"><title>Node5</title>
<g id="a_node6"><a xlink:href="_version_8hpp.html" target="_top" xlink:title=" ">
<polygon fill="white" stroke="black" points="0,-6 0,-25 132,-25 132,-6 0,-6"/>
<text text-anchor="middle" x="66" y="-13" font-family="Helvetica,sans-Serif" font-size="10.00">utils4cpp/core/Version.hpp</text>
</a>
</g>
</g>
<!-- Node4&#45;&gt;Node5 -->
<g id="edge5" class="edge"><title>Node4&#45;&gt;Node5</title>
<path fill="none" stroke="midnightblue" d="M260.255,-72.8685C220.397,-61.3027 149.566,-40.7489 105.336,-27.9145"/>
<polygon fill="midnightblue" stroke="midnightblue" points="106.091,-24.4892 95.5117,-25.0637 104.14,-31.2119 106.091,-24.4892"/>
</g>
<!-- Node6 -->
<g id="node7" class="node"><title>Node6</title>
<g id="a_node7"><a xlink:href="_export_8hpp.html" target="_top" xlink:title=" ">
<polygon fill="white" stroke="black" points="150,-6 150,-25 278,-25 278,-6 150,-6"/>
<text text-anchor="middle" x="214" y="-13" font-family="Helvetica,sans-Serif" font-size="10.00">utils4cpp/core/Export.hpp</text>
</a>
</g>
</g>
<!-- Node4&#45;&gt;Node6 -->
<g id="edge6" class="edge"><title>Node4&#45;&gt;Node6</title>
<path fill="none" stroke="midnightblue" d="M279.75,-72.7338C267.557,-62.3055 246.983,-44.7088 232.092,-31.9732"/>
<polygon fill="midnightblue" stroke="midnightblue" points="233.962,-28.9671 224.087,-25.1273 229.412,-34.2869 233.962,-28.9671"/>
</g>
<!-- Node7 -->
<g id="node8" class="node"><title>Node7</title>
<g id="a_node8"><a xlink:href="_cpp_standard_detection_8hpp.html" target="_top" xlink:title=" ">
<polygon fill="white" stroke="black" points="296.5,-0.5 296.5,-30.5 433.5,-30.5 433.5,-0.5 296.5,-0.5"/>
<text text-anchor="start" x="304.5" y="-18.5" font-family="Helvetica,sans-Serif" font-size="10.00">utils4cpp/core/CppStandard</text>
<text text-anchor="middle" x="365" y="-7.5" font-family="Helvetica,sans-Serif" font-size="10.00">Detection.hpp</text>
</a>
</g>
</g>
<!-- Node4&#45;&gt;Node7 -->
<g id="edge7" class="edge"><title>Node4&#45;&gt;Node7</title>
<path fill="none" stroke="midnightblue" d="M300.115,-72.7338C310.543,-63.6959 327.184,-49.2739 341.002,-37.2982"/>
<polygon fill="midnightblue" stroke="midnightblue" points="343.479,-39.7833 348.743,-30.589 338.894,-34.4934 343.479,-39.7833"/>
</g>
<!-- Node8 -->
<g id="node9" class="node"><title>Node8</title>
<g id="a_node9"><a xlink:href="_system_detection_8hpp.html" target="_top" xlink:title=" ">
<polygon fill="white" stroke="black" points="452,-6 452,-25 626,-25 626,-6 452,-6"/>
<text text-anchor="middle" x="539" y="-13" font-family="Helvetica,sans-Serif" font-size="10.00">utils4cpp/core/SystemDetection.hpp</text>
</a>
</g>
</g>
<!-- Node4&#45;&gt;Node8 -->
<g id="edge8" class="edge"><title>Node4&#45;&gt;Node8</title>
<path fill="none" stroke="midnightblue" d="M322.808,-72.9355C367.409,-61.2928 447.238,-40.4539 496.413,-27.617"/>
<polygon fill="midnightblue" stroke="midnightblue" points="497.327,-30.9958 506.119,-25.0834 495.559,-24.2228 497.327,-30.9958"/>
</g>
</g>
</svg>
