<?xml version="1.0" encoding="UTF-8" standalone="no"?>
<!DOCTYPE svg PUBLIC "-//W3C//DTD SVG 1.1//EN"
 "http://www.w3.org/Graphics/SVG/1.1/DTD/svg11.dtd">
<!-- Generated by graphviz version 2.38.0 (20140413.2041)
 -->
<!-- Title: C:/Users/Lh/Documents/GitHub/utils4cpp/src/Date.cpp Pages: 1 -->
<svg width="724pt" height="240pt"
 viewBox="0.00 0.00 724.00 240.00" xmlns="http://www.w3.org/2000/svg" xmlns:xlink="http://www.w3.org/1999/xlink">
<g id="graph0" class="graph" transform="scale(1 1) rotate(0) translate(4 236)">
<title>C:/Users/Lh/Documents/GitHub/utils4cpp/src/Date.cpp</title>
<polygon fill="white" stroke="none" points="-4,4 -4,-236 720,-236 720,4 -4,4"/>
<!-- Node0 -->
<g id="node1" class="node"><title>Node0</title>
<g id="a_node1"><a xlink:title=" ">
<polygon fill="#bfbfbf" stroke="black" points="57.5,-190.5 57.5,-231.5 178.5,-231.5 178.5,-190.5 57.5,-190.5"/>
<text text-anchor="start" x="65.5" y="-219.5" font-family="Helvetica,sans-Serif" font-size="10.00">C:/Users/Lh/Documents</text>
<text text-anchor="start" x="65.5" y="-208.5" font-family="Helvetica,sans-Serif" font-size="10.00">/GitHub/utils4cpp/src</text>
<text text-anchor="middle" x="118" y="-197.5" font-family="Helvetica,sans-Serif" font-size="10.00">/Date.cpp</text>
</a>
</g>
</g>
<!-- Node1 -->
<g id="node2" class="node"><title>Node1</title>
<g id="a_node2"><a xlink:title=" ">
<polygon fill="white" stroke="#bfbfbf" points="0,-129 0,-148 44,-148 44,-129 0,-129"/>
<text text-anchor="middle" x="22" y="-136" font-family="Helvetica,sans-Serif" font-size="10.00">time.h</text>
</a>
</g>
</g>
<!-- Node0&#45;&gt;Node1 -->
<g id="edge1" class="edge"><title>Node0&#45;&gt;Node1</title>
<path fill="none" stroke="midnightblue" d="M91.2586,-190.362C75.6376,-178.89 56.2523,-164.654 41.9669,-154.163"/>
<polygon fill="midnightblue" stroke="midnightblue" points="43.9423,-151.271 33.8106,-148.173 39.7989,-156.914 43.9423,-151.271"/>
</g>
<!-- Node2 -->
<g id="node3" class="node"><title>Node2</title>
<g id="a_node3"><a xlink:title=" ">
<polygon fill="white" stroke="#bfbfbf" points="62,-129 62,-148 108,-148 108,-129 62,-129"/>
<text text-anchor="middle" x="85" y="-136" font-family="Helvetica,sans-Serif" font-size="10.00">cstring</text>
</a>
</g>
</g>
<!-- Node0&#45;&gt;Node2 -->
<g id="edge2" class="edge"><title>Node0&#45;&gt;Node2</title>
<path fill="none" stroke="midnightblue" d="M108.808,-190.362C103.995,-180.081 98.1433,-167.579 93.4456,-157.543"/>
<polygon fill="midnightblue" stroke="midnightblue" points="96.4693,-155.746 89.0599,-148.173 90.1294,-158.714 96.4693,-155.746"/>
</g>
<!-- Node3 -->
<g id="node4" class="node"><title>Node3</title>
<g id="a_node4"><a xlink:title=" ">
<polygon fill="white" stroke="#bfbfbf" points="126,-129 126,-148 176,-148 176,-129 126,-129"/>
<text text-anchor="middle" x="151" y="-136" font-family="Helvetica,sans-Serif" font-size="10.00">iomanip</text>
</a>
</g>
</g>
<!-- Node0&#45;&gt;Node3 -->
<g id="edge3" class="edge"><title>Node0&#45;&gt;Node3</title>
<path fill="none" stroke="midnightblue" d="M127.192,-190.362C132.005,-180.081 137.857,-167.579 142.554,-157.543"/>
<polygon fill="midnightblue" stroke="midnightblue" points="145.871,-158.714 146.94,-148.173 139.531,-155.746 145.871,-158.714"/>
</g>
<!-- Node4 -->
<g id="node5" class="node"><title>Node4</title>
<g id="a_node5"><a xlink:href="_date_8hpp.html" target="_top" xlink:title=" ">
<polygon fill="white" stroke="black" points="194,-123.5 194,-153.5 290,-153.5 290,-123.5 194,-123.5"/>
<text text-anchor="start" x="202" y="-141.5" font-family="Helvetica,sans-Serif" font-size="10.00">utils4cpp/datetime</text>
<text text-anchor="middle" x="242" y="-130.5" font-family="Helvetica,sans-Serif" font-size="10.00">/Date.hpp</text>
</a>
</g>
</g>
<!-- Node0&#45;&gt;Node4 -->
<g id="edge4" class="edge"><title>Node0&#45;&gt;Node4</title>
<path fill="none" stroke="midnightblue" d="M152.541,-190.362C169.834,-180.53 190.698,-168.668 207.926,-158.873"/>
<polygon fill="midnightblue" stroke="midnightblue" points="210.114,-161.655 217.077,-153.67 206.654,-155.57 210.114,-161.655"/>
</g>
<!-- Node5 -->
<g id="node6" class="node"><title>Node5</title>
<g id="a_node6"><a xlink:title=" ">
<polygon fill="white" stroke="#bfbfbf" points="124,-67.5 124,-86.5 170,-86.5 170,-67.5 124,-67.5"/>
<text text-anchor="middle" x="147" y="-74.5" font-family="Helvetica,sans-Serif" font-size="10.00">cstdint</text>
</a>
</g>
</g>
<!-- Node4&#45;&gt;Node5 -->
<g id="edge5" class="edge"><title>Node4&#45;&gt;Node5</title>
<path fill="none" stroke="midnightblue" d="M219.486,-123.399C204.401,-113.951 184.615,-101.559 169.527,-92.1089"/>
<polygon fill="midnightblue" stroke="midnightblue" points="171.156,-88.9996 160.823,-86.6578 167.441,-94.9321 171.156,-88.9996"/>
</g>
<!-- Node6 -->
<g id="node7" class="node"><title>Node6</title>
<g id="a_node7"><a xlink:title=" ">
<polygon fill="white" stroke="#bfbfbf" points="188.5,-67.5 188.5,-86.5 229.5,-86.5 229.5,-67.5 188.5,-67.5"/>
<text text-anchor="middle" x="209" y="-74.5" font-family="Helvetica,sans-Serif" font-size="10.00">ctime</text>
</a>
</g>
</g>
<!-- Node4&#45;&gt;Node6 -->
<g id="edge6" class="edge"><title>Node4&#45;&gt;Node6</title>
<path fill="none" stroke="midnightblue" d="M234.179,-123.399C229.532,-115.021 223.601,-104.327 218.663,-95.4229"/>
<polygon fill="midnightblue" stroke="midnightblue" points="221.713,-93.7052 213.802,-86.6578 215.591,-97.1004 221.713,-93.7052"/>
</g>
<!-- Node7 -->
<g id="node8" class="node"><title>Node7</title>
<g id="a_node8"><a xlink:title=" ">
<polygon fill="white" stroke="#bfbfbf" points="248,-67.5 248,-86.5 302,-86.5 302,-67.5 248,-67.5"/>
<text text-anchor="middle" x="275" y="-74.5" font-family="Helvetica,sans-Serif" font-size="10.00">iostream</text>
</a>
</g>
</g>
<!-- Node4&#45;&gt;Node7 -->
<g id="edge7" class="edge"><title>Node4&#45;&gt;Node7</title>
<path fill="none" stroke="midnightblue" d="M249.821,-123.399C254.468,-115.021 260.399,-104.327 265.337,-95.4229"/>
<polygon fill="midnightblue" stroke="midnightblue" points="268.409,-97.1004 270.198,-86.6578 262.287,-93.7052 268.409,-97.1004"/>
</g>
<!-- Node8 -->
<g id="node9" class="node"><title>Node8</title>
<g id="a_node9"><a xlink:href="_core_8hpp.html" target="_top" xlink:title=" ">
<polygon fill="white" stroke="black" points="320.5,-67.5 320.5,-86.5 439.5,-86.5 439.5,-67.5 320.5,-67.5"/>
<text text-anchor="middle" x="380" y="-74.5" font-family="Helvetica,sans-Serif" font-size="10.00">utils4cpp/core/Core.hpp</text>
</a>
</g>
</g>
<!-- Node4&#45;&gt;Node8 -->
<g id="edge8" class="edge"><title>Node4&#45;&gt;Node8</title>
<path fill="none" stroke="midnightblue" d="M274.704,-123.399C297.755,-113.461 328.36,-100.265 350.632,-90.6625"/>
<polygon fill="midnightblue" stroke="midnightblue" points="352.123,-93.8311 359.92,-86.6578 349.351,-87.4031 352.123,-93.8311"/>
</g>
<!-- Node9 -->
<g id="node10" class="node"><title>Node9</title>
<g id="a_node10"><a xlink:href="_version_8hpp.html" target="_top" xlink:title=" ">
<polygon fill="white" stroke="black" points="90,-6 90,-25 222,-25 222,-6 90,-6"/>
<text text-anchor="middle" x="156" y="-13" font-family="Helvetica,sans-Serif" font-size="10.00">utils4cpp/core/Version.hpp</text>
</a>
</g>
</g>
<!-- Node8&#45;&gt;Node9 -->
<g id="edge9" class="edge"><title>Node8&#45;&gt;Node9</title>
<path fill="none" stroke="midnightblue" d="M347.906,-67.4751C308.401,-56.9815 241.221,-39.1367 197.739,-27.587"/>
<polygon fill="midnightblue" stroke="midnightblue" points="198.598,-24.1937 188.034,-25.0091 196.801,-30.9591 198.598,-24.1937"/>
</g>
<!-- Node10 -->
<g id="node11" class="node"><title>Node10</title>
<g id="a_node11"><a xlink:href="_export_8hpp.html" target="_top" xlink:title=" ">
<polygon fill="white" stroke="black" points="240,-6 240,-25 368,-25 368,-6 240,-6"/>
<text text-anchor="middle" x="304" y="-13" font-family="Helvetica,sans-Serif" font-size="10.00">utils4cpp/core/Export.hpp</text>
</a>
</g>
</g>
<!-- Node8&#45;&gt;Node10 -->
<g id="edge10" class="edge"><title>Node8&#45;&gt;Node10</title>
<path fill="none" stroke="midnightblue" d="M369.111,-67.4751C357.034,-58.0199 337.333,-42.5961 322.76,-31.1871"/>
<polygon fill="midnightblue" stroke="midnightblue" points="324.9,-28.4177 314.869,-25.0091 320.585,-33.9295 324.9,-28.4177"/>
</g>
<!-- Node11 -->
<g id="node12" class="node"><title>Node11</title>
<g id="a_node12"><a xlink:href="_cpp_standard_detection_8hpp.html" target="_top" xlink:title=" ">
<polygon fill="white" stroke="black" points="386.5,-0.5 386.5,-30.5 523.5,-30.5 523.5,-0.5 386.5,-0.5"/>
<text text-anchor="start" x="394.5" y="-18.5" font-family="Helvetica,sans-Serif" font-size="10.00">utils4cpp/core/CppStandard</text>
<text text-anchor="middle" x="455" y="-7.5" font-family="Helvetica,sans-Serif" font-size="10.00">Detection.hpp</text>
</a>
</g>
</g>
<!-- Node8&#45;&gt;Node11 -->
<g id="edge11" class="edge"><title>Node8&#45;&gt;Node11</title>
<path fill="none" stroke="midnightblue" d="M390.746,-67.4751C400.808,-59.492 416.234,-47.2542 429.449,-36.7703"/>
<polygon fill="midnightblue" stroke="midnightblue" points="431.665,-39.48 437.324,-30.523 427.315,-33.9961 431.665,-39.48"/>
</g>
<!-- Node12 -->
<g id="node13" class="node"><title>Node12</title>
<g id="a_node13"><a xlink:href="_system_detection_8hpp.html" target="_top" xlink:title=" ">
<polygon fill="white" stroke="black" points="542,-6 542,-25 716,-25 716,-6 542,-6"/>
<text text-anchor="middle" x="629" y="-13" font-family="Helvetica,sans-Serif" font-size="10.00">utils4cpp/core/SystemDetection.hpp</text>
</a>
</g>
</g>
<!-- Node8&#45;&gt;Node12 -->
<g id="edge12" class="edge"><title>Node8&#45;&gt;Node12</title>
<path fill="none" stroke="midnightblue" d="M415.676,-67.4751C459.867,-56.9153 535.213,-38.911 583.515,-27.3689"/>
<polygon fill="midnightblue" stroke="midnightblue" points="584.478,-30.7374 593.391,-25.0091 582.851,-23.9291 584.478,-30.7374"/>
</g>
</g>
</svg>
