<?xml version="1.0" encoding="UTF-8" standalone="no"?>
<!DOCTYPE svg PUBLIC "-//W3C//DTD SVG 1.1//EN"
 "http://www.w3.org/Graphics/SVG/1.1/DTD/svg11.dtd">
<!-- Generated by graphviz version 2.38.0 (20140413.2041)
 -->
<!-- Title: C:/Users/Shaoguang/Documents/GitHub/utils4cpp/include/utils4cpp/datetime/DateTimeGlobal.hpp Pages: 1 -->
<svg width="638pt" height="228pt"
 viewBox="0.00 0.00 638.00 228.00" xmlns="http://www.w3.org/2000/svg" xmlns:xlink="http://www.w3.org/1999/xlink">
<g id="graph0" class="graph" transform="scale(1 1) rotate(0) translate(4 224)">
<title>C:/Users/Shaoguang/Documents/GitHub/utils4cpp/include/utils4cpp/datetime/DateTimeGlobal.hpp</title>
<polygon fill="white" stroke="none" points="-4,4 -4,-224 634,-224 634,4 -4,4"/>
<!-- Node0 -->
<g id="node1" class="node"><title>Node0</title>
<g id="a_node1"><a xlink:title=" ">
<polygon fill="#bfbfbf" stroke="black" points="324,-167.5 324,-219.5 468,-219.5 468,-167.5 324,-167.5"/>
<text text-anchor="start" x="332" y="-207.5" font-family="Helvetica,sans-Serif" font-size="10.00">C:/Users/Shaoguang</text>
<text text-anchor="start" x="332" y="-196.5" font-family="Helvetica,sans-Serif" font-size="10.00">/Documents/GitHub/utils4cpp</text>
<text text-anchor="start" x="332" y="-185.5" font-family="Helvetica,sans-Serif" font-size="10.00">/include/utils4cpp/datetime</text>
<text text-anchor="middle" x="396" y="-174.5" font-family="Helvetica,sans-Serif" font-size="10.00">/DateTimeGlobal.hpp</text>
</a>
</g>
</g>
<!-- Node1 -->
<g id="node2" class="node"><title>Node1</title>
<g id="a_node2"><a xlink:href="_date_8hpp.html" target="_top" xlink:title=" ">
<polygon fill="white" stroke="black" points="162,-78.5 162,-130.5 306,-130.5 306,-78.5 162,-78.5"/>
<text text-anchor="start" x="170" y="-118.5" font-family="Helvetica,sans-Serif" font-size="10.00">C:/Users/Shaoguang</text>
<text text-anchor="start" x="170" y="-107.5" font-family="Helvetica,sans-Serif" font-size="10.00">/Documents/GitHub/utils4cpp</text>
<text text-anchor="start" x="170" y="-96.5" font-family="Helvetica,sans-Serif" font-size="10.00">/include/utils4cpp/datetime</text>
<text text-anchor="middle" x="234" y="-85.5" font-family="Helvetica,sans-Serif" font-size="10.00">/Date.hpp</text>
</a>
</g>
</g>
<!-- Node0&#45;&gt;Node1 -->
<g id="edge1" class="edge"><title>Node0&#45;&gt;Node1</title>
<path fill="none" stroke="midnightblue" d="M340.127,-162.494C320.773,-152.101 299.295,-140.566 280.752,-130.607"/>
<polygon fill="midnightblue" stroke="midnightblue" points="338.677,-165.688 349.143,-167.336 341.989,-159.521 338.677,-165.688"/>
</g>
<!-- Node4 -->
<g id="node5" class="node"><title>Node4</title>
<g id="a_node5"><a xlink:href="_date_time_8hpp.html" target="_top" xlink:title=" ">
<polygon fill="white" stroke="black" points="486,-78.5 486,-130.5 630,-130.5 630,-78.5 486,-78.5"/>
<text text-anchor="start" x="494" y="-118.5" font-family="Helvetica,sans-Serif" font-size="10.00">C:/Users/Shaoguang</text>
<text text-anchor="start" x="494" y="-107.5" font-family="Helvetica,sans-Serif" font-size="10.00">/Documents/GitHub/utils4cpp</text>
<text text-anchor="start" x="494" y="-96.5" font-family="Helvetica,sans-Serif" font-size="10.00">/include/utils4cpp/datetime</text>
<text text-anchor="middle" x="558" y="-85.5" font-family="Helvetica,sans-Serif" font-size="10.00">/DateTime.hpp</text>
</a>
</g>
</g>
<!-- Node0&#45;&gt;Node4 -->
<g id="edge4" class="edge"><title>Node0&#45;&gt;Node4</title>
<path fill="none" stroke="midnightblue" d="M451.873,-162.494C471.227,-152.101 492.705,-140.566 511.248,-130.607"/>
<polygon fill="midnightblue" stroke="midnightblue" points="450.011,-159.521 442.857,-167.336 453.323,-165.688 450.011,-159.521"/>
</g>
<!-- Node6 -->
<g id="node7" class="node"><title>Node6</title>
<g id="a_node7"><a xlink:href="_time_8hpp.html" target="_top" xlink:title=" ">
<polygon fill="white" stroke="black" points="324,-78.5 324,-130.5 468,-130.5 468,-78.5 324,-78.5"/>
<text text-anchor="start" x="332" y="-118.5" font-family="Helvetica,sans-Serif" font-size="10.00">C:/Users/Shaoguang</text>
<text text-anchor="start" x="332" y="-107.5" font-family="Helvetica,sans-Serif" font-size="10.00">/Documents/GitHub/utils4cpp</text>
<text text-anchor="start" x="332" y="-96.5" font-family="Helvetica,sans-Serif" font-size="10.00">/include/utils4cpp/datetime</text>
<text text-anchor="middle" x="396" y="-85.5" font-family="Helvetica,sans-Serif" font-size="10.00">/Time.hpp</text>
</a>
</g>
</g>
<!-- Node0&#45;&gt;Node6 -->
<g id="edge6" class="edge"><title>Node0&#45;&gt;Node6</title>
<path fill="none" stroke="midnightblue" d="M396,-157.191C396,-148.282 396,-138.899 396,-130.607"/>
<polygon fill="midnightblue" stroke="midnightblue" points="392.5,-157.336 396,-167.336 399.5,-157.336 392.5,-157.336"/>
</g>
<!-- Node2 -->
<g id="node3" class="node"><title>Node2</title>
<g id="a_node3"><a xlink:href="_date_8cpp.html" target="_top" xlink:title=" ">
<polygon fill="white" stroke="black" points="0,-0.5 0,-41.5 144,-41.5 144,-0.5 0,-0.5"/>
<text text-anchor="start" x="8" y="-29.5" font-family="Helvetica,sans-Serif" font-size="10.00">C:/Users/Shaoguang</text>
<text text-anchor="start" x="8" y="-18.5" font-family="Helvetica,sans-Serif" font-size="10.00">/Documents/GitHub/utils4cpp</text>
<text text-anchor="middle" x="72" y="-7.5" font-family="Helvetica,sans-Serif" font-size="10.00">/src/Date.cpp</text>
</a>
</g>
</g>
<!-- Node1&#45;&gt;Node2 -->
<g id="edge2" class="edge"><title>Node1&#45;&gt;Node2</title>
<path fill="none" stroke="midnightblue" d="M175.079,-73.8574C153.731,-63.1176 130.168,-51.2634 110.965,-41.6027"/>
<polygon fill="midnightblue" stroke="midnightblue" points="173.567,-77.0147 184.073,-78.3823 176.713,-70.7614 173.567,-77.0147"/>
</g>
<!-- Node3 -->
<g id="node4" class="node"><title>Node3</title>
<g id="a_node4"><a xlink:href="test_date_time_8cpp.html" target="_top" xlink:title=" ">
<polygon fill="white" stroke="black" points="162,-0.5 162,-41.5 306,-41.5 306,-0.5 162,-0.5"/>
<text text-anchor="start" x="170" y="-29.5" font-family="Helvetica,sans-Serif" font-size="10.00">C:/Users/Shaoguang</text>
<text text-anchor="start" x="170" y="-18.5" font-family="Helvetica,sans-Serif" font-size="10.00">/Documents/GitHub/utils4cpp</text>
<text text-anchor="middle" x="234" y="-7.5" font-family="Helvetica,sans-Serif" font-size="10.00">/tests/testDateTime.cpp</text>
</a>
</g>
</g>
<!-- Node1&#45;&gt;Node3 -->
<g id="edge3" class="edge"><title>Node1&#45;&gt;Node3</title>
<path fill="none" stroke="midnightblue" d="M234,-68.1474C234,-59.0546 234,-49.5968 234,-41.6282"/>
<polygon fill="midnightblue" stroke="midnightblue" points="230.5,-68.1596 234,-78.1596 237.5,-68.1597 230.5,-68.1596"/>
</g>
<!-- Node5 -->
<g id="node6" class="node"><title>Node5</title>
<g id="a_node6"><a xlink:href="_date_time_8cpp.html" target="_top" xlink:title=" ">
<polygon fill="white" stroke="black" points="486,-0.5 486,-41.5 630,-41.5 630,-0.5 486,-0.5"/>
<text text-anchor="start" x="494" y="-29.5" font-family="Helvetica,sans-Serif" font-size="10.00">C:/Users/Shaoguang</text>
<text text-anchor="start" x="494" y="-18.5" font-family="Helvetica,sans-Serif" font-size="10.00">/Documents/GitHub/utils4cpp</text>
<text text-anchor="middle" x="558" y="-7.5" font-family="Helvetica,sans-Serif" font-size="10.00">/src/DateTime.cpp</text>
</a>
</g>
</g>
<!-- Node4&#45;&gt;Node5 -->
<g id="edge5" class="edge"><title>Node4&#45;&gt;Node5</title>
<path fill="none" stroke="midnightblue" d="M558,-68.1474C558,-59.0546 558,-49.5968 558,-41.6282"/>
<polygon fill="midnightblue" stroke="midnightblue" points="554.5,-68.1596 558,-78.1596 561.5,-68.1597 554.5,-68.1596"/>
</g>
<!-- Node6&#45;&gt;Node3 -->
<g id="edge8" class="edge"><title>Node6&#45;&gt;Node3</title>
<path fill="none" stroke="midnightblue" d="M337.079,-73.8574C315.731,-63.1176 292.168,-51.2634 272.965,-41.6027"/>
<polygon fill="midnightblue" stroke="midnightblue" points="335.567,-77.0147 346.073,-78.3823 338.713,-70.7614 335.567,-77.0147"/>
</g>
<!-- Node7 -->
<g id="node8" class="node"><title>Node7</title>
<g id="a_node8"><a xlink:href="_time_8cpp.html" target="_top" xlink:title=" ">
<polygon fill="white" stroke="black" points="324,-0.5 324,-41.5 468,-41.5 468,-0.5 324,-0.5"/>
<text text-anchor="start" x="332" y="-29.5" font-family="Helvetica,sans-Serif" font-size="10.00">C:/Users/Shaoguang</text>
<text text-anchor="start" x="332" y="-18.5" font-family="Helvetica,sans-Serif" font-size="10.00">/Documents/GitHub/utils4cpp</text>
<text text-anchor="middle" x="396" y="-7.5" font-family="Helvetica,sans-Serif" font-size="10.00">/src/Time.cpp</text>
</a>
</g>
</g>
<!-- Node6&#45;&gt;Node7 -->
<g id="edge7" class="edge"><title>Node6&#45;&gt;Node7</title>
<path fill="none" stroke="midnightblue" d="M396,-68.1474C396,-59.0546 396,-49.5968 396,-41.6282"/>
<polygon fill="midnightblue" stroke="midnightblue" points="392.5,-68.1596 396,-78.1596 399.5,-68.1597 392.5,-68.1596"/>
</g>
</g>
</svg>
