<?xml version="1.0" encoding="UTF-8" standalone="no"?>
<!DOCTYPE svg PUBLIC "-//W3C//DTD SVG 1.1//EN"
 "http://www.w3.org/Graphics/SVG/1.1/DTD/svg11.dtd">
<!-- Generated by graphviz version 2.38.0 (20140413.2041)
 -->
<!-- Title: C:/Users/Shaoguang/Documents/GitHub/utils4cpp/src/ElapsedTimer.cpp Pages: 1 -->
<svg width="634pt" height="240pt"
 viewBox="0.00 0.00 634.00 240.00" xmlns="http://www.w3.org/2000/svg" xmlns:xlink="http://www.w3.org/1999/xlink">
<g id="graph0" class="graph" transform="scale(1 1) rotate(0) translate(4 236)">
<title>C:/Users/Shaoguang/Documents/GitHub/utils4cpp/src/ElapsedTimer.cpp</title>
<polygon fill="white" stroke="none" points="-4,4 -4,-236 630,-236 630,4 -4,4"/>
<!-- Node0 -->
<g id="node1" class="node"><title>Node0</title>
<g id="a_node1"><a xlink:title=" ">
<polygon fill="#bfbfbf" stroke="black" points="166,-190.5 166,-231.5 310,-231.5 310,-190.5 166,-190.5"/>
<text text-anchor="start" x="174" y="-219.5" font-family="Helvetica,sans-Serif" font-size="10.00">C:/Users/Shaoguang</text>
<text text-anchor="start" x="174" y="-208.5" font-family="Helvetica,sans-Serif" font-size="10.00">/Documents/GitHub/utils4cpp</text>
<text text-anchor="middle" x="238" y="-197.5" font-family="Helvetica,sans-Serif" font-size="10.00">/src/ElapsedTimer.cpp</text>
</a>
</g>
</g>
<!-- Node1 -->
<g id="node2" class="node"><title>Node1</title>
<g id="a_node2"><a xlink:href="_elapsed_timer_8hpp.html" target="_top" xlink:title=" ">
<polygon fill="white" stroke="black" points="189,-123.5 189,-153.5 287,-153.5 287,-123.5 189,-123.5"/>
<text text-anchor="start" x="197" y="-141.5" font-family="Helvetica,sans-Serif" font-size="10.00">utils4cpp/datetime</text>
<text text-anchor="middle" x="238" y="-130.5" font-family="Helvetica,sans-Serif" font-size="10.00">/ElapsedTimer.hpp</text>
</a>
</g>
</g>
<!-- Node0&#45;&gt;Node1 -->
<g id="edge1" class="edge"><title>Node0&#45;&gt;Node1</title>
<path fill="none" stroke="midnightblue" d="M238,-190.362C238,-182.226 238,-172.7 238,-164.105"/>
<polygon fill="midnightblue" stroke="midnightblue" points="241.5,-163.892 238,-153.892 234.5,-163.892 241.5,-163.892"/>
</g>
<!-- Node2 -->
<g id="node3" class="node"><title>Node2</title>
<g id="a_node3"><a xlink:title=" ">
<polygon fill="white" stroke="#bfbfbf" points="165,-67.5 165,-86.5 211,-86.5 211,-67.5 165,-67.5"/>
<text text-anchor="middle" x="188" y="-74.5" font-family="Helvetica,sans-Serif" font-size="10.00">chrono</text>
</a>
</g>
</g>
<!-- Node1&#45;&gt;Node2 -->
<g id="edge2" class="edge"><title>Node1&#45;&gt;Node2</title>
<path fill="none" stroke="midnightblue" d="M226.151,-123.399C218.885,-114.753 209.548,-103.642 201.929,-94.576"/>
<polygon fill="midnightblue" stroke="midnightblue" points="204.388,-92.0619 195.275,-86.6578 199.029,-96.5653 204.388,-92.0619"/>
</g>
<!-- Node3 -->
<g id="node4" class="node"><title>Node3</title>
<g id="a_node4"><a xlink:href="_core_8hpp.html" target="_top" xlink:title=" ">
<polygon fill="white" stroke="black" points="229.5,-67.5 229.5,-86.5 348.5,-86.5 348.5,-67.5 229.5,-67.5"/>
<text text-anchor="middle" x="289" y="-74.5" font-family="Helvetica,sans-Serif" font-size="10.00">utils4cpp/core/Core.hpp</text>
</a>
</g>
</g>
<!-- Node1&#45;&gt;Node3 -->
<g id="edge3" class="edge"><title>Node1&#45;&gt;Node3</title>
<path fill="none" stroke="midnightblue" d="M250.086,-123.399C257.574,-114.664 267.218,-103.413 275.032,-94.2962"/>
<polygon fill="midnightblue" stroke="midnightblue" points="277.729,-96.5281 281.579,-86.6578 272.414,-91.9726 277.729,-96.5281"/>
</g>
<!-- Node4 -->
<g id="node5" class="node"><title>Node4</title>
<g id="a_node5"><a xlink:href="_version_8hpp.html" target="_top" xlink:title=" ">
<polygon fill="white" stroke="black" points="0,-6 0,-25 132,-25 132,-6 0,-6"/>
<text text-anchor="middle" x="66" y="-13" font-family="Helvetica,sans-Serif" font-size="10.00">utils4cpp/core/Version.hpp</text>
</a>
</g>
</g>
<!-- Node3&#45;&gt;Node4 -->
<g id="edge4" class="edge"><title>Node3&#45;&gt;Node4</title>
<path fill="none" stroke="midnightblue" d="M257.05,-67.4751C217.804,-57.0036 151.122,-39.2118 107.827,-27.6601"/>
<polygon fill="midnightblue" stroke="midnightblue" points="108.456,-24.2054 97.8912,-25.0091 106.651,-30.9688 108.456,-24.2054"/>
</g>
<!-- Node5 -->
<g id="node6" class="node"><title>Node5</title>
<g id="a_node6"><a xlink:href="_export_8hpp.html" target="_top" xlink:title=" ">
<polygon fill="white" stroke="black" points="150,-6 150,-25 278,-25 278,-6 150,-6"/>
<text text-anchor="middle" x="214" y="-13" font-family="Helvetica,sans-Serif" font-size="10.00">utils4cpp/core/Export.hpp</text>
</a>
</g>
</g>
<!-- Node3&#45;&gt;Node5 -->
<g id="edge5" class="edge"><title>Node3&#45;&gt;Node5</title>
<path fill="none" stroke="midnightblue" d="M278.254,-67.4751C266.447,-58.1082 247.257,-42.8839 232.918,-31.5081"/>
<polygon fill="midnightblue" stroke="midnightblue" points="234.735,-28.4822 224.726,-25.0091 230.385,-33.9661 234.735,-28.4822"/>
</g>
<!-- Node6 -->
<g id="node7" class="node"><title>Node6</title>
<g id="a_node7"><a xlink:href="_cpp_standard_detection_8hpp.html" target="_top" xlink:title=" ">
<polygon fill="white" stroke="black" points="296.5,-0.5 296.5,-30.5 433.5,-30.5 433.5,-0.5 296.5,-0.5"/>
<text text-anchor="start" x="304.5" y="-18.5" font-family="Helvetica,sans-Serif" font-size="10.00">utils4cpp/core/CppStandard</text>
<text text-anchor="middle" x="365" y="-7.5" font-family="Helvetica,sans-Serif" font-size="10.00">Detection.hpp</text>
</a>
</g>
</g>
<!-- Node3&#45;&gt;Node6 -->
<g id="edge6" class="edge"><title>Node3&#45;&gt;Node6</title>
<path fill="none" stroke="midnightblue" d="M299.889,-67.4751C310.086,-59.492 325.717,-47.2542 339.109,-36.7703"/>
<polygon fill="midnightblue" stroke="midnightblue" points="341.372,-39.4434 347.088,-30.523 337.057,-33.9316 341.372,-39.4434"/>
</g>
<!-- Node7 -->
<g id="node8" class="node"><title>Node7</title>
<g id="a_node8"><a xlink:href="_system_detection_8hpp.html" target="_top" xlink:title=" ">
<polygon fill="white" stroke="black" points="452,-6 452,-25 626,-25 626,-6 452,-6"/>
<text text-anchor="middle" x="539" y="-13" font-family="Helvetica,sans-Serif" font-size="10.00">utils4cpp/core/SystemDetection.hpp</text>
</a>
</g>
</g>
<!-- Node3&#45;&gt;Node7 -->
<g id="edge7" class="edge"><title>Node3&#45;&gt;Node7</title>
<path fill="none" stroke="midnightblue" d="M324.819,-67.4751C369.188,-56.9153 444.836,-38.911 493.332,-27.3689"/>
<polygon fill="midnightblue" stroke="midnightblue" points="494.33,-30.7294 503.248,-25.0091 492.709,-23.9196 494.33,-30.7294"/>
</g>
</g>
</svg>
