<?xml version="1.0" encoding="UTF-8" standalone="no"?>
<!DOCTYPE svg PUBLIC "-//W3C//DTD SVG 1.1//EN"
 "http://www.w3.org/Graphics/SVG/1.1/DTD/svg11.dtd">
<!-- Generated by graphviz version 2.38.0 (20140413.2041)
 -->
<!-- Title: C:/Users/Lh/Documents/GitHub/utils4cpp/include/utils4cpp/datetime/ElapsedTimer.hpp Pages: 1 -->
<svg width="188pt" height="128pt"
 viewBox="0.00 0.00 188.00 128.00" xmlns="http://www.w3.org/2000/svg" xmlns:xlink="http://www.w3.org/1999/xlink">
<g id="graph0" class="graph" transform="scale(1 1) rotate(0) translate(4 124)">
<title>C:/Users/Lh/Documents/GitHub/utils4cpp/include/utils4cpp/datetime/ElapsedTimer.hpp</title>
<polygon fill="white" stroke="none" points="-4,4 -4,-124 184,-124 184,4 -4,4"/>
<!-- Node7 -->
<g id="node1" class="node"><title>Node7</title>
<g id="a_node1"><a xlink:title=" ">
<polygon fill="#bfbfbf" stroke="black" points="0,-78.5 0,-119.5 180,-119.5 180,-78.5 0,-78.5"/>
<text text-anchor="start" x="8" y="-107.5" font-family="Helvetica,sans-Serif" font-size="10.00">C:/Users/Lh/Documents</text>
<text text-anchor="start" x="8" y="-96.5" font-family="Helvetica,sans-Serif" font-size="10.00">/GitHub/utils4cpp/include</text>
<text text-anchor="middle" x="90" y="-85.5" font-family="Helvetica,sans-Serif" font-size="10.00">/utils4cpp/datetime/ElapsedTimer.hpp</text>
</a>
</g>
</g>
<!-- Node8 -->
<g id="node2" class="node"><title>Node8</title>
<g id="a_node2"><a xlink:href="_elapsed_timer_8cpp.html" target="_top" xlink:title=" ">
<polygon fill="white" stroke="black" points="29.5,-0.5 29.5,-41.5 150.5,-41.5 150.5,-0.5 29.5,-0.5"/>
<text text-anchor="start" x="37.5" y="-29.5" font-family="Helvetica,sans-Serif" font-size="10.00">C:/Users/Lh/Documents</text>
<text text-anchor="start" x="37.5" y="-18.5" font-family="Helvetica,sans-Serif" font-size="10.00">/GitHub/utils4cpp/src</text>
<text text-anchor="middle" x="90" y="-7.5" font-family="Helvetica,sans-Serif" font-size="10.00">/ElapsedTimer.cpp</text>
</a>
</g>
</g>
<!-- Node7&#45;&gt;Node8 -->
<g id="edge1" class="edge"><title>Node7&#45;&gt;Node8</title>
<path fill="none" stroke="midnightblue" d="M90,-68.2965C90,-59.3009 90,-49.6532 90,-41.5056"/>
<polygon fill="midnightblue" stroke="midnightblue" points="86.5001,-68.4281 90,-78.4281 93.5001,-68.4281 86.5001,-68.4281"/>
</g>
</g>
</svg>
