<?xml version="1.0" encoding="UTF-8" standalone="no"?>
<!DOCTYPE svg PUBLIC "-//W3C//DTD SVG 1.1//EN"
 "http://www.w3.org/Graphics/SVG/1.1/DTD/svg11.dtd">
<!-- Generated by graphviz version 2.38.0 (20140413.2041)
 -->
<!-- Title: C:/Users/Lh/Documents/GitHub/utils4cpp/include/utils4cpp/datetime/ElapsedTimer.hpp Pages: 1 -->
<!--zoomable 173 -->
<svg id="main" version="1.1" xmlns="http://www.w3.org/2000/svg" xmlns:xlink="http://www.w3.org/1999/xlink" xml:space="preserve" onload="init(evt)">
<style type="text/css"><![CDATA[
.edge:hover path { stroke: red; }
.edge:hover polygon { stroke: red; fill: red; }
]]></style>
<script type="text/javascript"><![CDATA[
var edges = document.getElementsByTagName('g');
if (edges && edges.length) {
  for (var i=0;i<edges.length;i++) {
    if (edges[i].id.substr(0,4)=='edge') {
      edges[i].setAttribute('class','edge');
    }
  }
}
]]></script>
        <defs>
                <circle id="rim" cx="0" cy="0" r="7"/>
                <circle id="rim2" cx="0" cy="0" r="3.5"/>
                <g id="zoomPlus">
                        <use xlink:href="#rim" fill="#404040">
                                <set attributeName="fill" to="#808080" begin="zoomplus.mouseover" end="zoomplus.mouseout"/>
                        </use>
                        <path d="M-4,0h8M0,-4v8" fill="none" stroke="white" stroke-width="1.5" pointer-events="none"/>
                </g>
                <g id="zoomMin">
                        <use xlink:href="#rim" fill="#404040">
                                <set attributeName="fill" to="#808080" begin="zoomminus.mouseover" end="zoomminus.mouseout"/>
                        </use>
                        <path d="M-4,0h8" fill="none" stroke="white" stroke-width="1.5" pointer-events="none"/>
                </g>
                <g id="dirArrow">
                        <path fill="none" stroke="white" stroke-width="1.5" d="M0,-3.0v7 M-2.5,-0.5L0,-3.0L2.5,-0.5"/>
                </g>
               <g id="resetDef">
                       <use xlink:href="#rim2" fill="#404040">
                               <set attributeName="fill" to="#808080" begin="reset.mouseover" end="reset.mouseout"/>
                       </use>
               </g>
        </defs>

<script type="text/javascript">
var viewWidth = 634;
var viewHeight = 173;
var sectionId = 'dynsection-0';
</script>
<script xlink:href="svgpan.js"/>
<svg id="graph" class="graph">
<g id="viewport">
<title>C:/Users/Lh/Documents/GitHub/utils4cpp/include/utils4cpp/datetime/ElapsedTimer.hpp</title>
<polygon fill="white" stroke="none" points="-4,4 -4,-169 630,-169 630,4 -4,4"/>
<!-- Node0 -->
<g id="node1" class="node"><title>Node0</title>
<g id="a_node1"><a xlink:title=" ">
<polygon fill="#bfbfbf" stroke="black" points="148,-123.5 148,-164.5 328,-164.5 328,-123.5 148,-123.5"/>
<text text-anchor="start" x="156" y="-152.5" font-family="Helvetica,sans-Serif" font-size="10.00">C:/Users/Lh/Documents</text>
<text text-anchor="start" x="156" y="-141.5" font-family="Helvetica,sans-Serif" font-size="10.00">/GitHub/utils4cpp/include</text>
<text text-anchor="middle" x="238" y="-130.5" font-family="Helvetica,sans-Serif" font-size="10.00">/utils4cpp/datetime/ElapsedTimer.hpp</text>
</a>
</g>
</g>
<!-- Node1 -->
<g id="node2" class="node"><title>Node1</title>
<g id="a_node2"><a xlink:title=" ">
<polygon fill="white" stroke="#bfbfbf" points="165,-67.5 165,-86.5 211,-86.5 211,-67.5 165,-67.5"/>
<text text-anchor="middle" x="188" y="-74.5" font-family="Helvetica,sans-Serif" font-size="10.00">chrono</text>
</a>
</g>
</g>
<!-- Node0&#45;&gt;Node1 -->
<g id="edge1" class="edge"><title>Node0&#45;&gt;Node1</title>
<path fill="none" stroke="midnightblue" d="M222.998,-123.498C215.922,-114.299 207.566,-103.436 200.794,-94.6323"/>
<polygon fill="midnightblue" stroke="midnightblue" points="203.527,-92.4447 194.656,-86.6525 197.979,-96.7128 203.527,-92.4447"/>
</g>
<!-- Node2 -->
<g id="node3" class="node"><title>Node2</title>
<g id="a_node3"><a xlink:href="_core_8hpp.html" target="_top" xlink:title=" ">
<polygon fill="white" stroke="black" points="229.5,-67.5 229.5,-86.5 348.5,-86.5 348.5,-67.5 229.5,-67.5"/>
<text text-anchor="middle" x="289" y="-74.5" font-family="Helvetica,sans-Serif" font-size="10.00">utils4cpp/core/Core.hpp</text>
</a>
</g>
</g>
<!-- Node0&#45;&gt;Node2 -->
<g id="edge2" class="edge"><title>Node0&#45;&gt;Node2</title>
<path fill="none" stroke="midnightblue" d="M253.302,-123.498C260.519,-114.299 269.042,-103.436 275.95,-94.6323"/>
<polygon fill="midnightblue" stroke="midnightblue" points="278.792,-96.6804 282.211,-86.6525 273.285,-92.3594 278.792,-96.6804"/>
</g>
<!-- Node3 -->
<g id="node4" class="node"><title>Node3</title>
<g id="a_node4"><a xlink:href="_version_8hpp.html" target="_top" xlink:title=" ">
<polygon fill="white" stroke="black" points="0,-6 0,-25 132,-25 132,-6 0,-6"/>
<text text-anchor="middle" x="66" y="-13" font-family="Helvetica,sans-Serif" font-size="10.00">utils4cpp/core/Version.hpp</text>
</a>
</g>
</g>
<!-- Node2&#45;&gt;Node3 -->
<g id="edge3" class="edge"><title>Node2&#45;&gt;Node3</title>
<path fill="none" stroke="midnightblue" d="M257.05,-67.4751C217.804,-57.0036 151.122,-39.2118 107.827,-27.6601"/>
<polygon fill="midnightblue" stroke="midnightblue" points="108.456,-24.2054 97.8912,-25.0091 106.651,-30.9688 108.456,-24.2054"/>
</g>
<!-- Node4 -->
<g id="node5" class="node"><title>Node4</title>
<g id="a_node5"><a xlink:href="_export_8hpp.html" target="_top" xlink:title=" ">
<polygon fill="white" stroke="black" points="150,-6 150,-25 278,-25 278,-6 150,-6"/>
<text text-anchor="middle" x="214" y="-13" font-family="Helvetica,sans-Serif" font-size="10.00">utils4cpp/core/Export.hpp</text>
</a>
</g>
</g>
<!-- Node2&#45;&gt;Node4 -->
<g id="edge4" class="edge"><title>Node2&#45;&gt;Node4</title>
<path fill="none" stroke="midnightblue" d="M278.254,-67.4751C266.447,-58.1082 247.257,-42.8839 232.918,-31.5081"/>
<polygon fill="midnightblue" stroke="midnightblue" points="234.735,-28.4822 224.726,-25.0091 230.385,-33.9661 234.735,-28.4822"/>
</g>
<!-- Node5 -->
<g id="node6" class="node"><title>Node5</title>
<g id="a_node6"><a xlink:href="_cpp_standard_detection_8hpp.html" target="_top" xlink:title=" ">
<polygon fill="white" stroke="black" points="296.5,-0.5 296.5,-30.5 433.5,-30.5 433.5,-0.5 296.5,-0.5"/>
<text text-anchor="start" x="304.5" y="-18.5" font-family="Helvetica,sans-Serif" font-size="10.00">utils4cpp/core/CppStandard</text>
<text text-anchor="middle" x="365" y="-7.5" font-family="Helvetica,sans-Serif" font-size="10.00">Detection.hpp</text>
</a>
</g>
</g>
<!-- Node2&#45;&gt;Node5 -->
<g id="edge5" class="edge"><title>Node2&#45;&gt;Node5</title>
<path fill="none" stroke="midnightblue" d="M299.889,-67.4751C310.086,-59.492 325.717,-47.2542 339.109,-36.7703"/>
<polygon fill="midnightblue" stroke="midnightblue" points="341.372,-39.4434 347.088,-30.523 337.057,-33.9316 341.372,-39.4434"/>
</g>
<!-- Node6 -->
<g id="node7" class="node"><title>Node6</title>
<g id="a_node7"><a xlink:href="_system_detection_8hpp.html" target="_top" xlink:title=" ">
<polygon fill="white" stroke="black" points="452,-6 452,-25 626,-25 626,-6 452,-6"/>
<text text-anchor="middle" x="539" y="-13" font-family="Helvetica,sans-Serif" font-size="10.00">utils4cpp/core/SystemDetection.hpp</text>
</a>
</g>
</g>
<!-- Node2&#45;&gt;Node6 -->
<g id="edge6" class="edge"><title>Node2&#45;&gt;Node6</title>
<path fill="none" stroke="midnightblue" d="M324.819,-67.4751C369.188,-56.9153 444.836,-38.911 493.332,-27.3689"/>
<polygon fill="midnightblue" stroke="midnightblue" points="494.33,-30.7294 503.248,-25.0091 492.709,-23.9196 494.33,-30.7294"/>
</g>
</g>
</svg>
        <g id="navigator" transform="translate(0 0)" fill="#404254">
                <rect fill="#f2f5e9" fill-opacity="0.5" stroke="#606060" stroke-width=".5" x="0" y="0" width="60" height="60"/>
                <use id="zoomplus" xlink:href="#zoomPlus" x="17" y="9" onmousedown="handleZoom(evt,'in')"/>
                <use id="zoomminus" xlink:href="#zoomMin" x="42" y="9" onmousedown="handleZoom(evt,'out')"/>
                <use id="reset" xlink:href="#resetDef" x="30" y="36" onmousedown="handleReset()"/>
                <g id="arrowUp" xlink:href="#dirArrow" transform="translate(30 24)" onmousedown="handlePan(0,-1)">
                  <use xlink:href="#rim" fill="#404040">
                        <set attributeName="fill" to="#808080" begin="arrowUp.mouseover" end="arrowUp.mouseout"/>
                  </use>
                  <path fill="none" stroke="white" stroke-width="1.5" d="M0,-3.0v7 M-2.5,-0.5L0,-3.0L2.5,-0.5"/>
                </g>
                <g id="arrowRight" xlink:href="#dirArrow" transform="rotate(90) translate(36 -43)" onmousedown="handlePan(1,0)">
                  <use xlink:href="#rim" fill="#404040">
                        <set attributeName="fill" to="#808080" begin="arrowRight.mouseover" end="arrowRight.mouseout"/>
                  </use>
                  <path fill="none" stroke="white" stroke-width="1.5" d="M0,-3.0v7 M-2.5,-0.5L0,-3.0L2.5,-0.5"/>
                </g>
                <g id="arrowDown" xlink:href="#dirArrow" transform="rotate(180) translate(-30 -48)" onmousedown="handlePan(0,1)">
                  <use xlink:href="#rim" fill="#404040">
                        <set attributeName="fill" to="#808080" begin="arrowDown.mouseover" end="arrowDown.mouseout"/>
                  </use>
                  <path fill="none" stroke="white" stroke-width="1.5" d="M0,-3.0v7 M-2.5,-0.5L0,-3.0L2.5,-0.5"/>
                </g>
                <g id="arrowLeft" xlink:href="#dirArrow" transform="rotate(270) translate(-36 17)" onmousedown="handlePan(-1,0)">
                  <use xlink:href="#rim" fill="#404040">
                        <set attributeName="fill" to="#808080" begin="arrowLeft.mouseover" end="arrowLeft.mouseout"/>
                  </use>
                  <path fill="none" stroke="white" stroke-width="1.5" d="M0,-3.0v7 M-2.5,-0.5L0,-3.0L2.5,-0.5"/>
                </g>
        </g>
        <svg viewBox="0 0 15 15" width="100%" height="30px" preserveAspectRatio="xMaxYMin meet">
         <g id="arrow_out" transform="scale(0.3 0.3)">
          <a xlink:href="_elapsed_timer_8hpp__incl_org.svg" target="_base">
           <rect id="button" ry="5" rx="5" y="6" x="6" height="38" width="38"
                fill="#f2f5e9" fill-opacity="0.5" stroke="#606060" stroke-width="1.0"/>
           <path id="arrow"
             d="M 11.500037,31.436501 C 11.940474,20.09759 22.043105,11.32322 32.158766,21.979434 L 37.068811,17.246167 C 37.068811,17.246167 37.088388,32 37.088388,32 L 22.160133,31.978069 C 22.160133,31.978069 26.997745,27.140456 26.997745,27.140456 C 18.528582,18.264221 13.291696,25.230495 11.500037,31.436501 z"
             style="fill:#404040;"/>
          </a>
         </g>
        </svg>
</svg>
