<?xml version="1.0" encoding="UTF-8" standalone="no"?>
<!DOCTYPE svg PUBLIC "-//W3C//DTD SVG 1.1//EN"
 "http://www.w3.org/Graphics/SVG/1.1/DTD/svg11.dtd">
<!-- Generated by graphviz version 2.38.0 (20140413.2041)
 -->
<!-- Title: C:/Users/Lh/Documents/GitHub/utils4cpp/include/utils4cpp/core/Export.hpp Pages: 1 -->
<!--zoomable 362 -->
<svg id="main" version="1.1" xmlns="http://www.w3.org/2000/svg" xmlns:xlink="http://www.w3.org/1999/xlink" xml:space="preserve" onload="init(evt)">
<style type="text/css"><![CDATA[
.edge:hover path { stroke: red; }
.edge:hover polygon { stroke: red; fill: red; }
]]></style>
<script type="text/javascript"><![CDATA[
var edges = document.getElementsByTagName('g');
if (edges && edges.length) {
  for (var i=0;i<edges.length;i++) {
    if (edges[i].id.substr(0,4)=='edge') {
      edges[i].setAttribute('class','edge');
    }
  }
}
]]></script>
        <defs>
                <circle id="rim" cx="0" cy="0" r="7"/>
                <circle id="rim2" cx="0" cy="0" r="3.5"/>
                <g id="zoomPlus">
                        <use xlink:href="#rim" target="_top" fill="#404040">
                                <set attributeName="fill" to="#808080" begin="zoomplus.mouseover" end="zoomplus.mouseout"/>
                        </use>
                        <path d="M-4,0h8M0,-4v8" fill="none" stroke="white" stroke-width="1.5" pointer-events="none"/>
                </g>
                <g id="zoomMin">
                        <use xlink:href="#rim" target="_top" fill="#404040">
                                <set attributeName="fill" to="#808080" begin="zoomminus.mouseover" end="zoomminus.mouseout"/>
                        </use>
                        <path d="M-4,0h8" fill="none" stroke="white" stroke-width="1.5" pointer-events="none"/>
                </g>
                <g id="dirArrow">
                        <path fill="none" stroke="white" stroke-width="1.5" d="M0,-3.0v7 M-2.5,-0.5L0,-3.0L2.5,-0.5"/>
                </g>
               <g id="resetDef">
                       <use xlink:href="#rim2" target="_top" fill="#404040">
                               <set attributeName="fill" to="#808080" begin="reset.mouseover" end="reset.mouseout"/>
                       </use>
               </g>
        </defs>

<script type="text/javascript">
var viewWidth = 733;
var viewHeight = 362;
var sectionId = 'dynsection-0';
</script>
<script xlink:href="svgpan.js" target="_top"/>
<svg id="graph" class="graph">
<g id="viewport">
<title>C:/Users/Lh/Documents/GitHub/utils4cpp/include/utils4cpp/core/Export.hpp</title>
<polygon fill="white" stroke="none" points="-4,4 -4,-358 728.5,-358 728.5,4 -4,4"/>
<!-- Node1 -->
<g id="node1" class="node"><title>Node1</title>
<g id="a_node1"><a xlink:title=" ">
<polygon fill="#bfbfbf" stroke="black" points="363,-312.5 363,-353.5 494,-353.5 494,-312.5 363,-312.5"/>
<text text-anchor="start" x="371" y="-341.5" font-family="Helvetica,sans-Serif" font-size="10.00">C:/Users/Lh/Documents</text>
<text text-anchor="start" x="371" y="-330.5" font-family="Helvetica,sans-Serif" font-size="10.00">/GitHub/utils4cpp/include</text>
<text text-anchor="middle" x="428.5" y="-319.5" font-family="Helvetica,sans-Serif" font-size="10.00">/utils4cpp/core/Export.hpp</text>
</a>
</g>
</g>
<!-- Node2 -->
<g id="node2" class="node"><title>Node2</title>
<g id="a_node2"><a xlink:href="_core_8hpp.html" target="_top" target="_top" xlink:title=" ">
<polygon fill="white" stroke="black" points="366,-234.5 366,-275.5 491,-275.5 491,-234.5 366,-234.5"/>
<text text-anchor="start" x="374" y="-263.5" font-family="Helvetica,sans-Serif" font-size="10.00">C:/Users/Lh/Documents</text>
<text text-anchor="start" x="374" y="-252.5" font-family="Helvetica,sans-Serif" font-size="10.00">/GitHub/utils4cpp/include</text>
<text text-anchor="middle" x="428.5" y="-241.5" font-family="Helvetica,sans-Serif" font-size="10.00">/utils4cpp/core/Core.hpp</text>
</a>
</g>
</g>
<!-- Node1&#45;&gt;Node2 -->
<g id="edge1" class="edge"><title>Node1&#45;&gt;Node2</title>
<path fill="none" stroke="midnightblue" d="M428.5,-302.297C428.5,-293.301 428.5,-283.653 428.5,-275.506"/>
<polygon fill="midnightblue" stroke="midnightblue" points="425,-302.428 428.5,-312.428 432,-302.428 425,-302.428"/>
</g>
<!-- Node3 -->
<g id="node3" class="node"><title>Node3</title>
<g id="a_node3"><a xlink:href="_date_8hpp.html" target="_top" target="_top" xlink:title=" ">
<polygon fill="white" stroke="black" points="0,-156.5 0,-197.5 141,-197.5 141,-156.5 0,-156.5"/>
<text text-anchor="start" x="8" y="-185.5" font-family="Helvetica,sans-Serif" font-size="10.00">C:/Users/Lh/Documents</text>
<text text-anchor="start" x="8" y="-174.5" font-family="Helvetica,sans-Serif" font-size="10.00">/GitHub/utils4cpp/include</text>
<text text-anchor="middle" x="70.5" y="-163.5" font-family="Helvetica,sans-Serif" font-size="10.00">/utils4cpp/datetime/Date.hpp</text>
</a>
</g>
</g>
<!-- Node2&#45;&gt;Node3 -->
<g id="edge2" class="edge"><title>Node2&#45;&gt;Node3</title>
<path fill="none" stroke="midnightblue" d="M356.079,-240.362C299.862,-229.547 220.045,-213.689 150.5,-198 147.428,-197.307 144.292,-196.585 141.128,-195.845"/>
<polygon fill="midnightblue" stroke="midnightblue" points="355.462,-243.808 365.943,-242.255 356.781,-236.933 355.462,-243.808"/>
</g>
<!-- Node5 -->
<g id="node5" class="node"><title>Node5</title>
<g id="a_node5"><a xlink:href="_elapsed_timer_8hpp.html" target="_top" target="_top" xlink:title=" ">
<polygon fill="white" stroke="black" points="159.5,-156.5 159.5,-197.5 339.5,-197.5 339.5,-156.5 159.5,-156.5"/>
<text text-anchor="start" x="167.5" y="-185.5" font-family="Helvetica,sans-Serif" font-size="10.00">C:/Users/Lh/Documents</text>
<text text-anchor="start" x="167.5" y="-174.5" font-family="Helvetica,sans-Serif" font-size="10.00">/GitHub/utils4cpp/include</text>
<text text-anchor="middle" x="249.5" y="-163.5" font-family="Helvetica,sans-Serif" font-size="10.00">/utils4cpp/datetime/ElapsedTimer.hpp</text>
</a>
</g>
</g>
<!-- Node2&#45;&gt;Node5 -->
<g id="edge4" class="edge"><title>Node2&#45;&gt;Node5</title>
<path fill="none" stroke="midnightblue" d="M373.078,-230.469C348.167,-219.892 319.115,-207.557 295.441,-197.506"/>
<polygon fill="midnightblue" stroke="midnightblue" points="371.83,-233.742 382.403,-234.428 374.566,-227.298 371.83,-233.742"/>
</g>
<!-- Node7 -->
<g id="node7" class="node"><title>Node7</title>
<g id="a_node7"><a xlink:href="_time_8hpp.html" target="_top" target="_top" xlink:title=" ">
<polygon fill="white" stroke="black" points="357.5,-156.5 357.5,-197.5 499.5,-197.5 499.5,-156.5 357.5,-156.5"/>
<text text-anchor="start" x="365.5" y="-185.5" font-family="Helvetica,sans-Serif" font-size="10.00">C:/Users/Lh/Documents</text>
<text text-anchor="start" x="365.5" y="-174.5" font-family="Helvetica,sans-Serif" font-size="10.00">/GitHub/utils4cpp/include</text>
<text text-anchor="middle" x="428.5" y="-163.5" font-family="Helvetica,sans-Serif" font-size="10.00">/utils4cpp/datetime/Time.hpp</text>
</a>
</g>
</g>
<!-- Node2&#45;&gt;Node7 -->
<g id="edge6" class="edge"><title>Node2&#45;&gt;Node7</title>
<path fill="none" stroke="midnightblue" d="M428.5,-224.297C428.5,-215.301 428.5,-205.653 428.5,-197.506"/>
<polygon fill="midnightblue" stroke="midnightblue" points="425,-224.428 428.5,-234.428 432,-224.428 425,-224.428"/>
</g>
<!-- Node9 -->
<g id="node9" class="node"><title>Node9</title>
<g id="a_node9"><a xlink:href="_string_to_number_8hpp.html" target="_top" target="_top" xlink:title=" ">
<polygon fill="white" stroke="black" points="517.5,-156.5 517.5,-197.5 681.5,-197.5 681.5,-156.5 517.5,-156.5"/>
<text text-anchor="start" x="525.5" y="-185.5" font-family="Helvetica,sans-Serif" font-size="10.00">C:/Users/Lh/Documents</text>
<text text-anchor="start" x="525.5" y="-174.5" font-family="Helvetica,sans-Serif" font-size="10.00">/GitHub/utils4cpp/include</text>
<text text-anchor="middle" x="599.5" y="-163.5" font-family="Helvetica,sans-Serif" font-size="10.00">/utils4cpp/str/StringToNumber.hpp</text>
</a>
</g>
</g>
<!-- Node2&#45;&gt;Node9 -->
<g id="edge8" class="edge"><title>Node2&#45;&gt;Node9</title>
<path fill="none" stroke="midnightblue" d="M481.76,-230.329C505.487,-219.783 533.096,-207.513 555.612,-197.506"/>
<polygon fill="midnightblue" stroke="midnightblue" points="480.253,-227.168 472.537,-234.428 483.096,-233.565 480.253,-227.168"/>
</g>
<!-- Node10 -->
<g id="node10" class="node"><title>Node10</title>
<g id="a_node10"><a xlink:href="_string_utils_8hpp.html" target="_top" target="_top" xlink:title=" ">
<polygon fill="white" stroke="black" points="584.5,-78.5 584.5,-119.5 724.5,-119.5 724.5,-78.5 584.5,-78.5"/>
<text text-anchor="start" x="592.5" y="-107.5" font-family="Helvetica,sans-Serif" font-size="10.00">C:/Users/Lh/Documents</text>
<text text-anchor="start" x="592.5" y="-96.5" font-family="Helvetica,sans-Serif" font-size="10.00">/GitHub/utils4cpp/include</text>
<text text-anchor="middle" x="654.5" y="-85.5" font-family="Helvetica,sans-Serif" font-size="10.00">/utils4cpp/str/StringUtils.hpp</text>
</a>
</g>
</g>
<!-- Node2&#45;&gt;Node10 -->
<g id="edge11" class="edge"><title>Node2&#45;&gt;Node10</title>
<path fill="none" stroke="midnightblue" d="M501.056,-248.534C570.167,-241.64 667.046,-226.997 690.5,-198 709.308,-174.747 688.916,-140.757 672.042,-119.531"/>
<polygon fill="midnightblue" stroke="midnightblue" points="500.691,-245.053 491.073,-249.495 501.362,-252.02 500.691,-245.053"/>
</g>
<!-- Node4 -->
<g id="node4" class="node"><title>Node4</title>
<g id="a_node4"><a xlink:href="_date_8cpp.html" target="_top" target="_top" xlink:title=" ">
<polygon fill="white" stroke="black" points="10,-78.5 10,-119.5 131,-119.5 131,-78.5 10,-78.5"/>
<text text-anchor="start" x="18" y="-107.5" font-family="Helvetica,sans-Serif" font-size="10.00">C:/Users/Lh/Documents</text>
<text text-anchor="start" x="18" y="-96.5" font-family="Helvetica,sans-Serif" font-size="10.00">/GitHub/utils4cpp/src</text>
<text text-anchor="middle" x="70.5" y="-85.5" font-family="Helvetica,sans-Serif" font-size="10.00">/Date.cpp</text>
</a>
</g>
</g>
<!-- Node3&#45;&gt;Node4 -->
<g id="edge3" class="edge"><title>Node3&#45;&gt;Node4</title>
<path fill="none" stroke="midnightblue" d="M70.5,-146.297C70.5,-137.301 70.5,-127.653 70.5,-119.506"/>
<polygon fill="midnightblue" stroke="midnightblue" points="67.0001,-146.428 70.5,-156.428 74.0001,-146.428 67.0001,-146.428"/>
</g>
<!-- Node6 -->
<g id="node6" class="node"><title>Node6</title>
<g id="a_node6"><a xlink:href="_elapsed_timer_8cpp.html" target="_top" target="_top" xlink:title=" ">
<polygon fill="white" stroke="black" points="189,-78.5 189,-119.5 310,-119.5 310,-78.5 189,-78.5"/>
<text text-anchor="start" x="197" y="-107.5" font-family="Helvetica,sans-Serif" font-size="10.00">C:/Users/Lh/Documents</text>
<text text-anchor="start" x="197" y="-96.5" font-family="Helvetica,sans-Serif" font-size="10.00">/GitHub/utils4cpp/src</text>
<text text-anchor="middle" x="249.5" y="-85.5" font-family="Helvetica,sans-Serif" font-size="10.00">/ElapsedTimer.cpp</text>
</a>
</g>
</g>
<!-- Node5&#45;&gt;Node6 -->
<g id="edge5" class="edge"><title>Node5&#45;&gt;Node6</title>
<path fill="none" stroke="midnightblue" d="M249.5,-146.297C249.5,-137.301 249.5,-127.653 249.5,-119.506"/>
<polygon fill="midnightblue" stroke="midnightblue" points="246,-146.428 249.5,-156.428 253,-146.428 246,-146.428"/>
</g>
<!-- Node8 -->
<g id="node8" class="node"><title>Node8</title>
<g id="a_node8"><a xlink:href="_time_8cpp.html" target="_top" target="_top" xlink:title=" ">
<polygon fill="white" stroke="black" points="368,-78.5 368,-119.5 489,-119.5 489,-78.5 368,-78.5"/>
<text text-anchor="start" x="376" y="-107.5" font-family="Helvetica,sans-Serif" font-size="10.00">C:/Users/Lh/Documents</text>
<text text-anchor="start" x="376" y="-96.5" font-family="Helvetica,sans-Serif" font-size="10.00">/GitHub/utils4cpp/src</text>
<text text-anchor="middle" x="428.5" y="-85.5" font-family="Helvetica,sans-Serif" font-size="10.00">/Time.cpp</text>
</a>
</g>
</g>
<!-- Node7&#45;&gt;Node8 -->
<g id="edge7" class="edge"><title>Node7&#45;&gt;Node8</title>
<path fill="none" stroke="midnightblue" d="M428.5,-146.297C428.5,-137.301 428.5,-127.653 428.5,-119.506"/>
<polygon fill="midnightblue" stroke="midnightblue" points="425,-146.428 428.5,-156.428 432,-146.428 425,-146.428"/>
</g>
<!-- Node9&#45;&gt;Node10 -->
<g id="edge9" class="edge"><title>Node9&#45;&gt;Node10</title>
<path fill="none" stroke="midnightblue" d="M619.729,-148.048C626.591,-138.566 634.103,-128.185 640.384,-119.506"/>
<polygon fill="midnightblue" stroke="midnightblue" points="616.691,-146.275 613.664,-156.428 622.362,-150.379 616.691,-146.275"/>
</g>
<!-- Node11 -->
<g id="node11" class="node"><title>Node11</title>
<g id="a_node11"><a xlink:href="_string_utils_8cpp.html" target="_top" target="_top" xlink:title=" ">
<polygon fill="white" stroke="black" points="594,-0.5 594,-41.5 715,-41.5 715,-0.5 594,-0.5"/>
<text text-anchor="start" x="602" y="-29.5" font-family="Helvetica,sans-Serif" font-size="10.00">C:/Users/Lh/Documents</text>
<text text-anchor="start" x="602" y="-18.5" font-family="Helvetica,sans-Serif" font-size="10.00">/GitHub/utils4cpp/src</text>
<text text-anchor="middle" x="654.5" y="-7.5" font-family="Helvetica,sans-Serif" font-size="10.00">/StringUtils.cpp</text>
</a>
</g>
</g>
<!-- Node10&#45;&gt;Node11 -->
<g id="edge10" class="edge"><title>Node10&#45;&gt;Node11</title>
<path fill="none" stroke="midnightblue" d="M654.5,-68.2965C654.5,-59.3009 654.5,-49.6532 654.5,-41.5056"/>
<polygon fill="midnightblue" stroke="midnightblue" points="651,-68.4281 654.5,-78.4281 658,-68.4281 651,-68.4281"/>
</g>
</g>
</svg>
        <g id="navigator" transform="translate(0 0)" fill="#404254">
                <rect fill="#f2f5e9" fill-opacity="0.5" stroke="#606060" stroke-width=".5" x="0" y="0" width="60" height="60"/>
                <use id="zoomplus" xlink:href="#zoomPlus" target="_top" x="17" y="9" onmousedown="handleZoom(evt,'in')"/>
                <use id="zoomminus" xlink:href="#zoomMin" target="_top" x="42" y="9" onmousedown="handleZoom(evt,'out')"/>
                <use id="reset" xlink:href="#resetDef" target="_top" x="30" y="36" onmousedown="handleReset()"/>
                <g id="arrowUp" xlink:href="#dirArrow" target="_top" transform="translate(30 24)" onmousedown="handlePan(0,-1)">
                  <use xlink:href="#rim" target="_top" fill="#404040">
                        <set attributeName="fill" to="#808080" begin="arrowUp.mouseover" end="arrowUp.mouseout"/>
                  </use>
                  <path fill="none" stroke="white" stroke-width="1.5" d="M0,-3.0v7 M-2.5,-0.5L0,-3.0L2.5,-0.5"/>
                </g>
                <g id="arrowRight" xlink:href="#dirArrow" target="_top" transform="rotate(90) translate(36 -43)" onmousedown="handlePan(1,0)">
                  <use xlink:href="#rim" target="_top" fill="#404040">
                        <set attributeName="fill" to="#808080" begin="arrowRight.mouseover" end="arrowRight.mouseout"/>
                  </use>
                  <path fill="none" stroke="white" stroke-width="1.5" d="M0,-3.0v7 M-2.5,-0.5L0,-3.0L2.5,-0.5"/>
                </g>
                <g id="arrowDown" xlink:href="#dirArrow" target="_top" transform="rotate(180) translate(-30 -48)" onmousedown="handlePan(0,1)">
                  <use xlink:href="#rim" target="_top" fill="#404040">
                        <set attributeName="fill" to="#808080" begin="arrowDown.mouseover" end="arrowDown.mouseout"/>
                  </use>
                  <path fill="none" stroke="white" stroke-width="1.5" d="M0,-3.0v7 M-2.5,-0.5L0,-3.0L2.5,-0.5"/>
                </g>
                <g id="arrowLeft" xlink:href="#dirArrow" target="_top" transform="rotate(270) translate(-36 17)" onmousedown="handlePan(-1,0)">
                  <use xlink:href="#rim" target="_top" fill="#404040">
                        <set attributeName="fill" to="#808080" begin="arrowLeft.mouseover" end="arrowLeft.mouseout"/>
                  </use>
                  <path fill="none" stroke="white" stroke-width="1.5" d="M0,-3.0v7 M-2.5,-0.5L0,-3.0L2.5,-0.5"/>
                </g>
        </g>
        <svg viewBox="0 0 15 15" width="100%" height="30px" preserveAspectRatio="xMaxYMin meet">
         <g id="arrow_out" transform="scale(0.3 0.3)">
          <a xlink:href="_export_8hpp__dep__incl_org.svg" target="_top" target="_base">
           <rect id="button" ry="5" rx="5" y="6" x="6" height="38" width="38"
                fill="#f2f5e9" fill-opacity="0.5" stroke="#606060" stroke-width="1.0"/>
           <path id="arrow"
             d="M 11.500037,31.436501 C 11.940474,20.09759 22.043105,11.32322 32.158766,21.979434 L 37.068811,17.246167 C 37.068811,17.246167 37.088388,32 37.088388,32 L 22.160133,31.978069 C 22.160133,31.978069 26.997745,27.140456 26.997745,27.140456 C 18.528582,18.264221 13.291696,25.230495 11.500037,31.436501 z"
             style="fill:#404040;"/>
          </a>
         </g>
        </svg>
</svg>
