<?xml version="1.0" encoding="UTF-8" standalone="no"?>
<!DOCTYPE svg PUBLIC "-//W3C//DTD SVG 1.1//EN"
 "http://www.w3.org/Graphics/SVG/1.1/DTD/svg11.dtd">
<!-- Generated by graphviz version 2.38.0 (20140413.2041)
 -->
<!-- Title: C:/Users/Shaoguang/Documents/GitHub/utils4cpp/include/utils4cpp/str/StringToNumber.hpp Pages: 1 -->
<svg width="206pt" height="206pt"
 viewBox="0.00 0.00 206.00 206.00" xmlns="http://www.w3.org/2000/svg" xmlns:xlink="http://www.w3.org/1999/xlink">
<g id="graph0" class="graph" transform="scale(1 1) rotate(0) translate(4 202)">
<title>C:/Users/Shaoguang/Documents/GitHub/utils4cpp/include/utils4cpp/str/StringToNumber.hpp</title>
<polygon fill="white" stroke="none" points="-4,4 -4,-202 202,-202 202,4 -4,4"/>
<!-- Node0 -->
<g id="node1" class="node"><title>Node0</title>
<g id="a_node1"><a xlink:title=" ">
<polygon fill="#bfbfbf" stroke="black" points="0,-156.5 0,-197.5 198,-197.5 198,-156.5 0,-156.5"/>
<text text-anchor="start" x="8" y="-185.5" font-family="Helvetica,sans-Serif" font-size="10.00">C:/Users/Shaoguang</text>
<text text-anchor="start" x="8" y="-174.5" font-family="Helvetica,sans-Serif" font-size="10.00">/Documents/GitHub/utils4cpp</text>
<text text-anchor="middle" x="99" y="-163.5" font-family="Helvetica,sans-Serif" font-size="10.00">/include/utils4cpp/str/StringToNumber.hpp</text>
</a>
</g>
</g>
<!-- Node1 -->
<g id="node2" class="node"><title>Node1</title>
<g id="a_node2"><a xlink:href="_string_utils_8hpp.html" target="_top" xlink:title=" ">
<polygon fill="white" stroke="black" points="12.5,-78.5 12.5,-119.5 185.5,-119.5 185.5,-78.5 12.5,-78.5"/>
<text text-anchor="start" x="20.5" y="-107.5" font-family="Helvetica,sans-Serif" font-size="10.00">C:/Users/Shaoguang</text>
<text text-anchor="start" x="20.5" y="-96.5" font-family="Helvetica,sans-Serif" font-size="10.00">/Documents/GitHub/utils4cpp</text>
<text text-anchor="middle" x="99" y="-85.5" font-family="Helvetica,sans-Serif" font-size="10.00">/include/utils4cpp/str/StringUtils.hpp</text>
</a>
</g>
</g>
<!-- Node0&#45;&gt;Node1 -->
<g id="edge1" class="edge"><title>Node0&#45;&gt;Node1</title>
<path fill="none" stroke="midnightblue" d="M99,-146.297C99,-137.301 99,-127.653 99,-119.506"/>
<polygon fill="midnightblue" stroke="midnightblue" points="95.5001,-146.428 99,-156.428 102.5,-146.428 95.5001,-146.428"/>
</g>
<!-- Node2 -->
<g id="node3" class="node"><title>Node2</title>
<g id="a_node3"><a xlink:href="_string_utils_8cpp.html" target="_top" xlink:title=" ">
<polygon fill="white" stroke="black" points="27,-0.5 27,-41.5 171,-41.5 171,-0.5 27,-0.5"/>
<text text-anchor="start" x="35" y="-29.5" font-family="Helvetica,sans-Serif" font-size="10.00">C:/Users/Shaoguang</text>
<text text-anchor="start" x="35" y="-18.5" font-family="Helvetica,sans-Serif" font-size="10.00">/Documents/GitHub/utils4cpp</text>
<text text-anchor="middle" x="99" y="-7.5" font-family="Helvetica,sans-Serif" font-size="10.00">/src/StringUtils.cpp</text>
</a>
</g>
</g>
<!-- Node1&#45;&gt;Node2 -->
<g id="edge2" class="edge"><title>Node1&#45;&gt;Node2</title>
<path fill="none" stroke="midnightblue" d="M99,-68.2965C99,-59.3009 99,-49.6532 99,-41.5056"/>
<polygon fill="midnightblue" stroke="midnightblue" points="95.5001,-68.4281 99,-78.4281 102.5,-68.4281 95.5001,-68.4281"/>
</g>
</g>
</svg>
