<?xml version="1.0" encoding="UTF-8" standalone="no"?>
<!DOCTYPE svg PUBLIC "-//W3C//DTD SVG 1.1//EN"
 "http://www.w3.org/Graphics/SVG/1.1/DTD/svg11.dtd">
<!-- Generated by graphviz version 2.38.0 (20140413.2041)
 -->
<!-- Title: C:/Users/Lh/Documents/GitHub/utils4cpp/include/utils4cpp/str/StringToNumber.hpp Pages: 1 -->
<svg width="634pt" height="173pt"
 viewBox="0.00 0.00 634.00 173.00" xmlns="http://www.w3.org/2000/svg" xmlns:xlink="http://www.w3.org/1999/xlink">
<g id="graph0" class="graph" transform="scale(1 1) rotate(0) translate(4 169)">
<title>C:/Users/Lh/Documents/GitHub/utils4cpp/include/utils4cpp/str/StringToNumber.hpp</title>
<polygon fill="white" stroke="none" points="-4,4 -4,-169 630,-169 630,4 -4,4"/>
<!-- Node0 -->
<g id="node1" class="node"><title>Node0</title>
<g id="a_node1"><a xlink:title=" ">
<polygon fill="#bfbfbf" stroke="black" points="101,-123.5 101,-164.5 265,-164.5 265,-123.5 101,-123.5"/>
<text text-anchor="start" x="109" y="-152.5" font-family="Helvetica,sans-Serif" font-size="10.00">C:/Users/Lh/Documents</text>
<text text-anchor="start" x="109" y="-141.5" font-family="Helvetica,sans-Serif" font-size="10.00">/GitHub/utils4cpp/include</text>
<text text-anchor="middle" x="183" y="-130.5" font-family="Helvetica,sans-Serif" font-size="10.00">/utils4cpp/str/StringToNumber.hpp</text>
</a>
</g>
</g>
<!-- Node1 -->
<g id="node2" class="node"><title>Node1</title>
<g id="a_node2"><a xlink:title=" ">
<polygon fill="white" stroke="#bfbfbf" points="94.5,-67.5 94.5,-86.5 135.5,-86.5 135.5,-67.5 94.5,-67.5"/>
<text text-anchor="middle" x="115" y="-74.5" font-family="Helvetica,sans-Serif" font-size="10.00">string</text>
</a>
</g>
</g>
<!-- Node0&#45;&gt;Node1 -->
<g id="edge1" class="edge"><title>Node0&#45;&gt;Node1</title>
<path fill="none" stroke="midnightblue" d="M162.598,-123.498C152.673,-114.011 140.898,-102.756 131.543,-93.8131"/>
<polygon fill="midnightblue" stroke="midnightblue" points="133.699,-91.0323 124.052,-86.6525 128.862,-96.0924 133.699,-91.0323"/>
</g>
<!-- Node2 -->
<g id="node3" class="node"><title>Node2</title>
<g id="a_node3"><a xlink:title=" ">
<polygon fill="white" stroke="#bfbfbf" points="153.5,-67.5 153.5,-86.5 212.5,-86.5 212.5,-67.5 153.5,-67.5"/>
<text text-anchor="middle" x="183" y="-74.5" font-family="Helvetica,sans-Serif" font-size="10.00">stdexcept</text>
</a>
</g>
</g>
<!-- Node0&#45;&gt;Node2 -->
<g id="edge2" class="edge"><title>Node0&#45;&gt;Node2</title>
<path fill="none" stroke="midnightblue" d="M183,-123.498C183,-115.065 183,-105.235 183,-96.874"/>
<polygon fill="midnightblue" stroke="midnightblue" points="186.5,-96.6525 183,-86.6525 179.5,-96.6525 186.5,-96.6525"/>
</g>
<!-- Node3 -->
<g id="node4" class="node"><title>Node3</title>
<g id="a_node4"><a xlink:href="_core_8hpp.html" target="_top" xlink:title=" ">
<polygon fill="white" stroke="black" points="230.5,-67.5 230.5,-86.5 349.5,-86.5 349.5,-67.5 230.5,-67.5"/>
<text text-anchor="middle" x="290" y="-74.5" font-family="Helvetica,sans-Serif" font-size="10.00">utils4cpp/core/Core.hpp</text>
</a>
</g>
</g>
<!-- Node0&#45;&gt;Node3 -->
<g id="edge3" class="edge"><title>Node0&#45;&gt;Node3</title>
<path fill="none" stroke="midnightblue" d="M215.104,-123.498C231.824,-113.34 251.883,-101.155 267.032,-91.9523"/>
<polygon fill="midnightblue" stroke="midnightblue" points="269.027,-94.8357 275.757,-86.6525 265.393,-88.8531 269.027,-94.8357"/>
</g>
<!-- Node4 -->
<g id="node5" class="node"><title>Node4</title>
<g id="a_node5"><a xlink:href="_version_8hpp.html" target="_top" xlink:title=" ">
<polygon fill="white" stroke="black" points="0,-6 0,-25 132,-25 132,-6 0,-6"/>
<text text-anchor="middle" x="66" y="-13" font-family="Helvetica,sans-Serif" font-size="10.00">utils4cpp/core/Version.hpp</text>
</a>
</g>
</g>
<!-- Node3&#45;&gt;Node4 -->
<g id="edge4" class="edge"><title>Node3&#45;&gt;Node4</title>
<path fill="none" stroke="midnightblue" d="M257.906,-67.4751C218.401,-56.9815 151.221,-39.1367 107.739,-27.587"/>
<polygon fill="midnightblue" stroke="midnightblue" points="108.598,-24.1937 98.0342,-25.0091 106.801,-30.9591 108.598,-24.1937"/>
</g>
<!-- Node5 -->
<g id="node6" class="node"><title>Node5</title>
<g id="a_node6"><a xlink:href="_export_8hpp.html" target="_top" xlink:title=" ">
<polygon fill="white" stroke="black" points="150,-6 150,-25 278,-25 278,-6 150,-6"/>
<text text-anchor="middle" x="214" y="-13" font-family="Helvetica,sans-Serif" font-size="10.00">utils4cpp/core/Export.hpp</text>
</a>
</g>
</g>
<!-- Node3&#45;&gt;Node5 -->
<g id="edge5" class="edge"><title>Node3&#45;&gt;Node5</title>
<path fill="none" stroke="midnightblue" d="M279.111,-67.4751C267.034,-58.0199 247.333,-42.5961 232.76,-31.1871"/>
<polygon fill="midnightblue" stroke="midnightblue" points="234.9,-28.4177 224.869,-25.0091 230.585,-33.9295 234.9,-28.4177"/>
</g>
<!-- Node6 -->
<g id="node7" class="node"><title>Node6</title>
<g id="a_node7"><a xlink:href="_cpp_standard_detection_8hpp.html" target="_top" xlink:title=" ">
<polygon fill="white" stroke="black" points="296.5,-0.5 296.5,-30.5 433.5,-30.5 433.5,-0.5 296.5,-0.5"/>
<text text-anchor="start" x="304.5" y="-18.5" font-family="Helvetica,sans-Serif" font-size="10.00">utils4cpp/core/CppStandard</text>
<text text-anchor="middle" x="365" y="-7.5" font-family="Helvetica,sans-Serif" font-size="10.00">Detection.hpp</text>
</a>
</g>
</g>
<!-- Node3&#45;&gt;Node6 -->
<g id="edge6" class="edge"><title>Node3&#45;&gt;Node6</title>
<path fill="none" stroke="midnightblue" d="M300.746,-67.4751C310.808,-59.492 326.234,-47.2542 339.449,-36.7703"/>
<polygon fill="midnightblue" stroke="midnightblue" points="341.665,-39.48 347.324,-30.523 337.315,-33.9961 341.665,-39.48"/>
</g>
<!-- Node7 -->
<g id="node8" class="node"><title>Node7</title>
<g id="a_node8"><a xlink:href="_system_detection_8hpp.html" target="_top" xlink:title=" ">
<polygon fill="white" stroke="black" points="452,-6 452,-25 626,-25 626,-6 452,-6"/>
<text text-anchor="middle" x="539" y="-13" font-family="Helvetica,sans-Serif" font-size="10.00">utils4cpp/core/SystemDetection.hpp</text>
</a>
</g>
</g>
<!-- Node3&#45;&gt;Node7 -->
<g id="edge7" class="edge"><title>Node3&#45;&gt;Node7</title>
<path fill="none" stroke="midnightblue" d="M325.676,-67.4751C369.867,-56.9153 445.213,-38.911 493.515,-27.3689"/>
<polygon fill="midnightblue" stroke="midnightblue" points="494.478,-30.7374 503.391,-25.0091 492.851,-23.9291 494.478,-30.7374"/>
</g>
</g>
</svg>
