<?xml version="1.0" encoding="UTF-8" standalone="no"?>
<!DOCTYPE svg PUBLIC "-//W3C//DTD SVG 1.1//EN"
 "http://www.w3.org/Graphics/SVG/1.1/DTD/svg11.dtd">
<!-- Generated by graphviz version 2.38.0 (20140413.2041)
 -->
<!-- Title: C:/Users/Shaoguang/Documents/GitHub/utils4cpp/include/utils4cpp/str/StringUtils.hpp Pages: 1 -->
<svg width="181pt" height="128pt"
 viewBox="0.00 0.00 181.00 128.00" xmlns="http://www.w3.org/2000/svg" xmlns:xlink="http://www.w3.org/1999/xlink">
<g id="graph0" class="graph" transform="scale(1 1) rotate(0) translate(4 124)">
<title>C:/Users/Shaoguang/Documents/GitHub/utils4cpp/include/utils4cpp/str/StringUtils.hpp</title>
<polygon fill="white" stroke="none" points="-4,4 -4,-124 177,-124 177,4 -4,4"/>
<!-- Node0 -->
<g id="node1" class="node"><title>Node0</title>
<g id="a_node1"><a xlink:title=" ">
<polygon fill="#bfbfbf" stroke="black" points="0,-78.5 0,-119.5 173,-119.5 173,-78.5 0,-78.5"/>
<text text-anchor="start" x="8" y="-107.5" font-family="Helvetica,sans-Serif" font-size="10.00">C:/Users/Shaoguang</text>
<text text-anchor="start" x="8" y="-96.5" font-family="Helvetica,sans-Serif" font-size="10.00">/Documents/GitHub/utils4cpp</text>
<text text-anchor="middle" x="86.5" y="-85.5" font-family="Helvetica,sans-Serif" font-size="10.00">/include/utils4cpp/str/StringUtils.hpp</text>
</a>
</g>
</g>
<!-- Node1 -->
<g id="node2" class="node"><title>Node1</title>
<g id="a_node2"><a xlink:href="_string_utils_8cpp.html" target="_top" xlink:title=" ">
<polygon fill="white" stroke="black" points="14.5,-0.5 14.5,-41.5 158.5,-41.5 158.5,-0.5 14.5,-0.5"/>
<text text-anchor="start" x="22.5" y="-29.5" font-family="Helvetica,sans-Serif" font-size="10.00">C:/Users/Shaoguang</text>
<text text-anchor="start" x="22.5" y="-18.5" font-family="Helvetica,sans-Serif" font-size="10.00">/Documents/GitHub/utils4cpp</text>
<text text-anchor="middle" x="86.5" y="-7.5" font-family="Helvetica,sans-Serif" font-size="10.00">/src/StringUtils.cpp</text>
</a>
</g>
</g>
<!-- Node0&#45;&gt;Node1 -->
<g id="edge1" class="edge"><title>Node0&#45;&gt;Node1</title>
<path fill="none" stroke="midnightblue" d="M86.5,-68.2965C86.5,-59.3009 86.5,-49.6532 86.5,-41.5056"/>
<polygon fill="midnightblue" stroke="midnightblue" points="83.0001,-68.4281 86.5,-78.4281 90.0001,-68.4281 83.0001,-68.4281"/>
</g>
</g>
</svg>
