<?xml version="1.0" encoding="UTF-8" standalone="no"?>
<!DOCTYPE svg PUBLIC "-//W3C//DTD SVG 1.1//EN"
 "http://www.w3.org/Graphics/SVG/1.1/DTD/svg11.dtd">
<!-- Generated by graphviz version 2.38.0 (20140413.2041)
 -->
<!-- Title: C:/Users/Shaoguang/Documents/GitHub/utils4cpp/include/utils4cpp/str/StringUtils.hpp Pages: 1 -->
<svg width="634pt" height="229pt"
 viewBox="0.00 0.00 634.00 229.00" xmlns="http://www.w3.org/2000/svg" xmlns:xlink="http://www.w3.org/1999/xlink">
<g id="graph0" class="graph" transform="scale(1 1) rotate(0) translate(4 225)">
<title>C:/Users/Shaoguang/Documents/GitHub/utils4cpp/include/utils4cpp/str/StringUtils.hpp</title>
<polygon fill="white" stroke="none" points="-4,4 -4,-225 630,-225 630,4 -4,4"/>
<!-- Node0 -->
<g id="node1" class="node"><title>Node0</title>
<g id="a_node1"><a xlink:title=" ">
<polygon fill="#bfbfbf" stroke="black" points="35.5,-179.5 35.5,-220.5 208.5,-220.5 208.5,-179.5 35.5,-179.5"/>
<text text-anchor="start" x="43.5" y="-208.5" font-family="Helvetica,sans-Serif" font-size="10.00">C:/Users/Shaoguang</text>
<text text-anchor="start" x="43.5" y="-197.5" font-family="Helvetica,sans-Serif" font-size="10.00">/Documents/GitHub/utils4cpp</text>
<text text-anchor="middle" x="122" y="-186.5" font-family="Helvetica,sans-Serif" font-size="10.00">/include/utils4cpp/str/StringUtils.hpp</text>
</a>
</g>
</g>
<!-- Node1 -->
<g id="node2" class="node"><title>Node1</title>
<g id="a_node2"><a xlink:title=" ">
<polygon fill="white" stroke="#bfbfbf" points="42.5,-67.5 42.5,-86.5 83.5,-86.5 83.5,-67.5 42.5,-67.5"/>
<text text-anchor="middle" x="63" y="-74.5" font-family="Helvetica,sans-Serif" font-size="10.00">string</text>
</a>
</g>
</g>
<!-- Node0&#45;&gt;Node1 -->
<g id="edge1" class="edge"><title>Node0&#45;&gt;Node1</title>
<path fill="none" stroke="midnightblue" d="M71.4782,-179.352C56.0003,-170.667 40.7584,-158.765 32,-143 22.9494,-126.709 34.949,-107.352 46.5534,-94.0224"/>
<polygon fill="midnightblue" stroke="midnightblue" points="49.2441,-96.27 53.536,-86.5834 44.1402,-91.4793 49.2441,-96.27"/>
</g>
<!-- Node2 -->
<g id="node3" class="node"><title>Node2</title>
<g id="a_node3"><a xlink:title=" ">
<polygon fill="white" stroke="#bfbfbf" points="41,-123.5 41,-142.5 83,-142.5 83,-123.5 41,-123.5"/>
<text text-anchor="middle" x="62" y="-130.5" font-family="Helvetica,sans-Serif" font-size="10.00">vector</text>
</a>
</g>
</g>
<!-- Node0&#45;&gt;Node2 -->
<g id="edge2" class="edge"><title>Node0&#45;&gt;Node2</title>
<path fill="none" stroke="midnightblue" d="M103.998,-179.498C95.3296,-170.107 85.0611,-158.983 76.8475,-150.085"/>
<polygon fill="midnightblue" stroke="midnightblue" points="79.3416,-147.627 69.9869,-142.652 74.1979,-152.375 79.3416,-147.627"/>
</g>
<!-- Node3 -->
<g id="node4" class="node"><title>Node3</title>
<g id="a_node4"><a xlink:href="_string_to_number_8hpp.html" target="_top" xlink:title=" ">
<polygon fill="white" stroke="black" points="101.5,-123.5 101.5,-142.5 262.5,-142.5 262.5,-123.5 101.5,-123.5"/>
<text text-anchor="middle" x="182" y="-130.5" font-family="Helvetica,sans-Serif" font-size="10.00">utils4cpp/str/StringToNumber.hpp</text>
</a>
</g>
</g>
<!-- Node0&#45;&gt;Node3 -->
<g id="edge3" class="edge"><title>Node0&#45;&gt;Node3</title>
<path fill="none" stroke="midnightblue" d="M140.002,-179.498C148.67,-170.107 158.939,-158.983 167.153,-150.085"/>
<polygon fill="midnightblue" stroke="midnightblue" points="169.802,-152.375 174.013,-142.652 164.658,-147.627 169.802,-152.375"/>
</g>
<!-- Node5 -->
<g id="node6" class="node"><title>Node5</title>
<g id="a_node6"><a xlink:href="_core_8hpp.html" target="_top" xlink:title=" ">
<polygon fill="white" stroke="black" points="230.5,-67.5 230.5,-86.5 349.5,-86.5 349.5,-67.5 230.5,-67.5"/>
<text text-anchor="middle" x="290" y="-74.5" font-family="Helvetica,sans-Serif" font-size="10.00">utils4cpp/core/Core.hpp</text>
</a>
</g>
</g>
<!-- Node0&#45;&gt;Node5 -->
<g id="edge11" class="edge"><title>Node0&#45;&gt;Node5</title>
<path fill="none" stroke="midnightblue" d="M208.53,-181.479C231.428,-173.157 254.368,-160.931 271,-143 282.608,-130.485 287.161,-111.259 288.927,-96.9587"/>
<polygon fill="midnightblue" stroke="midnightblue" points="292.434,-97.0383 289.828,-86.7689 285.461,-96.4219 292.434,-97.0383"/>
</g>
<!-- Node3&#45;&gt;Node1 -->
<g id="edge4" class="edge"><title>Node3&#45;&gt;Node1</title>
<path fill="none" stroke="midnightblue" d="M163.144,-123.444C143.734,-114.636 113.27,-100.812 91.0355,-90.722"/>
<polygon fill="midnightblue" stroke="midnightblue" points="92.3203,-87.4615 81.7677,-86.5164 89.4277,-93.836 92.3203,-87.4615"/>
</g>
<!-- Node4 -->
<g id="node5" class="node"><title>Node4</title>
<g id="a_node5"><a xlink:title=" ">
<polygon fill="white" stroke="#bfbfbf" points="152.5,-67.5 152.5,-86.5 211.5,-86.5 211.5,-67.5 152.5,-67.5"/>
<text text-anchor="middle" x="182" y="-74.5" font-family="Helvetica,sans-Serif" font-size="10.00">stdexcept</text>
</a>
</g>
</g>
<!-- Node3&#45;&gt;Node4 -->
<g id="edge5" class="edge"><title>Node3&#45;&gt;Node4</title>
<path fill="none" stroke="midnightblue" d="M182,-123.083C182,-116.006 182,-105.861 182,-96.9865"/>
<polygon fill="midnightblue" stroke="midnightblue" points="185.5,-96.751 182,-86.7511 178.5,-96.7511 185.5,-96.751"/>
</g>
<!-- Node3&#45;&gt;Node5 -->
<g id="edge6" class="edge"><title>Node3&#45;&gt;Node5</title>
<path fill="none" stroke="midnightblue" d="M199.352,-123.324C216.672,-114.664 243.515,-101.242 263.502,-91.249"/>
<polygon fill="midnightblue" stroke="midnightblue" points="265.312,-94.2572 272.691,-86.6545 262.181,-87.9962 265.312,-94.2572"/>
</g>
<!-- Node6 -->
<g id="node7" class="node"><title>Node6</title>
<g id="a_node7"><a xlink:href="_version_8hpp.html" target="_top" xlink:title=" ">
<polygon fill="white" stroke="black" points="0,-6 0,-25 132,-25 132,-6 0,-6"/>
<text text-anchor="middle" x="66" y="-13" font-family="Helvetica,sans-Serif" font-size="10.00">utils4cpp/core/Version.hpp</text>
</a>
</g>
</g>
<!-- Node5&#45;&gt;Node6 -->
<g id="edge7" class="edge"><title>Node5&#45;&gt;Node6</title>
<path fill="none" stroke="midnightblue" d="M257.906,-67.4751C218.401,-56.9815 151.221,-39.1367 107.739,-27.587"/>
<polygon fill="midnightblue" stroke="midnightblue" points="108.598,-24.1937 98.0342,-25.0091 106.801,-30.9591 108.598,-24.1937"/>
</g>
<!-- Node7 -->
<g id="node8" class="node"><title>Node7</title>
<g id="a_node8"><a xlink:href="_export_8hpp.html" target="_top" xlink:title=" ">
<polygon fill="white" stroke="black" points="150,-6 150,-25 278,-25 278,-6 150,-6"/>
<text text-anchor="middle" x="214" y="-13" font-family="Helvetica,sans-Serif" font-size="10.00">utils4cpp/core/Export.hpp</text>
</a>
</g>
</g>
<!-- Node5&#45;&gt;Node7 -->
<g id="edge8" class="edge"><title>Node5&#45;&gt;Node7</title>
<path fill="none" stroke="midnightblue" d="M279.111,-67.4751C267.034,-58.0199 247.333,-42.5961 232.76,-31.1871"/>
<polygon fill="midnightblue" stroke="midnightblue" points="234.9,-28.4177 224.869,-25.0091 230.585,-33.9295 234.9,-28.4177"/>
</g>
<!-- Node8 -->
<g id="node9" class="node"><title>Node8</title>
<g id="a_node9"><a xlink:href="_cpp_standard_detection_8hpp.html" target="_top" xlink:title=" ">
<polygon fill="white" stroke="black" points="296.5,-0.5 296.5,-30.5 433.5,-30.5 433.5,-0.5 296.5,-0.5"/>
<text text-anchor="start" x="304.5" y="-18.5" font-family="Helvetica,sans-Serif" font-size="10.00">utils4cpp/core/CppStandard</text>
<text text-anchor="middle" x="365" y="-7.5" font-family="Helvetica,sans-Serif" font-size="10.00">Detection.hpp</text>
</a>
</g>
</g>
<!-- Node5&#45;&gt;Node8 -->
<g id="edge9" class="edge"><title>Node5&#45;&gt;Node8</title>
<path fill="none" stroke="midnightblue" d="M300.746,-67.4751C310.808,-59.492 326.234,-47.2542 339.449,-36.7703"/>
<polygon fill="midnightblue" stroke="midnightblue" points="341.665,-39.48 347.324,-30.523 337.315,-33.9961 341.665,-39.48"/>
</g>
<!-- Node9 -->
<g id="node10" class="node"><title>Node9</title>
<g id="a_node10"><a xlink:href="_system_detection_8hpp.html" target="_top" xlink:title=" ">
<polygon fill="white" stroke="black" points="452,-6 452,-25 626,-25 626,-6 452,-6"/>
<text text-anchor="middle" x="539" y="-13" font-family="Helvetica,sans-Serif" font-size="10.00">utils4cpp/core/SystemDetection.hpp</text>
</a>
</g>
</g>
<!-- Node5&#45;&gt;Node9 -->
<g id="edge10" class="edge"><title>Node5&#45;&gt;Node9</title>
<path fill="none" stroke="midnightblue" d="M325.676,-67.4751C369.867,-56.9153 445.213,-38.911 493.515,-27.3689"/>
<polygon fill="midnightblue" stroke="midnightblue" points="494.478,-30.7374 503.391,-25.0091 492.851,-23.9291 494.478,-30.7374"/>
</g>
</g>
</svg>
