<?xml version="1.0" encoding="UTF-8" standalone="no"?>
<!DOCTYPE svg PUBLIC "-//W3C//DTD SVG 1.1//EN"
 "http://www.w3.org/Graphics/SVG/1.1/DTD/svg11.dtd">
<!-- Generated by graphviz version 2.38.0 (20140413.2041)
 -->
<!-- Title: C:/Users/Lh/Documents/GitHub/utils4cpp/include/utils4cpp/str/StringToNumber.hpp Pages: 1 -->
<svg width="172pt" height="206pt"
 viewBox="0.00 0.00 172.00 206.00" xmlns="http://www.w3.org/2000/svg" xmlns:xlink="http://www.w3.org/1999/xlink">
<g id="graph0" class="graph" transform="scale(1 1) rotate(0) translate(4 202)">
<title>C:/Users/Lh/Documents/GitHub/utils4cpp/include/utils4cpp/str/StringToNumber.hpp</title>
<polygon fill="white" stroke="none" points="-4,4 -4,-202 168,-202 168,4 -4,4"/>
<!-- Node8 -->
<g id="node1" class="node"><title>Node8</title>
<g id="a_node1"><a xlink:title=" ">
<polygon fill="#bfbfbf" stroke="black" points="0,-156.5 0,-197.5 164,-197.5 164,-156.5 0,-156.5"/>
<text text-anchor="start" x="8" y="-185.5" font-family="Helvetica,sans-Serif" font-size="10.00">C:/Users/Lh/Documents</text>
<text text-anchor="start" x="8" y="-174.5" font-family="Helvetica,sans-Serif" font-size="10.00">/GitHub/utils4cpp/include</text>
<text text-anchor="middle" x="82" y="-163.5" font-family="Helvetica,sans-Serif" font-size="10.00">/utils4cpp/str/StringToNumber.hpp</text>
</a>
</g>
</g>
<!-- Node9 -->
<g id="node2" class="node"><title>Node9</title>
<g id="a_node2"><a xlink:href="_string_utils_8hpp.html" target="_top" xlink:title=" ">
<polygon fill="white" stroke="black" points="12,-78.5 12,-119.5 152,-119.5 152,-78.5 12,-78.5"/>
<text text-anchor="start" x="20" y="-107.5" font-family="Helvetica,sans-Serif" font-size="10.00">C:/Users/Lh/Documents</text>
<text text-anchor="start" x="20" y="-96.5" font-family="Helvetica,sans-Serif" font-size="10.00">/GitHub/utils4cpp/include</text>
<text text-anchor="middle" x="82" y="-85.5" font-family="Helvetica,sans-Serif" font-size="10.00">/utils4cpp/str/StringUtils.hpp</text>
</a>
</g>
</g>
<!-- Node8&#45;&gt;Node9 -->
<g id="edge1" class="edge"><title>Node8&#45;&gt;Node9</title>
<path fill="none" stroke="midnightblue" d="M82,-146.297C82,-137.301 82,-127.653 82,-119.506"/>
<polygon fill="midnightblue" stroke="midnightblue" points="78.5001,-146.428 82,-156.428 85.5001,-146.428 78.5001,-146.428"/>
</g>
<!-- Node10 -->
<g id="node3" class="node"><title>Node10</title>
<g id="a_node3"><a xlink:href="_string_utils_8cpp.html" target="_top" xlink:title=" ">
<polygon fill="white" stroke="black" points="21.5,-0.5 21.5,-41.5 142.5,-41.5 142.5,-0.5 21.5,-0.5"/>
<text text-anchor="start" x="29.5" y="-29.5" font-family="Helvetica,sans-Serif" font-size="10.00">C:/Users/Lh/Documents</text>
<text text-anchor="start" x="29.5" y="-18.5" font-family="Helvetica,sans-Serif" font-size="10.00">/GitHub/utils4cpp/src</text>
<text text-anchor="middle" x="82" y="-7.5" font-family="Helvetica,sans-Serif" font-size="10.00">/StringUtils.cpp</text>
</a>
</g>
</g>
<!-- Node9&#45;&gt;Node10 -->
<g id="edge2" class="edge"><title>Node9&#45;&gt;Node10</title>
<path fill="none" stroke="midnightblue" d="M82,-68.2965C82,-59.3009 82,-49.6532 82,-41.5056"/>
<polygon fill="midnightblue" stroke="midnightblue" points="78.5001,-68.4281 82,-78.4281 85.5001,-68.4281 78.5001,-68.4281"/>
</g>
</g>
</svg>
