<?xml version="1.0" encoding="UTF-8" standalone="no"?>
<!DOCTYPE svg PUBLIC "-//W3C//DTD SVG 1.1//EN"
 "http://www.w3.org/Graphics/SVG/1.1/DTD/svg11.dtd">
<!-- Generated by graphviz version 2.38.0 (20140413.2041)
 -->
<!-- Title: C:/Users/Lh/Documents/GitHub/utils4cpp/src/Time.cpp Pages: 1 -->
<!--zoomable 240 -->
<svg id="main" version="1.1" xmlns="http://www.w3.org/2000/svg" xmlns:xlink="http://www.w3.org/1999/xlink" xml:space="preserve" onload="init(evt)">
<style type="text/css"><![CDATA[
.edge:hover path { stroke: red; }
.edge:hover polygon { stroke: red; fill: red; }
]]></style>
<script type="text/javascript"><![CDATA[
var edges = document.getElementsByTagName('g');
if (edges && edges.length) {
  for (var i=0;i<edges.length;i++) {
    if (edges[i].id.substr(0,4)=='edge') {
      edges[i].setAttribute('class','edge');
    }
  }
}
]]></script>
        <defs>
                <circle id="rim" cx="0" cy="0" r="7"/>
                <circle id="rim2" cx="0" cy="0" r="3.5"/>
                <g id="zoomPlus">
                        <use xlink:href="#rim" fill="#404040">
                                <set attributeName="fill" to="#808080" begin="zoomplus.mouseover" end="zoomplus.mouseout"/>
                        </use>
                        <path d="M-4,0h8M0,-4v8" fill="none" stroke="white" stroke-width="1.5" pointer-events="none"/>
                </g>
                <g id="zoomMin">
                        <use xlink:href="#rim" fill="#404040">
                                <set attributeName="fill" to="#808080" begin="zoomminus.mouseover" end="zoomminus.mouseout"/>
                        </use>
                        <path d="M-4,0h8" fill="none" stroke="white" stroke-width="1.5" pointer-events="none"/>
                </g>
                <g id="dirArrow">
                        <path fill="none" stroke="white" stroke-width="1.5" d="M0,-3.0v7 M-2.5,-0.5L0,-3.0L2.5,-0.5"/>
                </g>
               <g id="resetDef">
                       <use xlink:href="#rim2" fill="#404040">
                               <set attributeName="fill" to="#808080" begin="reset.mouseover" end="reset.mouseout"/>
                       </use>
               </g>
        </defs>

<script type="text/javascript">
var viewWidth = 715;
var viewHeight = 240;
var sectionId = 'dynsection-0';
</script>
<script xlink:href="svgpan.js"/>
<svg id="graph" class="graph">
<g id="viewport">
<title>C:/Users/Lh/Documents/GitHub/utils4cpp/src/Time.cpp</title>
<polygon fill="white" stroke="none" points="-4,4 -4,-236 711,-236 711,4 -4,4"/>
<!-- Node0 -->
<g id="node1" class="node"><title>Node0</title>
<g id="a_node1"><a xlink:title=" ">
<polygon fill="#bfbfbf" stroke="black" points="84.5,-190.5 84.5,-231.5 205.5,-231.5 205.5,-190.5 84.5,-190.5"/>
<text text-anchor="start" x="92.5" y="-219.5" font-family="Helvetica,sans-Serif" font-size="10.00">C:/Users/Lh/Documents</text>
<text text-anchor="start" x="92.5" y="-208.5" font-family="Helvetica,sans-Serif" font-size="10.00">/GitHub/utils4cpp/src</text>
<text text-anchor="middle" x="145" y="-197.5" font-family="Helvetica,sans-Serif" font-size="10.00">/Time.cpp</text>
</a>
</g>
</g>
<!-- Node1 -->
<g id="node2" class="node"><title>Node1</title>
<g id="a_node2"><a xlink:title=" ">
<polygon fill="white" stroke="#bfbfbf" points="0,-129 0,-148 44,-148 44,-129 0,-129"/>
<text text-anchor="middle" x="22" y="-136" font-family="Helvetica,sans-Serif" font-size="10.00">time.h</text>
</a>
</g>
</g>
<!-- Node0&#45;&gt;Node1 -->
<g id="edge1" class="edge"><title>Node0&#45;&gt;Node1</title>
<path fill="none" stroke="midnightblue" d="M110.738,-190.362C90.1568,-178.565 64.476,-163.846 46.0445,-153.282"/>
<polygon fill="midnightblue" stroke="midnightblue" points="47.5487,-150.11 37.1323,-148.173 44.0677,-156.183 47.5487,-150.11"/>
</g>
<!-- Node2 -->
<g id="node3" class="node"><title>Node2</title>
<g id="a_node3"><a xlink:title=" ">
<polygon fill="white" stroke="#bfbfbf" points="62.5,-129 62.5,-148 103.5,-148 103.5,-129 62.5,-129"/>
<text text-anchor="middle" x="83" y="-136" font-family="Helvetica,sans-Serif" font-size="10.00">ctime</text>
</a>
</g>
</g>
<!-- Node0&#45;&gt;Node2 -->
<g id="edge2" class="edge"><title>Node0&#45;&gt;Node2</title>
<path fill="none" stroke="midnightblue" d="M127.73,-190.362C118.212,-179.539 106.531,-166.257 97.4926,-155.979"/>
<polygon fill="midnightblue" stroke="midnightblue" points="99.8598,-153.371 90.6277,-148.173 94.6033,-157.994 99.8598,-153.371"/>
</g>
<!-- Node3 -->
<g id="node4" class="node"><title>Node3</title>
<g id="a_node4"><a xlink:title=" ">
<polygon fill="white" stroke="#bfbfbf" points="122,-129 122,-148 168,-148 168,-129 122,-129"/>
<text text-anchor="middle" x="145" y="-136" font-family="Helvetica,sans-Serif" font-size="10.00">cstring</text>
</a>
</g>
</g>
<!-- Node0&#45;&gt;Node3 -->
<g id="edge3" class="edge"><title>Node0&#45;&gt;Node3</title>
<path fill="none" stroke="midnightblue" d="M145,-190.362C145,-180.297 145,-168.104 145,-158.18"/>
<polygon fill="midnightblue" stroke="midnightblue" points="148.5,-158.173 145,-148.173 141.5,-158.173 148.5,-158.173"/>
</g>
<!-- Node4 -->
<g id="node5" class="node"><title>Node4</title>
<g id="a_node5"><a xlink:title=" ">
<polygon fill="white" stroke="#bfbfbf" points="186,-129 186,-148 254,-148 254,-129 186,-129"/>
<text text-anchor="middle" x="220" y="-136" font-family="Helvetica,sans-Serif" font-size="10.00">sys/timeb.h</text>
</a>
</g>
</g>
<!-- Node0&#45;&gt;Node4 -->
<g id="edge4" class="edge"><title>Node0&#45;&gt;Node4</title>
<path fill="none" stroke="midnightblue" d="M165.892,-190.362C177.75,-179.215 192.386,-165.458 203.444,-155.063"/>
<polygon fill="midnightblue" stroke="midnightblue" points="205.884,-157.573 210.773,-148.173 201.089,-152.472 205.884,-157.573"/>
</g>
<!-- Node5 -->
<g id="node6" class="node"><title>Node5</title>
<g id="a_node6"><a xlink:href="_time_8hpp.html" target="_top" xlink:title=" ">
<polygon fill="white" stroke="black" points="272,-123.5 272,-153.5 368,-153.5 368,-123.5 272,-123.5"/>
<text text-anchor="start" x="280" y="-141.5" font-family="Helvetica,sans-Serif" font-size="10.00">utils4cpp/datetime</text>
<text text-anchor="middle" x="320" y="-130.5" font-family="Helvetica,sans-Serif" font-size="10.00">/Time.hpp</text>
</a>
</g>
</g>
<!-- Node0&#45;&gt;Node5 -->
<g id="edge5" class="edge"><title>Node0&#45;&gt;Node5</title>
<path fill="none" stroke="midnightblue" d="M193.747,-190.362C219.372,-180.039 250.552,-167.477 275.515,-157.421"/>
<polygon fill="midnightblue" stroke="midnightblue" points="277.132,-160.543 285.1,-153.56 274.517,-154.05 277.132,-160.543"/>
</g>
<!-- Node6 -->
<g id="node7" class="node"><title>Node6</title>
<g id="a_node7"><a xlink:title=" ">
<polygon fill="white" stroke="#bfbfbf" points="246,-67.5 246,-86.5 292,-86.5 292,-67.5 246,-67.5"/>
<text text-anchor="middle" x="269" y="-74.5" font-family="Helvetica,sans-Serif" font-size="10.00">cstdint</text>
</a>
</g>
</g>
<!-- Node5&#45;&gt;Node6 -->
<g id="edge6" class="edge"><title>Node5&#45;&gt;Node6</title>
<path fill="none" stroke="midnightblue" d="M307.914,-123.399C300.426,-114.664 290.782,-103.413 282.968,-94.2962"/>
<polygon fill="midnightblue" stroke="midnightblue" points="285.586,-91.9726 276.421,-86.6578 280.271,-96.5281 285.586,-91.9726"/>
</g>
<!-- Node7 -->
<g id="node8" class="node"><title>Node7</title>
<g id="a_node8"><a xlink:href="_core_8hpp.html" target="_top" xlink:title=" ">
<polygon fill="white" stroke="black" points="310.5,-67.5 310.5,-86.5 429.5,-86.5 429.5,-67.5 310.5,-67.5"/>
<text text-anchor="middle" x="370" y="-74.5" font-family="Helvetica,sans-Serif" font-size="10.00">utils4cpp/core/Core.hpp</text>
</a>
</g>
</g>
<!-- Node5&#45;&gt;Node7 -->
<g id="edge7" class="edge"><title>Node5&#45;&gt;Node7</title>
<path fill="none" stroke="midnightblue" d="M331.849,-123.399C339.115,-114.753 348.452,-103.642 356.071,-94.576"/>
<polygon fill="midnightblue" stroke="midnightblue" points="358.971,-96.5653 362.725,-86.6578 353.612,-92.0619 358.971,-96.5653"/>
</g>
<!-- Node8 -->
<g id="node9" class="node"><title>Node8</title>
<g id="a_node9"><a xlink:href="_version_8hpp.html" target="_top" xlink:title=" ">
<polygon fill="white" stroke="black" points="81,-6 81,-25 213,-25 213,-6 81,-6"/>
<text text-anchor="middle" x="147" y="-13" font-family="Helvetica,sans-Serif" font-size="10.00">utils4cpp/core/Version.hpp</text>
</a>
</g>
</g>
<!-- Node7&#45;&gt;Node8 -->
<g id="edge8" class="edge"><title>Node7&#45;&gt;Node8</title>
<path fill="none" stroke="midnightblue" d="M338.05,-67.4751C298.804,-57.0036 232.122,-39.2118 188.827,-27.6601"/>
<polygon fill="midnightblue" stroke="midnightblue" points="189.456,-24.2054 178.891,-25.0091 187.651,-30.9688 189.456,-24.2054"/>
</g>
<!-- Node9 -->
<g id="node10" class="node"><title>Node9</title>
<g id="a_node10"><a xlink:href="_export_8hpp.html" target="_top" xlink:title=" ">
<polygon fill="white" stroke="black" points="231,-6 231,-25 359,-25 359,-6 231,-6"/>
<text text-anchor="middle" x="295" y="-13" font-family="Helvetica,sans-Serif" font-size="10.00">utils4cpp/core/Export.hpp</text>
</a>
</g>
</g>
<!-- Node7&#45;&gt;Node9 -->
<g id="edge9" class="edge"><title>Node7&#45;&gt;Node9</title>
<path fill="none" stroke="midnightblue" d="M359.254,-67.4751C347.447,-58.1082 328.257,-42.8839 313.918,-31.5081"/>
<polygon fill="midnightblue" stroke="midnightblue" points="315.735,-28.4822 305.726,-25.0091 311.385,-33.9661 315.735,-28.4822"/>
</g>
<!-- Node10 -->
<g id="node11" class="node"><title>Node10</title>
<g id="a_node11"><a xlink:href="_cpp_standard_detection_8hpp.html" target="_top" xlink:title=" ">
<polygon fill="white" stroke="black" points="377.5,-0.5 377.5,-30.5 514.5,-30.5 514.5,-0.5 377.5,-0.5"/>
<text text-anchor="start" x="385.5" y="-18.5" font-family="Helvetica,sans-Serif" font-size="10.00">utils4cpp/core/CppStandard</text>
<text text-anchor="middle" x="446" y="-7.5" font-family="Helvetica,sans-Serif" font-size="10.00">Detection.hpp</text>
</a>
</g>
</g>
<!-- Node7&#45;&gt;Node10 -->
<g id="edge10" class="edge"><title>Node7&#45;&gt;Node10</title>
<path fill="none" stroke="midnightblue" d="M380.889,-67.4751C391.086,-59.492 406.717,-47.2542 420.109,-36.7703"/>
<polygon fill="midnightblue" stroke="midnightblue" points="422.372,-39.4434 428.088,-30.523 418.057,-33.9316 422.372,-39.4434"/>
</g>
<!-- Node11 -->
<g id="node12" class="node"><title>Node11</title>
<g id="a_node12"><a xlink:href="_system_detection_8hpp.html" target="_top" xlink:title=" ">
<polygon fill="white" stroke="black" points="533,-6 533,-25 707,-25 707,-6 533,-6"/>
<text text-anchor="middle" x="620" y="-13" font-family="Helvetica,sans-Serif" font-size="10.00">utils4cpp/core/SystemDetection.hpp</text>
</a>
</g>
</g>
<!-- Node7&#45;&gt;Node11 -->
<g id="edge11" class="edge"><title>Node7&#45;&gt;Node11</title>
<path fill="none" stroke="midnightblue" d="M405.819,-67.4751C450.188,-56.9153 525.836,-38.911 574.332,-27.3689"/>
<polygon fill="midnightblue" stroke="midnightblue" points="575.33,-30.7294 584.248,-25.0091 573.709,-23.9196 575.33,-30.7294"/>
</g>
</g>
</svg>
        <g id="navigator" transform="translate(0 0)" fill="#404254">
                <rect fill="#f2f5e9" fill-opacity="0.5" stroke="#606060" stroke-width=".5" x="0" y="0" width="60" height="60"/>
                <use id="zoomplus" xlink:href="#zoomPlus" x="17" y="9" onmousedown="handleZoom(evt,'in')"/>
                <use id="zoomminus" xlink:href="#zoomMin" x="42" y="9" onmousedown="handleZoom(evt,'out')"/>
                <use id="reset" xlink:href="#resetDef" x="30" y="36" onmousedown="handleReset()"/>
                <g id="arrowUp" xlink:href="#dirArrow" transform="translate(30 24)" onmousedown="handlePan(0,-1)">
                  <use xlink:href="#rim" fill="#404040">
                        <set attributeName="fill" to="#808080" begin="arrowUp.mouseover" end="arrowUp.mouseout"/>
                  </use>
                  <path fill="none" stroke="white" stroke-width="1.5" d="M0,-3.0v7 M-2.5,-0.5L0,-3.0L2.5,-0.5"/>
                </g>
                <g id="arrowRight" xlink:href="#dirArrow" transform="rotate(90) translate(36 -43)" onmousedown="handlePan(1,0)">
                  <use xlink:href="#rim" fill="#404040">
                        <set attributeName="fill" to="#808080" begin="arrowRight.mouseover" end="arrowRight.mouseout"/>
                  </use>
                  <path fill="none" stroke="white" stroke-width="1.5" d="M0,-3.0v7 M-2.5,-0.5L0,-3.0L2.5,-0.5"/>
                </g>
                <g id="arrowDown" xlink:href="#dirArrow" transform="rotate(180) translate(-30 -48)" onmousedown="handlePan(0,1)">
                  <use xlink:href="#rim" fill="#404040">
                        <set attributeName="fill" to="#808080" begin="arrowDown.mouseover" end="arrowDown.mouseout"/>
                  </use>
                  <path fill="none" stroke="white" stroke-width="1.5" d="M0,-3.0v7 M-2.5,-0.5L0,-3.0L2.5,-0.5"/>
                </g>
                <g id="arrowLeft" xlink:href="#dirArrow" transform="rotate(270) translate(-36 17)" onmousedown="handlePan(-1,0)">
                  <use xlink:href="#rim" fill="#404040">
                        <set attributeName="fill" to="#808080" begin="arrowLeft.mouseover" end="arrowLeft.mouseout"/>
                  </use>
                  <path fill="none" stroke="white" stroke-width="1.5" d="M0,-3.0v7 M-2.5,-0.5L0,-3.0L2.5,-0.5"/>
                </g>
        </g>
        <svg viewBox="0 0 15 15" width="100%" height="30px" preserveAspectRatio="xMaxYMin meet">
         <g id="arrow_out" transform="scale(0.3 0.3)">
          <a xlink:href="_time_8cpp__incl_org.svg" target="_base">
           <rect id="button" ry="5" rx="5" y="6" x="6" height="38" width="38"
                fill="#f2f5e9" fill-opacity="0.5" stroke="#606060" stroke-width="1.0"/>
           <path id="arrow"
             d="M 11.500037,31.436501 C 11.940474,20.09759 22.043105,11.32322 32.158766,21.979434 L 37.068811,17.246167 C 37.068811,17.246167 37.088388,32 37.088388,32 L 22.160133,31.978069 C 22.160133,31.978069 26.997745,27.140456 26.997745,27.140456 C 18.528582,18.264221 13.291696,25.230495 11.500037,31.436501 z"
             style="fill:#404040;"/>
          </a>
         </g>
        </svg>
</svg>
