<?xml version="1.0" encoding="UTF-8" standalone="no"?>
<!DOCTYPE svg PUBLIC "-//W3C//DTD SVG 1.1//EN"
 "http://www.w3.org/Graphics/SVG/1.1/DTD/svg11.dtd">
<!-- Generated by graphviz version 2.38.0 (20140413.2041)
 -->
<!-- Title: C:/Users/Shaoguang/Documents/GitHub/utils4cpp/include/utils4cpp/core/Version.hpp Pages: 1 -->
<!--zoomable 373 -->
<svg id="main" version="1.1" xmlns="http://www.w3.org/2000/svg" xmlns:xlink="http://www.w3.org/1999/xlink" xml:space="preserve" onload="init(evt)">
<style type="text/css"><![CDATA[
.edge:hover path { stroke: red; }
.edge:hover polygon { stroke: red; fill: red; }
]]></style>
<script type="text/javascript"><![CDATA[
var edges = document.getElementsByTagName('g');
if (edges && edges.length) {
  for (var i=0;i<edges.length;i++) {
    if (edges[i].id.substr(0,4)=='edge') {
      edges[i].setAttribute('class','edge');
    }
  }
}
]]></script>
        <defs>
                <circle id="rim" cx="0" cy="0" r="7"/>
                <circle id="rim2" cx="0" cy="0" r="3.5"/>
                <g id="zoomPlus">
                        <use xlink:href="#rim" fill="#404040">
                                <set attributeName="fill" to="#808080" begin="zoomplus.mouseover" end="zoomplus.mouseout"/>
                        </use>
                        <path d="M-4,0h8M0,-4v8" fill="none" stroke="white" stroke-width="1.5" pointer-events="none"/>
                </g>
                <g id="zoomMin">
                        <use xlink:href="#rim" fill="#404040">
                                <set attributeName="fill" to="#808080" begin="zoomminus.mouseover" end="zoomminus.mouseout"/>
                        </use>
                        <path d="M-4,0h8" fill="none" stroke="white" stroke-width="1.5" pointer-events="none"/>
                </g>
                <g id="dirArrow">
                        <path fill="none" stroke="white" stroke-width="1.5" d="M0,-3.0v7 M-2.5,-0.5L0,-3.0L2.5,-0.5"/>
                </g>
               <g id="resetDef">
                       <use xlink:href="#rim2" fill="#404040">
                               <set attributeName="fill" to="#808080" begin="reset.mouseover" end="reset.mouseout"/>
                       </use>
               </g>
        </defs>

<script type="text/javascript">
var viewWidth = 1203;
var viewHeight = 373;
var sectionId = 'dynsection-0';
</script>
<script xlink:href="svgpan.js"/>
<svg id="graph" class="graph">
<g id="viewport">
<title>C:/Users/Shaoguang/Documents/GitHub/utils4cpp/include/utils4cpp/core/Version.hpp</title>
<polygon fill="white" stroke="none" points="-4,4 -4,-369 1199,-369 1199,4 -4,4"/>
<!-- Node0 -->
<g id="node1" class="node"><title>Node0</title>
<g id="a_node1"><a xlink:title=" ">
<polygon fill="#bfbfbf" stroke="black" points="622.5,-323.5 622.5,-364.5 791.5,-364.5 791.5,-323.5 622.5,-323.5"/>
<text text-anchor="start" x="630.5" y="-352.5" font-family="Helvetica,sans-Serif" font-size="10.00">C:/Users/Shaoguang</text>
<text text-anchor="start" x="630.5" y="-341.5" font-family="Helvetica,sans-Serif" font-size="10.00">/Documents/GitHub/utils4cpp</text>
<text text-anchor="middle" x="707" y="-330.5" font-family="Helvetica,sans-Serif" font-size="10.00">/include/utils4cpp/core/Version.hpp</text>
</a>
</g>
</g>
<!-- Node1 -->
<g id="node2" class="node"><title>Node1</title>
<g id="a_node2"><a xlink:href="_core_8hpp.html" target="_top" xlink:title=" ">
<polygon fill="white" stroke="black" points="629,-245.5 629,-286.5 785,-286.5 785,-245.5 629,-245.5"/>
<text text-anchor="start" x="637" y="-274.5" font-family="Helvetica,sans-Serif" font-size="10.00">C:/Users/Shaoguang</text>
<text text-anchor="start" x="637" y="-263.5" font-family="Helvetica,sans-Serif" font-size="10.00">/Documents/GitHub/utils4cpp</text>
<text text-anchor="middle" x="707" y="-252.5" font-family="Helvetica,sans-Serif" font-size="10.00">/include/utils4cpp/core/Core.hpp</text>
</a>
</g>
</g>
<!-- Node0&#45;&gt;Node1 -->
<g id="edge1" class="edge"><title>Node0&#45;&gt;Node1</title>
<path fill="none" stroke="midnightblue" d="M707,-313.297C707,-304.301 707,-294.653 707,-286.506"/>
<polygon fill="midnightblue" stroke="midnightblue" points="703.5,-313.428 707,-323.428 710.5,-313.428 703.5,-313.428"/>
</g>
<!-- Node2 -->
<g id="node3" class="node"><title>Node2</title>
<g id="a_node3"><a xlink:href="_date_8hpp.html" target="_top" xlink:title=" ">
<polygon fill="white" stroke="black" points="311,-156.5 311,-208.5 455,-208.5 455,-156.5 311,-156.5"/>
<text text-anchor="start" x="319" y="-196.5" font-family="Helvetica,sans-Serif" font-size="10.00">C:/Users/Shaoguang</text>
<text text-anchor="start" x="319" y="-185.5" font-family="Helvetica,sans-Serif" font-size="10.00">/Documents/GitHub/utils4cpp</text>
<text text-anchor="start" x="319" y="-174.5" font-family="Helvetica,sans-Serif" font-size="10.00">/include/utils4cpp/datetime</text>
<text text-anchor="middle" x="383" y="-163.5" font-family="Helvetica,sans-Serif" font-size="10.00">/Date.hpp</text>
</a>
</g>
</g>
<!-- Node1&#45;&gt;Node2 -->
<g id="edge2" class="edge"><title>Node1&#45;&gt;Node2</title>
<path fill="none" stroke="midnightblue" d="M618.905,-246.446C572.583,-236.25 514.982,-222.877 464,-209 461.155,-208.226 458.26,-207.417 455.34,-206.583"/>
<polygon fill="midnightblue" stroke="midnightblue" points="618.395,-249.917 628.912,-248.638 619.892,-243.079 618.395,-249.917"/>
</g>
<!-- Node5 -->
<g id="node6" class="node"><title>Node5</title>
<g id="a_node6"><a xlink:href="_date_time_8hpp.html" target="_top" xlink:title=" ">
<polygon fill="white" stroke="black" points="68,-156.5 68,-208.5 212,-208.5 212,-156.5 68,-156.5"/>
<text text-anchor="start" x="76" y="-196.5" font-family="Helvetica,sans-Serif" font-size="10.00">C:/Users/Shaoguang</text>
<text text-anchor="start" x="76" y="-185.5" font-family="Helvetica,sans-Serif" font-size="10.00">/Documents/GitHub/utils4cpp</text>
<text text-anchor="start" x="76" y="-174.5" font-family="Helvetica,sans-Serif" font-size="10.00">/include/utils4cpp/datetime</text>
<text text-anchor="middle" x="140" y="-163.5" font-family="Helvetica,sans-Serif" font-size="10.00">/DateTime.hpp</text>
</a>
</g>
</g>
<!-- Node1&#45;&gt;Node5 -->
<g id="edge5" class="edge"><title>Node1&#45;&gt;Node5</title>
<path fill="none" stroke="midnightblue" d="M618.88,-253.299C536.794,-242.285 411.031,-225.118 302,-209 272.567,-204.649 240.17,-199.601 212.132,-195.15"/>
<polygon fill="midnightblue" stroke="midnightblue" points="618.543,-256.785 628.919,-254.645 619.473,-249.847 618.543,-256.785"/>
</g>
<!-- Node7 -->
<g id="node8" class="node"><title>Node7</title>
<g id="a_node8"><a xlink:href="_elapsed_timer_8hpp.html" target="_top" xlink:title=" ">
<polygon fill="white" stroke="black" points="635,-156.5 635,-208.5 779,-208.5 779,-156.5 635,-156.5"/>
<text text-anchor="start" x="643" y="-196.5" font-family="Helvetica,sans-Serif" font-size="10.00">C:/Users/Shaoguang</text>
<text text-anchor="start" x="643" y="-185.5" font-family="Helvetica,sans-Serif" font-size="10.00">/Documents/GitHub/utils4cpp</text>
<text text-anchor="start" x="643" y="-174.5" font-family="Helvetica,sans-Serif" font-size="10.00">/include/utils4cpp/datetime</text>
<text text-anchor="middle" x="707" y="-163.5" font-family="Helvetica,sans-Serif" font-size="10.00">/ElapsedTimer.hpp</text>
</a>
</g>
</g>
<!-- Node1&#45;&gt;Node7 -->
<g id="edge7" class="edge"><title>Node1&#45;&gt;Node7</title>
<path fill="none" stroke="midnightblue" d="M707,-235.121C707,-226.413 707,-216.989 707,-208.607"/>
<polygon fill="midnightblue" stroke="midnightblue" points="703.5,-235.271 707,-245.271 710.5,-235.271 703.5,-235.271"/>
</g>
<!-- Node9 -->
<g id="node10" class="node"><title>Node9</title>
<g id="a_node10"><a xlink:href="_time_8hpp.html" target="_top" xlink:title=" ">
<polygon fill="white" stroke="black" points="473,-156.5 473,-208.5 617,-208.5 617,-156.5 473,-156.5"/>
<text text-anchor="start" x="481" y="-196.5" font-family="Helvetica,sans-Serif" font-size="10.00">C:/Users/Shaoguang</text>
<text text-anchor="start" x="481" y="-185.5" font-family="Helvetica,sans-Serif" font-size="10.00">/Documents/GitHub/utils4cpp</text>
<text text-anchor="start" x="481" y="-174.5" font-family="Helvetica,sans-Serif" font-size="10.00">/include/utils4cpp/datetime</text>
<text text-anchor="middle" x="545" y="-163.5" font-family="Helvetica,sans-Serif" font-size="10.00">/Time.hpp</text>
</a>
</g>
</g>
<!-- Node1&#45;&gt;Node9 -->
<g id="edge9" class="edge"><title>Node1&#45;&gt;Node9</title>
<path fill="none" stroke="midnightblue" d="M659.151,-240.928C638.9,-230.74 615.308,-218.871 594.845,-208.576"/>
<polygon fill="midnightblue" stroke="midnightblue" points="657.691,-244.111 668.197,-245.479 660.837,-237.858 657.691,-244.111"/>
</g>
<!-- Node11 -->
<g id="node12" class="node"><title>Node11</title>
<g id="a_node12"><a xlink:href="_string_to_number_8hpp.html" target="_top" xlink:title=" ">
<polygon fill="white" stroke="black" points="835,-162 835,-203 1033,-203 1033,-162 835,-162"/>
<text text-anchor="start" x="843" y="-191" font-family="Helvetica,sans-Serif" font-size="10.00">C:/Users/Shaoguang</text>
<text text-anchor="start" x="843" y="-180" font-family="Helvetica,sans-Serif" font-size="10.00">/Documents/GitHub/utils4cpp</text>
<text text-anchor="middle" x="934" y="-169" font-family="Helvetica,sans-Serif" font-size="10.00">/include/utils4cpp/str/StringToNumber.hpp</text>
</a>
</g>
</g>
<!-- Node1&#45;&gt;Node11 -->
<g id="edge12" class="edge"><title>Node1&#45;&gt;Node11</title>
<path fill="none" stroke="midnightblue" d="M770.831,-242.083C805.126,-229.77 846.957,-214.751 879.679,-203.003"/>
<polygon fill="midnightblue" stroke="midnightblue" points="769.601,-238.805 761.372,-245.479 771.967,-245.394 769.601,-238.805"/>
</g>
<!-- Node12 -->
<g id="node13" class="node"><title>Node12</title>
<g id="a_node13"><a xlink:href="_string_utils_8hpp.html" target="_top" xlink:title=" ">
<polygon fill="white" stroke="black" points="822.5,-78.5 822.5,-119.5 995.5,-119.5 995.5,-78.5 822.5,-78.5"/>
<text text-anchor="start" x="830.5" y="-107.5" font-family="Helvetica,sans-Serif" font-size="10.00">C:/Users/Shaoguang</text>
<text text-anchor="start" x="830.5" y="-96.5" font-family="Helvetica,sans-Serif" font-size="10.00">/Documents/GitHub/utils4cpp</text>
<text text-anchor="middle" x="909" y="-85.5" font-family="Helvetica,sans-Serif" font-size="10.00">/include/utils4cpp/str/StringUtils.hpp</text>
</a>
</g>
</g>
<!-- Node1&#45;&gt;Node12 -->
<g id="edge15" class="edge"><title>Node1&#45;&gt;Node12</title>
<path fill="none" stroke="midnightblue" d="M749.349,-239.735C762.475,-230.884 776.499,-220.306 788,-209 808.67,-188.681 805.215,-176.201 826,-156 840.335,-142.068 858.54,-129.352 874.246,-119.571"/>
<polygon fill="midnightblue" stroke="midnightblue" points="747.325,-236.877 740.889,-245.292 751.169,-242.727 747.325,-236.877"/>
</g>
<!-- Node14 -->
<g id="node15" class="node"><title>Node14</title>
<g id="a_node15"><a xlink:href="test_core_8cpp.html" target="_top" xlink:title=" ">
<polygon fill="white" stroke="black" points="1051,-162 1051,-203 1195,-203 1195,-162 1051,-162"/>
<text text-anchor="start" x="1059" y="-191" font-family="Helvetica,sans-Serif" font-size="10.00">C:/Users/Shaoguang</text>
<text text-anchor="start" x="1059" y="-180" font-family="Helvetica,sans-Serif" font-size="10.00">/Documents/GitHub/utils4cpp</text>
<text text-anchor="middle" x="1123" y="-169" font-family="Helvetica,sans-Serif" font-size="10.00">/tests/testCore.cpp</text>
</a>
</g>
</g>
<!-- Node1&#45;&gt;Node14 -->
<g id="edge16" class="edge"><title>Node1&#45;&gt;Node14</title>
<path fill="none" stroke="midnightblue" d="M795.362,-253.658C863.301,-244.113 959.233,-228.844 1042,-209 1049.17,-207.281 1056.63,-205.261 1063.99,-203.123"/>
<polygon fill="midnightblue" stroke="midnightblue" points="794.548,-250.238 785.126,-255.083 795.513,-257.171 794.548,-250.238"/>
</g>
<!-- Node3 -->
<g id="node4" class="node"><title>Node3</title>
<g id="a_node4"><a xlink:href="_date_8cpp.html" target="_top" xlink:title=" ">
<polygon fill="white" stroke="black" points="162,-78.5 162,-119.5 306,-119.5 306,-78.5 162,-78.5"/>
<text text-anchor="start" x="170" y="-107.5" font-family="Helvetica,sans-Serif" font-size="10.00">C:/Users/Shaoguang</text>
<text text-anchor="start" x="170" y="-96.5" font-family="Helvetica,sans-Serif" font-size="10.00">/Documents/GitHub/utils4cpp</text>
<text text-anchor="middle" x="234" y="-85.5" font-family="Helvetica,sans-Serif" font-size="10.00">/src/Date.cpp</text>
</a>
</g>
</g>
<!-- Node2&#45;&gt;Node3 -->
<g id="edge3" class="edge"><title>Node2&#45;&gt;Node3</title>
<path fill="none" stroke="midnightblue" d="M328.053,-151.445C308.708,-140.864 287.47,-129.247 270.078,-119.734"/>
<polygon fill="midnightblue" stroke="midnightblue" points="326.626,-154.654 337.079,-156.382 329.986,-148.513 326.626,-154.654"/>
</g>
<!-- Node4 -->
<g id="node5" class="node"><title>Node4</title>
<g id="a_node5"><a xlink:href="test_date_time_8cpp.html" target="_top" xlink:title=" ">
<polygon fill="white" stroke="black" points="324,-78.5 324,-119.5 468,-119.5 468,-78.5 324,-78.5"/>
<text text-anchor="start" x="332" y="-107.5" font-family="Helvetica,sans-Serif" font-size="10.00">C:/Users/Shaoguang</text>
<text text-anchor="start" x="332" y="-96.5" font-family="Helvetica,sans-Serif" font-size="10.00">/Documents/GitHub/utils4cpp</text>
<text text-anchor="middle" x="396" y="-85.5" font-family="Helvetica,sans-Serif" font-size="10.00">/tests/testDateTime.cpp</text>
</a>
</g>
</g>
<!-- Node2&#45;&gt;Node4 -->
<g id="edge4" class="edge"><title>Node2&#45;&gt;Node4</title>
<path fill="none" stroke="midnightblue" d="M388.639,-146.147C390.089,-137.055 391.598,-127.597 392.869,-119.628"/>
<polygon fill="midnightblue" stroke="midnightblue" points="385.161,-145.733 387.042,-156.16 392.074,-146.836 385.161,-145.733"/>
</g>
<!-- Node6 -->
<g id="node7" class="node"><title>Node6</title>
<g id="a_node7"><a xlink:href="_date_time_8cpp.html" target="_top" xlink:title=" ">
<polygon fill="white" stroke="black" points="0,-78.5 0,-119.5 144,-119.5 144,-78.5 0,-78.5"/>
<text text-anchor="start" x="8" y="-107.5" font-family="Helvetica,sans-Serif" font-size="10.00">C:/Users/Shaoguang</text>
<text text-anchor="start" x="8" y="-96.5" font-family="Helvetica,sans-Serif" font-size="10.00">/Documents/GitHub/utils4cpp</text>
<text text-anchor="middle" x="72" y="-85.5" font-family="Helvetica,sans-Serif" font-size="10.00">/src/DateTime.cpp</text>
</a>
</g>
</g>
<!-- Node5&#45;&gt;Node6 -->
<g id="edge6" class="edge"><title>Node5&#45;&gt;Node6</title>
<path fill="none" stroke="midnightblue" d="M112.211,-148.194C104.112,-138.487 95.526,-128.197 88.3769,-119.628"/>
<polygon fill="midnightblue" stroke="midnightblue" points="109.763,-150.724 118.857,-156.16 115.138,-146.239 109.763,-150.724"/>
</g>
<!-- Node8 -->
<g id="node9" class="node"><title>Node8</title>
<g id="a_node9"><a xlink:href="_elapsed_timer_8cpp.html" target="_top" xlink:title=" ">
<polygon fill="white" stroke="black" points="648,-78.5 648,-119.5 792,-119.5 792,-78.5 648,-78.5"/>
<text text-anchor="start" x="656" y="-107.5" font-family="Helvetica,sans-Serif" font-size="10.00">C:/Users/Shaoguang</text>
<text text-anchor="start" x="656" y="-96.5" font-family="Helvetica,sans-Serif" font-size="10.00">/Documents/GitHub/utils4cpp</text>
<text text-anchor="middle" x="720" y="-85.5" font-family="Helvetica,sans-Serif" font-size="10.00">/src/ElapsedTimer.cpp</text>
</a>
</g>
</g>
<!-- Node7&#45;&gt;Node8 -->
<g id="edge8" class="edge"><title>Node7&#45;&gt;Node8</title>
<path fill="none" stroke="midnightblue" d="M712.639,-146.147C714.089,-137.055 715.598,-127.597 716.869,-119.628"/>
<polygon fill="midnightblue" stroke="midnightblue" points="709.161,-145.733 711.042,-156.16 716.074,-146.836 709.161,-145.733"/>
</g>
<!-- Node9&#45;&gt;Node4 -->
<g id="edge11" class="edge"><title>Node9&#45;&gt;Node4</title>
<path fill="none" stroke="midnightblue" d="M490.053,-151.445C470.708,-140.864 449.47,-129.247 432.078,-119.734"/>
<polygon fill="midnightblue" stroke="midnightblue" points="488.626,-154.654 499.079,-156.382 491.986,-148.513 488.626,-154.654"/>
</g>
<!-- Node10 -->
<g id="node11" class="node"><title>Node10</title>
<g id="a_node11"><a xlink:href="_time_8cpp.html" target="_top" xlink:title=" ">
<polygon fill="white" stroke="black" points="486,-78.5 486,-119.5 630,-119.5 630,-78.5 486,-78.5"/>
<text text-anchor="start" x="494" y="-107.5" font-family="Helvetica,sans-Serif" font-size="10.00">C:/Users/Shaoguang</text>
<text text-anchor="start" x="494" y="-96.5" font-family="Helvetica,sans-Serif" font-size="10.00">/Documents/GitHub/utils4cpp</text>
<text text-anchor="middle" x="558" y="-85.5" font-family="Helvetica,sans-Serif" font-size="10.00">/src/Time.cpp</text>
</a>
</g>
</g>
<!-- Node9&#45;&gt;Node10 -->
<g id="edge10" class="edge"><title>Node9&#45;&gt;Node10</title>
<path fill="none" stroke="midnightblue" d="M550.639,-146.147C552.089,-137.055 553.598,-127.597 554.869,-119.628"/>
<polygon fill="midnightblue" stroke="midnightblue" points="547.161,-145.733 549.042,-156.16 554.074,-146.836 547.161,-145.733"/>
</g>
<!-- Node11&#45;&gt;Node12 -->
<g id="edge13" class="edge"><title>Node11&#45;&gt;Node12</title>
<path fill="none" stroke="midnightblue" d="M924.92,-151.898C921.616,-141.127 917.966,-129.23 914.996,-119.547"/>
<polygon fill="midnightblue" stroke="midnightblue" points="921.669,-153.237 927.948,-161.771 928.362,-151.184 921.669,-153.237"/>
</g>
<!-- Node13 -->
<g id="node14" class="node"><title>Node13</title>
<g id="a_node14"><a xlink:href="_string_utils_8cpp.html" target="_top" xlink:title=" ">
<polygon fill="white" stroke="black" points="837,-0.5 837,-41.5 981,-41.5 981,-0.5 837,-0.5"/>
<text text-anchor="start" x="845" y="-29.5" font-family="Helvetica,sans-Serif" font-size="10.00">C:/Users/Shaoguang</text>
<text text-anchor="start" x="845" y="-18.5" font-family="Helvetica,sans-Serif" font-size="10.00">/Documents/GitHub/utils4cpp</text>
<text text-anchor="middle" x="909" y="-7.5" font-family="Helvetica,sans-Serif" font-size="10.00">/src/StringUtils.cpp</text>
</a>
</g>
</g>
<!-- Node12&#45;&gt;Node13 -->
<g id="edge14" class="edge"><title>Node12&#45;&gt;Node13</title>
<path fill="none" stroke="midnightblue" d="M909,-68.2965C909,-59.3009 909,-49.6532 909,-41.5056"/>
<polygon fill="midnightblue" stroke="midnightblue" points="905.5,-68.4281 909,-78.4281 912.5,-68.4281 905.5,-68.4281"/>
</g>
</g>
</svg>
        <g id="navigator" transform="translate(0 0)" fill="#404254">
                <rect fill="#f2f5e9" fill-opacity="0.5" stroke="#606060" stroke-width=".5" x="0" y="0" width="60" height="60"/>
                <use id="zoomplus" xlink:href="#zoomPlus" x="17" y="9" onmousedown="handleZoom(evt,'in')"/>
                <use id="zoomminus" xlink:href="#zoomMin" x="42" y="9" onmousedown="handleZoom(evt,'out')"/>
                <use id="reset" xlink:href="#resetDef" x="30" y="36" onmousedown="handleReset()"/>
                <g id="arrowUp" xlink:href="#dirArrow" transform="translate(30 24)" onmousedown="handlePan(0,-1)">
                  <use xlink:href="#rim" fill="#404040">
                        <set attributeName="fill" to="#808080" begin="arrowUp.mouseover" end="arrowUp.mouseout"/>
                  </use>
                  <path fill="none" stroke="white" stroke-width="1.5" d="M0,-3.0v7 M-2.5,-0.5L0,-3.0L2.5,-0.5"/>
                </g>
                <g id="arrowRight" xlink:href="#dirArrow" transform="rotate(90) translate(36 -43)" onmousedown="handlePan(1,0)">
                  <use xlink:href="#rim" fill="#404040">
                        <set attributeName="fill" to="#808080" begin="arrowRight.mouseover" end="arrowRight.mouseout"/>
                  </use>
                  <path fill="none" stroke="white" stroke-width="1.5" d="M0,-3.0v7 M-2.5,-0.5L0,-3.0L2.5,-0.5"/>
                </g>
                <g id="arrowDown" xlink:href="#dirArrow" transform="rotate(180) translate(-30 -48)" onmousedown="handlePan(0,1)">
                  <use xlink:href="#rim" fill="#404040">
                        <set attributeName="fill" to="#808080" begin="arrowDown.mouseover" end="arrowDown.mouseout"/>
                  </use>
                  <path fill="none" stroke="white" stroke-width="1.5" d="M0,-3.0v7 M-2.5,-0.5L0,-3.0L2.5,-0.5"/>
                </g>
                <g id="arrowLeft" xlink:href="#dirArrow" transform="rotate(270) translate(-36 17)" onmousedown="handlePan(-1,0)">
                  <use xlink:href="#rim" fill="#404040">
                        <set attributeName="fill" to="#808080" begin="arrowLeft.mouseover" end="arrowLeft.mouseout"/>
                  </use>
                  <path fill="none" stroke="white" stroke-width="1.5" d="M0,-3.0v7 M-2.5,-0.5L0,-3.0L2.5,-0.5"/>
                </g>
        </g>
        <svg viewBox="0 0 15 15" width="100%" height="30px" preserveAspectRatio="xMaxYMin meet">
         <g id="arrow_out" transform="scale(0.3 0.3)">
          <a xlink:href="_version_8hpp__dep__incl_org.svg" target="_base">
           <rect id="button" ry="5" rx="5" y="6" x="6" height="38" width="38"
                fill="#f2f5e9" fill-opacity="0.5" stroke="#606060" stroke-width="1.0"/>
           <path id="arrow"
             d="M 11.500037,31.436501 C 11.940474,20.09759 22.043105,11.32322 32.158766,21.979434 L 37.068811,17.246167 C 37.068811,17.246167 37.088388,32 37.088388,32 L 22.160133,31.978069 C 22.160133,31.978069 26.997745,27.140456 26.997745,27.140456 C 18.528582,18.264221 13.291696,25.230495 11.500037,31.436501 z"
             style="fill:#404040;"/>
          </a>
         </g>
        </svg>
</svg>
