<?xml version="1.0" encoding="UTF-8" standalone="no"?>
<!DOCTYPE svg PUBLIC "-//W3C//DTD SVG 1.1//EN"
 "http://www.w3.org/Graphics/SVG/1.1/DTD/svg11.dtd">
<!-- Generated by graphviz version 2.38.0 (20140413.2041)
 -->
<!-- Title: utils4cpp::datetime::Date::dayOfYear Pages: 1 -->
<svg width="512pt" height="112pt"
 viewBox="0.00 0.00 512.00 112.00" xmlns="http://www.w3.org/2000/svg" xmlns:xlink="http://www.w3.org/1999/xlink">
<g id="graph0" class="graph" transform="scale(1 1) rotate(0) translate(4 108)">
<title>utils4cpp::datetime::Date::dayOfYear</title>
<polygon fill="white" stroke="none" points="-4,4 -4,-108 508,-108 508,4 -4,4"/>
<!-- Node93 -->
<g id="node1" class="node"><title>Node93</title>
<g id="a_node1"><a xlink:title=" ">
<polygon fill="#bfbfbf" stroke="black" points="405,-24.5 405,-54.5 504,-54.5 504,-24.5 405,-24.5"/>
<text text-anchor="start" x="413" y="-42.5" font-family="Helvetica,sans-Serif" font-size="10.00">utils4cpp::datetime</text>
<text text-anchor="middle" x="454.5" y="-31.5" font-family="Helvetica,sans-Serif" font-size="10.00">::Date::dayOfYear</text>
</a>
</g>
</g>
<!-- Node94 -->
<g id="node2" class="node"><title>Node94</title>
<g id="a_node2"><a xlink:href="classutils4cpp_1_1datetime_1_1_date.html#afb3d315a0bb3b53ce9c397711c12d68d" target="_top" xlink:title=" ">
<polygon fill="white" stroke="black" points="270,-24.5 270,-54.5 369,-54.5 369,-24.5 270,-24.5"/>
<text text-anchor="start" x="278" y="-42.5" font-family="Helvetica,sans-Serif" font-size="10.00">utils4cpp::datetime</text>
<text text-anchor="middle" x="319.5" y="-31.5" font-family="Helvetica,sans-Serif" font-size="10.00">::Date::setDate</text>
</a>
</g>
</g>
<!-- Node93&#45;&gt;Node94 -->
<g id="edge1" class="edge"><title>Node93&#45;&gt;Node94</title>
<path fill="none" stroke="midnightblue" d="M394.545,-39.5C386.098,-39.5 377.485,-39.5 369.263,-39.5"/>
<polygon fill="midnightblue" stroke="midnightblue" points="394.731,-43.0001 404.731,-39.5 394.731,-36.0001 394.731,-43.0001"/>
</g>
<!-- Node95 -->
<g id="node3" class="node"><title>Node95</title>
<g id="a_node3"><a xlink:href="namespaceutils4cpp_1_1datetime.html#ad6bfa1adb60166da25262287ffce1043" target="_top" xlink:title=" ">
<polygon fill="white" stroke="black" points="135,-49.5 135,-79.5 234,-79.5 234,-49.5 135,-49.5"/>
<text text-anchor="start" x="143" y="-67.5" font-family="Helvetica,sans-Serif" font-size="10.00">utils4cpp::datetime</text>
<text text-anchor="middle" x="184.5" y="-56.5" font-family="Helvetica,sans-Serif" font-size="10.00">::fixedDate</text>
</a>
</g>
</g>
<!-- Node94&#45;&gt;Node95 -->
<g id="edge2" class="edge"><title>Node94&#45;&gt;Node95</title>
<path fill="none" stroke="midnightblue" d="M259.824,-50.5294C251.287,-52.134 242.576,-53.7715 234.263,-55.334"/>
<polygon fill="midnightblue" stroke="midnightblue" points="260.55,-53.9543 269.731,-48.6671 259.256,-47.0748 260.55,-53.9543"/>
</g>
<!-- Node98 -->
<g id="node6" class="node"><title>Node98</title>
<g id="a_node6"><a xlink:href="classutils4cpp_1_1datetime_1_1_date.html#a37f8fbef5d43750a0e8ff27f20b9985b" target="_top" xlink:title=" ">
<polygon fill="white" stroke="black" points="135,-0.5 135,-30.5 234,-30.5 234,-0.5 135,-0.5"/>
<text text-anchor="start" x="143" y="-18.5" font-family="Helvetica,sans-Serif" font-size="10.00">utils4cpp::datetime</text>
<text text-anchor="middle" x="184.5" y="-7.5" font-family="Helvetica,sans-Serif" font-size="10.00">::Date::Date</text>
</a>
</g>
</g>
<!-- Node94&#45;&gt;Node98 -->
<g id="edge5" class="edge"><title>Node94&#45;&gt;Node98</title>
<path fill="none" stroke="midnightblue" d="M259.824,-28.9118C251.287,-27.3713 242.576,-25.7994 234.263,-24.2994"/>
<polygon fill="midnightblue" stroke="midnightblue" points="259.268,-32.368 269.731,-30.6996 260.511,-25.4793 259.268,-32.368"/>
</g>
<!-- Node96 -->
<g id="node4" class="node"><title>Node96</title>
<g id="a_node4"><a xlink:href="classutils4cpp_1_1datetime_1_1_date.html#aebce900093689b957298d9c7a4be6fb4" target="_top" xlink:title=" ">
<polygon fill="white" stroke="black" points="0,-73.5 0,-103.5 99,-103.5 99,-73.5 0,-73.5"/>
<text text-anchor="start" x="8" y="-91.5" font-family="Helvetica,sans-Serif" font-size="10.00">utils4cpp::datetime</text>
<text text-anchor="middle" x="49.5" y="-80.5" font-family="Helvetica,sans-Serif" font-size="10.00">::Date::addMonths</text>
</a>
</g>
</g>
<!-- Node95&#45;&gt;Node96 -->
<g id="edge3" class="edge"><title>Node95&#45;&gt;Node96</title>
<path fill="none" stroke="midnightblue" d="M124.824,-75.0882C116.287,-76.6287 107.576,-78.2006 99.2632,-79.7006"/>
<polygon fill="midnightblue" stroke="midnightblue" points="125.511,-78.5207 134.731,-73.3004 124.268,-71.632 125.511,-78.5207"/>
</g>
<!-- Node97 -->
<g id="node5" class="node"><title>Node97</title>
<g id="a_node5"><a xlink:href="classutils4cpp_1_1datetime_1_1_date.html#a1d7ec19546b2843d211db88754de5c2f" target="_top" xlink:title=" ">
<polygon fill="white" stroke="black" points="0,-24.5 0,-54.5 99,-54.5 99,-24.5 0,-24.5"/>
<text text-anchor="start" x="8" y="-42.5" font-family="Helvetica,sans-Serif" font-size="10.00">utils4cpp::datetime</text>
<text text-anchor="middle" x="49.5" y="-31.5" font-family="Helvetica,sans-Serif" font-size="10.00">::Date::addYears</text>
</a>
</g>
</g>
<!-- Node95&#45;&gt;Node97 -->
<g id="edge4" class="edge"><title>Node95&#45;&gt;Node97</title>
<path fill="none" stroke="midnightblue" d="M124.824,-53.4706C116.287,-51.866 107.576,-50.2285 99.2632,-48.666"/>
<polygon fill="midnightblue" stroke="midnightblue" points="124.256,-56.9252 134.731,-55.3329 125.55,-50.0457 124.256,-56.9252"/>
</g>
</g>
</svg>
