<?xml version="1.0" encoding="UTF-8" standalone="no"?>
<!DOCTYPE svg PUBLIC "-//W3C//DTD SVG 1.1//EN"
 "http://www.w3.org/Graphics/SVG/1.1/DTD/svg11.dtd">
<!-- Generated by graphviz version 2.38.0 (20140413.2041)
 -->
<!-- Title: utils4cpp::datetime::Date::dayOfWeek Pages: 1 -->
<svg width="429pt" height="198pt"
 viewBox="0.00 0.00 429.00 197.63" xmlns="http://www.w3.org/2000/svg" xmlns:xlink="http://www.w3.org/1999/xlink">
<g id="graph0" class="graph" transform="scale(1 1) rotate(0) translate(4 193.633)">
<title>utils4cpp::datetime::Date::dayOfWeek</title>
<polygon fill="white" stroke="none" points="-4,4 -4,-193.633 425,-193.633 425,4 -4,4"/>
<!-- Node54 -->
<g id="node1" class="node"><title>Node54</title>
<g id="a_node1"><a xlink:title=" ">
<polygon fill="#bfbfbf" stroke="black" points="0,-71.1327 0,-101.133 100,-101.133 100,-71.1327 0,-71.1327"/>
<text text-anchor="start" x="8" y="-89.1327" font-family="Helvetica,sans-Serif" font-size="10.00">utils4cpp::datetime</text>
<text text-anchor="middle" x="50" y="-78.1327" font-family="Helvetica,sans-Serif" font-size="10.00">::Date::dayOfWeek</text>
</a>
</g>
</g>
<!-- Node55 -->
<g id="node2" class="node"><title>Node55</title>
<g id="a_node2"><a xlink:href="classutils4cpp_1_1datetime_1_1_date.html#ad0cae25c4251c7406f9f92abad9c8c98" target="_top" xlink:title=" ">
<polygon fill="white" stroke="black" points="161.5,-159.133 161.5,-189.133 260.5,-189.133 260.5,-159.133 161.5,-159.133"/>
<text text-anchor="start" x="169.5" y="-177.133" font-family="Helvetica,sans-Serif" font-size="10.00">utils4cpp::datetime</text>
<text text-anchor="middle" x="211" y="-166.133" font-family="Helvetica,sans-Serif" font-size="10.00">::Date::isValid</text>
</a>
</g>
</g>
<!-- Node54&#45;&gt;Node55 -->
<g id="edge1" class="edge"><title>Node54&#45;&gt;Node55</title>
<path fill="none" stroke="midnightblue" d="M70.5023,-101.219C87.2576,-113.737 112.38,-131.474 136,-144.133 143.21,-147.997 151.028,-151.673 158.79,-155.044"/>
<polygon fill="midnightblue" stroke="midnightblue" points="157.612,-158.345 168.186,-158.995 160.325,-151.892 157.612,-158.345"/>
</g>
<!-- Node56 -->
<g id="node3" class="node"><title>Node56</title>
<g id="a_node3"><a xlink:href="classutils4cpp_1_1datetime_1_1_date.html#a3187cf0b66fa61c2a278f0a008191bd8" target="_top" xlink:title=" ">
<polygon fill="white" stroke="black" points="322,-93.1327 322,-123.133 421,-123.133 421,-93.1327 322,-93.1327"/>
<text text-anchor="start" x="330" y="-111.133" font-family="Helvetica,sans-Serif" font-size="10.00">utils4cpp::datetime</text>
<text text-anchor="middle" x="371.5" y="-100.133" font-family="Helvetica,sans-Serif" font-size="10.00">::Date::year</text>
</a>
</g>
</g>
<!-- Node54&#45;&gt;Node56 -->
<g id="edge2" class="edge"><title>Node54&#45;&gt;Node56</title>
<path fill="none" stroke="midnightblue" d="M93.2763,-101.152C106.751,-105.237 121.841,-109.094 136,-111.133 195.32,-119.675 263.953,-117.402 311.577,-113.927"/>
<polygon fill="midnightblue" stroke="midnightblue" points="312.007,-117.404 321.709,-113.146 311.47,-110.425 312.007,-117.404"/>
</g>
<!-- Node57 -->
<g id="node4" class="node"><title>Node57</title>
<g id="a_node4"><a xlink:href="classutils4cpp_1_1datetime_1_1_date.html#a643ff983256338d1d20ed38a50a33748" target="_top" xlink:title=" ">
<polygon fill="white" stroke="black" points="322,-22.1327 322,-52.1327 421,-52.1327 421,-22.1327 322,-22.1327"/>
<text text-anchor="start" x="330" y="-40.1327" font-family="Helvetica,sans-Serif" font-size="10.00">utils4cpp::datetime</text>
<text text-anchor="middle" x="371.5" y="-29.1327" font-family="Helvetica,sans-Serif" font-size="10.00">::Date::month</text>
</a>
</g>
</g>
<!-- Node54&#45;&gt;Node57 -->
<g id="edge3" class="edge"><title>Node54&#45;&gt;Node57</title>
<path fill="none" stroke="midnightblue" d="M62.5263,-70.9549C77.2666,-52.9387 104.666,-23.8613 136,-12.1327 196.625,10.5598 271.813,-4.31374 320.45,-19.007"/>
<polygon fill="midnightblue" stroke="midnightblue" points="319.522,-22.3839 330.111,-22.0289 321.612,-15.7031 319.522,-22.3839"/>
</g>
<!-- Node58 -->
<g id="node5" class="node"><title>Node58</title>
<g id="a_node5"><a xlink:href="classutils4cpp_1_1datetime_1_1_date.html#a82dd7ee4a793e2249b14949af7ef349b" target="_top" xlink:title=" ">
<polygon fill="white" stroke="black" points="161.5,-22.1327 161.5,-52.1327 260.5,-52.1327 260.5,-22.1327 161.5,-22.1327"/>
<text text-anchor="start" x="169.5" y="-40.1327" font-family="Helvetica,sans-Serif" font-size="10.00">utils4cpp::datetime</text>
<text text-anchor="middle" x="211" y="-29.1327" font-family="Helvetica,sans-Serif" font-size="10.00">::Date::day</text>
</a>
</g>
</g>
<!-- Node54&#45;&gt;Node58 -->
<g id="edge4" class="edge"><title>Node54&#45;&gt;Node58</title>
<path fill="none" stroke="midnightblue" d="M100.003,-71.0312C116.326,-66.0008 134.671,-60.3474 151.632,-55.1204"/>
<polygon fill="midnightblue" stroke="midnightblue" points="152.907,-58.3899 161.432,-52.1 150.845,-51.7004 152.907,-58.3899"/>
</g>
<!-- Node59 -->
<g id="node6" class="node"><title>Node59</title>
<g id="a_node6"><a xlink:href="classutils4cpp_1_1datetime_1_1_date.html#a4485ee372f994073ff95d70904bb0d7c" target="_top" xlink:title=" ">
<polygon fill="white" stroke="black" points="136,-71.1327 136,-101.133 286,-101.133 286,-71.1327 136,-71.1327"/>
<text text-anchor="start" x="144" y="-89.1327" font-family="Helvetica,sans-Serif" font-size="10.00">utils4cpp::datetime</text>
<text text-anchor="middle" x="211" y="-78.1327" font-family="Helvetica,sans-Serif" font-size="10.00">::Date::beforGregorianCalendar</text>
</a>
</g>
</g>
<!-- Node54&#45;&gt;Node59 -->
<g id="edge5" class="edge"><title>Node54&#45;&gt;Node59</title>
<path fill="none" stroke="midnightblue" d="M100.003,-86.1327C108.135,-86.1327 116.769,-86.1327 125.484,-86.1327"/>
<polygon fill="midnightblue" stroke="midnightblue" points="125.726,-89.6328 135.726,-86.1327 125.726,-82.6328 125.726,-89.6328"/>
</g>
<!-- Node59&#45;&gt;Node56 -->
<g id="edge6" class="edge"><title>Node59&#45;&gt;Node56</title>
<path fill="none" stroke="midnightblue" d="M286.145,-96.4241C294.737,-97.6167 303.409,-98.8204 311.756,-99.9789"/>
<polygon fill="midnightblue" stroke="midnightblue" points="311.361,-103.458 321.748,-101.366 312.324,-96.5241 311.361,-103.458"/>
</g>
<!-- Node59&#45;&gt;Node57 -->
<g id="edge7" class="edge"><title>Node59&#45;&gt;Node57</title>
<path fill="none" stroke="midnightblue" d="M260.849,-71.0312C277.044,-66.0244 295.237,-60.4002 312.078,-55.1937"/>
<polygon fill="midnightblue" stroke="midnightblue" points="313.293,-58.4817 321.813,-52.1842 311.225,-51.794 313.293,-58.4817"/>
</g>
</g>
</svg>
