<?xml version="1.0" encoding="UTF-8" standalone="no"?>
<!DOCTYPE svg PUBLIC "-//W3C//DTD SVG 1.1//EN"
 "http://www.w3.org/Graphics/SVG/1.1/DTD/svg11.dtd">
<!-- Generated by graphviz version 2.38.0 (20140413.2041)
 -->
<!-- Title: utils4cpp::str::BasicStringList&lt; StringT &gt; Pages: 1 -->
<svg width="137pt" height="398pt"
 viewBox="0.00 0.00 137.00 398.00" xmlns="http://www.w3.org/2000/svg" xmlns:xlink="http://www.w3.org/1999/xlink">
<g id="graph0" class="graph" transform="scale(1 1) rotate(0) translate(4 394)">
<title>utils4cpp::str::BasicStringList&lt; StringT &gt;</title>
<polygon fill="white" stroke="none" points="-4,4 -4,-394 133,-394 133,4 -4,4"/>
<!-- Node2 -->
<g id="node1" class="node"><title>Node2</title>
<g id="a_node1"><a xlink:title="The string list template class.">
<polygon fill="#bfbfbf" stroke="black" points="0,-0.5 0,-189.5 129,-189.5 129,-0.5 0,-0.5"/>
<text text-anchor="start" x="8" y="-177.5" font-family="Helvetica,sans-Serif" font-size="10.00">utils4cpp::str::BasicString</text>
<text text-anchor="middle" x="64.5" y="-166.5" font-family="Helvetica,sans-Serif" font-size="10.00">List&lt; StringT &gt;</text>
<polyline fill="none" stroke="black" points="0,-159.5 129,-159.5 "/>
<text text-anchor="middle" x="64.5" y="-147.5" font-family="Helvetica,sans-Serif" font-size="10.00"> </text>
<polyline fill="none" stroke="black" points="0,-140.5 129,-140.5 "/>
<text text-anchor="start" x="8" y="-128.5" font-family="Helvetica,sans-Serif" font-size="10.00">+ at()</text>
<text text-anchor="start" x="8" y="-117.5" font-family="Helvetica,sans-Serif" font-size="10.00">+ at()</text>
<text text-anchor="start" x="8" y="-106.5" font-family="Helvetica,sans-Serif" font-size="10.00">+ operator[]()</text>
<text text-anchor="start" x="8" y="-95.5" font-family="Helvetica,sans-Serif" font-size="10.00">+ operator[]()</text>
<text text-anchor="start" x="8" y="-84.5" font-family="Helvetica,sans-Serif" font-size="10.00">+ iteratorAt()</text>
<text text-anchor="start" x="8" y="-73.5" font-family="Helvetica,sans-Serif" font-size="10.00">+ swapItems()</text>
<text text-anchor="start" x="8" y="-62.5" font-family="Helvetica,sans-Serif" font-size="10.00">+ swapItemsAt()</text>
<text text-anchor="start" x="8" y="-51.5" font-family="Helvetica,sans-Serif" font-size="10.00">+ contains()</text>
<text text-anchor="start" x="8" y="-40.5" font-family="Helvetica,sans-Serif" font-size="10.00">+ indexOf()</text>
<text text-anchor="start" x="8" y="-29.5" font-family="Helvetica,sans-Serif" font-size="10.00">+ lastIndexOf()</text>
<text text-anchor="start" x="8" y="-18.5" font-family="Helvetica,sans-Serif" font-size="10.00">and 14 more...</text>
<text text-anchor="start" x="8" y="-7.5" font-family="Helvetica,sans-Serif" font-size="10.00">+ removeDuplicates()</text>
</a>
</g>
</g>
<!-- Node3 -->
<g id="node2" class="node"><title>Node3</title>
<g id="a_node2"><a xlink:title="STL class.">
<polygon fill="white" stroke="#bfbfbf" points="15.5,-227.5 15.5,-284.5 113.5,-284.5 113.5,-227.5 15.5,-227.5"/>
<text text-anchor="middle" x="64.5" y="-272.5" font-family="Helvetica,sans-Serif" font-size="10.00">std::list&lt; StringT &gt;</text>
<polyline fill="none" stroke="#bfbfbf" points="15.5,-265.5 113.5,-265.5 "/>
<text text-anchor="middle" x="64.5" y="-253.5" font-family="Helvetica,sans-Serif" font-size="10.00"> </text>
<polyline fill="none" stroke="#bfbfbf" points="15.5,-246.5 113.5,-246.5 "/>
<text text-anchor="middle" x="64.5" y="-234.5" font-family="Helvetica,sans-Serif" font-size="10.00"> </text>
</a>
</g>
</g>
<!-- Node3&#45;&gt;Node2 -->
<g id="edge1" class="edge"><title>Node3&#45;&gt;Node2</title>
<path fill="none" stroke="midnightblue" d="M64.5,-217.078C64.5,-208.598 64.5,-199.241 64.5,-189.597"/>
<polygon fill="none" stroke="midnightblue" points="61.0001,-217.304 64.5,-227.304 68.0001,-217.304 61.0001,-217.304"/>
</g>
<!-- Node4 -->
<g id="node3" class="node"><title>Node4</title>
<g id="a_node3"><a xlink:title=" ">
<polygon fill="white" stroke="#bfbfbf" points="50,-332.5 50,-389.5 79,-389.5 79,-332.5 50,-332.5"/>
<text text-anchor="middle" x="64.5" y="-377.5" font-family="Helvetica,sans-Serif" font-size="10.00">T</text>
<polyline fill="none" stroke="#bfbfbf" points="50,-370.5 79,-370.5 "/>
<text text-anchor="middle" x="64.5" y="-358.5" font-family="Helvetica,sans-Serif" font-size="10.00"> </text>
<polyline fill="none" stroke="#bfbfbf" points="50,-351.5 79,-351.5 "/>
<text text-anchor="middle" x="64.5" y="-339.5" font-family="Helvetica,sans-Serif" font-size="10.00"> </text>
</a>
</g>
</g>
<!-- Node4&#45;&gt;Node3 -->
<g id="edge2" class="edge"><title>Node4&#45;&gt;Node3</title>
<path fill="none" stroke="#404040" d="M64.5,-332.398C64.5,-321.545 64.5,-308.873 64.5,-297.049"/>
<polygon fill="none" stroke="#404040" points="64.5001,-296.678 60.5,-290.678 64.5,-284.678 68.5,-290.678 64.5001,-296.678"/>
<text text-anchor="middle" x="89" y="-306" font-family="Helvetica,sans-Serif" font-size="10.00"> +elements</text>
</g>
</g>
</svg>
