<?xml version="1.0" encoding="UTF-8" standalone="no"?>
<!DOCTYPE svg PUBLIC "-//W3C//DTD SVG 1.1//EN"
 "http://www.w3.org/Graphics/SVG/1.1/DTD/svg11.dtd">
<!-- Generated by graphviz version 2.38.0 (20140413.2041)
 -->
<!-- Title: utils4cpp::datetime::Time::addSecs Pages: 1 -->
<svg width="390pt" height="88pt"
 viewBox="0.00 0.00 390.00 88.00" xmlns="http://www.w3.org/2000/svg" xmlns:xlink="http://www.w3.org/1999/xlink">
<g id="graph0" class="graph" transform="scale(1 1) rotate(0) translate(4 84)">
<title>utils4cpp::datetime::Time::addSecs</title>
<polygon fill="white" stroke="none" points="-4,4 -4,-84 386,-84 386,4 -4,4"/>
<!-- Node8 -->
<g id="node1" class="node"><title>Node8</title>
<g id="a_node1"><a xlink:title=" ">
<polygon fill="#bfbfbf" stroke="black" points="0,-24.5 0,-54.5 99,-54.5 99,-24.5 0,-24.5"/>
<text text-anchor="start" x="8" y="-42.5" font-family="Helvetica,sans-Serif" font-size="10.00">utils4cpp::datetime</text>
<text text-anchor="middle" x="49.5" y="-31.5" font-family="Helvetica,sans-Serif" font-size="10.00">::Time::addSecs</text>
</a>
</g>
</g>
<!-- Node9 -->
<g id="node2" class="node"><title>Node9</title>
<g id="a_node2"><a xlink:href="classutils4cpp_1_1datetime_1_1_time.html#adaa2cc2f4da1563849747620f79a2a9c" target="_top" xlink:title=" ">
<polygon fill="white" stroke="black" points="135,-24.5 135,-54.5 234,-54.5 234,-24.5 135,-24.5"/>
<text text-anchor="start" x="143" y="-42.5" font-family="Helvetica,sans-Serif" font-size="10.00">utils4cpp::datetime</text>
<text text-anchor="middle" x="184.5" y="-31.5" font-family="Helvetica,sans-Serif" font-size="10.00">::Time::addMSecs</text>
</a>
</g>
</g>
<!-- Node8&#45;&gt;Node9 -->
<g id="edge1" class="edge"><title>Node8&#45;&gt;Node9</title>
<path fill="none" stroke="midnightblue" d="M99.2691,-39.5C107.491,-39.5 116.104,-39.5 124.551,-39.5"/>
<polygon fill="midnightblue" stroke="midnightblue" points="124.737,-43.0001 134.737,-39.5 124.737,-36.0001 124.737,-43.0001"/>
</g>
<!-- Node10 -->
<g id="node3" class="node"><title>Node10</title>
<g id="a_node3"><a xlink:href="classutils4cpp_1_1datetime_1_1_time.html#ae4eb38a59e1a5620e7ed886563f7696f" target="_top" xlink:title=" ">
<polygon fill="white" stroke="black" points="276.5,-49.5 276.5,-79.5 375.5,-79.5 375.5,-49.5 276.5,-49.5"/>
<text text-anchor="start" x="284.5" y="-67.5" font-family="Helvetica,sans-Serif" font-size="10.00">utils4cpp::datetime</text>
<text text-anchor="middle" x="326" y="-56.5" font-family="Helvetica,sans-Serif" font-size="10.00">::Time::isValid</text>
</a>
</g>
</g>
<!-- Node9&#45;&gt;Node10 -->
<g id="edge2" class="edge"><title>Node9&#45;&gt;Node10</title>
<path fill="none" stroke="midnightblue" d="M234.29,-48.2438C244.651,-50.1004 255.691,-52.079 266.374,-53.9935"/>
<polygon fill="midnightblue" stroke="midnightblue" points="266.012,-57.4844 276.473,-55.8034 267.247,-50.5942 266.012,-57.4844"/>
</g>
<!-- Node11 -->
<g id="node4" class="node"><title>Node11</title>
<g id="a_node4"><a xlink:href="classutils4cpp_1_1datetime_1_1_time.html#af466006dd567b1ae2c6d6421f86b20e0" target="_top" xlink:title=" ">
<polygon fill="white" stroke="black" points="270,-0.5 270,-30.5 382,-30.5 382,-0.5 270,-0.5"/>
<text text-anchor="start" x="278" y="-18.5" font-family="Helvetica,sans-Serif" font-size="10.00">utils4cpp::datetime</text>
<text text-anchor="middle" x="326" y="-7.5" font-family="Helvetica,sans-Serif" font-size="10.00">::Time::toMilliseconds</text>
</a>
</g>
</g>
<!-- Node9&#45;&gt;Node11 -->
<g id="edge3" class="edge"><title>Node9&#45;&gt;Node11</title>
<path fill="none" stroke="midnightblue" d="M234.29,-31.106C242.535,-29.6875 251.211,-28.1949 259.794,-26.7182"/>
<polygon fill="midnightblue" stroke="midnightblue" points="260.535,-30.1422 269.797,-24.9973 259.348,-23.2436 260.535,-30.1422"/>
</g>
</g>
</svg>
