<?xml version="1.0" encoding="UTF-8" standalone="no"?>
<!DOCTYPE svg PUBLIC "-//W3C//DTD SVG 1.1//EN"
 "http://www.w3.org/Graphics/SVG/1.1/DTD/svg11.dtd">
<!-- Generated by graphviz version 2.38.0 (20140413.2041)
 -->
<!-- Title: utils4cpp::datetime::Date::toJulianDay Pages: 1 -->
<svg width="242pt" height="186pt"
 viewBox="0.00 0.00 242.00 186.00" xmlns="http://www.w3.org/2000/svg" xmlns:xlink="http://www.w3.org/1999/xlink">
<g id="graph0" class="graph" transform="scale(1 1) rotate(0) translate(4 182)">
<title>utils4cpp::datetime::Date::toJulianDay</title>
<polygon fill="white" stroke="none" points="-4,4 -4,-182 238,-182 238,4 -4,4"/>
<!-- Node224 -->
<g id="node1" class="node"><title>Node224</title>
<g id="a_node1"><a xlink:title=" ">
<polygon fill="#bfbfbf" stroke="black" points="135,-73.5 135,-103.5 234,-103.5 234,-73.5 135,-73.5"/>
<text text-anchor="start" x="143" y="-91.5" font-family="Helvetica,sans-Serif" font-size="10.00">utils4cpp::datetime</text>
<text text-anchor="middle" x="184.5" y="-80.5" font-family="Helvetica,sans-Serif" font-size="10.00">::Date::toJulianDay</text>
</a>
</g>
</g>
<!-- Node225 -->
<g id="node2" class="node"><title>Node225</title>
<g id="a_node2"><a xlink:href="classutils4cpp_1_1datetime_1_1_date.html#a21facc134692270a524404a140b57a41" target="_top" xlink:title=" ">
<polygon fill="white" stroke="black" points="0,-147.5 0,-177.5 99,-177.5 99,-147.5 0,-147.5"/>
<text text-anchor="start" x="8" y="-165.5" font-family="Helvetica,sans-Serif" font-size="10.00">utils4cpp::datetime</text>
<text text-anchor="middle" x="49.5" y="-154.5" font-family="Helvetica,sans-Serif" font-size="10.00">::Date::daysTo</text>
</a>
</g>
</g>
<!-- Node224&#45;&gt;Node225 -->
<g id="edge1" class="edge"><title>Node224&#45;&gt;Node225</title>
<path fill="none" stroke="midnightblue" d="M150.326,-108.907C134.878,-118.208 116.161,-129.194 99,-138.5 93.4668,-141.501 87.5078,-144.575 81.7249,-147.478"/>
<polygon fill="midnightblue" stroke="midnightblue" points="152.265,-111.824 159.006,-103.651 148.639,-105.836 152.265,-111.824"/>
</g>
<!-- Node226 -->
<g id="node3" class="node"><title>Node226</title>
<g id="a_node3"><a xlink:href="classutils4cpp_1_1datetime_1_1_date.html#a6065701386b4bd660355ab9e7a9c2ebc" target="_top" xlink:title=" ">
<polygon fill="white" stroke="black" points="0,-98.5 0,-128.5 99,-128.5 99,-98.5 0,-98.5"/>
<text text-anchor="start" x="8" y="-116.5" font-family="Helvetica,sans-Serif" font-size="10.00">utils4cpp::datetime</text>
<text text-anchor="middle" x="49.5" y="-105.5" font-family="Helvetica,sans-Serif" font-size="10.00">::Date::addDays</text>
</a>
</g>
</g>
<!-- Node224&#45;&gt;Node226 -->
<g id="edge2" class="edge"><title>Node224&#45;&gt;Node226</title>
<path fill="none" stroke="midnightblue" d="M124.824,-99.5294C116.287,-101.134 107.576,-102.772 99.2632,-104.334"/>
<polygon fill="midnightblue" stroke="midnightblue" points="125.55,-102.954 134.731,-97.6671 124.256,-96.0748 125.55,-102.954"/>
</g>
<!-- Node227 -->
<g id="node4" class="node"><title>Node227</title>
<g id="a_node4"><a xlink:href="classutils4cpp_1_1datetime_1_1_date.html#ab463ac99a7019994a58ba67cc6cba045" target="_top" xlink:title=" ">
<polygon fill="white" stroke="black" points="0,-49.5 0,-79.5 99,-79.5 99,-49.5 0,-49.5"/>
<text text-anchor="start" x="8" y="-67.5" font-family="Helvetica,sans-Serif" font-size="10.00">utils4cpp::datetime</text>
<text text-anchor="middle" x="49.5" y="-56.5" font-family="Helvetica,sans-Serif" font-size="10.00">::Date::operator&lt;</text>
</a>
</g>
</g>
<!-- Node224&#45;&gt;Node227 -->
<g id="edge3" class="edge"><title>Node224&#45;&gt;Node227</title>
<path fill="none" stroke="midnightblue" d="M124.824,-77.9118C116.287,-76.3713 107.576,-74.7994 99.2632,-73.2994"/>
<polygon fill="midnightblue" stroke="midnightblue" points="124.268,-81.368 134.731,-79.6996 125.511,-74.4793 124.268,-81.368"/>
</g>
<!-- Node228 -->
<g id="node5" class="node"><title>Node228</title>
<g id="a_node5"><a xlink:href="classutils4cpp_1_1datetime_1_1_date.html#a8e99a50f8291da90cf7de66f38d57ec6" target="_top" xlink:title=" ">
<polygon fill="white" stroke="black" points="0,-0.5 0,-30.5 99,-30.5 99,-0.5 0,-0.5"/>
<text text-anchor="start" x="8" y="-18.5" font-family="Helvetica,sans-Serif" font-size="10.00">utils4cpp::datetime</text>
<text text-anchor="middle" x="49.5" y="-7.5" font-family="Helvetica,sans-Serif" font-size="10.00">::Date::operator&gt;</text>
</a>
</g>
</g>
<!-- Node224&#45;&gt;Node228 -->
<g id="edge4" class="edge"><title>Node224&#45;&gt;Node228</title>
<path fill="none" stroke="midnightblue" d="M148.379,-68.1267C133.262,-59.4676 115.341,-49.3481 99,-40.5 92.919,-37.2073 86.3623,-33.7597 80.0957,-30.5131"/>
<polygon fill="midnightblue" stroke="midnightblue" points="146.976,-71.357 157.39,-73.3051 150.464,-65.2878 146.976,-71.357"/>
</g>
</g>
</svg>
