<?xml version="1.0" encoding="UTF-8" standalone="no"?>
<!DOCTYPE svg PUBLIC "-//W3C//DTD SVG 1.1//EN"
 "http://www.w3.org/Graphics/SVG/1.1/DTD/svg11.dtd">
<!-- Generated by graphviz version 2.38.0 (20140413.2041)
 -->
<!-- Title: utils4cpp::datetime::Date::addDays Pages: 1 -->
<svg width="529pt" height="323pt"
 viewBox="0.00 0.00 529.00 323.00" xmlns="http://www.w3.org/2000/svg" xmlns:xlink="http://www.w3.org/1999/xlink">
<g id="graph0" class="graph" transform="scale(1 1) rotate(0) translate(4 319)">
<title>utils4cpp::datetime::Date::addDays</title>
<polygon fill="white" stroke="none" points="-4,4 -4,-319 525,-319 525,4 -4,4"/>
<!-- Node9 -->
<g id="node1" class="node"><title>Node9</title>
<g id="a_node1"><a xlink:title=" ">
<polygon fill="#bfbfbf" stroke="black" points="0,-212.5 0,-242.5 99,-242.5 99,-212.5 0,-212.5"/>
<text text-anchor="start" x="8" y="-230.5" font-family="Helvetica,sans-Serif" font-size="10.00">utils4cpp::datetime</text>
<text text-anchor="middle" x="49.5" y="-219.5" font-family="Helvetica,sans-Serif" font-size="10.00">::Date::addDays</text>
</a>
</g>
</g>
<!-- Node10 -->
<g id="node2" class="node"><title>Node10</title>
<g id="a_node2"><a xlink:href="classutils4cpp_1_1datetime_1_1_date.html#ad0cae25c4251c7406f9f92abad9c8c98" target="_top" xlink:title=" ">
<polygon fill="white" stroke="black" points="284,-284.5 284,-314.5 383,-314.5 383,-284.5 284,-284.5"/>
<text text-anchor="start" x="292" y="-302.5" font-family="Helvetica,sans-Serif" font-size="10.00">utils4cpp::datetime</text>
<text text-anchor="middle" x="333.5" y="-291.5" font-family="Helvetica,sans-Serif" font-size="10.00">::Date::isValid</text>
</a>
</g>
</g>
<!-- Node9&#45;&gt;Node10 -->
<g id="edge1" class="edge"><title>Node9&#45;&gt;Node10</title>
<path fill="none" stroke="midnightblue" d="M72.0239,-242.517C88.4961,-253.234 112.189,-267.023 135,-274.5 180.168,-289.306 233.805,-295.419 273.776,-297.906"/>
<polygon fill="midnightblue" stroke="midnightblue" points="273.708,-301.407 283.889,-298.476 274.102,-294.418 273.708,-301.407"/>
</g>
<!-- Node11 -->
<g id="node3" class="node"><title>Node11</title>
<g id="a_node3"><a xlink:href="classutils4cpp_1_1datetime_1_1_date.html#aba4a7c8a2ac4e87ce3857634484141ad" target="_top" xlink:title=" ">
<polygon fill="white" stroke="black" points="284,-186.5 284,-216.5 383,-216.5 383,-186.5 284,-186.5"/>
<text text-anchor="start" x="292" y="-204.5" font-family="Helvetica,sans-Serif" font-size="10.00">utils4cpp::datetime</text>
<text text-anchor="middle" x="333.5" y="-193.5" font-family="Helvetica,sans-Serif" font-size="10.00">::Date::Date</text>
</a>
</g>
</g>
<!-- Node9&#45;&gt;Node11 -->
<g id="edge2" class="edge"><title>Node9&#45;&gt;Node11</title>
<path fill="none" stroke="midnightblue" d="M99.2987,-223.001C147.773,-218.532 222.138,-211.675 273.81,-206.911"/>
<polygon fill="midnightblue" stroke="midnightblue" points="274.19,-210.391 283.827,-205.988 273.548,-203.421 274.19,-210.391"/>
</g>
<!-- Node12 -->
<g id="node4" class="node"><title>Node12</title>
<g id="a_node4"><a xlink:href="classutils4cpp_1_1datetime_1_1_date.html#acac72a9fc8b7266baec4080bf4d3f94f" target="_top" xlink:title=" ">
<polygon fill="white" stroke="black" points="135,-120.5 135,-150.5 245,-150.5 245,-120.5 135,-120.5"/>
<text text-anchor="start" x="143" y="-138.5" font-family="Helvetica,sans-Serif" font-size="10.00">utils4cpp::datetime</text>
<text text-anchor="middle" x="190" y="-127.5" font-family="Helvetica,sans-Serif" font-size="10.00">::Date::fromJulianDay</text>
</a>
</g>
</g>
<!-- Node9&#45;&gt;Node12 -->
<g id="edge3" class="edge"><title>Node9&#45;&gt;Node12</title>
<path fill="none" stroke="midnightblue" d="M73.3705,-212.308C96.3258,-197.06 131.865,-173.453 157.484,-156.435"/>
<polygon fill="midnightblue" stroke="midnightblue" points="159.702,-159.163 166.096,-150.714 155.829,-153.332 159.702,-159.163"/>
</g>
<!-- Node17 -->
<g id="node9" class="node"><title>Node17</title>
<g id="a_node9"><a xlink:href="classutils4cpp_1_1datetime_1_1_date.html#aaf8d0cad9acdbdcb8d50e6d24c437357" target="_top" xlink:title=" ">
<polygon fill="white" stroke="black" points="140.5,-235.5 140.5,-265.5 239.5,-265.5 239.5,-235.5 140.5,-235.5"/>
<text text-anchor="start" x="148.5" y="-253.5" font-family="Helvetica,sans-Serif" font-size="10.00">utils4cpp::datetime</text>
<text text-anchor="middle" x="190" y="-242.5" font-family="Helvetica,sans-Serif" font-size="10.00">::Date::toJulianDay</text>
</a>
</g>
</g>
<!-- Node9&#45;&gt;Node17 -->
<g id="edge9" class="edge"><title>Node9&#45;&gt;Node17</title>
<path fill="none" stroke="midnightblue" d="M99.3299,-235.609C109.26,-237.258 119.805,-239.009 130.043,-240.709"/>
<polygon fill="midnightblue" stroke="midnightblue" points="129.706,-244.201 140.144,-242.387 130.853,-237.296 129.706,-244.201"/>
</g>
<!-- Node12&#45;&gt;Node11 -->
<g id="edge8" class="edge"><title>Node12&#45;&gt;Node11</title>
<path fill="none" stroke="midnightblue" d="M223.463,-150.642C243.506,-159.991 269.416,-172.076 290.949,-182.119"/>
<polygon fill="midnightblue" stroke="midnightblue" points="289.646,-185.373 300.188,-186.429 292.605,-179.03 289.646,-185.373"/>
</g>
<!-- Node13 -->
<g id="node5" class="node"><title>Node13</title>
<g id="a_node5"><a xlink:href="namespaceutils4cpp_1_1datetime.html#ae53e4437f8cf1576581badfbb71ebf95" target="_top" xlink:title=" ">
<polygon fill="white" stroke="black" points="422,-188.5 422,-218.5 521,-218.5 521,-188.5 422,-188.5"/>
<text text-anchor="start" x="430" y="-206.5" font-family="Helvetica,sans-Serif" font-size="10.00">utils4cpp::datetime</text>
<text text-anchor="middle" x="471.5" y="-195.5" font-family="Helvetica,sans-Serif" font-size="10.00">::floordiv</text>
</a>
</g>
</g>
<!-- Node12&#45;&gt;Node13 -->
<g id="edge4" class="edge"><title>Node12&#45;&gt;Node13</title>
<path fill="none" stroke="midnightblue" d="M245.147,-145.346C284.474,-152.87 338.84,-164.042 386,-176.5 396.043,-179.153 406.659,-182.282 416.849,-185.452"/>
<polygon fill="midnightblue" stroke="midnightblue" points="415.867,-188.812 426.456,-188.49 417.977,-182.138 415.867,-188.812"/>
</g>
<!-- Node14 -->
<g id="node6" class="node"><title>Node14</title>
<g id="a_node6"><a xlink:href="classutils4cpp_1_1datetime_1_1_date.html#a82dd7ee4a793e2249b14949af7ef349b" target="_top" xlink:title=" ">
<polygon fill="white" stroke="black" points="284,-98.5 284,-128.5 383,-128.5 383,-98.5 284,-98.5"/>
<text text-anchor="start" x="292" y="-116.5" font-family="Helvetica,sans-Serif" font-size="10.00">utils4cpp::datetime</text>
<text text-anchor="middle" x="333.5" y="-105.5" font-family="Helvetica,sans-Serif" font-size="10.00">::Date::day</text>
</a>
</g>
</g>
<!-- Node12&#45;&gt;Node14 -->
<g id="edge5" class="edge"><title>Node12&#45;&gt;Node14</title>
<path fill="none" stroke="midnightblue" d="M245.303,-127.057C254.575,-125.616 264.246,-124.112 273.63,-122.653"/>
<polygon fill="midnightblue" stroke="midnightblue" points="274.324,-126.087 283.668,-121.092 273.249,-119.17 274.324,-126.087"/>
</g>
<!-- Node15 -->
<g id="node7" class="node"><title>Node15</title>
<g id="a_node7"><a xlink:href="classutils4cpp_1_1datetime_1_1_date.html#a643ff983256338d1d20ed38a50a33748" target="_top" xlink:title=" ">
<polygon fill="white" stroke="black" points="284,-49.5 284,-79.5 383,-79.5 383,-49.5 284,-49.5"/>
<text text-anchor="start" x="292" y="-67.5" font-family="Helvetica,sans-Serif" font-size="10.00">utils4cpp::datetime</text>
<text text-anchor="middle" x="333.5" y="-56.5" font-family="Helvetica,sans-Serif" font-size="10.00">::Date::month</text>
</a>
</g>
</g>
<!-- Node12&#45;&gt;Node15 -->
<g id="edge6" class="edge"><title>Node12&#45;&gt;Node15</title>
<path fill="none" stroke="midnightblue" d="M219.207,-120.353C236.861,-110.976 260.137,-98.8023 281,-88.5 284.101,-86.9686 287.319,-85.4065 290.563,-83.8509"/>
<polygon fill="midnightblue" stroke="midnightblue" points="292.167,-86.9637 299.701,-79.5144 289.166,-80.6396 292.167,-86.9637"/>
</g>
<!-- Node16 -->
<g id="node8" class="node"><title>Node16</title>
<g id="a_node8"><a xlink:href="classutils4cpp_1_1datetime_1_1_date.html#a3187cf0b66fa61c2a278f0a008191bd8" target="_top" xlink:title=" ">
<polygon fill="white" stroke="black" points="284,-0.5 284,-30.5 383,-30.5 383,-0.5 284,-0.5"/>
<text text-anchor="start" x="292" y="-18.5" font-family="Helvetica,sans-Serif" font-size="10.00">utils4cpp::datetime</text>
<text text-anchor="middle" x="333.5" y="-7.5" font-family="Helvetica,sans-Serif" font-size="10.00">::Date::year</text>
</a>
</g>
</g>
<!-- Node12&#45;&gt;Node16 -->
<g id="edge7" class="edge"><title>Node12&#45;&gt;Node16</title>
<path fill="none" stroke="midnightblue" d="M202.067,-120.493C217.764,-100.032 248.252,-63.2206 281,-39.5 282.817,-38.1836 284.719,-36.9116 286.674,-35.6865"/>
<polygon fill="midnightblue" stroke="midnightblue" points="288.571,-38.6334 295.506,-30.6237 285.09,-32.5603 288.571,-38.6334"/>
</g>
<!-- Node17&#45;&gt;Node10 -->
<g id="edge10" class="edge"><title>Node17&#45;&gt;Node10</title>
<path fill="none" stroke="midnightblue" d="M234.609,-265.601C248.731,-270.492 264.553,-275.971 279.291,-281.074"/>
<polygon fill="midnightblue" stroke="midnightblue" points="278.196,-284.399 288.791,-284.364 280.487,-277.784 278.196,-284.399"/>
</g>
<!-- Node18 -->
<g id="node10" class="node"><title>Node18</title>
<g id="a_node10"><a xlink:href="namespaceutils4cpp_1_1datetime.html#afae7c83e5102fe9efcd6932f546d0a1c" target="_top" xlink:title=" ">
<polygon fill="white" stroke="black" points="281,-235.5 281,-265.5 386,-265.5 386,-235.5 281,-235.5"/>
<text text-anchor="start" x="289" y="-253.5" font-family="Helvetica,sans-Serif" font-size="10.00">utils4cpp::datetime</text>
<text text-anchor="middle" x="333.5" y="-242.5" font-family="Helvetica,sans-Serif" font-size="10.00">::julianDayFromDate</text>
</a>
</g>
</g>
<!-- Node17&#45;&gt;Node18 -->
<g id="edge11" class="edge"><title>Node17&#45;&gt;Node18</title>
<path fill="none" stroke="midnightblue" d="M239.696,-250.5C249.649,-250.5 260.249,-250.5 270.593,-250.5"/>
<polygon fill="midnightblue" stroke="midnightblue" points="270.818,-254 280.818,-250.5 270.818,-247 270.818,-254"/>
</g>
<!-- Node18&#45;&gt;Node13 -->
<g id="edge12" class="edge"><title>Node18&#45;&gt;Node13</title>
<path fill="none" stroke="midnightblue" d="M377.905,-235.5C390.418,-231.175 404.216,-226.407 417.253,-221.902"/>
<polygon fill="midnightblue" stroke="midnightblue" points="418.732,-225.093 427.041,-218.519 416.446,-218.477 418.732,-225.093"/>
</g>
</g>
</svg>
