<?xml version="1.0" encoding="UTF-8" standalone="no"?>
<!DOCTYPE svg PUBLIC "-//W3C//DTD SVG 1.1//EN"
 "http://www.w3.org/Graphics/SVG/1.1/DTD/svg11.dtd">
<!-- Generated by graphviz version 2.38.0 (20140413.2041)
 -->
<!-- Title: utils4cpp::datetime::Date::daysTo Pages: 1 -->
<svg width="518pt" height="88pt"
 viewBox="0.00 0.00 518.00 88.00" xmlns="http://www.w3.org/2000/svg" xmlns:xlink="http://www.w3.org/1999/xlink">
<g id="graph0" class="graph" transform="scale(1 1) rotate(0) translate(4 84)">
<title>utils4cpp::datetime::Date::daysTo</title>
<polygon fill="white" stroke="none" points="-4,4 -4,-84 514,-84 514,4 -4,4"/>
<!-- Node72 -->
<g id="node1" class="node"><title>Node72</title>
<g id="a_node1"><a xlink:title=" ">
<polygon fill="#bfbfbf" stroke="black" points="0,-27.5 0,-57.5 99,-57.5 99,-27.5 0,-27.5"/>
<text text-anchor="start" x="8" y="-45.5" font-family="Helvetica,sans-Serif" font-size="10.00">utils4cpp::datetime</text>
<text text-anchor="middle" x="49.5" y="-34.5" font-family="Helvetica,sans-Serif" font-size="10.00">::Date::daysTo</text>
</a>
</g>
</g>
<!-- Node73 -->
<g id="node2" class="node"><title>Node73</title>
<g id="a_node2"><a xlink:href="classutils4cpp_1_1datetime_1_1_date.html#ad0cae25c4251c7406f9f92abad9c8c98" target="_top" xlink:title=" ">
<polygon fill="white" stroke="black" points="273,-49.5 273,-79.5 372,-79.5 372,-49.5 273,-49.5"/>
<text text-anchor="start" x="281" y="-67.5" font-family="Helvetica,sans-Serif" font-size="10.00">utils4cpp::datetime</text>
<text text-anchor="middle" x="322.5" y="-56.5" font-family="Helvetica,sans-Serif" font-size="10.00">::Date::isValid</text>
</a>
</g>
</g>
<!-- Node72&#45;&gt;Node73 -->
<g id="edge1" class="edge"><title>Node72&#45;&gt;Node73</title>
<path fill="none" stroke="midnightblue" d="M99.2624,-46.4586C145.073,-50.1775 213.702,-55.7489 262.562,-59.7154"/>
<polygon fill="midnightblue" stroke="midnightblue" points="262.422,-63.2155 272.673,-60.5362 262.989,-56.2384 262.422,-63.2155"/>
</g>
<!-- Node74 -->
<g id="node3" class="node"><title>Node74</title>
<g id="a_node3"><a xlink:href="classutils4cpp_1_1datetime_1_1_date.html#aaf8d0cad9acdbdcb8d50e6d24c437357" target="_top" xlink:title=" ">
<polygon fill="white" stroke="black" points="135,-5.5 135,-35.5 234,-35.5 234,-5.5 135,-5.5"/>
<text text-anchor="start" x="143" y="-23.5" font-family="Helvetica,sans-Serif" font-size="10.00">utils4cpp::datetime</text>
<text text-anchor="middle" x="184.5" y="-12.5" font-family="Helvetica,sans-Serif" font-size="10.00">::Date::toJulianDay</text>
</a>
</g>
</g>
<!-- Node72&#45;&gt;Node74 -->
<g id="edge2" class="edge"><title>Node72&#45;&gt;Node74</title>
<path fill="none" stroke="midnightblue" d="M99.2691,-34.4329C107.582,-33.0579 116.293,-31.6169 124.83,-30.2048"/>
<polygon fill="midnightblue" stroke="midnightblue" points="125.442,-33.6512 134.737,-28.5661 124.3,-26.7451 125.442,-33.6512"/>
</g>
<!-- Node74&#45;&gt;Node73 -->
<g id="edge3" class="edge"><title>Node74&#45;&gt;Node73</title>
<path fill="none" stroke="midnightblue" d="M231.923,-35.5192C242.636,-38.9852 254.146,-42.7089 265.227,-46.2941"/>
<polygon fill="midnightblue" stroke="midnightblue" points="264.233,-49.6508 274.824,-49.3991 266.387,-42.9907 264.233,-49.6508"/>
</g>
<!-- Node75 -->
<g id="node4" class="node"><title>Node75</title>
<g id="a_node4"><a xlink:href="namespaceutils4cpp_1_1datetime.html#afae7c83e5102fe9efcd6932f546d0a1c" target="_top" xlink:title=" ">
<polygon fill="white" stroke="black" points="270,-0.5 270,-30.5 375,-30.5 375,-0.5 270,-0.5"/>
<text text-anchor="start" x="278" y="-18.5" font-family="Helvetica,sans-Serif" font-size="10.00">utils4cpp::datetime</text>
<text text-anchor="middle" x="322.5" y="-7.5" font-family="Helvetica,sans-Serif" font-size="10.00">::julianDayFromDate</text>
</a>
</g>
</g>
<!-- Node74&#45;&gt;Node75 -->
<g id="edge4" class="edge"><title>Node74&#45;&gt;Node75</title>
<path fill="none" stroke="midnightblue" d="M234.215,-18.709C242.542,-18.4029 251.289,-18.0813 259.899,-17.7648"/>
<polygon fill="midnightblue" stroke="midnightblue" points="260.044,-21.2619 269.908,-17.3967 259.787,-14.2666 260.044,-21.2619"/>
</g>
<!-- Node76 -->
<g id="node5" class="node"><title>Node76</title>
<g id="a_node5"><a xlink:href="namespaceutils4cpp_1_1datetime.html#ae53e4437f8cf1576581badfbb71ebf95" target="_top" xlink:title=" ">
<polygon fill="white" stroke="black" points="411,-0.5 411,-30.5 510,-30.5 510,-0.5 411,-0.5"/>
<text text-anchor="start" x="419" y="-18.5" font-family="Helvetica,sans-Serif" font-size="10.00">utils4cpp::datetime</text>
<text text-anchor="middle" x="460.5" y="-7.5" font-family="Helvetica,sans-Serif" font-size="10.00">::floordiv</text>
</a>
</g>
</g>
<!-- Node75&#45;&gt;Node76 -->
<g id="edge5" class="edge"><title>Node75&#45;&gt;Node76</title>
<path fill="none" stroke="midnightblue" d="M375.304,-15.5C383.629,-15.5 392.298,-15.5 400.772,-15.5"/>
<polygon fill="midnightblue" stroke="midnightblue" points="400.974,-19.0001 410.974,-15.5 400.974,-12.0001 400.974,-19.0001"/>
</g>
</g>
</svg>
