<?xml version="1.0" encoding="UTF-8" standalone="no"?>
<!DOCTYPE svg PUBLIC "-//W3C//DTD SVG 1.1//EN"
 "http://www.w3.org/Graphics/SVG/1.1/DTD/svg11.dtd">
<!-- Generated by graphviz version 2.38.0 (20140413.2041)
 -->
<!-- Title: utils4cpp::datetime::Date::setDate Pages: 1 -->
<svg width="243pt" height="186pt"
 viewBox="0.00 0.00 243.00 186.00" xmlns="http://www.w3.org/2000/svg" xmlns:xlink="http://www.w3.org/1999/xlink">
<g id="graph0" class="graph" transform="scale(1 1) rotate(0) translate(4 182)">
<title>utils4cpp::datetime::Date::setDate</title>
<polygon fill="white" stroke="none" points="-4,4 -4,-182 239,-182 239,4 -4,4"/>
<!-- Node112 -->
<g id="node1" class="node"><title>Node112</title>
<g id="a_node1"><a xlink:title=" ">
<polygon fill="#bfbfbf" stroke="black" points="0,-73.5 0,-103.5 99,-103.5 99,-73.5 0,-73.5"/>
<text text-anchor="start" x="8" y="-91.5" font-family="Helvetica,sans-Serif" font-size="10.00">utils4cpp::datetime</text>
<text text-anchor="middle" x="49.5" y="-80.5" font-family="Helvetica,sans-Serif" font-size="10.00">::Date::setDate</text>
</a>
</g>
</g>
<!-- Node113 -->
<g id="node2" class="node"><title>Node113</title>
<g id="a_node2"><a xlink:href="classutils4cpp_1_1datetime_1_1_date.html#ad0cae25c4251c7406f9f92abad9c8c98" target="_top" xlink:title=" ">
<polygon fill="white" stroke="black" points="135.5,-147.5 135.5,-177.5 234.5,-177.5 234.5,-147.5 135.5,-147.5"/>
<text text-anchor="start" x="143.5" y="-165.5" font-family="Helvetica,sans-Serif" font-size="10.00">utils4cpp::datetime</text>
<text text-anchor="middle" x="185" y="-154.5" font-family="Helvetica,sans-Serif" font-size="10.00">::Date::isValid</text>
</a>
</g>
</g>
<!-- Node112&#45;&gt;Node113 -->
<g id="edge1" class="edge"><title>Node112&#45;&gt;Node113</title>
<path fill="none" stroke="midnightblue" d="M74.9792,-103.678C91.6936,-113.869 114.449,-127.409 135,-138.5 137.705,-139.96 140.512,-141.436 143.351,-142.899"/>
<polygon fill="midnightblue" stroke="midnightblue" points="141.942,-146.108 152.445,-147.5 145.102,-139.862 141.942,-146.108"/>
</g>
<!-- Node114 -->
<g id="node3" class="node"><title>Node114</title>
<g id="a_node3"><a xlink:href="classutils4cpp_1_1datetime_1_1_date.html#abca55b8d4e17961d51b3d278eb51ba67" target="_top" xlink:title=" ">
<polygon fill="white" stroke="black" points="135,-98.5 135,-128.5 235,-128.5 235,-98.5 135,-98.5"/>
<text text-anchor="start" x="143" y="-116.5" font-family="Helvetica,sans-Serif" font-size="10.00">utils4cpp::datetime</text>
<text text-anchor="middle" x="185" y="-105.5" font-family="Helvetica,sans-Serif" font-size="10.00">::Date::dayOfWeek</text>
</a>
</g>
</g>
<!-- Node112&#45;&gt;Node114 -->
<g id="edge2" class="edge"><title>Node112&#45;&gt;Node114</title>
<path fill="none" stroke="midnightblue" d="M99.0742,-97.5963C107.433,-99.1617 116.204,-100.804 124.806,-102.415"/>
<polygon fill="midnightblue" stroke="midnightblue" points="124.317,-105.884 134.79,-104.285 125.605,-99.0037 124.317,-105.884"/>
</g>
<!-- Node115 -->
<g id="node4" class="node"><title>Node115</title>
<g id="a_node4"><a xlink:href="classutils4cpp_1_1datetime_1_1_date.html#abc56f5900432bcfd6a3e8ddf37749e05" target="_top" xlink:title=" ">
<polygon fill="white" stroke="black" points="135.5,-49.5 135.5,-79.5 234.5,-79.5 234.5,-49.5 135.5,-49.5"/>
<text text-anchor="start" x="143.5" y="-67.5" font-family="Helvetica,sans-Serif" font-size="10.00">utils4cpp::datetime</text>
<text text-anchor="middle" x="185" y="-56.5" font-family="Helvetica,sans-Serif" font-size="10.00">::Date::dayOfYear</text>
</a>
</g>
</g>
<!-- Node112&#45;&gt;Node115 -->
<g id="edge3" class="edge"><title>Node112&#45;&gt;Node115</title>
<path fill="none" stroke="midnightblue" d="M99.0742,-79.7676C107.541,-78.2455 116.429,-76.6475 125.136,-75.0822"/>
<polygon fill="midnightblue" stroke="midnightblue" points="126.015,-78.4804 135.238,-73.2662 124.777,-71.5909 126.015,-78.4804"/>
</g>
<!-- Node116 -->
<g id="node5" class="node"><title>Node116</title>
<g id="a_node5"><a xlink:href="classutils4cpp_1_1datetime_1_1_date.html#a7ad811c3a7a148eb9612b5f1dad9016c" target="_top" xlink:title=" ">
<polygon fill="white" stroke="black" points="135.5,-0.5 135.5,-30.5 234.5,-30.5 234.5,-0.5 135.5,-0.5"/>
<text text-anchor="start" x="143.5" y="-18.5" font-family="Helvetica,sans-Serif" font-size="10.00">utils4cpp::datetime</text>
<text text-anchor="middle" x="185" y="-7.5" font-family="Helvetica,sans-Serif" font-size="10.00">::Date::dst</text>
</a>
</g>
</g>
<!-- Node112&#45;&gt;Node116 -->
<g id="edge4" class="edge"><title>Node112&#45;&gt;Node116</title>
<path fill="none" stroke="midnightblue" d="M76.2207,-73.4925C92.8778,-63.8721 115.097,-51.2234 135,-40.5 138.216,-38.7674 141.565,-36.9944 144.935,-35.2317"/>
<polygon fill="midnightblue" stroke="midnightblue" points="146.559,-38.3321 153.829,-30.6251 143.34,-32.1163 146.559,-38.3321"/>
</g>
</g>
</svg>
