<?xml version="1.0" encoding="UTF-8" standalone="no"?>
<!DOCTYPE svg PUBLIC "-//W3C//DTD SVG 1.1//EN"
 "http://www.w3.org/Graphics/SVG/1.1/DTD/svg11.dtd">
<!-- Generated by graphviz version 2.38.0 (20140413.2041)
 -->
<!-- Title: utils4cpp::datetime::Date::daysInMonth Pages: 1 -->
<svg width="247pt" height="39pt"
 viewBox="0.00 0.00 247.00 39.00" xmlns="http://www.w3.org/2000/svg" xmlns:xlink="http://www.w3.org/1999/xlink">
<g id="graph0" class="graph" transform="scale(1 1) rotate(0) translate(4 35)">
<title>utils4cpp::datetime::Date::daysInMonth</title>
<polygon fill="white" stroke="none" points="-4,4 -4,-35 243,-35 243,4 -4,4"/>
<!-- Node67 -->
<g id="node1" class="node"><title>Node67</title>
<g id="a_node1"><a xlink:title=" ">
<polygon fill="#bfbfbf" stroke="black" points="0,-0.5 0,-30.5 104,-30.5 104,-0.5 0,-0.5"/>
<text text-anchor="start" x="8" y="-18.5" font-family="Helvetica,sans-Serif" font-size="10.00">utils4cpp::datetime</text>
<text text-anchor="middle" x="52" y="-7.5" font-family="Helvetica,sans-Serif" font-size="10.00">::Date::daysInMonth</text>
</a>
</g>
</g>
<!-- Node68 -->
<g id="node2" class="node"><title>Node68</title>
<g id="a_node2"><a xlink:href="classutils4cpp_1_1datetime_1_1_date.html#a5f28dec3dfa55c7729c2753b9c834fd0" target="_top" xlink:title=" ">
<polygon fill="white" stroke="black" points="140,-0.5 140,-30.5 239,-30.5 239,-0.5 140,-0.5"/>
<text text-anchor="start" x="148" y="-18.5" font-family="Helvetica,sans-Serif" font-size="10.00">utils4cpp::datetime</text>
<text text-anchor="middle" x="189.5" y="-7.5" font-family="Helvetica,sans-Serif" font-size="10.00">::Date::isLeapYear</text>
</a>
</g>
</g>
<!-- Node67&#45;&gt;Node68 -->
<g id="edge1" class="edge"><title>Node67&#45;&gt;Node68</title>
<path fill="none" stroke="midnightblue" d="M104.227,-15.5C112.538,-15.5 121.204,-15.5 129.679,-15.5"/>
<polygon fill="midnightblue" stroke="midnightblue" points="129.886,-19.0001 139.886,-15.5 129.886,-12.0001 129.886,-19.0001"/>
</g>
</g>
</svg>
