<?xml version="1.0" encoding="UTF-8" standalone="no"?>
<!DOCTYPE svg PUBLIC "-//W3C//DTD SVG 1.1//EN"
 "http://www.w3.org/Graphics/SVG/1.1/DTD/svg11.dtd">
<!-- Generated by graphviz version 2.38.0 (20140413.2041)
 -->
<!-- Title: utils4cpp::datetime::Date::isValid Pages: 1 -->
<svg width="513pt" height="442pt"
 viewBox="0.00 0.00 513.00 442.00" xmlns="http://www.w3.org/2000/svg" xmlns:xlink="http://www.w3.org/1999/xlink">
<g id="graph0" class="graph" transform="scale(1 1) rotate(0) translate(4 438)">
<title>utils4cpp::datetime::Date::isValid</title>
<polygon fill="white" stroke="none" points="-4,4 -4,-438 509,-438 509,4 -4,4"/>
<!-- Node161 -->
<g id="node1" class="node"><title>Node161</title>
<g id="a_node1"><a xlink:title=" ">
<polygon fill="#bfbfbf" stroke="black" points="406,-181.5 406,-211.5 505,-211.5 505,-181.5 406,-181.5"/>
<text text-anchor="start" x="414" y="-199.5" font-family="Helvetica,sans-Serif" font-size="10.00">utils4cpp::datetime</text>
<text text-anchor="middle" x="455.5" y="-188.5" font-family="Helvetica,sans-Serif" font-size="10.00">::Date::isValid</text>
</a>
</g>
</g>
<!-- Node162 -->
<g id="node2" class="node"><title>Node162</title>
<g id="a_node2"><a xlink:href="classutils4cpp_1_1datetime_1_1_date.html#ac3a2448d144c5455ecd62d1b25d77d1c" target="_top" xlink:title=" ">
<polygon fill="white" stroke="black" points="270.5,-403.5 270.5,-433.5 369.5,-433.5 369.5,-403.5 270.5,-403.5"/>
<text text-anchor="start" x="278.5" y="-421.5" font-family="Helvetica,sans-Serif" font-size="10.00">utils4cpp::datetime</text>
<text text-anchor="middle" x="320" y="-410.5" font-family="Helvetica,sans-Serif" font-size="10.00">::Date::daysInYear</text>
</a>
</g>
</g>
<!-- Node161&#45;&gt;Node162 -->
<g id="edge1" class="edge"><title>Node161&#45;&gt;Node162</title>
<path fill="none" stroke="midnightblue" d="M448.689,-221.467C438.482,-260.825 414.114,-338.001 370,-388.5 364.947,-394.284 358.501,-399.303 351.957,-403.494"/>
<polygon fill="midnightblue" stroke="midnightblue" points="452.115,-222.195 451.144,-211.645 445.323,-220.498 452.115,-222.195"/>
</g>
<!-- Node163 -->
<g id="node3" class="node"><title>Node163</title>
<g id="a_node3"><a xlink:href="classutils4cpp_1_1datetime_1_1_date.html#afb3d315a0bb3b53ce9c397711c12d68d" target="_top" xlink:title=" ">
<polygon fill="white" stroke="black" points="270.5,-266.5 270.5,-296.5 369.5,-296.5 369.5,-266.5 270.5,-266.5"/>
<text text-anchor="start" x="278.5" y="-284.5" font-family="Helvetica,sans-Serif" font-size="10.00">utils4cpp::datetime</text>
<text text-anchor="middle" x="320" y="-273.5" font-family="Helvetica,sans-Serif" font-size="10.00">::Date::setDate</text>
</a>
</g>
</g>
<!-- Node161&#45;&gt;Node163 -->
<g id="edge2" class="edge"><title>Node161&#45;&gt;Node163</title>
<path fill="none" stroke="midnightblue" d="M423.257,-217.129C407.376,-227.54 387.733,-240.303 370,-251.5 362.241,-256.399 353.73,-261.652 346.01,-266.371"/>
<polygon fill="midnightblue" stroke="midnightblue" points="425.22,-220.027 431.657,-211.612 421.377,-214.176 425.22,-220.027"/>
</g>
<!-- Node165 -->
<g id="node5" class="node"><title>Node165</title>
<g id="a_node5"><a xlink:href="classutils4cpp_1_1datetime_1_1_date.html#aebce900093689b957298d9c7a4be6fb4" target="_top" xlink:title=" ">
<polygon fill="white" stroke="black" points="0,-326.5 0,-356.5 99,-356.5 99,-326.5 0,-326.5"/>
<text text-anchor="start" x="8" y="-344.5" font-family="Helvetica,sans-Serif" font-size="10.00">utils4cpp::datetime</text>
<text text-anchor="middle" x="49.5" y="-333.5" font-family="Helvetica,sans-Serif" font-size="10.00">::Date::addMonths</text>
</a>
</g>
</g>
<!-- Node161&#45;&gt;Node165 -->
<g id="edge14" class="edge"><title>Node161&#45;&gt;Node165</title>
<path fill="none" stroke="midnightblue" d="M441.739,-220.267C427.338,-245.011 401.729,-283.327 370,-306.5 283.841,-369.424 241.331,-364.249 135,-355.5 123.292,-354.537 110.763,-352.835 99.0351,-350.942"/>
<polygon fill="midnightblue" stroke="midnightblue" points="444.817,-221.934 446.699,-211.508 438.726,-218.485 444.817,-221.934"/>
</g>
<!-- Node166 -->
<g id="node6" class="node"><title>Node166</title>
<g id="a_node6"><a xlink:href="classutils4cpp_1_1datetime_1_1_date.html#a1d7ec19546b2843d211db88754de5c2f" target="_top" xlink:title=" ">
<polygon fill="white" stroke="black" points="0,-244.5 0,-274.5 99,-274.5 99,-244.5 0,-244.5"/>
<text text-anchor="start" x="8" y="-262.5" font-family="Helvetica,sans-Serif" font-size="10.00">utils4cpp::datetime</text>
<text text-anchor="middle" x="49.5" y="-251.5" font-family="Helvetica,sans-Serif" font-size="10.00">::Date::addYears</text>
</a>
</g>
</g>
<!-- Node161&#45;&gt;Node166 -->
<g id="edge15" class="edge"><title>Node161&#45;&gt;Node166</title>
<path fill="none" stroke="midnightblue" d="M395.84,-205.648C315.729,-218.14 173.57,-240.308 99.0898,-251.923"/>
<polygon fill="midnightblue" stroke="midnightblue" points="396.427,-209.098 405.768,-204.099 395.348,-202.182 396.427,-209.098"/>
</g>
<!-- Node168 -->
<g id="node8" class="node"><title>Node168</title>
<g id="a_node8"><a xlink:href="classutils4cpp_1_1datetime_1_1_date.html#aaf8d0cad9acdbdcb8d50e6d24c437357" target="_top" xlink:title=" ">
<polygon fill="white" stroke="black" points="270.5,-137.5 270.5,-167.5 369.5,-167.5 369.5,-137.5 270.5,-137.5"/>
<text text-anchor="start" x="278.5" y="-155.5" font-family="Helvetica,sans-Serif" font-size="10.00">utils4cpp::datetime</text>
<text text-anchor="middle" x="320" y="-144.5" font-family="Helvetica,sans-Serif" font-size="10.00">::Date::toJulianDay</text>
</a>
</g>
</g>
<!-- Node161&#45;&gt;Node168 -->
<g id="edge7" class="edge"><title>Node161&#45;&gt;Node168</title>
<path fill="none" stroke="midnightblue" d="M399.188,-178.27C388.419,-174.72 377.239,-171.036 366.818,-167.601"/>
<polygon fill="midnightblue" stroke="midnightblue" points="398.337,-181.675 408.93,-181.481 400.528,-175.026 398.337,-181.675"/>
</g>
<!-- Node169 -->
<g id="node9" class="node"><title>Node169</title>
<g id="a_node9"><a xlink:href="classutils4cpp_1_1datetime_1_1_date.html#a21facc134692270a524404a140b57a41" target="_top" xlink:title=" ">
<polygon fill="white" stroke="black" points="135,-178.5 135,-208.5 234,-208.5 234,-178.5 135,-178.5"/>
<text text-anchor="start" x="143" y="-196.5" font-family="Helvetica,sans-Serif" font-size="10.00">utils4cpp::datetime</text>
<text text-anchor="middle" x="184.5" y="-185.5" font-family="Helvetica,sans-Serif" font-size="10.00">::Date::daysTo</text>
</a>
</g>
</g>
<!-- Node161&#45;&gt;Node169 -->
<g id="edge12" class="edge"><title>Node161&#45;&gt;Node169</title>
<path fill="none" stroke="midnightblue" d="M395.78,-195.845C347.438,-195.306 279.708,-194.551 234.305,-194.044"/>
<polygon fill="midnightblue" stroke="midnightblue" points="395.748,-199.345 405.786,-195.957 395.826,-192.345 395.748,-199.345"/>
</g>
<!-- Node170 -->
<g id="node10" class="node"><title>Node170</title>
<g id="a_node10"><a xlink:href="classutils4cpp_1_1datetime_1_1_date.html#a6065701386b4bd660355ab9e7a9c2ebc" target="_top" xlink:title=" ">
<polygon fill="white" stroke="black" points="135,-31.5 135,-61.5 234,-61.5 234,-31.5 135,-31.5"/>
<text text-anchor="start" x="143" y="-49.5" font-family="Helvetica,sans-Serif" font-size="10.00">utils4cpp::datetime</text>
<text text-anchor="middle" x="184.5" y="-38.5" font-family="Helvetica,sans-Serif" font-size="10.00">::Date::addDays</text>
</a>
</g>
</g>
<!-- Node161&#45;&gt;Node170 -->
<g id="edge13" class="edge"><title>Node161&#45;&gt;Node170</title>
<path fill="none" stroke="midnightblue" d="M431.349,-174.616C415.122,-160.126 392.408,-141.471 370,-128.5 328.714,-104.601 313.534,-109.008 270,-89.5 264.442,-87.0094 237.068,-73.0268 214.961,-61.6721"/>
<polygon fill="midnightblue" stroke="midnightblue" points="429.009,-177.219 438.764,-181.352 433.716,-172.037 429.009,-177.219"/>
</g>
<!-- Node173 -->
<g id="node13" class="node"><title>Node173</title>
<g id="a_node13"><a xlink:href="classutils4cpp_1_1datetime_1_1_date.html#ac9de57651b3f7319ff280c96b3ac501d" target="_top" xlink:title=" ">
<polygon fill="white" stroke="black" points="270.5,-49.5 270.5,-79.5 369.5,-79.5 369.5,-49.5 270.5,-49.5"/>
<text text-anchor="start" x="278.5" y="-67.5" font-family="Helvetica,sans-Serif" font-size="10.00">utils4cpp::datetime</text>
<text text-anchor="middle" x="320" y="-56.5" font-family="Helvetica,sans-Serif" font-size="10.00">::Date::dayOfYear</text>
</a>
</g>
</g>
<!-- Node161&#45;&gt;Node173 -->
<g id="edge16" class="edge"><title>Node161&#45;&gt;Node173</title>
<path fill="none" stroke="midnightblue" d="M438.435,-172.911C422.701,-150.92 397.185,-118.064 370,-94.5 363.744,-89.0774 356.394,-84.0174 349.317,-79.655"/>
<polygon fill="midnightblue" stroke="midnightblue" points="435.743,-175.167 444.361,-181.33 441.467,-171.138 435.743,-175.167"/>
</g>
<!-- Node174 -->
<g id="node14" class="node"><title>Node174</title>
<g id="a_node14"><a xlink:href="classutils4cpp_1_1datetime_1_1_date.html#a5f3ffa1b708defbae8133c8f86b11fd3" target="_top" xlink:title=" ">
<polygon fill="white" stroke="black" points="270,-0.5 270,-30.5 370,-30.5 370,-0.5 270,-0.5"/>
<text text-anchor="start" x="278" y="-18.5" font-family="Helvetica,sans-Serif" font-size="10.00">utils4cpp::datetime</text>
<text text-anchor="middle" x="320" y="-7.5" font-family="Helvetica,sans-Serif" font-size="10.00">::Date::dayOfWeek</text>
</a>
</g>
</g>
<!-- Node161&#45;&gt;Node174 -->
<g id="edge17" class="edge"><title>Node161&#45;&gt;Node174</title>
<path fill="none" stroke="midnightblue" d="M446.547,-171.567C434.678,-137.809 409.413,-77.4321 370,-39.5 366.587,-36.2157 362.639,-33.2988 358.493,-30.7311"/>
<polygon fill="midnightblue" stroke="midnightblue" points="443.268,-172.795 449.801,-181.135 449.895,-170.541 443.268,-172.795"/>
</g>
<!-- Node164 -->
<g id="node4" class="node"><title>Node164</title>
<g id="a_node4"><a xlink:href="namespaceutils4cpp_1_1datetime.html#ad6bfa1adb60166da25262287ffce1043" target="_top" xlink:title=" ">
<polygon fill="white" stroke="black" points="135,-266.5 135,-296.5 234,-296.5 234,-266.5 135,-266.5"/>
<text text-anchor="start" x="143" y="-284.5" font-family="Helvetica,sans-Serif" font-size="10.00">utils4cpp::datetime</text>
<text text-anchor="middle" x="184.5" y="-273.5" font-family="Helvetica,sans-Serif" font-size="10.00">::fixedDate</text>
</a>
</g>
</g>
<!-- Node163&#45;&gt;Node164 -->
<g id="edge3" class="edge"><title>Node163&#45;&gt;Node164</title>
<path fill="none" stroke="midnightblue" d="M260.329,-281.5C251.625,-281.5 242.734,-281.5 234.262,-281.5"/>
<polygon fill="midnightblue" stroke="midnightblue" points="260.426,-285 270.426,-281.5 260.426,-278 260.426,-285"/>
</g>
<!-- Node167 -->
<g id="node7" class="node"><title>Node167</title>
<g id="a_node7"><a xlink:href="classutils4cpp_1_1datetime_1_1_date.html#a37f8fbef5d43750a0e8ff27f20b9985b" target="_top" xlink:title=" ">
<polygon fill="white" stroke="black" points="135,-315.5 135,-345.5 234,-345.5 234,-315.5 135,-315.5"/>
<text text-anchor="start" x="143" y="-333.5" font-family="Helvetica,sans-Serif" font-size="10.00">utils4cpp::datetime</text>
<text text-anchor="middle" x="184.5" y="-322.5" font-family="Helvetica,sans-Serif" font-size="10.00">::Date::Date</text>
</a>
</g>
</g>
<!-- Node163&#45;&gt;Node167 -->
<g id="edge6" class="edge"><title>Node163&#45;&gt;Node167</title>
<path fill="none" stroke="midnightblue" d="M268.102,-300.182C254.429,-305.2 239.815,-310.564 226.738,-315.364"/>
<polygon fill="midnightblue" stroke="midnightblue" points="269.675,-303.333 277.856,-296.601 267.263,-296.761 269.675,-303.333"/>
</g>
<!-- Node164&#45;&gt;Node165 -->
<g id="edge4" class="edge"><title>Node164&#45;&gt;Node165</title>
<path fill="none" stroke="midnightblue" d="M140.638,-300.836C122.306,-309.106 101.218,-318.62 84.0508,-326.364"/>
<polygon fill="midnightblue" stroke="midnightblue" points="142.262,-303.943 149.938,-296.641 139.384,-297.562 142.262,-303.943"/>
</g>
<!-- Node164&#45;&gt;Node166 -->
<g id="edge5" class="edge"><title>Node164&#45;&gt;Node166</title>
<path fill="none" stroke="midnightblue" d="M124.824,-271.794C116.287,-270.382 107.576,-268.941 99.2632,-267.566"/>
<polygon fill="midnightblue" stroke="midnightblue" points="124.294,-275.254 134.731,-273.433 125.436,-268.348 124.294,-275.254"/>
</g>
<!-- Node168&#45;&gt;Node169 -->
<g id="edge8" class="edge"><title>Node168&#45;&gt;Node169</title>
<path fill="none" stroke="midnightblue" d="M260.613,-170.432C251.818,-173.133 242.826,-175.894 234.262,-178.524"/>
<polygon fill="midnightblue" stroke="midnightblue" points="261.894,-173.7 270.426,-167.418 259.839,-167.008 261.894,-173.7"/>
</g>
<!-- Node168&#45;&gt;Node170 -->
<g id="edge9" class="edge"><title>Node168&#45;&gt;Node170</title>
<path fill="none" stroke="midnightblue" d="M281.466,-131.768C277.416,-128.886 273.501,-125.78 270,-122.5 249.752,-103.532 254.931,-89.7118 234,-71.5 229.784,-67.8314 224.935,-64.5258 219.968,-61.6109"/>
<polygon fill="midnightblue" stroke="midnightblue" points="279.612,-134.738 289.879,-137.353 283.483,-128.906 279.612,-134.738"/>
</g>
<!-- Node171 -->
<g id="node11" class="node"><title>Node171</title>
<g id="a_node11"><a xlink:href="classutils4cpp_1_1datetime_1_1_date.html#ab463ac99a7019994a58ba67cc6cba045" target="_top" xlink:title=" ">
<polygon fill="white" stroke="black" points="135,-129.5 135,-159.5 234,-159.5 234,-129.5 135,-129.5"/>
<text text-anchor="start" x="143" y="-147.5" font-family="Helvetica,sans-Serif" font-size="10.00">utils4cpp::datetime</text>
<text text-anchor="middle" x="184.5" y="-136.5" font-family="Helvetica,sans-Serif" font-size="10.00">::Date::operator&lt;</text>
</a>
</g>
</g>
<!-- Node168&#45;&gt;Node171 -->
<g id="edge10" class="edge"><title>Node168&#45;&gt;Node171</title>
<path fill="none" stroke="midnightblue" d="M260.329,-148.984C251.625,-148.463 242.734,-147.93 234.262,-147.422"/>
<polygon fill="midnightblue" stroke="midnightblue" points="260.234,-152.485 270.426,-149.589 260.653,-145.497 260.234,-152.485"/>
</g>
<!-- Node172 -->
<g id="node12" class="node"><title>Node172</title>
<g id="a_node12"><a xlink:href="classutils4cpp_1_1datetime_1_1_date.html#a8e99a50f8291da90cf7de66f38d57ec6" target="_top" xlink:title=" ">
<polygon fill="white" stroke="black" points="135,-80.5 135,-110.5 234,-110.5 234,-80.5 135,-80.5"/>
<text text-anchor="start" x="143" y="-98.5" font-family="Helvetica,sans-Serif" font-size="10.00">utils4cpp::datetime</text>
<text text-anchor="middle" x="184.5" y="-87.5" font-family="Helvetica,sans-Serif" font-size="10.00">::Date::operator&gt;</text>
</a>
</g>
</g>
<!-- Node168&#45;&gt;Node172 -->
<g id="edge11" class="edge"><title>Node168&#45;&gt;Node172</title>
<path fill="none" stroke="midnightblue" d="M274.226,-133.383C256.925,-125.996 237.406,-117.662 221.091,-110.696"/>
<polygon fill="midnightblue" stroke="midnightblue" points="273.004,-136.667 283.575,-137.375 275.753,-130.229 273.004,-136.667"/>
</g>
</g>
</svg>
