<?xml version="1.0" encoding="UTF-8" standalone="no"?>
<!DOCTYPE svg PUBLIC "-//W3C//DTD SVG 1.1//EN"
 "http://www.w3.org/Graphics/SVG/1.1/DTD/svg11.dtd">
<!-- Generated by graphviz version 2.38.0 (20140413.2041)
 -->
<!-- Title: utils4cpp::datetime::ElapsedTimer::elapsedMillisecondsFloating Pages: 1 -->
<svg width="376pt" height="50pt"
 viewBox="0.00 0.00 376.00 50.00" xmlns="http://www.w3.org/2000/svg" xmlns:xlink="http://www.w3.org/1999/xlink">
<g id="graph0" class="graph" transform="scale(1 1) rotate(0) translate(4 46)">
<title>utils4cpp::datetime::ElapsedTimer::elapsedMillisecondsFloating</title>
<polygon fill="white" stroke="none" points="-4,4 -4,-46 372,-46 372,4 -4,4"/>
<!-- Node24 -->
<g id="node1" class="node"><title>Node24</title>
<g id="a_node1"><a xlink:title=" ">
<polygon fill="#bfbfbf" stroke="black" points="192,-0.5 192,-41.5 368,-41.5 368,-0.5 192,-0.5"/>
<text text-anchor="start" x="200" y="-29.5" font-family="Helvetica,sans-Serif" font-size="10.00">utils4cpp::datetime</text>
<text text-anchor="start" x="200" y="-18.5" font-family="Helvetica,sans-Serif" font-size="10.00">::ElapsedTimer::elapsedMilliseconds</text>
<text text-anchor="middle" x="280" y="-7.5" font-family="Helvetica,sans-Serif" font-size="10.00">Floating</text>
</a>
</g>
</g>
<!-- Node25 -->
<g id="node2" class="node"><title>Node25</title>
<g id="a_node2"><a xlink:href="classutils4cpp_1_1datetime_1_1_elapsed_timer.html#acd3c0076494ab4ce61d5c24ba82207aa" target="_top" xlink:title=" ">
<polygon fill="white" stroke="black" points="0,-6 0,-36 156,-36 156,-6 0,-6"/>
<text text-anchor="start" x="8" y="-24" font-family="Helvetica,sans-Serif" font-size="10.00">utils4cpp::datetime</text>
<text text-anchor="middle" x="78" y="-13" font-family="Helvetica,sans-Serif" font-size="10.00">::ElapsedTimer::elapsedFloating</text>
</a>
</g>
</g>
<!-- Node24&#45;&gt;Node25 -->
<g id="edge1" class="edge"><title>Node24&#45;&gt;Node25</title>
<path fill="none" stroke="midnightblue" d="M181.779,-21C173.169,-21 164.531,-21 156.122,-21"/>
<polygon fill="midnightblue" stroke="midnightblue" points="181.859,-24.5001 191.859,-21 181.859,-17.5001 181.859,-24.5001"/>
</g>
</g>
</svg>
