<?xml version="1.0" encoding="UTF-8" standalone="no"?>
<!DOCTYPE svg PUBLIC "-//W3C//DTD SVG 1.1//EN"
 "http://www.w3.org/Graphics/SVG/1.1/DTD/svg11.dtd">
<!-- Generated by graphviz version 2.38.0 (20140413.2041)
 -->
<!-- Title: utils4cpp::datetime::Time::Time Pages: 1 -->
<svg width="377pt" height="39pt"
 viewBox="0.00 0.00 377.00 39.00" xmlns="http://www.w3.org/2000/svg" xmlns:xlink="http://www.w3.org/1999/xlink">
<g id="graph0" class="graph" transform="scale(1 1) rotate(0) translate(4 35)">
<title>utils4cpp::datetime::Time::Time</title>
<polygon fill="white" stroke="none" points="-4,4 -4,-35 373,-35 373,4 -4,4"/>
<!-- Node2 -->
<g id="node1" class="node"><title>Node2</title>
<g id="a_node1"><a xlink:title=" ">
<polygon fill="#bfbfbf" stroke="black" points="0,-0.5 0,-30.5 99,-30.5 99,-0.5 0,-0.5"/>
<text text-anchor="start" x="8" y="-18.5" font-family="Helvetica,sans-Serif" font-size="10.00">utils4cpp::datetime</text>
<text text-anchor="middle" x="49.5" y="-7.5" font-family="Helvetica,sans-Serif" font-size="10.00">::Time::Time</text>
</a>
</g>
</g>
<!-- Node3 -->
<g id="node2" class="node"><title>Node3</title>
<g id="a_node2"><a xlink:href="classutils4cpp_1_1datetime_1_1_time.html#ad2a09da45cf21af85ddd800675188ef8" target="_top" xlink:title=" ">
<polygon fill="white" stroke="black" points="135,-0.5 135,-30.5 234,-30.5 234,-0.5 135,-0.5"/>
<text text-anchor="start" x="143" y="-18.5" font-family="Helvetica,sans-Serif" font-size="10.00">utils4cpp::datetime</text>
<text text-anchor="middle" x="184.5" y="-7.5" font-family="Helvetica,sans-Serif" font-size="10.00">::Time::setTime</text>
</a>
</g>
</g>
<!-- Node2&#45;&gt;Node3 -->
<g id="edge1" class="edge"><title>Node2&#45;&gt;Node3</title>
<path fill="none" stroke="midnightblue" d="M99.2691,-15.5C107.491,-15.5 116.104,-15.5 124.551,-15.5"/>
<polygon fill="midnightblue" stroke="midnightblue" points="124.737,-19.0001 134.737,-15.5 124.737,-12.0001 124.737,-19.0001"/>
</g>
<!-- Node4 -->
<g id="node3" class="node"><title>Node4</title>
<g id="a_node3"><a xlink:href="classutils4cpp_1_1datetime_1_1_time.html#ae4eb38a59e1a5620e7ed886563f7696f" target="_top" xlink:title=" ">
<polygon fill="white" stroke="black" points="270,-0.5 270,-30.5 369,-30.5 369,-0.5 270,-0.5"/>
<text text-anchor="start" x="278" y="-18.5" font-family="Helvetica,sans-Serif" font-size="10.00">utils4cpp::datetime</text>
<text text-anchor="middle" x="319.5" y="-7.5" font-family="Helvetica,sans-Serif" font-size="10.00">::Time::isValid</text>
</a>
</g>
</g>
<!-- Node3&#45;&gt;Node4 -->
<g id="edge2" class="edge"><title>Node3&#45;&gt;Node4</title>
<path fill="none" stroke="midnightblue" d="M234.269,-15.5C242.491,-15.5 251.104,-15.5 259.551,-15.5"/>
<polygon fill="midnightblue" stroke="midnightblue" points="259.737,-19.0001 269.737,-15.5 259.737,-12.0001 259.737,-19.0001"/>
</g>
</g>
</svg>
