<?xml version="1.0" encoding="UTF-8" standalone="no"?>
<!DOCTYPE svg PUBLIC "-//W3C//DTD SVG 1.1//EN"
 "http://www.w3.org/Graphics/SVG/1.1/DTD/svg11.dtd">
<!-- Generated by graphviz version 2.38.0 (20140413.2041)
 -->
<!-- Title: utils4cpp::datetime::Time::toMilliseconds Pages: 1 -->
<svg width="390pt" height="137pt"
 viewBox="0.00 0.00 390.00 137.00" xmlns="http://www.w3.org/2000/svg" xmlns:xlink="http://www.w3.org/1999/xlink">
<g id="graph0" class="graph" transform="scale(1 1) rotate(0) translate(4 133)">
<title>utils4cpp::datetime::Time::toMilliseconds</title>
<polygon fill="white" stroke="none" points="-4,4 -4,-133 386,-133 386,4 -4,4"/>
<!-- Node83 -->
<g id="node1" class="node"><title>Node83</title>
<g id="a_node1"><a xlink:title=" ">
<polygon fill="#bfbfbf" stroke="black" points="270,-49.5 270,-79.5 382,-79.5 382,-49.5 270,-49.5"/>
<text text-anchor="start" x="278" y="-67.5" font-family="Helvetica,sans-Serif" font-size="10.00">utils4cpp::datetime</text>
<text text-anchor="middle" x="326" y="-56.5" font-family="Helvetica,sans-Serif" font-size="10.00">::Time::toMilliseconds</text>
</a>
</g>
</g>
<!-- Node84 -->
<g id="node2" class="node"><title>Node84</title>
<g id="a_node2"><a xlink:href="classutils4cpp_1_1datetime_1_1_time.html#a5461faf1828419874a6a01fc8feca9ba" target="_top" xlink:title=" ">
<polygon fill="white" stroke="black" points="135,-98.5 135,-128.5 234,-128.5 234,-98.5 135,-98.5"/>
<text text-anchor="start" x="143" y="-116.5" font-family="Helvetica,sans-Serif" font-size="10.00">utils4cpp::datetime</text>
<text text-anchor="middle" x="184.5" y="-105.5" font-family="Helvetica,sans-Serif" font-size="10.00">::Time::secsTo</text>
</a>
</g>
</g>
<!-- Node83&#45;&gt;Node84 -->
<g id="edge1" class="edge"><title>Node83&#45;&gt;Node84</title>
<path fill="none" stroke="midnightblue" d="M272.231,-83.0355C257.824,-88.0959 242.388,-93.5177 228.591,-98.3641"/>
<polygon fill="midnightblue" stroke="midnightblue" points="273.732,-86.2178 282.007,-79.6014 271.412,-79.6133 273.732,-86.2178"/>
</g>
<!-- Node85 -->
<g id="node3" class="node"><title>Node85</title>
<g id="a_node3"><a xlink:href="classutils4cpp_1_1datetime_1_1_time.html#adaa2cc2f4da1563849747620f79a2a9c" target="_top" xlink:title=" ">
<polygon fill="white" stroke="black" points="135,-49.5 135,-79.5 234,-79.5 234,-49.5 135,-49.5"/>
<text text-anchor="start" x="143" y="-67.5" font-family="Helvetica,sans-Serif" font-size="10.00">utils4cpp::datetime</text>
<text text-anchor="middle" x="184.5" y="-56.5" font-family="Helvetica,sans-Serif" font-size="10.00">::Time::addMSecs</text>
</a>
</g>
</g>
<!-- Node83&#45;&gt;Node85 -->
<g id="edge2" class="edge"><title>Node83&#45;&gt;Node85</title>
<path fill="none" stroke="midnightblue" d="M259.865,-64.5C251.282,-64.5 242.605,-64.5 234.358,-64.5"/>
<polygon fill="midnightblue" stroke="midnightblue" points="259.866,-68.0001 269.866,-64.5 259.866,-61.0001 259.866,-68.0001"/>
</g>
<!-- Node87 -->
<g id="node5" class="node"><title>Node87</title>
<g id="a_node5"><a xlink:href="classutils4cpp_1_1datetime_1_1_time.html#a4cc4dbfe0503cfae8fba0a9f23b7cd83" target="_top" xlink:title=" ">
<polygon fill="white" stroke="black" points="135,-0.5 135,-30.5 234,-30.5 234,-0.5 135,-0.5"/>
<text text-anchor="start" x="143" y="-18.5" font-family="Helvetica,sans-Serif" font-size="10.00">utils4cpp::datetime</text>
<text text-anchor="middle" x="184.5" y="-7.5" font-family="Helvetica,sans-Serif" font-size="10.00">::Time::msecsTo</text>
</a>
</g>
</g>
<!-- Node83&#45;&gt;Node87 -->
<g id="edge4" class="edge"><title>Node83&#45;&gt;Node87</title>
<path fill="none" stroke="midnightblue" d="M272.231,-45.9645C257.824,-40.9041 242.388,-35.4823 228.591,-30.6359"/>
<polygon fill="midnightblue" stroke="midnightblue" points="271.412,-49.3867 282.007,-49.3986 273.732,-42.7822 271.412,-49.3867"/>
</g>
<!-- Node86 -->
<g id="node4" class="node"><title>Node86</title>
<g id="a_node4"><a xlink:href="classutils4cpp_1_1datetime_1_1_time.html#aa299305967a434723fa6e756a3b4377e" target="_top" xlink:title=" ">
<polygon fill="white" stroke="black" points="0,-49.5 0,-79.5 99,-79.5 99,-49.5 0,-49.5"/>
<text text-anchor="start" x="8" y="-67.5" font-family="Helvetica,sans-Serif" font-size="10.00">utils4cpp::datetime</text>
<text text-anchor="middle" x="49.5" y="-56.5" font-family="Helvetica,sans-Serif" font-size="10.00">::Time::addSecs</text>
</a>
</g>
</g>
<!-- Node85&#45;&gt;Node86 -->
<g id="edge3" class="edge"><title>Node85&#45;&gt;Node86</title>
<path fill="none" stroke="midnightblue" d="M124.545,-64.5C116.098,-64.5 107.485,-64.5 99.2632,-64.5"/>
<polygon fill="midnightblue" stroke="midnightblue" points="124.731,-68.0001 134.731,-64.5 124.731,-61.0001 124.731,-68.0001"/>
</g>
</g>
</svg>
