<?xml version="1.0" encoding="UTF-8" standalone="no"?>
<!DOCTYPE svg PUBLIC "-//W3C//DTD SVG 1.1//EN"
 "http://www.w3.org/Graphics/SVG/1.1/DTD/svg11.dtd">
<!-- Generated by graphviz version 2.38.0 (20140413.2041)
 -->
<!-- Title: utils4cpp::datetime::Date::isLeapYear Pages: 1 -->
<svg width="517pt" height="211pt"
 viewBox="0.00 0.00 517.00 211.00" xmlns="http://www.w3.org/2000/svg" xmlns:xlink="http://www.w3.org/1999/xlink">
<g id="graph0" class="graph" transform="scale(1 1) rotate(0) translate(4 207)">
<title>utils4cpp::datetime::Date::isLeapYear</title>
<polygon fill="white" stroke="none" points="-4,4 -4,-207 513,-207 513,4 -4,4"/>
<!-- Node152 -->
<g id="node1" class="node"><title>Node152</title>
<g id="a_node1"><a xlink:title=" ">
<polygon fill="#bfbfbf" stroke="black" points="410,-73.5 410,-103.5 509,-103.5 509,-73.5 410,-73.5"/>
<text text-anchor="start" x="418" y="-91.5" font-family="Helvetica,sans-Serif" font-size="10.00">utils4cpp::datetime</text>
<text text-anchor="middle" x="459.5" y="-80.5" font-family="Helvetica,sans-Serif" font-size="10.00">::Date::isLeapYear</text>
</a>
</g>
</g>
<!-- Node153 -->
<g id="node2" class="node"><title>Node153</title>
<g id="a_node2"><a xlink:href="classutils4cpp_1_1datetime_1_1_date.html#a5c79c7e7e39bde768be4195e37925634" target="_top" xlink:title=" ">
<polygon fill="white" stroke="black" points="270,-147.5 270,-177.5 374,-177.5 374,-147.5 270,-147.5"/>
<text text-anchor="start" x="278" y="-165.5" font-family="Helvetica,sans-Serif" font-size="10.00">utils4cpp::datetime</text>
<text text-anchor="middle" x="322" y="-154.5" font-family="Helvetica,sans-Serif" font-size="10.00">::Date::daysInMonth</text>
</a>
</g>
</g>
<!-- Node152&#45;&gt;Node153 -->
<g id="edge1" class="edge"><title>Node152&#45;&gt;Node153</title>
<path fill="none" stroke="midnightblue" d="M425.746,-108.858C410.252,-118.234 391.377,-129.296 374,-138.5 368.293,-141.523 362.138,-144.582 356.147,-147.458"/>
<polygon fill="midnightblue" stroke="midnightblue" points="427.723,-111.752 434.441,-103.559 424.08,-105.774 427.723,-111.752"/>
</g>
<!-- Node157 -->
<g id="node6" class="node"><title>Node157</title>
<g id="a_node6"><a xlink:href="classutils4cpp_1_1datetime_1_1_date.html#ac3a2448d144c5455ecd62d1b25d77d1c" target="_top" xlink:title=" ">
<polygon fill="white" stroke="black" points="272.5,-98.5 272.5,-128.5 371.5,-128.5 371.5,-98.5 272.5,-98.5"/>
<text text-anchor="start" x="280.5" y="-116.5" font-family="Helvetica,sans-Serif" font-size="10.00">utils4cpp::datetime</text>
<text text-anchor="middle" x="322" y="-105.5" font-family="Helvetica,sans-Serif" font-size="10.00">::Date::daysInYear</text>
</a>
</g>
</g>
<!-- Node152&#45;&gt;Node157 -->
<g id="edge5" class="edge"><title>Node152&#45;&gt;Node157</title>
<path fill="none" stroke="midnightblue" d="M399.875,-99.3164C390.459,-101.054 380.803,-102.835 371.652,-104.524"/>
<polygon fill="midnightblue" stroke="midnightblue" points="400.765,-102.711 409.964,-97.455 399.495,-95.8275 400.765,-102.711"/>
</g>
<!-- Node158 -->
<g id="node7" class="node"><title>Node158</title>
<g id="a_node7"><a xlink:href="classutils4cpp_1_1datetime_1_1_date.html#a5620718c2364b935f4b3d2d6e1aebf6a" target="_top" xlink:title=" ">
<polygon fill="white" stroke="black" points="272.5,-49.5 272.5,-79.5 371.5,-79.5 371.5,-49.5 272.5,-49.5"/>
<text text-anchor="start" x="280.5" y="-67.5" font-family="Helvetica,sans-Serif" font-size="10.00">utils4cpp::datetime</text>
<text text-anchor="middle" x="322" y="-56.5" font-family="Helvetica,sans-Serif" font-size="10.00">::Date::isValid</text>
</a>
</g>
</g>
<!-- Node152&#45;&gt;Node158 -->
<g id="edge6" class="edge"><title>Node152&#45;&gt;Node158</title>
<path fill="none" stroke="midnightblue" d="M399.875,-78.1163C390.459,-76.4484 380.803,-74.7381 371.652,-73.1174"/>
<polygon fill="midnightblue" stroke="midnightblue" points="399.507,-81.6054 409.964,-79.9032 400.728,-74.7127 399.507,-81.6054"/>
</g>
<!-- Node159 -->
<g id="node8" class="node"><title>Node159</title>
<g id="a_node8"><a xlink:href="classutils4cpp_1_1datetime_1_1_date.html#ac9de57651b3f7319ff280c96b3ac501d" target="_top" xlink:title=" ">
<polygon fill="white" stroke="black" points="272.5,-0.5 272.5,-30.5 371.5,-30.5 371.5,-0.5 272.5,-0.5"/>
<text text-anchor="start" x="280.5" y="-18.5" font-family="Helvetica,sans-Serif" font-size="10.00">utils4cpp::datetime</text>
<text text-anchor="middle" x="322" y="-7.5" font-family="Helvetica,sans-Serif" font-size="10.00">::Date::dayOfYear</text>
</a>
</g>
</g>
<!-- Node152&#45;&gt;Node159 -->
<g id="edge7" class="edge"><title>Node152&#45;&gt;Node159</title>
<path fill="none" stroke="midnightblue" d="M423.805,-68.1615C408.633,-59.4312 390.553,-49.2481 374,-40.5 367.723,-37.1826 360.943,-33.7537 354.439,-30.5384"/>
<polygon fill="midnightblue" stroke="midnightblue" points="422.428,-71.4081 432.837,-73.3838 425.932,-65.3482 422.428,-71.4081"/>
</g>
<!-- Node154 -->
<g id="node3" class="node"><title>Node154</title>
<g id="a_node3"><a xlink:href="namespaceutils4cpp_1_1datetime.html#ad6bfa1adb60166da25262287ffce1043" target="_top" xlink:title=" ">
<polygon fill="white" stroke="black" points="135,-147.5 135,-177.5 234,-177.5 234,-147.5 135,-147.5"/>
<text text-anchor="start" x="143" y="-165.5" font-family="Helvetica,sans-Serif" font-size="10.00">utils4cpp::datetime</text>
<text text-anchor="middle" x="184.5" y="-154.5" font-family="Helvetica,sans-Serif" font-size="10.00">::fixedDate</text>
</a>
</g>
</g>
<!-- Node153&#45;&gt;Node154 -->
<g id="edge2" class="edge"><title>Node153&#45;&gt;Node154</title>
<path fill="none" stroke="midnightblue" d="M259.496,-162.5C250.987,-162.5 242.345,-162.5 234.114,-162.5"/>
<polygon fill="midnightblue" stroke="midnightblue" points="259.773,-166 269.773,-162.5 259.773,-159 259.773,-166"/>
</g>
<!-- Node155 -->
<g id="node4" class="node"><title>Node155</title>
<g id="a_node4"><a xlink:href="classutils4cpp_1_1datetime_1_1_date.html#aebce900093689b957298d9c7a4be6fb4" target="_top" xlink:title=" ">
<polygon fill="white" stroke="black" points="0,-172.5 0,-202.5 99,-202.5 99,-172.5 0,-172.5"/>
<text text-anchor="start" x="8" y="-190.5" font-family="Helvetica,sans-Serif" font-size="10.00">utils4cpp::datetime</text>
<text text-anchor="middle" x="49.5" y="-179.5" font-family="Helvetica,sans-Serif" font-size="10.00">::Date::addMonths</text>
</a>
</g>
</g>
<!-- Node154&#45;&gt;Node155 -->
<g id="edge3" class="edge"><title>Node154&#45;&gt;Node155</title>
<path fill="none" stroke="midnightblue" d="M124.824,-173.529C116.287,-175.134 107.576,-176.772 99.2632,-178.334"/>
<polygon fill="midnightblue" stroke="midnightblue" points="125.55,-176.954 134.731,-171.667 124.256,-170.075 125.55,-176.954"/>
</g>
<!-- Node156 -->
<g id="node5" class="node"><title>Node156</title>
<g id="a_node5"><a xlink:href="classutils4cpp_1_1datetime_1_1_date.html#a1d7ec19546b2843d211db88754de5c2f" target="_top" xlink:title=" ">
<polygon fill="white" stroke="black" points="0,-123.5 0,-153.5 99,-153.5 99,-123.5 0,-123.5"/>
<text text-anchor="start" x="8" y="-141.5" font-family="Helvetica,sans-Serif" font-size="10.00">utils4cpp::datetime</text>
<text text-anchor="middle" x="49.5" y="-130.5" font-family="Helvetica,sans-Serif" font-size="10.00">::Date::addYears</text>
</a>
</g>
</g>
<!-- Node154&#45;&gt;Node156 -->
<g id="edge4" class="edge"><title>Node154&#45;&gt;Node156</title>
<path fill="none" stroke="midnightblue" d="M124.824,-151.912C116.287,-150.371 107.576,-148.799 99.2632,-147.299"/>
<polygon fill="midnightblue" stroke="midnightblue" points="124.268,-155.368 134.731,-153.7 125.511,-148.479 124.268,-155.368"/>
</g>
</g>
</svg>
