<?xml version="1.0" encoding="UTF-8" standalone="no"?>
<!DOCTYPE svg PUBLIC "-//W3C//DTD SVG 1.1//EN"
 "http://www.w3.org/Graphics/SVG/1.1/DTD/svg11.dtd">
<!-- Generated by graphviz version 2.38.0 (20140413.2041)
 -->
<!-- Title: utils4cpp::str::BasicStringList&lt; StringT &gt; Pages: 1 -->
<svg width="137pt" height="420pt"
 viewBox="0.00 0.00 137.00 420.00" xmlns="http://www.w3.org/2000/svg" xmlns:xlink="http://www.w3.org/1999/xlink">
<g id="graph0" class="graph" transform="scale(1 1) rotate(0) translate(4 416)">
<title>utils4cpp::str::BasicStringList&lt; StringT &gt;</title>
<polygon fill="white" stroke="none" points="-4,4 -4,-416 133,-416 133,4 -4,4"/>
<!-- Node2 -->
<g id="node1" class="node"><title>Node2</title>
<g id="a_node1"><a xlink:title="The string list template class.">
<polygon fill="#bfbfbf" stroke="black" points="0,-0.5 0,-211.5 129,-211.5 129,-0.5 0,-0.5"/>
<text text-anchor="start" x="8" y="-199.5" font-family="Helvetica,sans-Serif" font-size="10.00">utils4cpp::str::BasicString</text>
<text text-anchor="middle" x="64.5" y="-188.5" font-family="Helvetica,sans-Serif" font-size="10.00">List&lt; StringT &gt;</text>
<polyline fill="none" stroke="black" points="0,-181.5 129,-181.5 "/>
<text text-anchor="middle" x="64.5" y="-169.5" font-family="Helvetica,sans-Serif" font-size="10.00"> </text>
<polyline fill="none" stroke="black" points="0,-162.5 129,-162.5 "/>
<text text-anchor="start" x="8" y="-150.5" font-family="Helvetica,sans-Serif" font-size="10.00">+ iteratorAt()</text>
<text text-anchor="start" x="8" y="-139.5" font-family="Helvetica,sans-Serif" font-size="10.00">+ iteratorAt()</text>
<text text-anchor="start" x="8" y="-128.5" font-family="Helvetica,sans-Serif" font-size="10.00">+ constIteratorAt()</text>
<text text-anchor="start" x="8" y="-117.5" font-family="Helvetica,sans-Serif" font-size="10.00">+ at()</text>
<text text-anchor="start" x="8" y="-106.5" font-family="Helvetica,sans-Serif" font-size="10.00">+ operator[]()</text>
<text text-anchor="start" x="8" y="-95.5" font-family="Helvetica,sans-Serif" font-size="10.00">+ operator[]()</text>
<text text-anchor="start" x="8" y="-84.5" font-family="Helvetica,sans-Serif" font-size="10.00">+ swapItems()</text>
<text text-anchor="start" x="8" y="-73.5" font-family="Helvetica,sans-Serif" font-size="10.00">+ swapItemsAt()</text>
<text text-anchor="start" x="8" y="-62.5" font-family="Helvetica,sans-Serif" font-size="10.00">+ contains()</text>
<text text-anchor="start" x="8" y="-51.5" font-family="Helvetica,sans-Serif" font-size="10.00">+ indexOf()</text>
<text text-anchor="start" x="8" y="-40.5" font-family="Helvetica,sans-Serif" font-size="10.00">and 15 more...</text>
<text text-anchor="start" x="8" y="-29.5" font-family="Helvetica,sans-Serif" font-size="10.00">+ removeDuplicates()</text>
<text text-anchor="start" x="8" y="-18.5" font-family="Helvetica,sans-Serif" font-size="10.00">+ fromStdList()</text>
<text text-anchor="start" x="8" y="-7.5" font-family="Helvetica,sans-Serif" font-size="10.00">+ fromStdVector()</text>
</a>
</g>
</g>
<!-- Node3 -->
<g id="node2" class="node"><title>Node3</title>
<g id="a_node2"><a xlink:title="STL class.">
<polygon fill="white" stroke="#bfbfbf" points="15.5,-249.5 15.5,-306.5 113.5,-306.5 113.5,-249.5 15.5,-249.5"/>
<text text-anchor="middle" x="64.5" y="-294.5" font-family="Helvetica,sans-Serif" font-size="10.00">std::list&lt; StringT &gt;</text>
<polyline fill="none" stroke="#bfbfbf" points="15.5,-287.5 113.5,-287.5 "/>
<text text-anchor="middle" x="64.5" y="-275.5" font-family="Helvetica,sans-Serif" font-size="10.00"> </text>
<polyline fill="none" stroke="#bfbfbf" points="15.5,-268.5 113.5,-268.5 "/>
<text text-anchor="middle" x="64.5" y="-256.5" font-family="Helvetica,sans-Serif" font-size="10.00"> </text>
</a>
</g>
</g>
<!-- Node3&#45;&gt;Node2 -->
<g id="edge1" class="edge"><title>Node3&#45;&gt;Node2</title>
<path fill="none" stroke="midnightblue" d="M64.5,-239.194C64.5,-230.797 64.5,-221.5 64.5,-211.841"/>
<polygon fill="none" stroke="midnightblue" points="61.0001,-239.308 64.5,-249.308 68.0001,-239.308 61.0001,-239.308"/>
</g>
<!-- Node4 -->
<g id="node3" class="node"><title>Node4</title>
<g id="a_node3"><a xlink:title=" ">
<polygon fill="white" stroke="#bfbfbf" points="50,-354.5 50,-411.5 79,-411.5 79,-354.5 50,-354.5"/>
<text text-anchor="middle" x="64.5" y="-399.5" font-family="Helvetica,sans-Serif" font-size="10.00">T</text>
<polyline fill="none" stroke="#bfbfbf" points="50,-392.5 79,-392.5 "/>
<text text-anchor="middle" x="64.5" y="-380.5" font-family="Helvetica,sans-Serif" font-size="10.00"> </text>
<polyline fill="none" stroke="#bfbfbf" points="50,-373.5 79,-373.5 "/>
<text text-anchor="middle" x="64.5" y="-361.5" font-family="Helvetica,sans-Serif" font-size="10.00"> </text>
</a>
</g>
</g>
<!-- Node4&#45;&gt;Node3 -->
<g id="edge2" class="edge"><title>Node4&#45;&gt;Node3</title>
<path fill="none" stroke="#404040" d="M64.5,-354.398C64.5,-343.545 64.5,-330.873 64.5,-319.049"/>
<polygon fill="none" stroke="#404040" points="64.5001,-318.678 60.5,-312.678 64.5,-306.678 68.5,-312.678 64.5001,-318.678"/>
<text text-anchor="middle" x="89" y="-328" font-family="Helvetica,sans-Serif" font-size="10.00"> +elements</text>
</g>
</g>
</svg>
