<?xml version="1.0" encoding="UTF-8" standalone="no"?>
<!DOCTYPE svg PUBLIC "-//W3C//DTD SVG 1.1//EN"
 "http://www.w3.org/Graphics/SVG/1.1/DTD/svg11.dtd">
<!-- Generated by graphviz version 2.38.0 (20140413.2041)
 -->
<!-- Title: utils4cpp::datetime::Date::day Pages: 1 -->
<svg width="388pt" height="235pt"
 viewBox="0.00 0.00 388.00 235.00" xmlns="http://www.w3.org/2000/svg" xmlns:xlink="http://www.w3.org/1999/xlink">
<g id="graph0" class="graph" transform="scale(1 1) rotate(0) translate(4 231)">
<title>utils4cpp::datetime::Date::day</title>
<polygon fill="white" stroke="none" points="-4,4 -4,-231 384,-231 384,4 -4,4"/>
<!-- Node71 -->
<g id="node1" class="node"><title>Node71</title>
<g id="a_node1"><a xlink:title=" ">
<polygon fill="#bfbfbf" stroke="black" points="281,-98.5 281,-128.5 380,-128.5 380,-98.5 281,-98.5"/>
<text text-anchor="start" x="289" y="-116.5" font-family="Helvetica,sans-Serif" font-size="10.00">utils4cpp::datetime</text>
<text text-anchor="middle" x="330.5" y="-105.5" font-family="Helvetica,sans-Serif" font-size="10.00">::Date::day</text>
</a>
</g>
</g>
<!-- Node72 -->
<g id="node2" class="node"><title>Node72</title>
<g id="a_node2"><a xlink:href="classutils4cpp_1_1datetime_1_1_date.html#af1260966a79596bf791155aab16a1b43" target="_top" xlink:title=" ">
<polygon fill="white" stroke="black" points="140.5,-196.5 140.5,-226.5 239.5,-226.5 239.5,-196.5 140.5,-196.5"/>
<text text-anchor="start" x="148.5" y="-214.5" font-family="Helvetica,sans-Serif" font-size="10.00">utils4cpp::datetime</text>
<text text-anchor="middle" x="190" y="-203.5" font-family="Helvetica,sans-Serif" font-size="10.00">::Date::getDate</text>
</a>
</g>
</g>
<!-- Node71&#45;&gt;Node72 -->
<g id="edge1" class="edge"><title>Node71&#45;&gt;Node72</title>
<path fill="none" stroke="midnightblue" d="M307.668,-135.939C291.428,-151.766 268.157,-172.698 245,-187.5 239.986,-190.705 234.473,-193.689 228.943,-196.389"/>
<polygon fill="midnightblue" stroke="midnightblue" points="310.405,-138.154 315.045,-128.629 305.478,-133.182 310.405,-138.154"/>
</g>
<!-- Node73 -->
<g id="node3" class="node"><title>Node73</title>
<g id="a_node3"><a xlink:href="classutils4cpp_1_1datetime_1_1_date.html#acac72a9fc8b7266baec4080bf4d3f94f" target="_top" xlink:title=" ">
<polygon fill="white" stroke="black" points="135,-147.5 135,-177.5 245,-177.5 245,-147.5 135,-147.5"/>
<text text-anchor="start" x="143" y="-165.5" font-family="Helvetica,sans-Serif" font-size="10.00">utils4cpp::datetime</text>
<text text-anchor="middle" x="190" y="-154.5" font-family="Helvetica,sans-Serif" font-size="10.00">::Date::fromJulianDay</text>
</a>
</g>
</g>
<!-- Node71&#45;&gt;Node73 -->
<g id="edge2" class="edge"><title>Node71&#45;&gt;Node73</title>
<path fill="none" stroke="midnightblue" d="M277.109,-132.036C262.806,-137.096 247.481,-142.518 233.782,-147.364"/>
<polygon fill="midnightblue" stroke="midnightblue" points="278.555,-135.236 286.815,-128.601 276.221,-128.637 278.555,-135.236"/>
</g>
<!-- Node75 -->
<g id="node5" class="node"><title>Node75</title>
<g id="a_node5"><a xlink:href="classutils4cpp_1_1datetime_1_1_date.html#ac9de57651b3f7319ff280c96b3ac501d" target="_top" xlink:title=" ">
<polygon fill="white" stroke="black" points="140.5,-98.5 140.5,-128.5 239.5,-128.5 239.5,-98.5 140.5,-98.5"/>
<text text-anchor="start" x="148.5" y="-116.5" font-family="Helvetica,sans-Serif" font-size="10.00">utils4cpp::datetime</text>
<text text-anchor="middle" x="190" y="-105.5" font-family="Helvetica,sans-Serif" font-size="10.00">::Date::dayOfYear</text>
</a>
</g>
</g>
<!-- Node71&#45;&gt;Node75 -->
<g id="edge4" class="edge"><title>Node71&#45;&gt;Node75</title>
<path fill="none" stroke="midnightblue" d="M270.569,-113.5C260.332,-113.5 249.787,-113.5 239.856,-113.5"/>
<polygon fill="midnightblue" stroke="midnightblue" points="270.67,-117 280.67,-113.5 270.67,-110 270.67,-117"/>
</g>
<!-- Node76 -->
<g id="node6" class="node"><title>Node76</title>
<g id="a_node6"><a xlink:href="classutils4cpp_1_1datetime_1_1_date.html#a5f3ffa1b708defbae8133c8f86b11fd3" target="_top" xlink:title=" ">
<polygon fill="white" stroke="black" points="140,-49.5 140,-79.5 240,-79.5 240,-49.5 140,-49.5"/>
<text text-anchor="start" x="148" y="-67.5" font-family="Helvetica,sans-Serif" font-size="10.00">utils4cpp::datetime</text>
<text text-anchor="middle" x="190" y="-56.5" font-family="Helvetica,sans-Serif" font-size="10.00">::Date::dayOfWeek</text>
</a>
</g>
</g>
<!-- Node71&#45;&gt;Node76 -->
<g id="edge5" class="edge"><title>Node71&#45;&gt;Node76</title>
<path fill="none" stroke="midnightblue" d="M277.109,-94.9645C262.806,-89.9041 247.481,-84.4823 233.782,-79.6359"/>
<polygon fill="midnightblue" stroke="midnightblue" points="276.221,-98.3628 286.815,-98.3986 278.555,-91.7636 276.221,-98.3628"/>
</g>
<!-- Node77 -->
<g id="node7" class="node"><title>Node77</title>
<g id="a_node7"><a xlink:href="classutils4cpp_1_1datetime_1_1_date.html#ada4f8712609249fde898198589dc73e5" target="_top" xlink:title=" ">
<polygon fill="white" stroke="black" points="140.5,-0.5 140.5,-30.5 239.5,-30.5 239.5,-0.5 140.5,-0.5"/>
<text text-anchor="start" x="148.5" y="-18.5" font-family="Helvetica,sans-Serif" font-size="10.00">utils4cpp::datetime</text>
<text text-anchor="middle" x="190" y="-7.5" font-family="Helvetica,sans-Serif" font-size="10.00">::Date::operator&lt;&lt;</text>
</a>
</g>
</g>
<!-- Node71&#45;&gt;Node77 -->
<g id="edge6" class="edge"><title>Node71&#45;&gt;Node77</title>
<path fill="none" stroke="midnightblue" d="M307.249,-91.2081C290.965,-75.6912 267.818,-55.2239 245,-40.5 239.444,-36.9151 233.292,-33.5602 227.187,-30.5443"/>
<polygon fill="midnightblue" stroke="midnightblue" points="305.04,-93.9413 314.66,-98.381 309.908,-88.9113 305.04,-93.9413"/>
</g>
<!-- Node74 -->
<g id="node4" class="node"><title>Node74</title>
<g id="a_node4"><a xlink:href="classutils4cpp_1_1datetime_1_1_date.html#a6065701386b4bd660355ab9e7a9c2ebc" target="_top" xlink:title=" ">
<polygon fill="white" stroke="black" points="0,-147.5 0,-177.5 99,-177.5 99,-147.5 0,-147.5"/>
<text text-anchor="start" x="8" y="-165.5" font-family="Helvetica,sans-Serif" font-size="10.00">utils4cpp::datetime</text>
<text text-anchor="middle" x="49.5" y="-154.5" font-family="Helvetica,sans-Serif" font-size="10.00">::Date::addDays</text>
</a>
</g>
</g>
<!-- Node73&#45;&gt;Node74 -->
<g id="edge3" class="edge"><title>Node73&#45;&gt;Node74</title>
<path fill="none" stroke="midnightblue" d="M124.423,-162.5C115.966,-162.5 107.416,-162.5 99.2797,-162.5"/>
<polygon fill="midnightblue" stroke="midnightblue" points="124.659,-166 134.659,-162.5 124.659,-159 124.659,-166"/>
</g>
</g>
</svg>
