<?xml version="1.0" encoding="UTF-8" standalone="no"?>
<!DOCTYPE svg PUBLIC "-//W3C//DTD SVG 1.1//EN"
 "http://www.w3.org/Graphics/SVG/1.1/DTD/svg11.dtd">
<!-- Generated by graphviz version 2.38.0 (20140413.2041)
 -->
<!-- Title: utils4cpp::datetime::Date::Date Pages: 1 -->
<svg width="400pt" height="274pt"
 viewBox="0.00 0.00 400.00 274.00" xmlns="http://www.w3.org/2000/svg" xmlns:xlink="http://www.w3.org/1999/xlink">
<g id="graph0" class="graph" transform="scale(1 1) rotate(0) translate(4 270)">
<title>utils4cpp::datetime::Date::Date</title>
<polygon fill="white" stroke="none" points="-4,4 -4,-270 396,-270 396,4 -4,4"/>
<!-- Node1 -->
<g id="node1" class="node"><title>Node1</title>
<g id="a_node1"><a xlink:title=" ">
<polygon fill="#bfbfbf" stroke="black" points="293,-122.5 293,-152.5 392,-152.5 392,-122.5 293,-122.5"/>
<text text-anchor="start" x="301" y="-140.5" font-family="Helvetica,sans-Serif" font-size="10.00">utils4cpp::datetime</text>
<text text-anchor="middle" x="342.5" y="-129.5" font-family="Helvetica,sans-Serif" font-size="10.00">::Date::Date</text>
</a>
</g>
</g>
<!-- Node2 -->
<g id="node2" class="node"><title>Node2</title>
<g id="a_node2"><a xlink:href="classutils4cpp_1_1datetime_1_1_date.html#acac72a9fc8b7266baec4080bf4d3f94f" target="_top" xlink:title=" ">
<polygon fill="white" stroke="black" points="141,-235.5 141,-265.5 251,-265.5 251,-235.5 141,-235.5"/>
<text text-anchor="start" x="149" y="-253.5" font-family="Helvetica,sans-Serif" font-size="10.00">utils4cpp::datetime</text>
<text text-anchor="middle" x="196" y="-242.5" font-family="Helvetica,sans-Serif" font-size="10.00">::Date::fromJulianDay</text>
</a>
</g>
</g>
<!-- Node1&#45;&gt;Node2 -->
<g id="edge1" class="edge"><title>Node1&#45;&gt;Node2</title>
<path fill="none" stroke="midnightblue" d="M321.821,-160.438C305.665,-178.325 281.527,-202.988 257,-220.5 249.228,-226.049 240.279,-231.121 231.704,-235.453"/>
<polygon fill="midnightblue" stroke="midnightblue" points="324.629,-162.546 328.655,-152.746 319.397,-157.897 324.629,-162.546"/>
</g>
<!-- Node3 -->
<g id="node3" class="node"><title>Node3</title>
<g id="a_node3"><a xlink:href="classutils4cpp_1_1datetime_1_1_date.html#a6065701386b4bd660355ab9e7a9c2ebc" target="_top" xlink:title=" ">
<polygon fill="white" stroke="black" points="0,-213.5 0,-243.5 99,-243.5 99,-213.5 0,-213.5"/>
<text text-anchor="start" x="8" y="-231.5" font-family="Helvetica,sans-Serif" font-size="10.00">utils4cpp::datetime</text>
<text text-anchor="middle" x="49.5" y="-220.5" font-family="Helvetica,sans-Serif" font-size="10.00">::Date::addDays</text>
</a>
</g>
</g>
<!-- Node1&#45;&gt;Node3 -->
<g id="edge3" class="edge"><title>Node1&#45;&gt;Node3</title>
<path fill="none" stroke="midnightblue" d="M311.942,-158.351C296.266,-168.521 276.299,-180.122 257,-187.5 205.106,-207.339 142.037,-218.073 99.3577,-223.521"/>
<polygon fill="midnightblue" stroke="midnightblue" points="314.248,-161.021 320.639,-152.571 310.373,-155.191 314.248,-161.021"/>
</g>
<!-- Node4 -->
<g id="node4" class="node"><title>Node4</title>
<g id="a_node4"><a xlink:href="classutils4cpp_1_1datetime_1_1_date.html#aebce900093689b957298d9c7a4be6fb4" target="_top" xlink:title=" ">
<polygon fill="white" stroke="black" points="146.5,-147.5 146.5,-177.5 245.5,-177.5 245.5,-147.5 146.5,-147.5"/>
<text text-anchor="start" x="154.5" y="-165.5" font-family="Helvetica,sans-Serif" font-size="10.00">utils4cpp::datetime</text>
<text text-anchor="middle" x="196" y="-154.5" font-family="Helvetica,sans-Serif" font-size="10.00">::Date::addMonths</text>
</a>
</g>
</g>
<!-- Node1&#45;&gt;Node4 -->
<g id="edge4" class="edge"><title>Node1&#45;&gt;Node4</title>
<path fill="none" stroke="midnightblue" d="M282.779,-147.659C270.441,-149.794 257.557,-152.023 245.636,-154.085"/>
<polygon fill="midnightblue" stroke="midnightblue" points="283.725,-151.048 292.982,-145.894 282.531,-144.15 283.725,-151.048"/>
</g>
<!-- Node5 -->
<g id="node5" class="node"><title>Node5</title>
<g id="a_node5"><a xlink:href="classutils4cpp_1_1datetime_1_1_date.html#a1d7ec19546b2843d211db88754de5c2f" target="_top" xlink:title=" ">
<polygon fill="white" stroke="black" points="146.5,-98.5 146.5,-128.5 245.5,-128.5 245.5,-98.5 146.5,-98.5"/>
<text text-anchor="start" x="154.5" y="-116.5" font-family="Helvetica,sans-Serif" font-size="10.00">utils4cpp::datetime</text>
<text text-anchor="middle" x="196" y="-105.5" font-family="Helvetica,sans-Serif" font-size="10.00">::Date::addYears</text>
</a>
</g>
</g>
<!-- Node1&#45;&gt;Node5 -->
<g id="edge5" class="edge"><title>Node1&#45;&gt;Node5</title>
<path fill="none" stroke="midnightblue" d="M282.779,-127.747C270.441,-125.698 257.557,-123.558 245.636,-121.578"/>
<polygon fill="midnightblue" stroke="midnightblue" points="282.543,-131.256 292.982,-129.442 283.69,-124.35 282.543,-131.256"/>
</g>
<!-- Node6 -->
<g id="node6" class="node"><title>Node6</title>
<g id="a_node6"><a xlink:href="classutils4cpp_1_1datetime_1_1_date.html#a58d72dfac3689aed40ffb8d58ae32eaf" target="_top" xlink:title=" ">
<polygon fill="white" stroke="black" points="135,-49.5 135,-79.5 257,-79.5 257,-49.5 135,-49.5"/>
<text text-anchor="start" x="143" y="-67.5" font-family="Helvetica,sans-Serif" font-size="10.00">utils4cpp::datetime</text>
<text text-anchor="middle" x="196" y="-56.5" font-family="Helvetica,sans-Serif" font-size="10.00">::Date::currentLocalDate</text>
</a>
</g>
</g>
<!-- Node1&#45;&gt;Node6 -->
<g id="edge6" class="edge"><title>Node1&#45;&gt;Node6</title>
<path fill="none" stroke="midnightblue" d="M308.161,-117.317C292.815,-108.352 274.224,-97.9413 257,-89.5 250.008,-86.0733 242.426,-82.6776 235.081,-79.5452"/>
<polygon fill="midnightblue" stroke="midnightblue" points="306.396,-120.339 316.788,-122.403 309.951,-114.309 306.396,-120.339"/>
</g>
<!-- Node7 -->
<g id="node7" class="node"><title>Node7</title>
<g id="a_node7"><a xlink:href="classutils4cpp_1_1datetime_1_1_date.html#a92882f231e7af5ab277d2ecd9be081ca" target="_top" xlink:title=" ">
<polygon fill="white" stroke="black" points="138.5,-0.5 138.5,-30.5 253.5,-30.5 253.5,-0.5 138.5,-0.5"/>
<text text-anchor="start" x="146.5" y="-18.5" font-family="Helvetica,sans-Serif" font-size="10.00">utils4cpp::datetime</text>
<text text-anchor="middle" x="196" y="-7.5" font-family="Helvetica,sans-Serif" font-size="10.00">::Date::currentGmDate</text>
</a>
</g>
</g>
<!-- Node1&#45;&gt;Node7 -->
<g id="edge7" class="edge"><title>Node1&#45;&gt;Node7</title>
<path fill="none" stroke="midnightblue" d="M325.962,-114.169C310.604,-92.6146 285.346,-60.9287 257,-40.5 251.782,-36.7392 245.913,-33.4138 239.941,-30.5162"/>
<polygon fill="midnightblue" stroke="midnightblue" points="323.141,-116.242 331.729,-122.446 328.884,-112.24 323.141,-116.242"/>
</g>
<!-- Node2&#45;&gt;Node3 -->
<g id="edge2" class="edge"><title>Node2&#45;&gt;Node3</title>
<path fill="none" stroke="midnightblue" d="M130.76,-240.72C120.202,-239.112 109.413,-237.469 99.3093,-235.931"/>
<polygon fill="midnightblue" stroke="midnightblue" points="130.37,-244.2 140.782,-242.245 131.423,-237.28 130.37,-244.2"/>
</g>
</g>
</svg>
