<?xml version="1.0" encoding="UTF-8" standalone="no"?>
<!DOCTYPE svg PUBLIC "-//W3C//DTD SVG 1.1//EN"
 "http://www.w3.org/Graphics/SVG/1.1/DTD/svg11.dtd">
<!-- Generated by graphviz version 2.38.0 (20140413.2041)
 -->
<!-- Title: utils4cpp::datetime::Date::beforGregorianCalendar Pages: 1 -->
<svg width="344pt" height="88pt"
 viewBox="0.00 0.00 344.00 88.00" xmlns="http://www.w3.org/2000/svg" xmlns:xlink="http://www.w3.org/1999/xlink">
<g id="graph0" class="graph" transform="scale(1 1) rotate(0) translate(4 84)">
<title>utils4cpp::datetime::Date::beforGregorianCalendar</title>
<polygon fill="white" stroke="none" points="-4,4 -4,-84 340,-84 340,4 -4,4"/>
<!-- Node56 -->
<g id="node1" class="node"><title>Node56</title>
<g id="a_node1"><a xlink:title=" ">
<polygon fill="#bfbfbf" stroke="black" points="186,-24.5 186,-54.5 336,-54.5 336,-24.5 186,-24.5"/>
<text text-anchor="start" x="194" y="-42.5" font-family="Helvetica,sans-Serif" font-size="10.00">utils4cpp::datetime</text>
<text text-anchor="middle" x="261" y="-31.5" font-family="Helvetica,sans-Serif" font-size="10.00">::Date::beforGregorianCalendar</text>
</a>
</g>
</g>
<!-- Node57 -->
<g id="node2" class="node"><title>Node57</title>
<g id="a_node2"><a xlink:href="classutils4cpp_1_1datetime_1_1_date.html#a7d658a67c47bb1dee06bee03d3e01670" target="_top" xlink:title=" ">
<polygon fill="white" stroke="black" points="0,-49.5 0,-79.5 150,-79.5 150,-49.5 0,-49.5"/>
<text text-anchor="start" x="8" y="-67.5" font-family="Helvetica,sans-Serif" font-size="10.00">utils4cpp::datetime</text>
<text text-anchor="middle" x="75" y="-56.5" font-family="Helvetica,sans-Serif" font-size="10.00">::Date::beforGregorianCalendar</text>
</a>
</g>
</g>
<!-- Node56&#45;&gt;Node57 -->
<g id="edge1" class="edge"><title>Node56&#45;&gt;Node57</title>
<path fill="none" stroke="midnightblue" d="M175.934,-50.922C167.346,-52.0889 158.664,-53.2684 150.192,-54.4195"/>
<polygon fill="midnightblue" stroke="midnightblue" points="176.518,-54.3749 185.956,-49.5604 175.575,-47.4387 176.518,-54.3749"/>
</g>
<!-- Node58 -->
<g id="node3" class="node"><title>Node58</title>
<g id="a_node3"><a xlink:href="classutils4cpp_1_1datetime_1_1_date.html#a5f3ffa1b708defbae8133c8f86b11fd3" target="_top" xlink:title=" ">
<polygon fill="white" stroke="black" points="25,-0.5 25,-30.5 125,-30.5 125,-0.5 25,-0.5"/>
<text text-anchor="start" x="33" y="-18.5" font-family="Helvetica,sans-Serif" font-size="10.00">utils4cpp::datetime</text>
<text text-anchor="middle" x="75" y="-7.5" font-family="Helvetica,sans-Serif" font-size="10.00">::Date::dayOfWeek</text>
</a>
</g>
</g>
<!-- Node56&#45;&gt;Node58 -->
<g id="edge2" class="edge"><title>Node56&#45;&gt;Node58</title>
<path fill="none" stroke="midnightblue" d="M175.799,-28.5173C158.444,-26.2535 140.716,-23.9412 125.109,-21.9055"/>
<polygon fill="midnightblue" stroke="midnightblue" points="175.587,-32.0191 185.956,-29.842 176.492,-25.0779 175.587,-32.0191"/>
</g>
</g>
</svg>
