<?xml version="1.0" encoding="UTF-8" standalone="no"?>
<!DOCTYPE svg PUBLIC "-//W3C//DTD SVG 1.1//EN"
 "http://www.w3.org/Graphics/SVG/1.1/DTD/svg11.dtd">
<!-- Generated by graphviz version 2.38.0 (20140413.2041)
 -->
<!-- Title: utils4cpp::datetime::Date::operator&gt; Pages: 1 -->
<svg width="518pt" height="88pt"
 viewBox="0.00 0.00 518.00 88.00" xmlns="http://www.w3.org/2000/svg" xmlns:xlink="http://www.w3.org/1999/xlink">
<g id="graph0" class="graph" transform="scale(1 1) rotate(0) translate(4 84)">
<title>utils4cpp::datetime::Date::operator&gt;</title>
<polygon fill="white" stroke="none" points="-4,4 -4,-84 514,-84 514,4 -4,4"/>
<!-- Node106 -->
<g id="node1" class="node"><title>Node106</title>
<g id="a_node1"><a xlink:title=" ">
<polygon fill="#bfbfbf" stroke="black" points="0,-24.5 0,-54.5 99,-54.5 99,-24.5 0,-24.5"/>
<text text-anchor="start" x="8" y="-42.5" font-family="Helvetica,sans-Serif" font-size="10.00">utils4cpp::datetime</text>
<text text-anchor="middle" x="49.5" y="-31.5" font-family="Helvetica,sans-Serif" font-size="10.00">::Date::operator&gt;</text>
</a>
</g>
</g>
<!-- Node107 -->
<g id="node2" class="node"><title>Node107</title>
<g id="a_node2"><a xlink:href="classutils4cpp_1_1datetime_1_1_date.html#aaf8d0cad9acdbdcb8d50e6d24c437357" target="_top" xlink:title=" ">
<polygon fill="white" stroke="black" points="135,-24.5 135,-54.5 234,-54.5 234,-24.5 135,-24.5"/>
<text text-anchor="start" x="143" y="-42.5" font-family="Helvetica,sans-Serif" font-size="10.00">utils4cpp::datetime</text>
<text text-anchor="middle" x="184.5" y="-31.5" font-family="Helvetica,sans-Serif" font-size="10.00">::Date::toJulianDay</text>
</a>
</g>
</g>
<!-- Node106&#45;&gt;Node107 -->
<g id="edge1" class="edge"><title>Node106&#45;&gt;Node107</title>
<path fill="none" stroke="midnightblue" d="M99.2691,-39.5C107.491,-39.5 116.104,-39.5 124.551,-39.5"/>
<polygon fill="midnightblue" stroke="midnightblue" points="124.737,-43.0001 134.737,-39.5 124.737,-36.0001 124.737,-43.0001"/>
</g>
<!-- Node108 -->
<g id="node3" class="node"><title>Node108</title>
<g id="a_node3"><a xlink:href="classutils4cpp_1_1datetime_1_1_date.html#ad0cae25c4251c7406f9f92abad9c8c98" target="_top" xlink:title=" ">
<polygon fill="white" stroke="black" points="273,-49.5 273,-79.5 372,-79.5 372,-49.5 273,-49.5"/>
<text text-anchor="start" x="281" y="-67.5" font-family="Helvetica,sans-Serif" font-size="10.00">utils4cpp::datetime</text>
<text text-anchor="middle" x="322.5" y="-56.5" font-family="Helvetica,sans-Serif" font-size="10.00">::Date::isValid</text>
</a>
</g>
</g>
<!-- Node107&#45;&gt;Node108 -->
<g id="edge2" class="edge"><title>Node107&#45;&gt;Node108</title>
<path fill="none" stroke="midnightblue" d="M234.215,-48.455C243.395,-50.1424 253.085,-51.9237 262.539,-53.6615"/>
<polygon fill="midnightblue" stroke="midnightblue" points="262.2,-57.1578 272.668,-55.5235 263.466,-50.2732 262.2,-57.1578"/>
</g>
<!-- Node109 -->
<g id="node4" class="node"><title>Node109</title>
<g id="a_node4"><a xlink:href="namespaceutils4cpp_1_1datetime.html#afae7c83e5102fe9efcd6932f546d0a1c" target="_top" xlink:title=" ">
<polygon fill="white" stroke="black" points="270,-0.5 270,-30.5 375,-30.5 375,-0.5 270,-0.5"/>
<text text-anchor="start" x="278" y="-18.5" font-family="Helvetica,sans-Serif" font-size="10.00">utils4cpp::datetime</text>
<text text-anchor="middle" x="322.5" y="-7.5" font-family="Helvetica,sans-Serif" font-size="10.00">::julianDayFromDate</text>
</a>
</g>
</g>
<!-- Node107&#45;&gt;Node109 -->
<g id="edge3" class="edge"><title>Node107&#45;&gt;Node109</title>
<path fill="none" stroke="midnightblue" d="M234.215,-30.9032C242.542,-29.4338 251.289,-27.8901 259.899,-26.3708"/>
<polygon fill="midnightblue" stroke="midnightblue" points="260.669,-29.7891 269.908,-24.6044 259.452,-22.8956 260.669,-29.7891"/>
</g>
<!-- Node110 -->
<g id="node5" class="node"><title>Node110</title>
<g id="a_node5"><a xlink:href="namespaceutils4cpp_1_1datetime.html#ae53e4437f8cf1576581badfbb71ebf95" target="_top" xlink:title=" ">
<polygon fill="white" stroke="black" points="411,-0.5 411,-30.5 510,-30.5 510,-0.5 411,-0.5"/>
<text text-anchor="start" x="419" y="-18.5" font-family="Helvetica,sans-Serif" font-size="10.00">utils4cpp::datetime</text>
<text text-anchor="middle" x="460.5" y="-7.5" font-family="Helvetica,sans-Serif" font-size="10.00">::floordiv</text>
</a>
</g>
</g>
<!-- Node109&#45;&gt;Node110 -->
<g id="edge4" class="edge"><title>Node109&#45;&gt;Node110</title>
<path fill="none" stroke="midnightblue" d="M375.304,-15.5C383.629,-15.5 392.298,-15.5 400.772,-15.5"/>
<polygon fill="midnightblue" stroke="midnightblue" points="400.974,-19.0001 410.974,-15.5 400.974,-12.0001 400.974,-19.0001"/>
</g>
</g>
</svg>
