<?xml version="1.0" encoding="UTF-8" standalone="no"?>
<!DOCTYPE svg PUBLIC "-//W3C//DTD SVG 1.1//EN"
 "http://www.w3.org/Graphics/SVG/1.1/DTD/svg11.dtd">
<!-- Generated by graphviz version 2.38.0 (20140413.2041)
 -->
<!-- Title: utils4cpp::datetime::Date::dst Pages: 1 -->
<svg width="512pt" height="112pt"
 viewBox="0.00 0.00 512.00 112.00" xmlns="http://www.w3.org/2000/svg" xmlns:xlink="http://www.w3.org/1999/xlink">
<g id="graph0" class="graph" transform="scale(1 1) rotate(0) translate(4 108)">
<title>utils4cpp::datetime::Date::dst</title>
<polygon fill="white" stroke="none" points="-4,4 -4,-108 508,-108 508,4 -4,4"/>
<!-- Node123 -->
<g id="node1" class="node"><title>Node123</title>
<g id="a_node1"><a xlink:title=" ">
<polygon fill="#bfbfbf" stroke="black" points="405,-51.5 405,-81.5 504,-81.5 504,-51.5 405,-51.5"/>
<text text-anchor="start" x="413" y="-69.5" font-family="Helvetica,sans-Serif" font-size="10.00">utils4cpp::datetime</text>
<text text-anchor="middle" x="454.5" y="-58.5" font-family="Helvetica,sans-Serif" font-size="10.00">::Date::dst</text>
</a>
</g>
</g>
<!-- Node124 -->
<g id="node2" class="node"><title>Node124</title>
<g id="a_node2"><a xlink:href="classutils4cpp_1_1datetime_1_1_date.html#a37f8fbef5d43750a0e8ff27f20b9985b" target="_top" xlink:title=" ">
<polygon fill="white" stroke="black" points="135,-73.5 135,-103.5 234,-103.5 234,-73.5 135,-73.5"/>
<text text-anchor="start" x="143" y="-91.5" font-family="Helvetica,sans-Serif" font-size="10.00">utils4cpp::datetime</text>
<text text-anchor="middle" x="184.5" y="-80.5" font-family="Helvetica,sans-Serif" font-size="10.00">::Date::Date</text>
</a>
</g>
</g>
<!-- Node123&#45;&gt;Node124 -->
<g id="edge1" class="edge"><title>Node123&#45;&gt;Node124</title>
<path fill="none" stroke="midnightblue" d="M394.998,-71.3024C346.836,-75.256 279.358,-80.7952 234.124,-84.5085"/>
<polygon fill="midnightblue" stroke="midnightblue" points="395.287,-74.7905 404.967,-70.484 394.714,-67.814 395.287,-74.7905"/>
</g>
<!-- Node125 -->
<g id="node3" class="node"><title>Node125</title>
<g id="a_node3"><a xlink:href="classutils4cpp_1_1datetime_1_1_date.html#afb3d315a0bb3b53ce9c397711c12d68d" target="_top" xlink:title=" ">
<polygon fill="white" stroke="black" points="270,-29.5 270,-59.5 369,-59.5 369,-29.5 270,-29.5"/>
<text text-anchor="start" x="278" y="-47.5" font-family="Helvetica,sans-Serif" font-size="10.00">utils4cpp::datetime</text>
<text text-anchor="middle" x="319.5" y="-36.5" font-family="Helvetica,sans-Serif" font-size="10.00">::Date::setDate</text>
</a>
</g>
</g>
<!-- Node123&#45;&gt;Node125 -->
<g id="edge2" class="edge"><title>Node123&#45;&gt;Node125</title>
<path fill="none" stroke="midnightblue" d="M394.824,-56.7942C386.287,-55.382 377.576,-53.9411 369.263,-52.5661"/>
<polygon fill="midnightblue" stroke="midnightblue" points="394.294,-60.254 404.731,-58.4329 395.436,-53.3478 394.294,-60.254"/>
</g>
<!-- Node125&#45;&gt;Node124 -->
<g id="edge6" class="edge"><title>Node125&#45;&gt;Node124</title>
<path fill="none" stroke="midnightblue" d="M263.395,-62.7301C252.666,-66.2796 241.529,-69.9642 231.146,-73.3991"/>
<polygon fill="midnightblue" stroke="midnightblue" points="264.706,-65.983 273.101,-59.5192 262.508,-59.3373 264.706,-65.983"/>
</g>
<!-- Node126 -->
<g id="node4" class="node"><title>Node126</title>
<g id="a_node4"><a xlink:href="namespaceutils4cpp_1_1datetime.html#ad6bfa1adb60166da25262287ffce1043" target="_top" xlink:title=" ">
<polygon fill="white" stroke="black" points="135,-24.5 135,-54.5 234,-54.5 234,-24.5 135,-24.5"/>
<text text-anchor="start" x="143" y="-42.5" font-family="Helvetica,sans-Serif" font-size="10.00">utils4cpp::datetime</text>
<text text-anchor="middle" x="184.5" y="-31.5" font-family="Helvetica,sans-Serif" font-size="10.00">::fixedDate</text>
</a>
</g>
</g>
<!-- Node125&#45;&gt;Node126 -->
<g id="edge3" class="edge"><title>Node125&#45;&gt;Node126</title>
<path fill="none" stroke="midnightblue" d="M259.545,-42.2837C251.098,-41.9661 242.485,-41.6423 234.263,-41.3332"/>
<polygon fill="midnightblue" stroke="midnightblue" points="259.606,-45.7883 269.731,-42.6666 259.87,-38.7933 259.606,-45.7883"/>
</g>
<!-- Node127 -->
<g id="node5" class="node"><title>Node127</title>
<g id="a_node5"><a xlink:href="classutils4cpp_1_1datetime_1_1_date.html#aebce900093689b957298d9c7a4be6fb4" target="_top" xlink:title=" ">
<polygon fill="white" stroke="black" points="0,-49.5 0,-79.5 99,-79.5 99,-49.5 0,-49.5"/>
<text text-anchor="start" x="8" y="-67.5" font-family="Helvetica,sans-Serif" font-size="10.00">utils4cpp::datetime</text>
<text text-anchor="middle" x="49.5" y="-56.5" font-family="Helvetica,sans-Serif" font-size="10.00">::Date::addMonths</text>
</a>
</g>
</g>
<!-- Node126&#45;&gt;Node127 -->
<g id="edge4" class="edge"><title>Node126&#45;&gt;Node127</title>
<path fill="none" stroke="midnightblue" d="M124.824,-50.5294C116.287,-52.134 107.576,-53.7715 99.2632,-55.334"/>
<polygon fill="midnightblue" stroke="midnightblue" points="125.55,-53.9543 134.731,-48.6671 124.256,-47.0748 125.55,-53.9543"/>
</g>
<!-- Node128 -->
<g id="node6" class="node"><title>Node128</title>
<g id="a_node6"><a xlink:href="classutils4cpp_1_1datetime_1_1_date.html#a1d7ec19546b2843d211db88754de5c2f" target="_top" xlink:title=" ">
<polygon fill="white" stroke="black" points="0,-0.5 0,-30.5 99,-30.5 99,-0.5 0,-0.5"/>
<text text-anchor="start" x="8" y="-18.5" font-family="Helvetica,sans-Serif" font-size="10.00">utils4cpp::datetime</text>
<text text-anchor="middle" x="49.5" y="-7.5" font-family="Helvetica,sans-Serif" font-size="10.00">::Date::addYears</text>
</a>
</g>
</g>
<!-- Node126&#45;&gt;Node128 -->
<g id="edge5" class="edge"><title>Node126&#45;&gt;Node128</title>
<path fill="none" stroke="midnightblue" d="M124.824,-28.9118C116.287,-27.3713 107.576,-25.7994 99.2632,-24.2994"/>
<polygon fill="midnightblue" stroke="midnightblue" points="124.268,-32.368 134.731,-30.6996 125.511,-25.4793 124.268,-32.368"/>
</g>
</g>
</svg>
