<?xml version="1.0" encoding="UTF-8" standalone="no"?>
<!DOCTYPE svg PUBLIC "-//W3C//DTD SVG 1.1//EN"
 "http://www.w3.org/Graphics/SVG/1.1/DTD/svg11.dtd">
<!-- Generated by graphviz version 2.38.0 (20140413.2041)
 -->
<!-- Title: utils4cpp::str::BasicStringList&lt; StringT &gt; Pages: 1 -->
<svg width="137pt" height="292pt"
 viewBox="0.00 0.00 137.00 292.00" xmlns="http://www.w3.org/2000/svg" xmlns:xlink="http://www.w3.org/1999/xlink">
<g id="graph0" class="graph" transform="scale(1 1) rotate(0) translate(4 288)">
<title>utils4cpp::str::BasicStringList&lt; StringT &gt;</title>
<polygon fill="white" stroke="none" points="-4,4 -4,-288 133,-288 133,4 -4,4"/>
<!-- Node0 -->
<g id="node1" class="node"><title>Node0</title>
<g id="a_node1"><a xlink:title="The string list template class.">
<polygon fill="#bfbfbf" stroke="black" points="0,-0.5 0,-189.5 129,-189.5 129,-0.5 0,-0.5"/>
<text text-anchor="start" x="8" y="-177.5" font-family="Helvetica,sans-Serif" font-size="10.00">utils4cpp::str::BasicString</text>
<text text-anchor="middle" x="64.5" y="-166.5" font-family="Helvetica,sans-Serif" font-size="10.00">List&lt; StringT &gt;</text>
<polyline fill="none" stroke="black" points="0,-159.5 129,-159.5 "/>
<text text-anchor="middle" x="64.5" y="-147.5" font-family="Helvetica,sans-Serif" font-size="10.00"> </text>
<polyline fill="none" stroke="black" points="0,-140.5 129,-140.5 "/>
<text text-anchor="start" x="8" y="-128.5" font-family="Helvetica,sans-Serif" font-size="10.00">+ at()</text>
<text text-anchor="start" x="8" y="-117.5" font-family="Helvetica,sans-Serif" font-size="10.00">+ at()</text>
<text text-anchor="start" x="8" y="-106.5" font-family="Helvetica,sans-Serif" font-size="10.00">+ operator[]()</text>
<text text-anchor="start" x="8" y="-95.5" font-family="Helvetica,sans-Serif" font-size="10.00">+ operator[]()</text>
<text text-anchor="start" x="8" y="-84.5" font-family="Helvetica,sans-Serif" font-size="10.00">+ iteratorAt()</text>
<text text-anchor="start" x="8" y="-73.5" font-family="Helvetica,sans-Serif" font-size="10.00">+ swapItems()</text>
<text text-anchor="start" x="8" y="-62.5" font-family="Helvetica,sans-Serif" font-size="10.00">+ swapItemsAt()</text>
<text text-anchor="start" x="8" y="-51.5" font-family="Helvetica,sans-Serif" font-size="10.00">+ contains()</text>
<text text-anchor="start" x="8" y="-40.5" font-family="Helvetica,sans-Serif" font-size="10.00">+ indexOf()</text>
<text text-anchor="start" x="8" y="-29.5" font-family="Helvetica,sans-Serif" font-size="10.00">+ lastIndexOf()</text>
<text text-anchor="start" x="8" y="-18.5" font-family="Helvetica,sans-Serif" font-size="10.00">and 14 more...</text>
<text text-anchor="start" x="8" y="-7.5" font-family="Helvetica,sans-Serif" font-size="10.00">+ removeDuplicates()</text>
</a>
</g>
</g>
<!-- Node1 -->
<g id="node2" class="node"><title>Node1</title>
<g id="a_node2"><a xlink:title="STL class.">
<polygon fill="white" stroke="#bfbfbf" points="15.5,-226.5 15.5,-283.5 113.5,-283.5 113.5,-226.5 15.5,-226.5"/>
<text text-anchor="middle" x="64.5" y="-271.5" font-family="Helvetica,sans-Serif" font-size="10.00">std::list&lt; StringT &gt;</text>
<polyline fill="none" stroke="#bfbfbf" points="15.5,-264.5 113.5,-264.5 "/>
<text text-anchor="start" x="23.5" y="-252.5" font-family="Helvetica,sans-Serif" font-size="10.00">+ elements</text>
<polyline fill="none" stroke="#bfbfbf" points="15.5,-245.5 113.5,-245.5 "/>
<text text-anchor="middle" x="64.5" y="-233.5" font-family="Helvetica,sans-Serif" font-size="10.00"> </text>
</a>
</g>
</g>
<!-- Node1&#45;&gt;Node0 -->
<g id="edge1" class="edge"><title>Node1&#45;&gt;Node0</title>
<path fill="none" stroke="midnightblue" d="M64.5,-216.215C64.5,-208.012 64.5,-198.986 64.5,-189.678"/>
<polygon fill="none" stroke="midnightblue" points="61.0001,-216.478 64.5,-226.479 68.0001,-216.479 61.0001,-216.478"/>
</g>
</g>
</svg>
