<?xml version="1.0" encoding="UTF-8" standalone="no"?>
<!DOCTYPE svg PUBLIC "-//W3C//DTD SVG 1.1//EN"
 "http://www.w3.org/Graphics/SVG/1.1/DTD/svg11.dtd">
<!-- Generated by graphviz version 2.38.0 (20140413.2041)
 -->
<!-- Title: utils4cpp::datetime::Date::month Pages: 1 -->
<svg width="479pt" height="274pt"
 viewBox="0.00 0.00 479.00 274.00" xmlns="http://www.w3.org/2000/svg" xmlns:xlink="http://www.w3.org/1999/xlink">
<g id="graph0" class="graph" transform="scale(1 1) rotate(0) translate(4 270)">
<title>utils4cpp::datetime::Date::month</title>
<polygon fill="white" stroke="none" points="-4,4 -4,-270 475,-270 475,4 -4,4"/>
<!-- Node181 -->
<g id="node1" class="node"><title>Node181</title>
<g id="a_node1"><a xlink:title=" ">
<polygon fill="#bfbfbf" stroke="black" points="372,-115.5 372,-145.5 471,-145.5 471,-115.5 372,-115.5"/>
<text text-anchor="start" x="380" y="-133.5" font-family="Helvetica,sans-Serif" font-size="10.00">utils4cpp::datetime</text>
<text text-anchor="middle" x="421.5" y="-122.5" font-family="Helvetica,sans-Serif" font-size="10.00">::Date::month</text>
</a>
</g>
</g>
<!-- Node182 -->
<g id="node2" class="node"><title>Node182</title>
<g id="a_node2"><a xlink:href="classutils4cpp_1_1datetime_1_1_date.html#af1260966a79596bf791155aab16a1b43" target="_top" xlink:title=" ">
<polygon fill="white" stroke="black" points="211.5,-235.5 211.5,-265.5 310.5,-265.5 310.5,-235.5 211.5,-235.5"/>
<text text-anchor="start" x="219.5" y="-253.5" font-family="Helvetica,sans-Serif" font-size="10.00">utils4cpp::datetime</text>
<text text-anchor="middle" x="261" y="-242.5" font-family="Helvetica,sans-Serif" font-size="10.00">::Date::getDate</text>
</a>
</g>
</g>
<!-- Node181&#45;&gt;Node182 -->
<g id="edge1" class="edge"><title>Node181&#45;&gt;Node182</title>
<path fill="none" stroke="midnightblue" d="M405.273,-154.109C390.136,-175.812 365.03,-207.425 336,-226.5 328.325,-231.543 319.505,-235.601 310.692,-238.84"/>
<polygon fill="midnightblue" stroke="midnightblue" points="408.22,-155.999 410.946,-145.761 402.43,-152.065 408.22,-155.999"/>
</g>
<!-- Node183 -->
<g id="node3" class="node"><title>Node183</title>
<g id="a_node3"><a xlink:href="classutils4cpp_1_1datetime_1_1_date.html#acac72a9fc8b7266baec4080bf4d3f94f" target="_top" xlink:title=" ">
<polygon fill="white" stroke="black" points="206,-186.5 206,-216.5 316,-216.5 316,-186.5 206,-186.5"/>
<text text-anchor="start" x="214" y="-204.5" font-family="Helvetica,sans-Serif" font-size="10.00">utils4cpp::datetime</text>
<text text-anchor="middle" x="261" y="-193.5" font-family="Helvetica,sans-Serif" font-size="10.00">::Date::fromJulianDay</text>
</a>
</g>
</g>
<!-- Node181&#45;&gt;Node183 -->
<g id="edge2" class="edge"><title>Node181&#45;&gt;Node183</title>
<path fill="none" stroke="midnightblue" d="M387.753,-150.666C372.393,-159.612 353.627,-169.826 336,-177.5 328.694,-180.681 320.825,-183.67 313.04,-186.388"/>
<polygon fill="midnightblue" stroke="midnightblue" points="389.54,-153.676 396.368,-145.575 385.978,-147.65 389.54,-153.676"/>
</g>
<!-- Node185 -->
<g id="node5" class="node"><title>Node185</title>
<g id="a_node5"><a xlink:href="classutils4cpp_1_1datetime_1_1_date.html#a4485ee372f994073ff95d70904bb0d7c" target="_top" xlink:title=" ">
<polygon fill="white" stroke="black" points="186,-137.5 186,-167.5 336,-167.5 336,-137.5 186,-137.5"/>
<text text-anchor="start" x="194" y="-155.5" font-family="Helvetica,sans-Serif" font-size="10.00">utils4cpp::datetime</text>
<text text-anchor="middle" x="261" y="-144.5" font-family="Helvetica,sans-Serif" font-size="10.00">::Date::beforGregorianCalendar</text>
</a>
</g>
</g>
<!-- Node181&#45;&gt;Node185 -->
<g id="edge4" class="edge"><title>Node181&#45;&gt;Node185</title>
<path fill="none" stroke="midnightblue" d="M361.655,-138.668C353.306,-139.827 344.632,-141.031 336.04,-142.223"/>
<polygon fill="midnightblue" stroke="midnightblue" points="362.228,-142.122 371.651,-137.28 361.265,-135.188 362.228,-142.122"/>
</g>
<!-- Node187 -->
<g id="node7" class="node"><title>Node187</title>
<g id="a_node7"><a xlink:href="classutils4cpp_1_1datetime_1_1_date.html#a5f3ffa1b708defbae8133c8f86b11fd3" target="_top" xlink:title=" ">
<polygon fill="white" stroke="black" points="25,-90.5 25,-120.5 125,-120.5 125,-90.5 25,-90.5"/>
<text text-anchor="start" x="33" y="-108.5" font-family="Helvetica,sans-Serif" font-size="10.00">utils4cpp::datetime</text>
<text text-anchor="middle" x="75" y="-97.5" font-family="Helvetica,sans-Serif" font-size="10.00">::Date::dayOfWeek</text>
</a>
</g>
</g>
<!-- Node181&#45;&gt;Node187 -->
<g id="edge8" class="edge"><title>Node181&#45;&gt;Node187</title>
<path fill="none" stroke="midnightblue" d="M361.537,-126.221C294.882,-121.384 187.559,-113.596 125.216,-109.072"/>
<polygon fill="midnightblue" stroke="midnightblue" points="361.645,-129.738 371.872,-126.971 362.152,-122.756 361.645,-129.738"/>
</g>
<!-- Node188 -->
<g id="node8" class="node"><title>Node188</title>
<g id="a_node8"><a xlink:href="classutils4cpp_1_1datetime_1_1_date.html#ac9de57651b3f7319ff280c96b3ac501d" target="_top" xlink:title=" ">
<polygon fill="white" stroke="black" points="211.5,-49.5 211.5,-79.5 310.5,-79.5 310.5,-49.5 211.5,-49.5"/>
<text text-anchor="start" x="219.5" y="-67.5" font-family="Helvetica,sans-Serif" font-size="10.00">utils4cpp::datetime</text>
<text text-anchor="middle" x="261" y="-56.5" font-family="Helvetica,sans-Serif" font-size="10.00">::Date::dayOfYear</text>
</a>
</g>
</g>
<!-- Node181&#45;&gt;Node188 -->
<g id="edge7" class="edge"><title>Node181&#45;&gt;Node188</title>
<path fill="none" stroke="midnightblue" d="M376.408,-111.542C363.413,-106.002 349.152,-99.9671 336,-94.5 324.223,-89.6046 311.354,-84.3532 299.698,-79.634"/>
<polygon fill="midnightblue" stroke="midnightblue" points="375.042,-114.764 385.613,-115.474 377.792,-108.327 375.042,-114.764"/>
</g>
<!-- Node189 -->
<g id="node9" class="node"><title>Node189</title>
<g id="a_node9"><a xlink:href="classutils4cpp_1_1datetime_1_1_date.html#ada4f8712609249fde898198589dc73e5" target="_top" xlink:title=" ">
<polygon fill="white" stroke="black" points="211.5,-0.5 211.5,-30.5 310.5,-30.5 310.5,-0.5 211.5,-0.5"/>
<text text-anchor="start" x="219.5" y="-18.5" font-family="Helvetica,sans-Serif" font-size="10.00">utils4cpp::datetime</text>
<text text-anchor="middle" x="261" y="-7.5" font-family="Helvetica,sans-Serif" font-size="10.00">::Date::operator&lt;&lt;</text>
</a>
</g>
</g>
<!-- Node181&#45;&gt;Node189 -->
<g id="edge9" class="edge"><title>Node181&#45;&gt;Node189</title>
<path fill="none" stroke="midnightblue" d="M403.904,-107.177C388.419,-86.9636 363.606,-58.2473 336,-40.5 328.243,-35.5135 319.386,-31.4121 310.561,-28.0775"/>
<polygon fill="midnightblue" stroke="midnightblue" points="401.159,-109.35 409.95,-115.263 406.765,-105.158 401.159,-109.35"/>
</g>
<!-- Node184 -->
<g id="node4" class="node"><title>Node184</title>
<g id="a_node4"><a xlink:href="classutils4cpp_1_1datetime_1_1_date.html#a6065701386b4bd660355ab9e7a9c2ebc" target="_top" xlink:title=" ">
<polygon fill="white" stroke="black" points="25.5,-188.5 25.5,-218.5 124.5,-218.5 124.5,-188.5 25.5,-188.5"/>
<text text-anchor="start" x="33.5" y="-206.5" font-family="Helvetica,sans-Serif" font-size="10.00">utils4cpp::datetime</text>
<text text-anchor="middle" x="75" y="-195.5" font-family="Helvetica,sans-Serif" font-size="10.00">::Date::addDays</text>
</a>
</g>
</g>
<!-- Node183&#45;&gt;Node184 -->
<g id="edge3" class="edge"><title>Node183&#45;&gt;Node184</title>
<path fill="none" stroke="midnightblue" d="M195.611,-202.2C172.247,-202.454 146.265,-202.736 124.502,-202.973"/>
<polygon fill="midnightblue" stroke="midnightblue" points="195.828,-205.698 205.789,-202.089 195.752,-198.698 195.828,-205.698"/>
</g>
<!-- Node186 -->
<g id="node6" class="node"><title>Node186</title>
<g id="a_node6"><a xlink:href="classutils4cpp_1_1datetime_1_1_date.html#a7d658a67c47bb1dee06bee03d3e01670" target="_top" xlink:title=" ">
<polygon fill="white" stroke="black" points="0,-139.5 0,-169.5 150,-169.5 150,-139.5 0,-139.5"/>
<text text-anchor="start" x="8" y="-157.5" font-family="Helvetica,sans-Serif" font-size="10.00">utils4cpp::datetime</text>
<text text-anchor="middle" x="75" y="-146.5" font-family="Helvetica,sans-Serif" font-size="10.00">::Date::beforGregorianCalendar</text>
</a>
</g>
</g>
<!-- Node185&#45;&gt;Node186 -->
<g id="edge5" class="edge"><title>Node185&#45;&gt;Node186</title>
<path fill="none" stroke="midnightblue" d="M175.934,-153.414C167.346,-153.507 158.664,-153.601 150.192,-153.694"/>
<polygon fill="midnightblue" stroke="midnightblue" points="175.994,-156.913 185.956,-153.305 175.918,-149.914 175.994,-156.913"/>
</g>
<!-- Node185&#45;&gt;Node187 -->
<g id="edge6" class="edge"><title>Node185&#45;&gt;Node187</title>
<path fill="none" stroke="midnightblue" d="M191.338,-134.961C169.377,-129.352 145.517,-123.257 125.226,-118.074"/>
<polygon fill="midnightblue" stroke="midnightblue" points="190.72,-138.416 201.275,-137.5 192.453,-131.634 190.72,-138.416"/>
</g>
</g>
</svg>
