<?xml version="1.0" encoding="UTF-8" standalone="no"?>
<!DOCTYPE svg PUBLIC "-//W3C//DTD SVG 1.1//EN"
 "http://www.w3.org/Graphics/SVG/1.1/DTD/svg11.dtd">
<!-- Generated by graphviz version 2.38.0 (20140413.2041)
 -->
<!-- Title: utils4cpp::datetime::Time::isValid Pages: 1 -->
<svg width="377pt" height="382pt"
 viewBox="0.00 0.00 377.00 382.00" xmlns="http://www.w3.org/2000/svg" xmlns:xlink="http://www.w3.org/1999/xlink">
<g id="graph0" class="graph" transform="scale(1 1) rotate(0) translate(4 378)">
<title>utils4cpp::datetime::Time::isValid</title>
<polygon fill="white" stroke="none" points="-4,4 -4,-378 373,-378 373,4 -4,4"/>
<!-- Node34 -->
<g id="node1" class="node"><title>Node34</title>
<g id="a_node1"><a xlink:title=" ">
<polygon fill="#bfbfbf" stroke="black" points="270,-171.5 270,-201.5 369,-201.5 369,-171.5 270,-171.5"/>
<text text-anchor="start" x="278" y="-189.5" font-family="Helvetica,sans-Serif" font-size="10.00">utils4cpp::datetime</text>
<text text-anchor="middle" x="319.5" y="-178.5" font-family="Helvetica,sans-Serif" font-size="10.00">::Time::isValid</text>
</a>
</g>
</g>
<!-- Node35 -->
<g id="node2" class="node"><title>Node35</title>
<g id="a_node2"><a xlink:href="classutils4cpp_1_1datetime_1_1_time.html#a149898922c528ff1d1374d1c297aca0d" target="_top" xlink:title=" ">
<polygon fill="white" stroke="black" points="135,-343.5 135,-373.5 234,-373.5 234,-343.5 135,-343.5"/>
<text text-anchor="start" x="143" y="-361.5" font-family="Helvetica,sans-Serif" font-size="10.00">utils4cpp::datetime</text>
<text text-anchor="middle" x="184.5" y="-350.5" font-family="Helvetica,sans-Serif" font-size="10.00">::Time::hour</text>
</a>
</g>
</g>
<!-- Node34&#45;&gt;Node35 -->
<g id="edge1" class="edge"><title>Node34&#45;&gt;Node35</title>
<path fill="none" stroke="midnightblue" d="M309.61,-211.374C297.083,-243.41 271.499,-299.16 234,-334.5 230.445,-337.851 226.333,-340.83 222.037,-343.451"/>
<polygon fill="midnightblue" stroke="midnightblue" points="312.944,-212.454 313.217,-201.862 306.398,-209.972 312.944,-212.454"/>
</g>
<!-- Node36 -->
<g id="node3" class="node"><title>Node36</title>
<g id="a_node3"><a xlink:href="classutils4cpp_1_1datetime_1_1_time.html#aaabfdce87f061c152e02c92092b86635" target="_top" xlink:title=" ">
<polygon fill="white" stroke="black" points="135,-294.5 135,-324.5 234,-324.5 234,-294.5 135,-294.5"/>
<text text-anchor="start" x="143" y="-312.5" font-family="Helvetica,sans-Serif" font-size="10.00">utils4cpp::datetime</text>
<text text-anchor="middle" x="184.5" y="-301.5" font-family="Helvetica,sans-Serif" font-size="10.00">::Time::minute</text>
</a>
</g>
</g>
<!-- Node34&#45;&gt;Node36 -->
<g id="edge2" class="edge"><title>Node34&#45;&gt;Node36</title>
<path fill="none" stroke="midnightblue" d="M302.754,-209.913C287.247,-231.628 261.887,-263.773 234,-285.5 229.85,-288.733 225.195,-291.701 220.454,-294.363"/>
<polygon fill="midnightblue" stroke="midnightblue" points="305.716,-211.786 308.583,-201.586 299.981,-207.771 305.716,-211.786"/>
</g>
<!-- Node37 -->
<g id="node4" class="node"><title>Node37</title>
<g id="a_node4"><a xlink:href="classutils4cpp_1_1datetime_1_1_time.html#aa1d13821832306fe1265cfd91efd0bba" target="_top" xlink:title=" ">
<polygon fill="white" stroke="black" points="135,-245.5 135,-275.5 234,-275.5 234,-245.5 135,-245.5"/>
<text text-anchor="start" x="143" y="-263.5" font-family="Helvetica,sans-Serif" font-size="10.00">utils4cpp::datetime</text>
<text text-anchor="middle" x="184.5" y="-252.5" font-family="Helvetica,sans-Serif" font-size="10.00">::Time::second</text>
</a>
</g>
</g>
<!-- Node34&#45;&gt;Node37 -->
<g id="edge3" class="edge"><title>Node34&#45;&gt;Node37</title>
<path fill="none" stroke="midnightblue" d="M285.326,-206.907C269.878,-216.208 251.161,-227.194 234,-236.5 228.467,-239.501 222.508,-242.575 216.725,-245.478"/>
<polygon fill="midnightblue" stroke="midnightblue" points="287.265,-209.824 294.006,-201.651 283.639,-203.836 287.265,-209.824"/>
</g>
<!-- Node38 -->
<g id="node5" class="node"><title>Node38</title>
<g id="a_node5"><a xlink:href="classutils4cpp_1_1datetime_1_1_time.html#abbc58fb8bdc98c5e7b8779fc4ecfcc4a" target="_top" xlink:title=" ">
<polygon fill="white" stroke="black" points="135,-196.5 135,-226.5 234,-226.5 234,-196.5 135,-196.5"/>
<text text-anchor="start" x="143" y="-214.5" font-family="Helvetica,sans-Serif" font-size="10.00">utils4cpp::datetime</text>
<text text-anchor="middle" x="184.5" y="-203.5" font-family="Helvetica,sans-Serif" font-size="10.00">::Time::msec</text>
</a>
</g>
</g>
<!-- Node34&#45;&gt;Node38 -->
<g id="edge4" class="edge"><title>Node34&#45;&gt;Node38</title>
<path fill="none" stroke="midnightblue" d="M259.824,-197.529C251.287,-199.134 242.576,-200.772 234.263,-202.334"/>
<polygon fill="midnightblue" stroke="midnightblue" points="260.55,-200.954 269.731,-195.667 259.256,-194.075 260.55,-200.954"/>
</g>
<!-- Node39 -->
<g id="node6" class="node"><title>Node39</title>
<g id="a_node6"><a xlink:href="classutils4cpp_1_1datetime_1_1_time.html#ad2a09da45cf21af85ddd800675188ef8" target="_top" xlink:title=" ">
<polygon fill="white" stroke="black" points="135,-147.5 135,-177.5 234,-177.5 234,-147.5 135,-147.5"/>
<text text-anchor="start" x="143" y="-165.5" font-family="Helvetica,sans-Serif" font-size="10.00">utils4cpp::datetime</text>
<text text-anchor="middle" x="184.5" y="-154.5" font-family="Helvetica,sans-Serif" font-size="10.00">::Time::setTime</text>
</a>
</g>
</g>
<!-- Node34&#45;&gt;Node39 -->
<g id="edge5" class="edge"><title>Node34&#45;&gt;Node39</title>
<path fill="none" stroke="midnightblue" d="M259.824,-175.912C251.287,-174.371 242.576,-172.799 234.263,-171.299"/>
<polygon fill="midnightblue" stroke="midnightblue" points="259.268,-179.368 269.731,-177.7 260.511,-172.479 259.268,-179.368"/>
</g>
<!-- Node41 -->
<g id="node8" class="node"><title>Node41</title>
<g id="a_node8"><a xlink:href="classutils4cpp_1_1datetime_1_1_time.html#a5461faf1828419874a6a01fc8feca9ba" target="_top" xlink:title=" ">
<polygon fill="white" stroke="black" points="135,-98.5 135,-128.5 234,-128.5 234,-98.5 135,-98.5"/>
<text text-anchor="start" x="143" y="-116.5" font-family="Helvetica,sans-Serif" font-size="10.00">utils4cpp::datetime</text>
<text text-anchor="middle" x="184.5" y="-105.5" font-family="Helvetica,sans-Serif" font-size="10.00">::Time::secsTo</text>
</a>
</g>
</g>
<!-- Node34&#45;&gt;Node41 -->
<g id="edge7" class="edge"><title>Node34&#45;&gt;Node41</title>
<path fill="none" stroke="midnightblue" d="M283.379,-166.127C268.262,-157.468 250.341,-147.348 234,-138.5 227.919,-135.207 221.362,-131.76 215.096,-128.513"/>
<polygon fill="midnightblue" stroke="midnightblue" points="281.976,-169.357 292.39,-171.305 285.464,-163.288 281.976,-169.357"/>
</g>
<!-- Node42 -->
<g id="node9" class="node"><title>Node42</title>
<g id="a_node9"><a xlink:href="classutils4cpp_1_1datetime_1_1_time.html#adaa2cc2f4da1563849747620f79a2a9c" target="_top" xlink:title=" ">
<polygon fill="white" stroke="black" points="135,-49.5 135,-79.5 234,-79.5 234,-49.5 135,-49.5"/>
<text text-anchor="start" x="143" y="-67.5" font-family="Helvetica,sans-Serif" font-size="10.00">utils4cpp::datetime</text>
<text text-anchor="middle" x="184.5" y="-56.5" font-family="Helvetica,sans-Serif" font-size="10.00">::Time::addMSecs</text>
</a>
</g>
</g>
<!-- Node34&#45;&gt;Node42 -->
<g id="edge8" class="edge"><title>Node34&#45;&gt;Node42</title>
<path fill="none" stroke="midnightblue" d="M302.311,-163.325C286.656,-142.143 261.34,-110.941 234,-89.5 229.378,-85.8756 224.151,-82.5405 218.881,-79.567"/>
<polygon fill="midnightblue" stroke="midnightblue" points="299.507,-165.42 308.212,-171.459 305.173,-161.309 299.507,-165.42"/>
</g>
<!-- Node44 -->
<g id="node11" class="node"><title>Node44</title>
<g id="a_node11"><a xlink:href="classutils4cpp_1_1datetime_1_1_time.html#a4cc4dbfe0503cfae8fba0a9f23b7cd83" target="_top" xlink:title=" ">
<polygon fill="white" stroke="black" points="135,-0.5 135,-30.5 234,-30.5 234,-0.5 135,-0.5"/>
<text text-anchor="start" x="143" y="-18.5" font-family="Helvetica,sans-Serif" font-size="10.00">utils4cpp::datetime</text>
<text text-anchor="middle" x="184.5" y="-7.5" font-family="Helvetica,sans-Serif" font-size="10.00">::Time::msecsTo</text>
</a>
</g>
</g>
<!-- Node34&#45;&gt;Node44 -->
<g id="edge10" class="edge"><title>Node34&#45;&gt;Node44</title>
<path fill="none" stroke="midnightblue" d="M309.436,-162.058C296.721,-130.559 270.932,-75.6754 234,-40.5 230.09,-36.776 225.517,-33.471 220.77,-30.583"/>
<polygon fill="midnightblue" stroke="midnightblue" points="306.194,-163.376 313.103,-171.408 312.71,-160.821 306.194,-163.376"/>
</g>
<!-- Node40 -->
<g id="node7" class="node"><title>Node40</title>
<g id="a_node7"><a xlink:href="classutils4cpp_1_1datetime_1_1_time.html#a6d9c76a8e00271c10b54ff872a237a0e" target="_top" xlink:title=" ">
<polygon fill="white" stroke="black" points="0,-147.5 0,-177.5 99,-177.5 99,-147.5 0,-147.5"/>
<text text-anchor="start" x="8" y="-165.5" font-family="Helvetica,sans-Serif" font-size="10.00">utils4cpp::datetime</text>
<text text-anchor="middle" x="49.5" y="-154.5" font-family="Helvetica,sans-Serif" font-size="10.00">::Time::Time</text>
</a>
</g>
</g>
<!-- Node39&#45;&gt;Node40 -->
<g id="edge6" class="edge"><title>Node39&#45;&gt;Node40</title>
<path fill="none" stroke="midnightblue" d="M124.545,-162.5C116.098,-162.5 107.485,-162.5 99.2632,-162.5"/>
<polygon fill="midnightblue" stroke="midnightblue" points="124.731,-166 134.731,-162.5 124.731,-159 124.731,-166"/>
</g>
<!-- Node43 -->
<g id="node10" class="node"><title>Node43</title>
<g id="a_node10"><a xlink:href="classutils4cpp_1_1datetime_1_1_time.html#aa299305967a434723fa6e756a3b4377e" target="_top" xlink:title=" ">
<polygon fill="white" stroke="black" points="0,-49.5 0,-79.5 99,-79.5 99,-49.5 0,-49.5"/>
<text text-anchor="start" x="8" y="-67.5" font-family="Helvetica,sans-Serif" font-size="10.00">utils4cpp::datetime</text>
<text text-anchor="middle" x="49.5" y="-56.5" font-family="Helvetica,sans-Serif" font-size="10.00">::Time::addSecs</text>
</a>
</g>
</g>
<!-- Node42&#45;&gt;Node43 -->
<g id="edge9" class="edge"><title>Node42&#45;&gt;Node43</title>
<path fill="none" stroke="midnightblue" d="M124.545,-64.5C116.098,-64.5 107.485,-64.5 99.2632,-64.5"/>
<polygon fill="midnightblue" stroke="midnightblue" points="124.731,-68.0001 134.731,-64.5 124.731,-61.0001 124.731,-68.0001"/>
</g>
</g>
</svg>
