<?xml version="1.0" encoding="UTF-8" standalone="no"?>
<!DOCTYPE svg PUBLIC "-//W3C//DTD SVG 1.1//EN"
 "http://www.w3.org/Graphics/SVG/1.1/DTD/svg11.dtd">
<!-- Generated by graphviz version 2.38.0 (20140413.2041)
 -->
<!-- Title: utils4cpp::datetime::Date::addMonths Pages: 1 -->
<svg width="535pt" height="235pt"
 viewBox="0.00 0.00 535.00 235.00" xmlns="http://www.w3.org/2000/svg" xmlns:xlink="http://www.w3.org/1999/xlink">
<g id="graph0" class="graph" transform="scale(1 1) rotate(0) translate(4 231)">
<title>utils4cpp::datetime::Date::addMonths</title>
<polygon fill="white" stroke="none" points="-4,4 -4,-231 531,-231 531,4 -4,4"/>
<!-- Node19 -->
<g id="node1" class="node"><title>Node19</title>
<g id="a_node1"><a xlink:title=" ">
<polygon fill="#bfbfbf" stroke="black" points="0,-142.5 0,-172.5 99,-172.5 99,-142.5 0,-142.5"/>
<text text-anchor="start" x="8" y="-160.5" font-family="Helvetica,sans-Serif" font-size="10.00">utils4cpp::datetime</text>
<text text-anchor="middle" x="49.5" y="-149.5" font-family="Helvetica,sans-Serif" font-size="10.00">::Date::addMonths</text>
</a>
</g>
</g>
<!-- Node20 -->
<g id="node2" class="node"><title>Node20</title>
<g id="a_node2"><a xlink:href="classutils4cpp_1_1datetime_1_1_date.html#ad0cae25c4251c7406f9f92abad9c8c98" target="_top" xlink:title=" ">
<polygon fill="white" stroke="black" points="427.5,-196.5 427.5,-226.5 526.5,-226.5 526.5,-196.5 427.5,-196.5"/>
<text text-anchor="start" x="435.5" y="-214.5" font-family="Helvetica,sans-Serif" font-size="10.00">utils4cpp::datetime</text>
<text text-anchor="middle" x="477" y="-203.5" font-family="Helvetica,sans-Serif" font-size="10.00">::Date::isValid</text>
</a>
</g>
</g>
<!-- Node19&#45;&gt;Node20 -->
<g id="edge1" class="edge"><title>Node19&#45;&gt;Node20</title>
<path fill="none" stroke="midnightblue" d="M95.2549,-172.578C107.971,-176.359 121.92,-180.035 135,-182.5 232.883,-200.944 348.802,-207.668 417.158,-210.112"/>
<polygon fill="midnightblue" stroke="midnightblue" points="417.187,-213.615 427.3,-210.456 417.425,-206.619 417.187,-213.615"/>
</g>
<!-- Node21 -->
<g id="node3" class="node"><title>Node21</title>
<g id="a_node3"><a xlink:href="classutils4cpp_1_1datetime_1_1_date.html#aba4a7c8a2ac4e87ce3857634484141ad" target="_top" xlink:title=" ">
<polygon fill="white" stroke="black" points="135,-142.5 135,-172.5 234,-172.5 234,-142.5 135,-142.5"/>
<text text-anchor="start" x="143" y="-160.5" font-family="Helvetica,sans-Serif" font-size="10.00">utils4cpp::datetime</text>
<text text-anchor="middle" x="184.5" y="-149.5" font-family="Helvetica,sans-Serif" font-size="10.00">::Date::Date</text>
</a>
</g>
</g>
<!-- Node19&#45;&gt;Node21 -->
<g id="edge2" class="edge"><title>Node19&#45;&gt;Node21</title>
<path fill="none" stroke="midnightblue" d="M99.2691,-157.5C107.491,-157.5 116.104,-157.5 124.551,-157.5"/>
<polygon fill="midnightblue" stroke="midnightblue" points="124.737,-161 134.737,-157.5 124.737,-154 124.737,-161"/>
</g>
<!-- Node22 -->
<g id="node4" class="node"><title>Node22</title>
<g id="a_node4"><a xlink:href="namespaceutils4cpp_1_1datetime.html#ad6bfa1adb60166da25262287ffce1043" target="_top" xlink:title=" ">
<polygon fill="white" stroke="black" points="135,-81.5 135,-111.5 234,-111.5 234,-81.5 135,-81.5"/>
<text text-anchor="start" x="143" y="-99.5" font-family="Helvetica,sans-Serif" font-size="10.00">utils4cpp::datetime</text>
<text text-anchor="middle" x="184.5" y="-88.5" font-family="Helvetica,sans-Serif" font-size="10.00">::fixedDate</text>
</a>
</g>
</g>
<!-- Node19&#45;&gt;Node22 -->
<g id="edge3" class="edge"><title>Node19&#45;&gt;Node22</title>
<path fill="none" stroke="midnightblue" d="M83.3764,-142.421C100.881,-134.393 122.603,-124.43 141.337,-115.838"/>
<polygon fill="midnightblue" stroke="midnightblue" points="142.91,-118.967 150.541,-111.617 139.992,-112.604 142.91,-118.967"/>
</g>
<!-- Node23 -->
<g id="node5" class="node"><title>Node23</title>
<g id="a_node5"><a xlink:href="classutils4cpp_1_1datetime_1_1_date.html#afb3d315a0bb3b53ce9c397711c12d68d" target="_top" xlink:title=" ">
<polygon fill="white" stroke="black" points="281,-122.5 281,-152.5 380,-152.5 380,-122.5 281,-122.5"/>
<text text-anchor="start" x="289" y="-140.5" font-family="Helvetica,sans-Serif" font-size="10.00">utils4cpp::datetime</text>
<text text-anchor="middle" x="330.5" y="-129.5" font-family="Helvetica,sans-Serif" font-size="10.00">::Date::setDate</text>
</a>
</g>
</g>
<!-- Node22&#45;&gt;Node23 -->
<g id="edge4" class="edge"><title>Node22&#45;&gt;Node23</title>
<path fill="none" stroke="midnightblue" d="M234.252,-110.381C246.098,-113.754 258.885,-117.394 271.126,-120.88"/>
<polygon fill="midnightblue" stroke="midnightblue" points="270.222,-124.261 280.798,-123.634 272.139,-117.529 270.222,-124.261"/>
</g>
<!-- Node27 -->
<g id="node9" class="node"><title>Node27</title>
<g id="a_node9"><a xlink:href="namespaceutils4cpp_1_1datetime.html#aeb884714da4d2924c0b3b24874e3ab72" target="_top" xlink:title=" ">
<polygon fill="white" stroke="black" points="270,-84 270,-103 391,-103 391,-84 270,-84"/>
<text text-anchor="middle" x="330.5" y="-91" font-family="Helvetica,sans-Serif" font-size="10.00">utils4cpp::datetime::min</text>
</a>
</g>
</g>
<!-- Node22&#45;&gt;Node27 -->
<g id="edge9" class="edge"><title>Node22&#45;&gt;Node27</title>
<path fill="none" stroke="midnightblue" d="M234.252,-95.4843C242.462,-95.3133 251.124,-95.1328 259.743,-94.9533"/>
<polygon fill="midnightblue" stroke="midnightblue" points="259.887,-98.4511 269.812,-94.7435 259.741,-91.4526 259.887,-98.4511"/>
</g>
<!-- Node28 -->
<g id="node10" class="node"><title>Node28</title>
<g id="a_node10"><a xlink:href="classutils4cpp_1_1datetime_1_1_date.html#a5c79c7e7e39bde768be4195e37925634" target="_top" xlink:title=" ">
<polygon fill="white" stroke="black" points="278.5,-29.5 278.5,-59.5 382.5,-59.5 382.5,-29.5 278.5,-29.5"/>
<text text-anchor="start" x="286.5" y="-47.5" font-family="Helvetica,sans-Serif" font-size="10.00">utils4cpp::datetime</text>
<text text-anchor="middle" x="330.5" y="-36.5" font-family="Helvetica,sans-Serif" font-size="10.00">::Date::daysInMonth</text>
</a>
</g>
</g>
<!-- Node22&#45;&gt;Node28 -->
<g id="edge10" class="edge"><title>Node22&#45;&gt;Node28</title>
<path fill="none" stroke="midnightblue" d="M227.151,-81.4594C243.121,-75.6924 261.53,-69.0448 278.294,-62.9912"/>
<polygon fill="midnightblue" stroke="midnightblue" points="279.726,-66.1952 287.943,-59.5068 277.349,-59.6113 279.726,-66.1952"/>
</g>
<!-- Node23&#45;&gt;Node20 -->
<g id="edge5" class="edge"><title>Node23&#45;&gt;Node20</title>
<path fill="none" stroke="midnightblue" d="M359.812,-152.578C378.761,-162.606 404.295,-175.998 427,-187.5 429.873,-188.955 432.847,-190.448 435.845,-191.941"/>
<polygon fill="midnightblue" stroke="midnightblue" points="434.317,-195.09 444.832,-196.39 437.423,-188.817 434.317,-195.09"/>
</g>
<!-- Node24 -->
<g id="node6" class="node"><title>Node24</title>
<g id="a_node6"><a xlink:href="classutils4cpp_1_1datetime_1_1_date.html#abca55b8d4e17961d51b3d278eb51ba67" target="_top" xlink:title=" ">
<polygon fill="white" stroke="black" points="427,-147.5 427,-177.5 527,-177.5 527,-147.5 427,-147.5"/>
<text text-anchor="start" x="435" y="-165.5" font-family="Helvetica,sans-Serif" font-size="10.00">utils4cpp::datetime</text>
<text text-anchor="middle" x="477" y="-154.5" font-family="Helvetica,sans-Serif" font-size="10.00">::Date::dayOfWeek</text>
</a>
</g>
</g>
<!-- Node23&#45;&gt;Node24 -->
<g id="edge6" class="edge"><title>Node23&#45;&gt;Node24</title>
<path fill="none" stroke="midnightblue" d="M380.018,-145.894C391.804,-147.933 404.538,-150.136 416.759,-152.251"/>
<polygon fill="midnightblue" stroke="midnightblue" points="416.421,-155.744 426.871,-154 417.614,-148.847 416.421,-155.744"/>
</g>
<!-- Node25 -->
<g id="node7" class="node"><title>Node25</title>
<g id="a_node7"><a xlink:href="classutils4cpp_1_1datetime_1_1_date.html#abc56f5900432bcfd6a3e8ddf37749e05" target="_top" xlink:title=" ">
<polygon fill="white" stroke="black" points="427.5,-98.5 427.5,-128.5 526.5,-128.5 526.5,-98.5 427.5,-98.5"/>
<text text-anchor="start" x="435.5" y="-116.5" font-family="Helvetica,sans-Serif" font-size="10.00">utils4cpp::datetime</text>
<text text-anchor="middle" x="477" y="-105.5" font-family="Helvetica,sans-Serif" font-size="10.00">::Date::dayOfYear</text>
</a>
</g>
</g>
<!-- Node23&#45;&gt;Node25 -->
<g id="edge7" class="edge"><title>Node23&#45;&gt;Node25</title>
<path fill="none" stroke="midnightblue" d="M380.018,-129.442C391.933,-127.463 404.815,-125.323 417.157,-123.273"/>
<polygon fill="midnightblue" stroke="midnightblue" points="418.072,-126.669 427.364,-121.578 416.925,-119.764 418.072,-126.669"/>
</g>
<!-- Node26 -->
<g id="node8" class="node"><title>Node26</title>
<g id="a_node8"><a xlink:href="classutils4cpp_1_1datetime_1_1_date.html#a7ad811c3a7a148eb9612b5f1dad9016c" target="_top" xlink:title=" ">
<polygon fill="white" stroke="black" points="427.5,-49.5 427.5,-79.5 526.5,-79.5 526.5,-49.5 427.5,-49.5"/>
<text text-anchor="start" x="435.5" y="-67.5" font-family="Helvetica,sans-Serif" font-size="10.00">utils4cpp::datetime</text>
<text text-anchor="middle" x="477" y="-56.5" font-family="Helvetica,sans-Serif" font-size="10.00">::Date::dst</text>
</a>
</g>
</g>
<!-- Node23&#45;&gt;Node26 -->
<g id="edge8" class="edge"><title>Node23&#45;&gt;Node26</title>
<path fill="none" stroke="midnightblue" d="M370.409,-122.411C377.375,-119.356 384.485,-115.999 391,-112.5 407.941,-103.401 410.329,-98.0836 427,-88.5 429.502,-87.0616 432.103,-85.6256 434.743,-84.2119"/>
<polygon fill="midnightblue" stroke="midnightblue" points="436.523,-87.2318 443.787,-79.5195 433.299,-81.0183 436.523,-87.2318"/>
</g>
<!-- Node29 -->
<g id="node11" class="node"><title>Node29</title>
<g id="a_node11"><a xlink:href="classutils4cpp_1_1datetime_1_1_date.html#a5f28dec3dfa55c7729c2753b9c834fd0" target="_top" xlink:title=" ">
<polygon fill="white" stroke="black" points="427.5,-0.5 427.5,-30.5 526.5,-30.5 526.5,-0.5 427.5,-0.5"/>
<text text-anchor="start" x="435.5" y="-18.5" font-family="Helvetica,sans-Serif" font-size="10.00">utils4cpp::datetime</text>
<text text-anchor="middle" x="477" y="-7.5" font-family="Helvetica,sans-Serif" font-size="10.00">::Date::isLeapYear</text>
</a>
</g>
</g>
<!-- Node28&#45;&gt;Node29 -->
<g id="edge11" class="edge"><title>Node28&#45;&gt;Node29</title>
<path fill="none" stroke="midnightblue" d="M382.852,-34.194C394.02,-31.9527 405.917,-29.5651 417.343,-27.272"/>
<polygon fill="midnightblue" stroke="midnightblue" points="418.117,-30.6865 427.233,-25.2871 416.74,-23.8233 418.117,-30.6865"/>
</g>
</g>
</svg>
