<?xml version="1.0" encoding="UTF-8" standalone="no"?>
<!DOCTYPE svg PUBLIC "-//W3C//DTD SVG 1.1//EN"
 "http://www.w3.org/Graphics/SVG/1.1/DTD/svg11.dtd">
<!-- Generated by graphviz version 2.38.0 (20140413.2041)
 -->
<!-- Title: utils4cpp::datetime::Date::dayOfYear Pages: 1 -->
<svg width="242pt" height="235pt"
 viewBox="0.00 0.00 242.00 235.00" xmlns="http://www.w3.org/2000/svg" xmlns:xlink="http://www.w3.org/1999/xlink">
<g id="graph0" class="graph" transform="scale(1 1) rotate(0) translate(4 231)">
<title>utils4cpp::datetime::Date::dayOfYear</title>
<polygon fill="white" stroke="none" points="-4,4 -4,-231 238,-231 238,4 -4,4"/>
<!-- Node61 -->
<g id="node1" class="node"><title>Node61</title>
<g id="a_node1"><a xlink:title=" ">
<polygon fill="#bfbfbf" stroke="black" points="0,-98.5 0,-128.5 99,-128.5 99,-98.5 0,-98.5"/>
<text text-anchor="start" x="8" y="-116.5" font-family="Helvetica,sans-Serif" font-size="10.00">utils4cpp::datetime</text>
<text text-anchor="middle" x="49.5" y="-105.5" font-family="Helvetica,sans-Serif" font-size="10.00">::Date::dayOfYear</text>
</a>
</g>
</g>
<!-- Node62 -->
<g id="node2" class="node"><title>Node62</title>
<g id="a_node2"><a xlink:href="classutils4cpp_1_1datetime_1_1_date.html#ad0cae25c4251c7406f9f92abad9c8c98" target="_top" xlink:title=" ">
<polygon fill="white" stroke="black" points="135,-196.5 135,-226.5 234,-226.5 234,-196.5 135,-196.5"/>
<text text-anchor="start" x="143" y="-214.5" font-family="Helvetica,sans-Serif" font-size="10.00">utils4cpp::datetime</text>
<text text-anchor="middle" x="184.5" y="-203.5" font-family="Helvetica,sans-Serif" font-size="10.00">::Date::isValid</text>
</a>
</g>
</g>
<!-- Node61&#45;&gt;Node62 -->
<g id="edge1" class="edge"><title>Node61&#45;&gt;Node62</title>
<path fill="none" stroke="midnightblue" d="M65.3915,-128.707C81.5449,-144.663 108.577,-169.832 135,-187.5 137.084,-188.894 139.261,-190.258 141.488,-191.583"/>
<polygon fill="midnightblue" stroke="midnightblue" points="139.806,-194.652 150.241,-196.483 143.225,-188.544 139.806,-194.652"/>
</g>
<!-- Node63 -->
<g id="node3" class="node"><title>Node63</title>
<g id="a_node3"><a xlink:href="classutils4cpp_1_1datetime_1_1_date.html#a3187cf0b66fa61c2a278f0a008191bd8" target="_top" xlink:title=" ">
<polygon fill="white" stroke="black" points="135,-147.5 135,-177.5 234,-177.5 234,-147.5 135,-147.5"/>
<text text-anchor="start" x="143" y="-165.5" font-family="Helvetica,sans-Serif" font-size="10.00">utils4cpp::datetime</text>
<text text-anchor="middle" x="184.5" y="-154.5" font-family="Helvetica,sans-Serif" font-size="10.00">::Date::year</text>
</a>
</g>
</g>
<!-- Node61&#45;&gt;Node63 -->
<g id="edge2" class="edge"><title>Node61&#45;&gt;Node63</title>
<path fill="none" stroke="midnightblue" d="M91.4896,-128.601C104.51,-133.399 119.069,-138.762 132.695,-143.782"/>
<polygon fill="midnightblue" stroke="midnightblue" points="131.823,-147.191 142.417,-147.364 134.243,-140.623 131.823,-147.191"/>
</g>
<!-- Node64 -->
<g id="node4" class="node"><title>Node64</title>
<g id="a_node4"><a xlink:href="classutils4cpp_1_1datetime_1_1_date.html#a643ff983256338d1d20ed38a50a33748" target="_top" xlink:title=" ">
<polygon fill="white" stroke="black" points="135,-98.5 135,-128.5 234,-128.5 234,-98.5 135,-98.5"/>
<text text-anchor="start" x="143" y="-116.5" font-family="Helvetica,sans-Serif" font-size="10.00">utils4cpp::datetime</text>
<text text-anchor="middle" x="184.5" y="-105.5" font-family="Helvetica,sans-Serif" font-size="10.00">::Date::month</text>
</a>
</g>
</g>
<!-- Node61&#45;&gt;Node64 -->
<g id="edge3" class="edge"><title>Node61&#45;&gt;Node64</title>
<path fill="none" stroke="midnightblue" d="M99.2691,-113.5C107.491,-113.5 116.104,-113.5 124.551,-113.5"/>
<polygon fill="midnightblue" stroke="midnightblue" points="124.737,-117 134.737,-113.5 124.737,-110 124.737,-117"/>
</g>
<!-- Node65 -->
<g id="node5" class="node"><title>Node65</title>
<g id="a_node5"><a xlink:href="classutils4cpp_1_1datetime_1_1_date.html#a82dd7ee4a793e2249b14949af7ef349b" target="_top" xlink:title=" ">
<polygon fill="white" stroke="black" points="135,-49.5 135,-79.5 234,-79.5 234,-49.5 135,-49.5"/>
<text text-anchor="start" x="143" y="-67.5" font-family="Helvetica,sans-Serif" font-size="10.00">utils4cpp::datetime</text>
<text text-anchor="middle" x="184.5" y="-56.5" font-family="Helvetica,sans-Serif" font-size="10.00">::Date::day</text>
</a>
</g>
</g>
<!-- Node61&#45;&gt;Node65 -->
<g id="edge4" class="edge"><title>Node61&#45;&gt;Node65</title>
<path fill="none" stroke="midnightblue" d="M91.4896,-98.3986C104.51,-93.6015 119.069,-88.2378 132.695,-83.2177"/>
<polygon fill="midnightblue" stroke="midnightblue" points="134.243,-86.3772 142.417,-79.6359 131.823,-79.8088 134.243,-86.3772"/>
</g>
<!-- Node66 -->
<g id="node6" class="node"><title>Node66</title>
<g id="a_node6"><a xlink:href="classutils4cpp_1_1datetime_1_1_date.html#a5f28dec3dfa55c7729c2753b9c834fd0" target="_top" xlink:title=" ">
<polygon fill="white" stroke="black" points="135,-0.5 135,-30.5 234,-30.5 234,-0.5 135,-0.5"/>
<text text-anchor="start" x="143" y="-18.5" font-family="Helvetica,sans-Serif" font-size="10.00">utils4cpp::datetime</text>
<text text-anchor="middle" x="184.5" y="-7.5" font-family="Helvetica,sans-Serif" font-size="10.00">::Date::isLeapYear</text>
</a>
</g>
</g>
<!-- Node61&#45;&gt;Node66 -->
<g id="edge5" class="edge"><title>Node61&#45;&gt;Node66</title>
<path fill="none" stroke="midnightblue" d="M65.7864,-98.313C82.0516,-82.6457 108.978,-58.0832 135,-40.5 137.509,-38.8045 140.148,-37.1426 142.845,-35.5324"/>
<polygon fill="midnightblue" stroke="midnightblue" points="144.596,-38.5633 151.57,-30.5873 141.144,-32.4735 144.596,-38.5633"/>
</g>
</g>
</svg>
