<?xml version="1.0" encoding="UTF-8" standalone="no"?>
<!DOCTYPE svg PUBLIC "-//W3C//DTD SVG 1.1//EN"
 "http://www.w3.org/Graphics/SVG/1.1/DTD/svg11.dtd">
<!-- Generated by graphviz version 2.38.0 (20140413.2041)
 -->
<!-- Title: utils4cpp::datetime::Date::Date Pages: 1 -->
<svg width="378pt" height="186pt"
 viewBox="0.00 0.00 378.00 186.00" xmlns="http://www.w3.org/2000/svg" xmlns:xlink="http://www.w3.org/1999/xlink">
<g id="graph0" class="graph" transform="scale(1 1) rotate(0) translate(4 182)">
<title>utils4cpp::datetime::Date::Date</title>
<polygon fill="white" stroke="none" points="-4,4 -4,-182 374,-182 374,4 -4,4"/>
<!-- Node1 -->
<g id="node1" class="node"><title>Node1</title>
<g id="a_node1"><a xlink:title=" ">
<polygon fill="#bfbfbf" stroke="black" points="0,-26.5 0,-56.5 99,-56.5 99,-26.5 0,-26.5"/>
<text text-anchor="start" x="8" y="-44.5" font-family="Helvetica,sans-Serif" font-size="10.00">utils4cpp::datetime</text>
<text text-anchor="middle" x="49.5" y="-33.5" font-family="Helvetica,sans-Serif" font-size="10.00">::Date::Date</text>
</a>
</g>
</g>
<!-- Node2 -->
<g id="node2" class="node"><title>Node2</title>
<g id="a_node2"><a xlink:href="classutils4cpp_1_1datetime_1_1_date.html#afb3d315a0bb3b53ce9c397711c12d68d" target="_top" xlink:title=" ">
<polygon fill="white" stroke="black" points="135,-49.5 135,-79.5 234,-79.5 234,-49.5 135,-49.5"/>
<text text-anchor="start" x="143" y="-67.5" font-family="Helvetica,sans-Serif" font-size="10.00">utils4cpp::datetime</text>
<text text-anchor="middle" x="184.5" y="-56.5" font-family="Helvetica,sans-Serif" font-size="10.00">::Date::setDate</text>
</a>
</g>
</g>
<!-- Node1&#45;&gt;Node2 -->
<g id="edge1" class="edge"><title>Node1&#45;&gt;Node2</title>
<path fill="none" stroke="midnightblue" d="M99.2691,-49.9338C107.582,-51.3713 116.293,-52.8777 124.83,-54.354"/>
<polygon fill="midnightblue" stroke="midnightblue" points="124.287,-57.812 134.737,-56.0673 125.48,-50.9143 124.287,-57.812"/>
</g>
<!-- Node6 -->
<g id="node6" class="node"><title>Node6</title>
<g id="a_node6"><a xlink:href="classutils4cpp_1_1datetime_1_1_date.html#a7ad811c3a7a148eb9612b5f1dad9016c" target="_top" xlink:title=" ">
<polygon fill="white" stroke="black" points="270.5,-0.5 270.5,-30.5 369.5,-30.5 369.5,-0.5 270.5,-0.5"/>
<text text-anchor="start" x="278.5" y="-18.5" font-family="Helvetica,sans-Serif" font-size="10.00">utils4cpp::datetime</text>
<text text-anchor="middle" x="320" y="-7.5" font-family="Helvetica,sans-Serif" font-size="10.00">::Date::dst</text>
</a>
</g>
</g>
<!-- Node1&#45;&gt;Node6 -->
<g id="edge6" class="edge"><title>Node1&#45;&gt;Node6</title>
<path fill="none" stroke="midnightblue" d="M99.1233,-36.7916C144.412,-32.4061 212.014,-25.86 260.292,-21.185"/>
<polygon fill="midnightblue" stroke="midnightblue" points="260.669,-24.6649 270.285,-20.2172 259.995,-17.6975 260.669,-24.6649"/>
</g>
<!-- Node3 -->
<g id="node3" class="node"><title>Node3</title>
<g id="a_node3"><a xlink:href="classutils4cpp_1_1datetime_1_1_date.html#ad0cae25c4251c7406f9f92abad9c8c98" target="_top" xlink:title=" ">
<polygon fill="white" stroke="black" points="270.5,-147.5 270.5,-177.5 369.5,-177.5 369.5,-147.5 270.5,-147.5"/>
<text text-anchor="start" x="278.5" y="-165.5" font-family="Helvetica,sans-Serif" font-size="10.00">utils4cpp::datetime</text>
<text text-anchor="middle" x="320" y="-154.5" font-family="Helvetica,sans-Serif" font-size="10.00">::Date::isValid</text>
</a>
</g>
</g>
<!-- Node2&#45;&gt;Node3 -->
<g id="edge2" class="edge"><title>Node2&#45;&gt;Node3</title>
<path fill="none" stroke="midnightblue" d="M200.377,-79.7286C216.519,-95.7018 243.541,-120.886 270,-138.5 271.922,-139.78 273.922,-141.033 275.968,-142.254"/>
<polygon fill="midnightblue" stroke="midnightblue" points="274.696,-145.552 285.133,-147.376 278.111,-139.442 274.696,-145.552"/>
</g>
<!-- Node4 -->
<g id="node4" class="node"><title>Node4</title>
<g id="a_node4"><a xlink:href="classutils4cpp_1_1datetime_1_1_date.html#abca55b8d4e17961d51b3d278eb51ba67" target="_top" xlink:title=" ">
<polygon fill="white" stroke="black" points="270,-98.5 270,-128.5 370,-128.5 370,-98.5 270,-98.5"/>
<text text-anchor="start" x="278" y="-116.5" font-family="Helvetica,sans-Serif" font-size="10.00">utils4cpp::datetime</text>
<text text-anchor="middle" x="320" y="-105.5" font-family="Helvetica,sans-Serif" font-size="10.00">::Date::dayOfWeek</text>
</a>
</g>
</g>
<!-- Node2&#45;&gt;Node4 -->
<g id="edge3" class="edge"><title>Node2&#45;&gt;Node4</title>
<path fill="none" stroke="midnightblue" d="M226.644,-79.6014C239.713,-84.3985 254.327,-89.7622 268.004,-94.7823"/>
<polygon fill="midnightblue" stroke="midnightblue" points="267.169,-98.204 277.762,-98.3641 269.581,-91.6327 267.169,-98.204"/>
</g>
<!-- Node5 -->
<g id="node5" class="node"><title>Node5</title>
<g id="a_node5"><a xlink:href="classutils4cpp_1_1datetime_1_1_date.html#abc56f5900432bcfd6a3e8ddf37749e05" target="_top" xlink:title=" ">
<polygon fill="white" stroke="black" points="270.5,-49.5 270.5,-79.5 369.5,-79.5 369.5,-49.5 270.5,-49.5"/>
<text text-anchor="start" x="278.5" y="-67.5" font-family="Helvetica,sans-Serif" font-size="10.00">utils4cpp::datetime</text>
<text text-anchor="middle" x="320" y="-56.5" font-family="Helvetica,sans-Serif" font-size="10.00">::Date::dayOfYear</text>
</a>
</g>
</g>
<!-- Node2&#45;&gt;Node5 -->
<g id="edge4" class="edge"><title>Node2&#45;&gt;Node5</title>
<path fill="none" stroke="midnightblue" d="M234.074,-64.5C242.541,-64.5 251.429,-64.5 260.136,-64.5"/>
<polygon fill="midnightblue" stroke="midnightblue" points="260.238,-68.0001 270.238,-64.5 260.238,-61.0001 260.238,-68.0001"/>
</g>
<!-- Node2&#45;&gt;Node6 -->
<g id="edge5" class="edge"><title>Node2&#45;&gt;Node6</title>
<path fill="none" stroke="midnightblue" d="M226.644,-49.3986C239.713,-44.6015 254.327,-39.2378 268.004,-34.2177"/>
<polygon fill="midnightblue" stroke="midnightblue" points="269.581,-37.3673 277.762,-30.6359 267.169,-30.796 269.581,-37.3673"/>
</g>
</g>
</svg>
