<?xml version="1.0" encoding="UTF-8" standalone="no"?>
<!DOCTYPE svg PUBLIC "-//W3C//DTD SVG 1.1//EN"
 "http://www.w3.org/Graphics/SVG/1.1/DTD/svg11.dtd">
<!-- Generated by graphviz version 2.38.0 (20140413.2041)
 -->
<!-- Title: utils4cpp::datetime::Date::isValid Pages: 1 -->
<svg width="242pt" height="137pt"
 viewBox="0.00 0.00 242.00 137.00" xmlns="http://www.w3.org/2000/svg" xmlns:xlink="http://www.w3.org/1999/xlink">
<g id="graph0" class="graph" transform="scale(1 1) rotate(0) translate(4 133)">
<title>utils4cpp::datetime::Date::isValid</title>
<polygon fill="white" stroke="none" points="-4,4 -4,-133 238,-133 238,4 -4,4"/>
<!-- Node93 -->
<g id="node1" class="node"><title>Node93</title>
<g id="a_node1"><a xlink:title=" ">
<polygon fill="#bfbfbf" stroke="black" points="0,-49.5 0,-79.5 99,-79.5 99,-49.5 0,-49.5"/>
<text text-anchor="start" x="8" y="-67.5" font-family="Helvetica,sans-Serif" font-size="10.00">utils4cpp::datetime</text>
<text text-anchor="middle" x="49.5" y="-56.5" font-family="Helvetica,sans-Serif" font-size="10.00">::Date::isValid</text>
</a>
</g>
</g>
<!-- Node94 -->
<g id="node2" class="node"><title>Node94</title>
<g id="a_node2"><a xlink:href="classutils4cpp_1_1datetime_1_1_date.html#a8fa43ea37c7dfc465c8fa3f930ba31f1" target="_top" xlink:title=" ">
<polygon fill="white" stroke="black" points="135,-98.5 135,-128.5 234,-128.5 234,-98.5 135,-98.5"/>
<text text-anchor="start" x="143" y="-116.5" font-family="Helvetica,sans-Serif" font-size="10.00">utils4cpp::datetime</text>
<text text-anchor="middle" x="184.5" y="-105.5" font-family="Helvetica,sans-Serif" font-size="10.00">::Date::is31Days</text>
</a>
</g>
</g>
<!-- Node93&#45;&gt;Node94 -->
<g id="edge1" class="edge"><title>Node93&#45;&gt;Node94</title>
<path fill="none" stroke="midnightblue" d="M91.4896,-79.6014C104.51,-84.3985 119.069,-89.7622 132.695,-94.7823"/>
<polygon fill="midnightblue" stroke="midnightblue" points="131.823,-98.1912 142.417,-98.3641 134.243,-91.6228 131.823,-98.1912"/>
</g>
<!-- Node95 -->
<g id="node3" class="node"><title>Node95</title>
<g id="a_node3"><a xlink:href="classutils4cpp_1_1datetime_1_1_date.html#a2e0c86a726a48c085afb5d989a27096e" target="_top" xlink:title=" ">
<polygon fill="white" stroke="black" points="135,-49.5 135,-79.5 234,-79.5 234,-49.5 135,-49.5"/>
<text text-anchor="start" x="143" y="-67.5" font-family="Helvetica,sans-Serif" font-size="10.00">utils4cpp::datetime</text>
<text text-anchor="middle" x="184.5" y="-56.5" font-family="Helvetica,sans-Serif" font-size="10.00">::Date::is30Days</text>
</a>
</g>
</g>
<!-- Node93&#45;&gt;Node95 -->
<g id="edge2" class="edge"><title>Node93&#45;&gt;Node95</title>
<path fill="none" stroke="midnightblue" d="M99.2691,-64.5C107.491,-64.5 116.104,-64.5 124.551,-64.5"/>
<polygon fill="midnightblue" stroke="midnightblue" points="124.737,-68.0001 134.737,-64.5 124.737,-61.0001 124.737,-68.0001"/>
</g>
<!-- Node96 -->
<g id="node4" class="node"><title>Node96</title>
<g id="a_node4"><a xlink:href="classutils4cpp_1_1datetime_1_1_date.html#a5f28dec3dfa55c7729c2753b9c834fd0" target="_top" xlink:title=" ">
<polygon fill="white" stroke="black" points="135,-0.5 135,-30.5 234,-30.5 234,-0.5 135,-0.5"/>
<text text-anchor="start" x="143" y="-18.5" font-family="Helvetica,sans-Serif" font-size="10.00">utils4cpp::datetime</text>
<text text-anchor="middle" x="184.5" y="-7.5" font-family="Helvetica,sans-Serif" font-size="10.00">::Date::isLeapYear</text>
</a>
</g>
</g>
<!-- Node93&#45;&gt;Node96 -->
<g id="edge3" class="edge"><title>Node93&#45;&gt;Node96</title>
<path fill="none" stroke="midnightblue" d="M91.4896,-49.3986C104.51,-44.6015 119.069,-39.2378 132.695,-34.2177"/>
<polygon fill="midnightblue" stroke="midnightblue" points="134.243,-37.3772 142.417,-30.6359 131.823,-30.8088 134.243,-37.3772"/>
</g>
</g>
</svg>
