<?xml version="1.0" encoding="UTF-8" standalone="no"?>
<!DOCTYPE svg PUBLIC "-//W3C//DTD SVG 1.1//EN"
 "http://www.w3.org/Graphics/SVG/1.1/DTD/svg11.dtd">
<!-- Generated by graphviz version 2.38.0 (20140413.2041)
 -->
<!-- Title: utils4cpp::datetime::Time::msecsTo Pages: 1 -->
<svg width="255pt" height="88pt"
 viewBox="0.00 0.00 255.00 88.00" xmlns="http://www.w3.org/2000/svg" xmlns:xlink="http://www.w3.org/1999/xlink">
<g id="graph0" class="graph" transform="scale(1 1) rotate(0) translate(4 84)">
<title>utils4cpp::datetime::Time::msecsTo</title>
<polygon fill="white" stroke="none" points="-4,4 -4,-84 251,-84 251,4 -4,4"/>
<!-- Node27 -->
<g id="node1" class="node"><title>Node27</title>
<g id="a_node1"><a xlink:title=" ">
<polygon fill="#bfbfbf" stroke="black" points="0,-24.5 0,-54.5 99,-54.5 99,-24.5 0,-24.5"/>
<text text-anchor="start" x="8" y="-42.5" font-family="Helvetica,sans-Serif" font-size="10.00">utils4cpp::datetime</text>
<text text-anchor="middle" x="49.5" y="-31.5" font-family="Helvetica,sans-Serif" font-size="10.00">::Time::msecsTo</text>
</a>
</g>
</g>
<!-- Node28 -->
<g id="node2" class="node"><title>Node28</title>
<g id="a_node2"><a xlink:href="classutils4cpp_1_1datetime_1_1_time.html#ae4eb38a59e1a5620e7ed886563f7696f" target="_top" xlink:title=" ">
<polygon fill="white" stroke="black" points="141.5,-49.5 141.5,-79.5 240.5,-79.5 240.5,-49.5 141.5,-49.5"/>
<text text-anchor="start" x="149.5" y="-67.5" font-family="Helvetica,sans-Serif" font-size="10.00">utils4cpp::datetime</text>
<text text-anchor="middle" x="191" y="-56.5" font-family="Helvetica,sans-Serif" font-size="10.00">::Time::isValid</text>
</a>
</g>
</g>
<!-- Node27&#45;&gt;Node28 -->
<g id="edge1" class="edge"><title>Node27&#45;&gt;Node28</title>
<path fill="none" stroke="midnightblue" d="M99.2903,-48.2438C109.651,-50.1004 120.691,-52.079 131.374,-53.9935"/>
<polygon fill="midnightblue" stroke="midnightblue" points="131.012,-57.4844 141.473,-55.8034 132.247,-50.5942 131.012,-57.4844"/>
</g>
<!-- Node29 -->
<g id="node3" class="node"><title>Node29</title>
<g id="a_node3"><a xlink:href="classutils4cpp_1_1datetime_1_1_time.html#af466006dd567b1ae2c6d6421f86b20e0" target="_top" xlink:title=" ">
<polygon fill="white" stroke="black" points="135,-0.5 135,-30.5 247,-30.5 247,-0.5 135,-0.5"/>
<text text-anchor="start" x="143" y="-18.5" font-family="Helvetica,sans-Serif" font-size="10.00">utils4cpp::datetime</text>
<text text-anchor="middle" x="191" y="-7.5" font-family="Helvetica,sans-Serif" font-size="10.00">::Time::toMilliseconds</text>
</a>
</g>
</g>
<!-- Node27&#45;&gt;Node29 -->
<g id="edge2" class="edge"><title>Node27&#45;&gt;Node29</title>
<path fill="none" stroke="midnightblue" d="M99.2903,-31.106C107.535,-29.6875 116.211,-28.1949 124.794,-26.7182"/>
<polygon fill="midnightblue" stroke="midnightblue" points="125.535,-30.1422 134.797,-24.9973 124.348,-23.2436 125.535,-30.1422"/>
</g>
</g>
</svg>
