<?xml version="1.0" encoding="UTF-8" standalone="no"?>
<!DOCTYPE svg PUBLIC "-//W3C//DTD SVG 1.1//EN"
 "http://www.w3.org/Graphics/SVG/1.1/DTD/svg11.dtd">
<!-- Generated by graphviz version 2.38.0 (20140413.2041)
 -->
<!-- Title: C:/Users/Lh/Documents/GitHub/utils4cpp/include/utils4cpp Pages: 1 -->
<svg width="424pt" height="183pt"
 viewBox="0.00 0.00 424.00 183.00" xmlns="http://www.w3.org/2000/svg" xmlns:xlink="http://www.w3.org/1999/xlink">
<g id="graph0" class="graph" transform="scale(1 1) rotate(0) translate(4 179)">
<title>C:/Users/Lh/Documents/GitHub/utils4cpp/include/utils4cpp</title>
<polygon fill="white" stroke="none" points="-4,4 -4,-179 420,-179 420,4 -4,4"/>
<g id="clust1" class="cluster"><title>clusterdir_d44c64559bbebec7f509842c48db8b23</title>
<g id="a_clust1"><a xlink:href="dir_d44c64559bbebec7f509842c48db8b23.html" target="_top" xlink:title="include">
<polygon fill="#ddddee" stroke="black" points="8,-8 8,-167 408,-167 408,-8 8,-8"/>
<text text-anchor="middle" x="208" y="-155" font-family="Helvetica,sans-Serif" font-size="10.00">include</text>
</a>
</g>
</g>
<g id="clust2" class="cluster"><title>clusterdir_38fdcf6efcf6a053d873d629a64d94d7</title>
<g id="a_clust2"><a xlink:href="dir_38fdcf6efcf6a053d873d629a64d94d7.html" target="_top">
<polygon fill="#eeeeff" stroke="black" points="16,-16 16,-140 400,-140 400,-16 16,-16"/>
</a>
</g>
</g>
<!-- dir_38fdcf6efcf6a053d873d629a64d94d7 -->
<g id="node1" class="node"><title>dir_38fdcf6efcf6a053d873d629a64d94d7</title>
<text text-anchor="middle" x="364" y="-111.5" font-family="Helvetica,sans-Serif" font-size="10.00">utils4cpp</text>
</g>
<!-- dir_443ff2b7df7bac1be505d90796e33be1 -->
<g id="node2" class="node"><title>dir_443ff2b7df7bac1be505d90796e33be1</title>
<g id="a_node2"><a xlink:href="dir_443ff2b7df7bac1be505d90796e33be1.html" target="_top" xlink:title="core">
<polygon fill="white" stroke="black" points="152,-60 98,-60 98,-24 152,-24 152,-60"/>
<text text-anchor="middle" x="125" y="-39.5" font-family="Helvetica,sans-Serif" font-size="10.00">core</text>
</a>
</g>
</g>
<!-- dir_fccc9b2dd4e98ce4b0ff93b751af75cf -->
<g id="node3" class="node"><title>dir_fccc9b2dd4e98ce4b0ff93b751af75cf</title>
<g id="a_node3"><a xlink:href="dir_fccc9b2dd4e98ce4b0ff93b751af75cf.html" target="_top" xlink:title="datastructure">
<polygon fill="white" stroke="black" points="318,-132 244,-132 244,-96 318,-96 318,-132"/>
<text text-anchor="middle" x="281" y="-111.5" font-family="Helvetica,sans-Serif" font-size="10.00">datastructure</text>
</a>
</g>
</g>
<!-- dir_87ab8a4d2a76c5c0e02df37e6c5e531a -->
<g id="node4" class="node"><title>dir_87ab8a4d2a76c5c0e02df37e6c5e531a</title>
<g id="a_node4"><a xlink:href="dir_87ab8a4d2a76c5c0e02df37e6c5e531a.html" target="_top" xlink:title="datetime">
<polygon fill="white" stroke="black" points="226,-132 172,-132 172,-96 226,-96 226,-132"/>
<text text-anchor="middle" x="199" y="-111.5" font-family="Helvetica,sans-Serif" font-size="10.00">datetime</text>
</a>
</g>
</g>
<!-- dir_87ab8a4d2a76c5c0e02df37e6c5e531a&#45;&gt;dir_443ff2b7df7bac1be505d90796e33be1 -->
<g id="edge1" class="edge"><title>dir_87ab8a4d2a76c5c0e02df37e6c5e531a&#45;&gt;dir_443ff2b7df7bac1be505d90796e33be1</title>
<path fill="none" stroke="black" d="M180.708,-95.6966C171.567,-87.0503 160.36,-76.4486 150.4,-67.027"/>
<polygon fill="black" stroke="black" points="152.752,-64.4337 143.082,-60.1043 147.941,-69.519 152.752,-64.4337"/>
<g id="a_edge1&#45;headlabel"><a xlink:href="dir_000004_000002.html" target="_top" xlink:title="3">
<text text-anchor="middle" x="157.314" y="-62.3413" font-family="Helvetica,sans-Serif" font-size="10.00">3</text>
</a>
</g>
</g>
<!-- dir_530b888e20b54e146935a1ba84cefc09 -->
<g id="node5" class="node"><title>dir_530b888e20b54e146935a1ba84cefc09</title>
<g id="a_node5"><a xlink:href="dir_530b888e20b54e146935a1ba84cefc09.html" target="_top" xlink:title="geometry">
<polygon fill="white" stroke="black" points="153.5,-132 96.5,-132 96.5,-96 153.5,-96 153.5,-132"/>
<text text-anchor="middle" x="125" y="-111.5" font-family="Helvetica,sans-Serif" font-size="10.00">geometry</text>
</a>
</g>
</g>
<!-- dir_acf00e334e15b5968de8a1eaec9b322b -->
<g id="node6" class="node"><title>dir_acf00e334e15b5968de8a1eaec9b322b</title>
<g id="a_node6"><a xlink:href="dir_acf00e334e15b5968de8a1eaec9b322b.html" target="_top" xlink:title="str">
<polygon fill="white" stroke="black" points="78,-132 24,-132 24,-96 78,-96 78,-132"/>
<text text-anchor="middle" x="51" y="-111.5" font-family="Helvetica,sans-Serif" font-size="10.00">str</text>
</a>
</g>
</g>
<!-- dir_acf00e334e15b5968de8a1eaec9b322b&#45;&gt;dir_443ff2b7df7bac1be505d90796e33be1 -->
<g id="edge2" class="edge"><title>dir_acf00e334e15b5968de8a1eaec9b322b&#45;&gt;dir_443ff2b7df7bac1be505d90796e33be1</title>
<path fill="none" stroke="black" d="M69.2921,-95.6966C78.4326,-87.0503 89.6401,-76.4486 99.6,-67.027"/>
<polygon fill="black" stroke="black" points="102.059,-69.519 106.918,-60.1043 97.2484,-64.4337 102.059,-69.519"/>
<g id="a_edge2&#45;headlabel"><a xlink:href="dir_000006_000002.html" target="_top" xlink:title="2">
<text text-anchor="middle" x="101.399" y="-71.5518" font-family="Helvetica,sans-Serif" font-size="10.00">2</text>
</a>
</g>
</g>
</g>
</svg>
