<?xml version="1.0" encoding="UTF-8" standalone="no"?>
<!DOCTYPE svg PUBLIC "-//W3C//DTD SVG 1.1//EN"
 "http://www.w3.org/Graphics/SVG/1.1/DTD/svg11.dtd">
<!-- Generated by graphviz version 2.38.0 (20140413.2041)
 -->
<!-- Title: C:/Users/Shaoguang/Documents/GitHub/utils4cpp/include/utils4cpp Pages: 1 -->
<svg width="503pt" height="183pt"
 viewBox="0.00 0.00 503.00 183.00" xmlns="http://www.w3.org/2000/svg" xmlns:xlink="http://www.w3.org/1999/xlink">
<g id="graph0" class="graph" transform="scale(1 1) rotate(0) translate(4 179)">
<title>C:/Users/Shaoguang/Documents/GitHub/utils4cpp/include/utils4cpp</title>
<polygon fill="white" stroke="none" points="-4,4 -4,-179 499,-179 499,4 -4,4"/>
<g id="clust1" class="cluster"><title>clusterdir_d44c64559bbebec7f509842c48db8b23</title>
<g id="a_clust1"><a xlink:href="dir_d44c64559bbebec7f509842c48db8b23.html" target="_top" xlink:title="include">
<polygon fill="#ddddee" stroke="black" points="8,-8 8,-167 487,-167 487,-8 8,-8"/>
<text text-anchor="middle" x="247.5" y="-155" font-family="Helvetica,sans-Serif" font-size="10.00">include</text>
</a>
</g>
</g>
<g id="clust2" class="cluster"><title>clusterdir_38fdcf6efcf6a053d873d629a64d94d7</title>
<g id="a_clust2"><a xlink:href="dir_38fdcf6efcf6a053d873d629a64d94d7.html" target="_top">
<polygon fill="#eeeeff" stroke="black" points="16,-16 16,-140 479,-140 479,-16 16,-16"/>
</a>
</g>
</g>
<!-- dir_38fdcf6efcf6a053d873d629a64d94d7 -->
<g id="node1" class="node"><title>dir_38fdcf6efcf6a053d873d629a64d94d7</title>
<text text-anchor="middle" x="443" y="-111.5" font-family="Helvetica,sans-Serif" font-size="10.00">utils4cpp</text>
</g>
<!-- dir_443ff2b7df7bac1be505d90796e33be1 -->
<g id="node2" class="node"><title>dir_443ff2b7df7bac1be505d90796e33be1</title>
<g id="a_node2"><a xlink:href="dir_443ff2b7df7bac1be505d90796e33be1.html" target="_top" xlink:title="core">
<polygon fill="white" stroke="black" points="191,-60 137,-60 137,-24 191,-24 191,-60"/>
<text text-anchor="middle" x="164" y="-39.5" font-family="Helvetica,sans-Serif" font-size="10.00">core</text>
</a>
</g>
</g>
<!-- dir_fccc9b2dd4e98ce4b0ff93b751af75cf -->
<g id="node3" class="node"><title>dir_fccc9b2dd4e98ce4b0ff93b751af75cf</title>
<g id="a_node3"><a xlink:href="dir_fccc9b2dd4e98ce4b0ff93b751af75cf.html" target="_top" xlink:title="datastructure">
<polygon fill="white" stroke="black" points="397,-132 323,-132 323,-96 397,-96 397,-132"/>
<text text-anchor="middle" x="360" y="-111.5" font-family="Helvetica,sans-Serif" font-size="10.00">datastructure</text>
</a>
</g>
</g>
<!-- dir_87ab8a4d2a76c5c0e02df37e6c5e531a -->
<g id="node4" class="node"><title>dir_87ab8a4d2a76c5c0e02df37e6c5e531a</title>
<g id="a_node4"><a xlink:href="dir_87ab8a4d2a76c5c0e02df37e6c5e531a.html" target="_top" xlink:title="datetime">
<polygon fill="white" stroke="black" points="305,-132 251,-132 251,-96 305,-96 305,-132"/>
<text text-anchor="middle" x="278" y="-111.5" font-family="Helvetica,sans-Serif" font-size="10.00">datetime</text>
</a>
</g>
</g>
<!-- dir_87ab8a4d2a76c5c0e02df37e6c5e531a&#45;&gt;dir_443ff2b7df7bac1be505d90796e33be1 -->
<g id="edge1" class="edge"><title>dir_87ab8a4d2a76c5c0e02df37e6c5e531a&#45;&gt;dir_443ff2b7df7bac1be505d90796e33be1</title>
<path fill="none" stroke="black" d="M250.984,-96.411C235.762,-87.0642 216.551,-75.2684 200.058,-65.1411"/>
<polygon fill="black" stroke="black" points="201.571,-61.9626 191.218,-59.7125 197.908,-67.9278 201.571,-61.9626"/>
<g id="a_edge1&#45;headlabel"><a xlink:href="dir_000004_000002.html" target="_top" xlink:title="4">
<text text-anchor="middle" x="206.12" y="-58.9239" font-family="Helvetica,sans-Serif" font-size="10.00">4</text>
</a>
</g>
</g>
<!-- dir_384b9e0bc2467b2f2ba92983a99a52b8 -->
<g id="node5" class="node"><title>dir_384b9e0bc2467b2f2ba92983a99a52b8</title>
<g id="a_node5"><a xlink:href="dir_384b9e0bc2467b2f2ba92983a99a52b8.html" target="_top" xlink:title="filesystem">
<polygon fill="white" stroke="black" points="232.5,-132 171.5,-132 171.5,-96 232.5,-96 232.5,-132"/>
<text text-anchor="middle" x="202" y="-111.5" font-family="Helvetica,sans-Serif" font-size="10.00">filesystem</text>
</a>
</g>
</g>
<!-- dir_530b888e20b54e146935a1ba84cefc09 -->
<g id="node6" class="node"><title>dir_530b888e20b54e146935a1ba84cefc09</title>
<g id="a_node6"><a xlink:href="dir_530b888e20b54e146935a1ba84cefc09.html" target="_top" xlink:title="geometry">
<polygon fill="white" stroke="black" points="153.5,-132 96.5,-132 96.5,-96 153.5,-96 153.5,-132"/>
<text text-anchor="middle" x="125" y="-111.5" font-family="Helvetica,sans-Serif" font-size="10.00">geometry</text>
</a>
</g>
</g>
<!-- dir_acf00e334e15b5968de8a1eaec9b322b -->
<g id="node7" class="node"><title>dir_acf00e334e15b5968de8a1eaec9b322b</title>
<g id="a_node7"><a xlink:href="dir_acf00e334e15b5968de8a1eaec9b322b.html" target="_top" xlink:title="str">
<polygon fill="white" stroke="black" points="78,-132 24,-132 24,-96 78,-96 78,-132"/>
<text text-anchor="middle" x="51" y="-111.5" font-family="Helvetica,sans-Serif" font-size="10.00">str</text>
</a>
</g>
</g>
<!-- dir_acf00e334e15b5968de8a1eaec9b322b&#45;&gt;dir_443ff2b7df7bac1be505d90796e33be1 -->
<g id="edge2" class="edge"><title>dir_acf00e334e15b5968de8a1eaec9b322b&#45;&gt;dir_443ff2b7df7bac1be505d90796e33be1</title>
<path fill="none" stroke="black" d="M78.0663,-96.2333C93.0511,-86.9507 111.868,-75.2941 128.071,-65.2568"/>
<polygon fill="black" stroke="black" points="130.105,-68.1141 136.763,-59.8725 126.419,-62.1634 130.105,-68.1141"/>
<g id="a_edge2&#45;headlabel"><a xlink:href="dir_000007_000002.html" target="_top" xlink:title="1">
<text text-anchor="middle" x="128.544" y="-69.9207" font-family="Helvetica,sans-Serif" font-size="10.00">1</text>
</a>
</g>
</g>
</g>
</svg>
