<?xml version="1.0" encoding="UTF-8" standalone="no"?>
<!DOCTYPE svg PUBLIC "-//W3C//DTD SVG 1.1//EN"
 "http://www.w3.org/Graphics/SVG/1.1/DTD/svg11.dtd">
<!-- Generated by graphviz version 2.38.0 (20140413.2041)
 -->
<!-- Title: Graphical Class Hierarchy Pages: 1 -->
<svg width="232pt" height="186pt"
 viewBox="0.00 0.00 232.00 186.00" xmlns="http://www.w3.org/2000/svg" xmlns:xlink="http://www.w3.org/1999/xlink">
<g id="graph0" class="graph" transform="scale(1 1) rotate(0) translate(4 182)">
<title>Graphical Class Hierarchy</title>
<polygon fill="white" stroke="none" points="-4,4 -4,-182 228,-182 228,4 -4,4"/>
<!-- Node19 -->
<g id="node1" class="node"><title>Node19</title>
<g id="a_node1"><a xlink:title=" ">
<polygon fill="white" stroke="#bfbfbf" points="0,-79 0,-98 57,-98 57,-79 0,-79"/>
<text text-anchor="middle" x="28.5" y="-86" font-family="Helvetica,sans-Serif" font-size="10.00">true_type</text>
</a>
</g>
</g>
<!-- Node0 -->
<g id="node2" class="node"><title>Node0</title>
<g id="a_node2"><a xlink:href="structutils4cpp_1_1detail_1_1__is__character_3_01char_01_4.html" target="_top" xlink:title=" ">
<polygon fill="white" stroke="black" points="102.5,-147.5 102.5,-177.5 214.5,-177.5 214.5,-147.5 102.5,-147.5"/>
<text text-anchor="start" x="110.5" y="-165.5" font-family="Helvetica,sans-Serif" font-size="10.00">utils4cpp::detail::</text>
<text text-anchor="middle" x="158.5" y="-154.5" font-family="Helvetica,sans-Serif" font-size="10.00">_is_character&lt; char &gt;</text>
</a>
</g>
</g>
<!-- Node19&#45;&gt;Node0 -->
<g id="edge1" class="edge"><title>Node19&#45;&gt;Node0</title>
<path fill="none" stroke="midnightblue" d="M47.1748,-104.884C59.3549,-115.53 76.2993,-129.123 93,-138.5 98.8341,-141.776 105.202,-144.767 111.592,-147.441"/>
<polygon fill="midnightblue" stroke="midnightblue" points="49.3504,-102.134 39.5652,-98.0715 44.6815,-107.349 49.3504,-102.134"/>
</g>
<!-- Node21 -->
<g id="node3" class="node"><title>Node21</title>
<g id="a_node3"><a xlink:href="structutils4cpp_1_1detail_1_1__is__character_3_01char16__t_01_4.html" target="_top" xlink:title=" ">
<polygon fill="white" stroke="black" points="93,-98.5 93,-128.5 224,-128.5 224,-98.5 93,-98.5"/>
<text text-anchor="start" x="101" y="-116.5" font-family="Helvetica,sans-Serif" font-size="10.00">utils4cpp::detail::</text>
<text text-anchor="middle" x="158.5" y="-105.5" font-family="Helvetica,sans-Serif" font-size="10.00">_is_character&lt; char16_t &gt;</text>
</a>
</g>
</g>
<!-- Node19&#45;&gt;Node21 -->
<g id="edge2" class="edge"><title>Node19&#45;&gt;Node21</title>
<path fill="none" stroke="midnightblue" d="M67.1028,-95.8443C75.1896,-97.4238 83.9581,-99.1364 92.7456,-100.853"/>
<polygon fill="midnightblue" stroke="midnightblue" points="67.7596,-92.4065 57.2741,-93.9246 66.4177,-99.2767 67.7596,-92.4065"/>
</g>
<!-- Node22 -->
<g id="node4" class="node"><title>Node22</title>
<g id="a_node4"><a xlink:href="structutils4cpp_1_1detail_1_1__is__character_3_01char32__t_01_4.html" target="_top" xlink:title=" ">
<polygon fill="white" stroke="black" points="93,-49.5 93,-79.5 224,-79.5 224,-49.5 93,-49.5"/>
<text text-anchor="start" x="101" y="-67.5" font-family="Helvetica,sans-Serif" font-size="10.00">utils4cpp::detail::</text>
<text text-anchor="middle" x="158.5" y="-56.5" font-family="Helvetica,sans-Serif" font-size="10.00">_is_character&lt; char32_t &gt;</text>
</a>
</g>
</g>
<!-- Node19&#45;&gt;Node22 -->
<g id="edge3" class="edge"><title>Node19&#45;&gt;Node22</title>
<path fill="none" stroke="midnightblue" d="M67.1028,-81.4495C75.1896,-79.9332 83.9581,-78.2891 92.7456,-76.6414"/>
<polygon fill="midnightblue" stroke="midnightblue" points="66.4578,-78.0093 57.2741,-83.2924 67.7479,-84.8894 66.4578,-78.0093"/>
</g>
<!-- Node23 -->
<g id="node5" class="node"><title>Node23</title>
<g id="a_node5"><a xlink:href="structutils4cpp_1_1detail_1_1__is__character_3_01wchar__t_01_4.html" target="_top" xlink:title=" ">
<polygon fill="white" stroke="black" points="95,-0.5 95,-30.5 222,-30.5 222,-0.5 95,-0.5"/>
<text text-anchor="start" x="103" y="-18.5" font-family="Helvetica,sans-Serif" font-size="10.00">utils4cpp::detail::</text>
<text text-anchor="middle" x="158.5" y="-7.5" font-family="Helvetica,sans-Serif" font-size="10.00">_is_character&lt; wchar_t &gt;</text>
</a>
</g>
</g>
<!-- Node19&#45;&gt;Node23 -->
<g id="edge4" class="edge"><title>Node19&#45;&gt;Node23</title>
<path fill="none" stroke="midnightblue" d="M48.2036,-72.1598C60.3713,-62.1026 76.9155,-49.4658 93,-40.5 99.5038,-36.8747 106.641,-33.539 113.722,-30.5653"/>
<polygon fill="midnightblue" stroke="midnightblue" points="45.9201,-69.5071 40.5386,-78.6335 50.4367,-74.855 45.9201,-69.5071"/>
</g>
</g>
</svg>
