<?xml version="1.0" encoding="UTF-8" standalone="no"?>
<!DOCTYPE svg PUBLIC "-//W3C//DTD SVG 1.1//EN"
 "http://www.w3.org/Graphics/SVG/1.1/DTD/svg11.dtd">
<!-- Generated by graphviz version 2.38.0 (20140413.2041)
 -->
<!-- Title: utils4cpp::datetime::fixedDate Pages: 1 -->
<svg width="400pt" height="235pt"
 viewBox="0.00 0.00 400.00 235.00" xmlns="http://www.w3.org/2000/svg" xmlns:xlink="http://www.w3.org/1999/xlink">
<g id="graph0" class="graph" transform="scale(1 1) rotate(0) translate(4 231)">
<title>utils4cpp::datetime::fixedDate</title>
<polygon fill="white" stroke="none" points="-4,4 -4,-231 396,-231 396,4 -4,4"/>
<!-- Node0 -->
<g id="node1" class="node"><title>Node0</title>
<g id="a_node1"><a xlink:title=" ">
<polygon fill="#bfbfbf" stroke="black" points="0,-52.5 0,-82.5 99,-82.5 99,-52.5 0,-52.5"/>
<text text-anchor="start" x="8" y="-70.5" font-family="Helvetica,sans-Serif" font-size="10.00">utils4cpp::datetime</text>
<text text-anchor="middle" x="49.5" y="-59.5" font-family="Helvetica,sans-Serif" font-size="10.00">::fixedDate</text>
</a>
</g>
</g>
<!-- Node1 -->
<g id="node2" class="node"><title>Node1</title>
<g id="a_node2"><a xlink:href="classutils4cpp_1_1datetime_1_1_date.html#afb3d315a0bb3b53ce9c397711c12d68d" target="_top" xlink:title=" ">
<polygon fill="white" stroke="black" points="146,-98.5 146,-128.5 245,-128.5 245,-98.5 146,-98.5"/>
<text text-anchor="start" x="154" y="-116.5" font-family="Helvetica,sans-Serif" font-size="10.00">utils4cpp::datetime</text>
<text text-anchor="middle" x="195.5" y="-105.5" font-family="Helvetica,sans-Serif" font-size="10.00">::Date::setDate</text>
</a>
</g>
</g>
<!-- Node0&#45;&gt;Node1 -->
<g id="edge1" class="edge"><title>Node0&#45;&gt;Node1</title>
<path fill="none" stroke="midnightblue" d="M97.651,-82.5621C110.331,-86.6128 124.184,-91.0379 137.345,-95.2421"/>
<polygon fill="midnightblue" stroke="midnightblue" points="136.652,-98.695 147.243,-98.404 138.782,-92.027 136.652,-98.695"/>
</g>
<!-- Node6 -->
<g id="node7" class="node"><title>Node6</title>
<g id="a_node7"><a xlink:href="namespaceutils4cpp_1_1datetime.html#aeb884714da4d2924c0b3b24874e3ab72" target="_top" xlink:title=" ">
<polygon fill="white" stroke="black" points="135,-58 135,-77 256,-77 256,-58 135,-58"/>
<text text-anchor="middle" x="195.5" y="-65" font-family="Helvetica,sans-Serif" font-size="10.00">utils4cpp::datetime::min</text>
</a>
</g>
</g>
<!-- Node0&#45;&gt;Node6 -->
<g id="edge6" class="edge"><title>Node0&#45;&gt;Node6</title>
<path fill="none" stroke="midnightblue" d="M99.2518,-67.5C107.462,-67.5 116.124,-67.5 124.743,-67.5"/>
<polygon fill="midnightblue" stroke="midnightblue" points="124.812,-71.0001 134.812,-67.5 124.812,-64.0001 124.812,-71.0001"/>
</g>
<!-- Node7 -->
<g id="node8" class="node"><title>Node7</title>
<g id="a_node8"><a xlink:href="classutils4cpp_1_1datetime_1_1_date.html#a5c79c7e7e39bde768be4195e37925634" target="_top" xlink:title=" ">
<polygon fill="white" stroke="black" points="143.5,-3.5 143.5,-33.5 247.5,-33.5 247.5,-3.5 143.5,-3.5"/>
<text text-anchor="start" x="151.5" y="-21.5" font-family="Helvetica,sans-Serif" font-size="10.00">utils4cpp::datetime</text>
<text text-anchor="middle" x="195.5" y="-10.5" font-family="Helvetica,sans-Serif" font-size="10.00">::Date::daysInMonth</text>
</a>
</g>
</g>
<!-- Node0&#45;&gt;Node7 -->
<g id="edge7" class="edge"><title>Node0&#45;&gt;Node7</title>
<path fill="none" stroke="midnightblue" d="M94.8797,-52.3986C109.251,-47.5083 125.353,-42.0293 140.351,-36.9256"/>
<polygon fill="midnightblue" stroke="midnightblue" points="141.679,-40.1708 150.019,-33.6359 139.424,-33.5439 141.679,-40.1708"/>
</g>
<!-- Node2 -->
<g id="node3" class="node"><title>Node2</title>
<g id="a_node3"><a xlink:href="classutils4cpp_1_1datetime_1_1_date.html#ad0cae25c4251c7406f9f92abad9c8c98" target="_top" xlink:title=" ">
<polygon fill="white" stroke="black" points="292.5,-196.5 292.5,-226.5 391.5,-226.5 391.5,-196.5 292.5,-196.5"/>
<text text-anchor="start" x="300.5" y="-214.5" font-family="Helvetica,sans-Serif" font-size="10.00">utils4cpp::datetime</text>
<text text-anchor="middle" x="342" y="-203.5" font-family="Helvetica,sans-Serif" font-size="10.00">::Date::isValid</text>
</a>
</g>
</g>
<!-- Node1&#45;&gt;Node2 -->
<g id="edge2" class="edge"><title>Node1&#45;&gt;Node2</title>
<path fill="none" stroke="midnightblue" d="M213.666,-128.543C232.202,-144.361 262.985,-169.416 292,-187.5 294.181,-188.859 296.449,-190.2 298.763,-191.51"/>
<polygon fill="midnightblue" stroke="midnightblue" points="297.354,-194.727 307.817,-196.393 300.677,-188.566 297.354,-194.727"/>
</g>
<!-- Node3 -->
<g id="node4" class="node"><title>Node3</title>
<g id="a_node4"><a xlink:href="classutils4cpp_1_1datetime_1_1_date.html#abca55b8d4e17961d51b3d278eb51ba67" target="_top" xlink:title=" ">
<polygon fill="white" stroke="black" points="292,-147.5 292,-177.5 392,-177.5 392,-147.5 292,-147.5"/>
<text text-anchor="start" x="300" y="-165.5" font-family="Helvetica,sans-Serif" font-size="10.00">utils4cpp::datetime</text>
<text text-anchor="middle" x="342" y="-154.5" font-family="Helvetica,sans-Serif" font-size="10.00">::Date::dayOfWeek</text>
</a>
</g>
</g>
<!-- Node1&#45;&gt;Node3 -->
<g id="edge3" class="edge"><title>Node1&#45;&gt;Node3</title>
<path fill="none" stroke="midnightblue" d="M241.034,-128.601C255.455,-133.492 271.613,-138.971 286.663,-144.074"/>
<polygon fill="midnightblue" stroke="midnightblue" points="285.77,-147.467 296.364,-147.364 288.018,-140.838 285.77,-147.467"/>
</g>
<!-- Node4 -->
<g id="node5" class="node"><title>Node4</title>
<g id="a_node5"><a xlink:href="classutils4cpp_1_1datetime_1_1_date.html#abc56f5900432bcfd6a3e8ddf37749e05" target="_top" xlink:title=" ">
<polygon fill="white" stroke="black" points="292.5,-98.5 292.5,-128.5 391.5,-128.5 391.5,-98.5 292.5,-98.5"/>
<text text-anchor="start" x="300.5" y="-116.5" font-family="Helvetica,sans-Serif" font-size="10.00">utils4cpp::datetime</text>
<text text-anchor="middle" x="342" y="-105.5" font-family="Helvetica,sans-Serif" font-size="10.00">::Date::dayOfYear</text>
</a>
</g>
</g>
<!-- Node1&#45;&gt;Node4 -->
<g id="edge4" class="edge"><title>Node1&#45;&gt;Node4</title>
<path fill="none" stroke="midnightblue" d="M245.018,-113.5C256.933,-113.5 269.815,-113.5 282.157,-113.5"/>
<polygon fill="midnightblue" stroke="midnightblue" points="282.364,-117 292.364,-113.5 282.364,-110 282.364,-117"/>
</g>
<!-- Node5 -->
<g id="node6" class="node"><title>Node5</title>
<g id="a_node6"><a xlink:href="classutils4cpp_1_1datetime_1_1_date.html#a7ad811c3a7a148eb9612b5f1dad9016c" target="_top" xlink:title=" ">
<polygon fill="white" stroke="black" points="292.5,-49.5 292.5,-79.5 391.5,-79.5 391.5,-49.5 292.5,-49.5"/>
<text text-anchor="start" x="300.5" y="-67.5" font-family="Helvetica,sans-Serif" font-size="10.00">utils4cpp::datetime</text>
<text text-anchor="middle" x="342" y="-56.5" font-family="Helvetica,sans-Serif" font-size="10.00">::Date::dst</text>
</a>
</g>
</g>
<!-- Node1&#45;&gt;Node5 -->
<g id="edge5" class="edge"><title>Node1&#45;&gt;Node5</title>
<path fill="none" stroke="midnightblue" d="M241.034,-98.3986C255.455,-93.5083 271.613,-88.0293 286.663,-82.9256"/>
<polygon fill="midnightblue" stroke="midnightblue" points="288.018,-86.162 296.364,-79.6359 285.77,-79.5328 288.018,-86.162"/>
</g>
<!-- Node8 -->
<g id="node9" class="node"><title>Node8</title>
<g id="a_node9"><a xlink:href="classutils4cpp_1_1datetime_1_1_date.html#a5f28dec3dfa55c7729c2753b9c834fd0" target="_top" xlink:title=" ">
<polygon fill="white" stroke="black" points="292.5,-0.5 292.5,-30.5 391.5,-30.5 391.5,-0.5 292.5,-0.5"/>
<text text-anchor="start" x="300.5" y="-18.5" font-family="Helvetica,sans-Serif" font-size="10.00">utils4cpp::datetime</text>
<text text-anchor="middle" x="342" y="-7.5" font-family="Helvetica,sans-Serif" font-size="10.00">::Date::isLeapYear</text>
</a>
</g>
</g>
<!-- Node7&#45;&gt;Node8 -->
<g id="edge8" class="edge"><title>Node7&#45;&gt;Node8</title>
<path fill="none" stroke="midnightblue" d="M247.852,-17.4339C258.907,-17.2043 270.677,-16.96 281.997,-16.725"/>
<polygon fill="midnightblue" stroke="midnightblue" points="282.308,-20.2194 292.233,-16.5125 282.163,-13.2209 282.308,-20.2194"/>
</g>
</g>
</svg>
