<?xml version="1.0" encoding="UTF-8" standalone="no"?>
<!DOCTYPE svg PUBLIC "-//W3C//DTD SVG 1.1//EN"
 "http://www.w3.org/Graphics/SVG/1.1/DTD/svg11.dtd">
<!-- Generated by graphviz version 2.38.0 (20140413.2041)
 -->
<!-- Title: utils4cpp::datetime::min Pages: 1 -->
<svg width="399pt" height="88pt"
 viewBox="0.00 0.00 399.00 88.00" xmlns="http://www.w3.org/2000/svg" xmlns:xlink="http://www.w3.org/1999/xlink">
<g id="graph0" class="graph" transform="scale(1 1) rotate(0) translate(4 84)">
<title>utils4cpp::datetime::min</title>
<polygon fill="white" stroke="none" points="-4,4 -4,-84 395,-84 395,4 -4,4"/>
<!-- Node36 -->
<g id="node1" class="node"><title>Node36</title>
<g id="a_node1"><a xlink:title=" ">
<polygon fill="#bfbfbf" stroke="black" points="270,-30 270,-49 391,-49 391,-30 270,-30"/>
<text text-anchor="middle" x="330.5" y="-37" font-family="Helvetica,sans-Serif" font-size="10.00">utils4cpp::datetime::min</text>
</a>
</g>
</g>
<!-- Node37 -->
<g id="node2" class="node"><title>Node37</title>
<g id="a_node2"><a xlink:href="namespaceutils4cpp_1_1datetime.html#ad6bfa1adb60166da25262287ffce1043" target="_top" xlink:title=" ">
<polygon fill="white" stroke="black" points="135,-24.5 135,-54.5 234,-54.5 234,-24.5 135,-24.5"/>
<text text-anchor="start" x="143" y="-42.5" font-family="Helvetica,sans-Serif" font-size="10.00">utils4cpp::datetime</text>
<text text-anchor="middle" x="184.5" y="-31.5" font-family="Helvetica,sans-Serif" font-size="10.00">::fixedDate</text>
</a>
</g>
</g>
<!-- Node36&#45;&gt;Node37 -->
<g id="edge1" class="edge"><title>Node36&#45;&gt;Node37</title>
<path fill="none" stroke="midnightblue" d="M259.416,-39.5C250.96,-39.5 242.469,-39.5 234.409,-39.5"/>
<polygon fill="midnightblue" stroke="midnightblue" points="259.682,-43.0001 269.682,-39.5 259.682,-36.0001 259.682,-43.0001"/>
</g>
<!-- Node38 -->
<g id="node3" class="node"><title>Node38</title>
<g id="a_node3"><a xlink:href="classutils4cpp_1_1datetime_1_1_date.html#aebce900093689b957298d9c7a4be6fb4" target="_top" xlink:title=" ">
<polygon fill="white" stroke="black" points="0,-49.5 0,-79.5 99,-79.5 99,-49.5 0,-49.5"/>
<text text-anchor="start" x="8" y="-67.5" font-family="Helvetica,sans-Serif" font-size="10.00">utils4cpp::datetime</text>
<text text-anchor="middle" x="49.5" y="-56.5" font-family="Helvetica,sans-Serif" font-size="10.00">::Date::addMonths</text>
</a>
</g>
</g>
<!-- Node37&#45;&gt;Node38 -->
<g id="edge2" class="edge"><title>Node37&#45;&gt;Node38</title>
<path fill="none" stroke="midnightblue" d="M124.824,-50.5294C116.287,-52.134 107.576,-53.7715 99.2632,-55.334"/>
<polygon fill="midnightblue" stroke="midnightblue" points="125.55,-53.9543 134.731,-48.6671 124.256,-47.0748 125.55,-53.9543"/>
</g>
<!-- Node39 -->
<g id="node4" class="node"><title>Node39</title>
<g id="a_node4"><a xlink:href="classutils4cpp_1_1datetime_1_1_date.html#a1d7ec19546b2843d211db88754de5c2f" target="_top" xlink:title=" ">
<polygon fill="white" stroke="black" points="0,-0.5 0,-30.5 99,-30.5 99,-0.5 0,-0.5"/>
<text text-anchor="start" x="8" y="-18.5" font-family="Helvetica,sans-Serif" font-size="10.00">utils4cpp::datetime</text>
<text text-anchor="middle" x="49.5" y="-7.5" font-family="Helvetica,sans-Serif" font-size="10.00">::Date::addYears</text>
</a>
</g>
</g>
<!-- Node37&#45;&gt;Node39 -->
<g id="edge3" class="edge"><title>Node37&#45;&gt;Node39</title>
<path fill="none" stroke="midnightblue" d="M124.824,-28.9118C116.287,-27.3713 107.576,-25.7994 99.2632,-24.2994"/>
<polygon fill="midnightblue" stroke="midnightblue" points="124.268,-32.368 134.731,-30.6996 125.511,-25.4793 124.268,-32.368"/>
</g>
</g>
</svg>
