<?xml version="1.0" encoding="UTF-8" standalone="no"?>
<!DOCTYPE svg PUBLIC "-//W3C//DTD SVG 1.1//EN"
 "http://www.w3.org/Graphics/SVG/1.1/DTD/svg11.dtd">
<!-- Generated by graphviz version 2.38.0 (20140413.2041)
 -->
<!-- Title: utils4cpp::datetime::floordiv Pages: 1 -->
<svg width="545pt" height="186pt"
 viewBox="0.00 0.00 545.00 186.00" xmlns="http://www.w3.org/2000/svg" xmlns:xlink="http://www.w3.org/1999/xlink">
<g id="graph0" class="graph" transform="scale(1 1) rotate(0) translate(4 182)">
<title>utils4cpp::datetime::floordiv</title>
<polygon fill="white" stroke="none" points="-4,4 -4,-182 541,-182 541,4 -4,4"/>
<!-- Node13 -->
<g id="node1" class="node"><title>Node13</title>
<g id="a_node1"><a xlink:title=" ">
<polygon fill="#bfbfbf" stroke="black" points="438,-44.5 438,-74.5 537,-74.5 537,-44.5 438,-44.5"/>
<text text-anchor="start" x="446" y="-62.5" font-family="Helvetica,sans-Serif" font-size="10.00">utils4cpp::datetime</text>
<text text-anchor="middle" x="487.5" y="-51.5" font-family="Helvetica,sans-Serif" font-size="10.00">::floordiv</text>
</a>
</g>
</g>
<!-- Node14 -->
<g id="node2" class="node"><title>Node14</title>
<g id="a_node2"><a xlink:href="namespaceutils4cpp_1_1datetime.html#afae7c83e5102fe9efcd6932f546d0a1c" target="_top" xlink:title=" ">
<polygon fill="white" stroke="black" points="289,-93.5 289,-123.5 394,-123.5 394,-93.5 289,-93.5"/>
<text text-anchor="start" x="297" y="-111.5" font-family="Helvetica,sans-Serif" font-size="10.00">utils4cpp::datetime</text>
<text text-anchor="middle" x="341.5" y="-100.5" font-family="Helvetica,sans-Serif" font-size="10.00">::julianDayFromDate</text>
</a>
</g>
</g>
<!-- Node13&#45;&gt;Node14 -->
<g id="edge1" class="edge"><title>Node13&#45;&gt;Node14</title>
<path fill="none" stroke="midnightblue" d="M432.457,-77.8896C417.464,-82.9916 401.36,-88.4711 386.981,-93.3641"/>
<polygon fill="midnightblue" stroke="midnightblue" points="433.781,-81.1363 442.12,-74.6014 431.526,-74.5095 433.781,-81.1363"/>
</g>
<!-- Node20 -->
<g id="node8" class="node"><title>Node20</title>
<g id="a_node8"><a xlink:href="namespaceutils4cpp_1_1datetime.html#a22f3828f21a525eaba3a17ee2eb72772" target="_top" xlink:title=" ">
<polygon fill="white" stroke="black" points="281,-44.5 281,-74.5 402,-74.5 402,-44.5 281,-44.5"/>
<text text-anchor="start" x="289" y="-62.5" font-family="Helvetica,sans-Serif" font-size="10.00">utils4cpp::datetime</text>
<text text-anchor="middle" x="341.5" y="-51.5" font-family="Helvetica,sans-Serif" font-size="10.00">::getDateFromJulianDay</text>
</a>
</g>
</g>
<!-- Node13&#45;&gt;Node20 -->
<g id="edge7" class="edge"><title>Node13&#45;&gt;Node20</title>
<path fill="none" stroke="midnightblue" d="M427.655,-59.5C419.254,-59.5 410.605,-59.5 402.188,-59.5"/>
<polygon fill="midnightblue" stroke="midnightblue" points="427.748,-63.0001 437.748,-59.5 427.748,-56.0001 427.748,-63.0001"/>
</g>
<!-- Node21 -->
<g id="node9" class="node"><title>Node21</title>
<g id="a_node9"><a xlink:href="classutils4cpp_1_1datetime_1_1_date.html#acac72a9fc8b7266baec4080bf4d3f94f" target="_top" xlink:title=" ">
<polygon fill="white" stroke="black" points="135,-0.5 135,-30.5 245,-30.5 245,-0.5 135,-0.5"/>
<text text-anchor="start" x="143" y="-18.5" font-family="Helvetica,sans-Serif" font-size="10.00">utils4cpp::datetime</text>
<text text-anchor="middle" x="190" y="-7.5" font-family="Helvetica,sans-Serif" font-size="10.00">::Date::fromJulianDay</text>
</a>
</g>
</g>
<!-- Node13&#45;&gt;Node21 -->
<g id="edge8" class="edge"><title>Node13&#45;&gt;Node21</title>
<path fill="none" stroke="midnightblue" d="M432.002,-41.6638C422.102,-38.9151 411.805,-36.3728 402,-34.5 349.254,-24.4255 288.043,-19.6624 245.177,-17.4291"/>
<polygon fill="midnightblue" stroke="midnightblue" points="431.159,-45.0633 441.737,-44.4643 433.094,-38.3361 431.159,-45.0633"/>
</g>
<!-- Node15 -->
<g id="node3" class="node"><title>Node15</title>
<g id="a_node3"><a xlink:href="classutils4cpp_1_1datetime_1_1_date.html#aaf8d0cad9acdbdcb8d50e6d24c437357" target="_top" xlink:title=" ">
<polygon fill="white" stroke="black" points="140.5,-93.5 140.5,-123.5 239.5,-123.5 239.5,-93.5 140.5,-93.5"/>
<text text-anchor="start" x="148.5" y="-111.5" font-family="Helvetica,sans-Serif" font-size="10.00">utils4cpp::datetime</text>
<text text-anchor="middle" x="190" y="-100.5" font-family="Helvetica,sans-Serif" font-size="10.00">::Date::toJulianDay</text>
</a>
</g>
</g>
<!-- Node14&#45;&gt;Node15 -->
<g id="edge2" class="edge"><title>Node14&#45;&gt;Node15</title>
<path fill="none" stroke="midnightblue" d="M278.426,-108.5C265.524,-108.5 252.103,-108.5 239.761,-108.5"/>
<polygon fill="midnightblue" stroke="midnightblue" points="278.632,-112 288.632,-108.5 278.632,-105 278.632,-112"/>
</g>
<!-- Node16 -->
<g id="node4" class="node"><title>Node16</title>
<g id="a_node4"><a xlink:href="classutils4cpp_1_1datetime_1_1_date.html#a21facc134692270a524404a140b57a41" target="_top" xlink:title=" ">
<polygon fill="white" stroke="black" points="0,-147.5 0,-177.5 99,-177.5 99,-147.5 0,-147.5"/>
<text text-anchor="start" x="8" y="-165.5" font-family="Helvetica,sans-Serif" font-size="10.00">utils4cpp::datetime</text>
<text text-anchor="middle" x="49.5" y="-154.5" font-family="Helvetica,sans-Serif" font-size="10.00">::Date::daysTo</text>
</a>
</g>
</g>
<!-- Node15&#45;&gt;Node16 -->
<g id="edge3" class="edge"><title>Node15&#45;&gt;Node16</title>
<path fill="none" stroke="midnightblue" d="M140.765,-127.307C123.95,-133.863 105.309,-141.131 89.3534,-147.351"/>
<polygon fill="midnightblue" stroke="midnightblue" points="142.375,-130.436 150.42,-123.542 139.832,-123.914 142.375,-130.436"/>
</g>
<!-- Node17 -->
<g id="node5" class="node"><title>Node17</title>
<g id="a_node5"><a xlink:href="classutils4cpp_1_1datetime_1_1_date.html#a6065701386b4bd660355ab9e7a9c2ebc" target="_top" xlink:title=" ">
<polygon fill="white" stroke="black" points="0,-0.5 0,-30.5 99,-30.5 99,-0.5 0,-0.5"/>
<text text-anchor="start" x="8" y="-18.5" font-family="Helvetica,sans-Serif" font-size="10.00">utils4cpp::datetime</text>
<text text-anchor="middle" x="49.5" y="-7.5" font-family="Helvetica,sans-Serif" font-size="10.00">::Date::addDays</text>
</a>
</g>
</g>
<!-- Node15&#45;&gt;Node17 -->
<g id="edge4" class="edge"><title>Node15&#45;&gt;Node17</title>
<path fill="none" stroke="midnightblue" d="M163.444,-86.76C145.938,-72.4151 121.839,-53.7173 99,-39.5 93.9754,-36.3722 88.4865,-33.3303 83.0663,-30.5216"/>
<polygon fill="midnightblue" stroke="midnightblue" points="161.541,-89.7286 171.475,-93.4137 166.008,-84.3384 161.541,-89.7286"/>
</g>
<!-- Node18 -->
<g id="node6" class="node"><title>Node18</title>
<g id="a_node6"><a xlink:href="classutils4cpp_1_1datetime_1_1_date.html#ab463ac99a7019994a58ba67cc6cba045" target="_top" xlink:title=" ">
<polygon fill="white" stroke="black" points="0,-98.5 0,-128.5 99,-128.5 99,-98.5 0,-98.5"/>
<text text-anchor="start" x="8" y="-116.5" font-family="Helvetica,sans-Serif" font-size="10.00">utils4cpp::datetime</text>
<text text-anchor="middle" x="49.5" y="-105.5" font-family="Helvetica,sans-Serif" font-size="10.00">::Date::operator&lt;</text>
</a>
</g>
</g>
<!-- Node15&#45;&gt;Node18 -->
<g id="edge5" class="edge"><title>Node15&#45;&gt;Node18</title>
<path fill="none" stroke="midnightblue" d="M130.069,-110.627C119.832,-110.997 109.287,-111.378 99.3558,-111.736"/>
<polygon fill="midnightblue" stroke="midnightblue" points="130.303,-114.121 140.17,-110.263 130.05,-107.126 130.303,-114.121"/>
</g>
<!-- Node19 -->
<g id="node7" class="node"><title>Node19</title>
<g id="a_node7"><a xlink:href="classutils4cpp_1_1datetime_1_1_date.html#a8e99a50f8291da90cf7de66f38d57ec6" target="_top" xlink:title=" ">
<polygon fill="white" stroke="black" points="0,-49.5 0,-79.5 99,-79.5 99,-49.5 0,-49.5"/>
<text text-anchor="start" x="8" y="-67.5" font-family="Helvetica,sans-Serif" font-size="10.00">utils4cpp::datetime</text>
<text text-anchor="middle" x="49.5" y="-56.5" font-family="Helvetica,sans-Serif" font-size="10.00">::Date::operator&gt;</text>
</a>
</g>
</g>
<!-- Node15&#45;&gt;Node19 -->
<g id="edge6" class="edge"><title>Node15&#45;&gt;Node19</title>
<path fill="none" stroke="midnightblue" d="M131.959,-90.3785C120.68,-86.7956 108.956,-83.0709 98.0336,-79.6009"/>
<polygon fill="midnightblue" stroke="midnightblue" points="131.133,-93.7886 141.724,-93.4808 133.253,-87.1172 131.133,-93.7886"/>
</g>
<!-- Node21&#45;&gt;Node17 -->
<g id="edge9" class="edge"><title>Node21&#45;&gt;Node17</title>
<path fill="none" stroke="midnightblue" d="M124.423,-15.5C115.966,-15.5 107.416,-15.5 99.2797,-15.5"/>
<polygon fill="midnightblue" stroke="midnightblue" points="124.659,-19.0001 134.659,-15.5 124.659,-12.0001 124.659,-19.0001"/>
</g>
</g>
</svg>
