<?xml version="1.0" encoding="UTF-8" standalone="no"?>
<!DOCTYPE svg PUBLIC "-//W3C//DTD SVG 1.1//EN"
 "http://www.w3.org/Graphics/SVG/1.1/DTD/svg11.dtd">
<!-- Generated by graphviz version 2.38.0 (20140413.2041)
 -->
<!-- Title: utils4cpp::is_character&lt; T &gt; Pages: 1 -->
<svg width="146pt" height="182pt"
 viewBox="0.00 0.00 146.00 182.00" xmlns="http://www.w3.org/2000/svg" xmlns:xlink="http://www.w3.org/1999/xlink">
<g id="graph0" class="graph" transform="scale(1 1) rotate(0) translate(4 178)">
<title>utils4cpp::is_character&lt; T &gt;</title>
<polygon fill="white" stroke="none" points="-4,4 -4,-178 142,-178 142,4 -4,4"/>
<!-- Node0 -->
<g id="node1" class="node"><title>Node0</title>
<g id="a_node1"><a xlink:title=" ">
<polygon fill="#bfbfbf" stroke="black" points="0,-0.5 0,-57.5 138,-57.5 138,-0.5 0,-0.5"/>
<text text-anchor="middle" x="69" y="-45.5" font-family="Helvetica,sans-Serif" font-size="10.00">utils4cpp::is_character&lt; T &gt;</text>
<polyline fill="none" stroke="black" points="0,-38.5 138,-38.5 "/>
<text text-anchor="middle" x="69" y="-26.5" font-family="Helvetica,sans-Serif" font-size="10.00"> </text>
<polyline fill="none" stroke="black" points="0,-19.5 138,-19.5 "/>
<text text-anchor="middle" x="69" y="-7.5" font-family="Helvetica,sans-Serif" font-size="10.00"> </text>
</a>
</g>
</g>
<!-- Node1 -->
<g id="node2" class="node"><title>Node1</title>
<g id="a_node2"><a xlink:title=" ">
<polygon fill="white" stroke="#bfbfbf" points="12.5,-94.5 12.5,-173.5 125.5,-173.5 125.5,-94.5 12.5,-94.5"/>
<text text-anchor="start" x="20.5" y="-161.5" font-family="Helvetica,sans-Serif" font-size="10.00">detail::_is_character</text>
<text text-anchor="start" x="20.5" y="-150.5" font-family="Helvetica,sans-Serif" font-size="10.00">&lt; std::remove_cv_t&lt; T</text>
<text text-anchor="middle" x="69" y="-139.5" font-family="Helvetica,sans-Serif" font-size="10.00"> &gt; &gt;::type</text>
<polyline fill="none" stroke="#bfbfbf" points="12.5,-132.5 125.5,-132.5 "/>
<text text-anchor="middle" x="69" y="-120.5" font-family="Helvetica,sans-Serif" font-size="10.00"> </text>
<polyline fill="none" stroke="#bfbfbf" points="12.5,-113.5 125.5,-113.5 "/>
<text text-anchor="middle" x="69" y="-101.5" font-family="Helvetica,sans-Serif" font-size="10.00"> </text>
</a>
</g>
</g>
<!-- Node1&#45;&gt;Node0 -->
<g id="edge1" class="edge"><title>Node1&#45;&gt;Node0</title>
<path fill="none" stroke="midnightblue" d="M69,-84.1628C69,-75.0404 69,-65.8063 69,-57.6095"/>
<polygon fill="none" stroke="midnightblue" points="65.5001,-84.3535 69,-94.3536 72.5001,-84.3536 65.5001,-84.3535"/>
</g>
</g>
</svg>
